<svg width="697" height="450" viewBox="0 0 697 450" fill="none" xmlns="http://www.w3.org/2000/svg">
<ellipse cx="584.581" cy="112.744" rx="112.419" ry="112.744" fill="#CE1340"/>
<ellipse cx="350.944" cy="315.053" rx="125.128" ry="124.946" fill="#CE1340"/>
<ellipse cx="112.908" cy="118.602" rx="112.908" ry="112.744" fill="#CE1340"/>
<path d="M359.77 323.98C359.894 325.6 359.785 326.985 360.142 328.218C361.552 333.055 362.275 338.122 364.967 342.552C365.876 344.055 365.617 344.919 364.362 346.111C363.827 346.626 363.237 347.082 362.602 347.469C358.288 350.173 353.4 351.831 348.329 352.312C346.839 352.35 345.349 352.25 343.878 352.012C342.052 351.829 340.992 350.771 340.339 349.06C337.878 342.505 335.161 336.052 332.834 329.453C331.702 326.245 331.127 322.833 330.453 319.481C330.045 317.102 330.174 314.663 330.831 312.341C332.603 310.911 334.784 310.35 336.868 309.603C340.813 308.211 344.536 306.256 347.922 303.799C349.519 302.646 350.777 301.198 351.185 299.157C351.403 298.288 351.374 297.375 351.102 296.522C350.829 295.668 350.324 294.907 349.643 294.324C345.612 290.668 341.435 290.209 337.081 293.428C330.779 298.081 326.901 304.181 326.521 312.221C326.34 316.066 325.503 316.918 321.855 317.261C320.968 317.392 320.067 317.384 319.182 317.24C314.822 316.262 310.469 315.247 306.138 314.141C304.731 313.785 304.065 312.751 303.862 311.205C303.537 308.688 303.753 306.131 304.495 303.704C306.903 295.703 310.559 288.132 315.329 281.269C318.014 277.354 321.862 274.803 325.744 272.283C330.547 269.164 335.632 266.944 341.424 266.148C347.058 265.298 352.817 266.24 357.886 268.839C361.074 270.456 364.174 272.256 367.228 274.123C371.28 276.662 374.685 280.106 377.174 284.185C383.486 294.108 382.68 303.83 377.056 313.666C375.006 317.244 371.868 319.33 368.201 320.808C365.588 321.863 362.92 322.801 359.77 323.98ZM360.045 343.428C359.833 342.507 359.646 341.506 359.368 340.527C358.515 337.514 357.559 334.539 356.784 331.496C356.121 328.901 355.682 326.249 355.101 323.634C354.762 322.095 355.378 321.009 356.625 320.287C357.388 319.823 358.196 319.438 359.037 319.139C361.575 318.256 364.118 317.399 366.681 316.611C368.413 316.153 369.991 315.242 371.253 313.972C375.383 309.505 377.825 304.292 377.185 298.155C376.642 292.916 374.867 288.026 371.17 284C369.091 281.658 366.67 279.643 363.987 278.024C361.277 276.45 358.643 274.737 355.858 273.291C351.544 271.074 346.98 269.911 342.02 270.507C333.085 271.552 325.778 275.825 319.572 282.214C318.981 282.886 318.448 283.606 317.977 284.366C313.818 290.444 310.863 297.11 308.522 304.046C307.919 305.832 307.217 307.711 307.88 309.64C312.409 311.787 317.341 312.952 322.352 313.06L323.127 308.798C323.747 305.411 324.486 302.047 326.475 299.164C329.384 294.942 332.963 291.259 337.412 288.783C343.62 285.348 349.918 286.773 354.605 293.228C355.556 294.588 356.023 296.229 355.93 297.886C355.814 301.339 354.613 304.2 351.806 306.411C348.778 308.839 345.376 310.759 341.732 312.098C339.532 312.922 337.22 313.52 335.329 314.734C334.497 317.822 335.309 320.607 336.166 323.307C338.263 329.959 340.484 336.57 342.699 343.183C343.107 344.209 343.572 345.21 344.093 346.183C350.542 347.879 354.849 347.128 360.045 343.428Z" fill="#CE1340"/>
<path d="M367.035 383.59C364.262 384.748 361.195 385.005 358.268 384.324C355.34 383.643 352.702 382.059 350.727 379.797C349.487 378.499 348.592 376.911 348.125 375.178C347.009 370.414 347.24 365.828 349.454 361.279C351.492 357.078 354.612 355.06 359.179 354.589C362.184 354.281 365.09 353.948 367.97 355.159C372.227 356.942 375.226 359.774 376.089 364.489C376.225 365.221 376.423 365.941 376.564 366.671C378.123 374.752 374.764 380.708 367.035 383.59ZM366.389 379.217C367.318 378.711 368.206 378.132 369.043 377.485C372.316 374.721 373.636 368.073 371.7 364.31C371.318 363.684 370.858 363.11 370.33 362.601C366.52 358.379 361.735 358.375 356.755 359.718C355.759 360.001 354.885 360.605 354.269 361.437C352.129 364.626 351.066 368.284 351.801 372.02C353.021 378.205 359.779 381.835 366.389 379.217Z" fill="#CE1340"/>
<path d="M360.045 343.423C354.848 347.124 350.542 347.875 344.092 346.179C343.577 345.196 343.117 344.185 342.716 343.15C340.501 336.537 338.28 329.926 336.183 323.274C335.342 320.589 334.53 317.833 335.346 314.701C337.237 313.487 339.545 312.879 341.748 312.065C345.392 310.726 348.795 308.805 351.822 306.378C354.621 304.142 355.831 301.306 355.947 297.853C356.04 296.195 355.573 294.555 354.621 293.195C349.917 286.769 343.613 285.324 337.412 288.778C332.933 291.265 329.384 294.938 326.48 299.174C324.487 302.059 323.752 305.421 323.133 308.808L322.357 313.07C317.343 312.958 312.409 311.788 307.88 309.635C307.217 307.706 307.919 305.827 308.522 304.041C310.863 297.105 313.817 290.44 317.977 284.362C318.448 283.601 318.981 282.881 319.572 282.209C325.778 275.821 333.084 271.547 342.097 270.484C347.032 269.898 351.596 271.061 355.935 273.269C358.698 274.701 361.347 276.409 364.064 278.002C366.746 279.621 369.168 281.635 371.247 283.978C374.944 288.004 376.718 292.893 377.261 298.133C377.892 304.257 375.459 309.483 371.33 313.95C370.068 315.22 368.49 316.131 366.758 316.589C364.195 317.376 361.652 318.234 359.113 319.117C358.272 319.416 357.464 319.801 356.702 320.264C355.437 321.015 354.814 322.082 355.177 323.612C355.759 326.227 356.198 328.879 356.861 331.474C357.636 334.516 358.567 337.5 359.444 340.504C359.646 341.501 359.833 342.503 360.045 343.423Z" fill="white"/>
<path d="M366.389 379.216C359.783 381.844 353.025 378.214 351.804 372.028C351.068 368.288 352.129 364.625 354.269 361.436C354.879 360.597 355.75 359.984 356.746 359.693C361.726 358.35 366.496 358.359 370.321 362.576C370.849 363.085 371.309 363.659 371.691 364.284C373.627 368.048 372.307 374.696 369.034 377.459C368.2 378.114 367.316 378.702 366.389 379.216Z" fill="white"/>
<path fill-rule="evenodd" clip-rule="evenodd" d="M567.815 82.1044C574.744 79.4944 582.357 78.9142 589.579 80.5578C596.801 82.2015 603.438 85.8749 608.611 91.1919C613.783 96.5093 617.199 103.276 618.468 110.527C619.737 117.778 618.859 125.318 615.833 131.989C612.807 138.756 607.928 144.46 601.681 148.424C595.435 152.387 588.115 154.514 580.698 154.321C573.28 154.224 565.96 151.904 559.909 147.747C553.76 143.59 549.076 137.692 546.245 130.828C542.634 121.548 542.829 111.204 546.831 102.02C550.93 92.9321 558.445 85.7782 567.815 82.1044Z" fill="#CE1340"/>
<path fill-rule="evenodd" clip-rule="evenodd" d="M566.849 78.7335C559.364 81.8463 552.948 87.0994 548.476 93.8112C544.004 100.523 541.573 108.402 541.476 116.476C541.476 124.55 543.81 132.526 548.281 139.239C552.753 145.95 559.072 151.3 566.558 154.413C574.043 157.526 582.209 158.401 590.181 156.942C598.153 155.386 605.444 151.592 611.179 145.95C616.915 140.309 620.901 133.013 622.553 125.134C624.206 117.254 623.526 108.986 620.512 101.496C618.47 96.4377 615.457 91.8656 611.665 88.0722C607.874 84.1811 603.305 81.1656 598.347 79.0256C593.389 76.8856 588.042 75.8156 582.598 75.8156C577.251 75.6208 571.904 76.6908 566.849 78.7335ZM569.28 84.9594C575.599 82.5273 582.501 82.0411 589.014 83.5001C595.625 84.9594 601.555 88.3639 606.221 93.325C610.888 98.1884 613.998 104.414 615.165 111.029C616.332 117.643 615.554 124.55 612.832 130.678C610.11 136.904 605.638 142.156 599.999 145.756C594.361 149.452 587.653 151.3 580.946 151.203C574.238 151.106 567.627 148.966 562.086 145.172C556.544 141.379 552.267 135.931 549.739 129.705C548.087 125.523 547.309 120.951 547.406 116.476C547.504 111.904 548.476 107.43 550.323 103.344C552.17 99.1612 554.795 95.465 558.003 92.255C561.211 89.045 565.1 86.6129 569.28 84.9594Z" fill="#CE1340"/>
<path d="M567.701 82.3848C558.844 103.887 573.832 141.345 597.58 150.49" stroke="#CE1340" stroke-width="5" stroke-linecap="round" stroke-linejoin="round"/>
<path d="M567.877 82.3848C597.567 94.4718 603.817 133.054 598.739 151.039" stroke="#CE1340" stroke-width="5" stroke-linecap="round" stroke-linejoin="round"/>
<path d="M568.427 150.494C574.566 143.512 582.265 138.105 590.84 134.565C599.415 131.124 608.673 129.649 617.93 130.337" stroke="#CE1340" stroke-width="5" stroke-linecap="round" stroke-linejoin="round"/>
<path d="M595.379 82.9375C586.404 94.9439 567.87 102.497 549.726 101.528" stroke="#CE1340" stroke-width="5" stroke-linecap="round" stroke-linejoin="round"/>
<path d="M548.076 132.366C577.916 118.919 590.704 113.364 616.281 102.158" stroke="#CE1340" stroke-width="5" stroke-linecap="round" stroke-linejoin="round"/>
<path fill-rule="evenodd" clip-rule="evenodd" d="M545.485 170.911L519.474 109.126L556.241 57.1211L621.463 64.9655L647.082 127.623L604.742 172.461L545.485 171.105V170.911ZM549.103 165.779L525.635 109.9L558.881 63.0286L617.943 69.8077L641.118 126.557L602.884 167.135L549.103 165.779Z" fill="#CE1340"/>
<path fill-rule="evenodd" clip-rule="evenodd" d="M556.101 54.9258L551.927 64.6065L561.051 68.6567L565.128 58.976L556.101 54.9258Z" fill="#CE1340"/>
<path fill-rule="evenodd" clip-rule="evenodd" d="M568.427 57.2804L554.316 51.0781L548.076 65.7469L562.188 71.9491L568.427 57.2804ZM555.852 54.6225L551.724 64.2703L560.748 68.3067L564.78 58.6585L555.852 54.6225Z" fill="#CE1340"/>
<path fill-rule="evenodd" clip-rule="evenodd" d="M600.237 163.674L596.479 173.243L605.922 176.856L609.68 167.286L600.237 163.674Z" fill="#CE1340"/>
<path fill-rule="evenodd" clip-rule="evenodd" d="M612.98 165.795L598.782 160.377L593.179 174.731L607.378 180.149L612.98 165.795ZM600.23 163.799L596.463 173.115L605.929 176.632L609.696 167.316L600.23 163.799Z" fill="#CE1340"/>
<path fill-rule="evenodd" clip-rule="evenodd" d="M640.977 119.734L637.182 129.303L646.135 132.916L649.832 123.347L640.977 119.734Z" fill="#CE1340"/>
<path fill-rule="evenodd" clip-rule="evenodd" d="M653.133 121.966L639.087 116.441L633.332 130.689L647.378 136.214L653.133 121.966ZM640.648 119.931L636.844 129.429L645.818 133.015L649.524 123.517L640.648 119.931Z" fill="#CE1340"/>
<path fill-rule="evenodd" clip-rule="evenodd" d="M617.145 61.5156L613.53 71.014L622.471 74.6973L626.181 65.1989L617.145 61.5156Z" fill="#CE1340"/>
<path fill-rule="evenodd" clip-rule="evenodd" d="M629.481 63.1964L615.351 57.6719L609.68 71.9198L623.522 77.4444L629.193 63.1964H629.481ZM617.177 61.161L613.525 70.6595L622.56 74.3428L626.309 64.8443L617.177 61.161Z" fill="#CE1340"/>
<path fill-rule="evenodd" clip-rule="evenodd" d="M544.674 162.025L540.925 171.455L549.828 175.207L553.576 165.778L544.674 162.025Z" fill="#CE1340"/>
<path fill-rule="evenodd" clip-rule="evenodd" d="M557.427 164.168L543.044 158.18L537.076 172.611L551.459 178.501L557.427 164.168ZM544.512 161.91L540.598 171.531L549.893 175.36L553.807 165.739L544.512 161.91Z" fill="#CE1340"/>
<path fill-rule="evenodd" clip-rule="evenodd" d="M519.609 103.805L515.624 113.234L525.389 116.986L529.374 107.557L519.609 103.805Z" fill="#CE1340"/>
<path fill-rule="evenodd" clip-rule="evenodd" d="M532.675 106.338L518.292 100.512L512.324 114.553L526.707 120.284L532.675 106.338ZM519.76 104.046L515.846 113.407L525.435 117.132L529.348 107.771L519.76 104.046Z" fill="#CE1340"/>
<path fill-rule="evenodd" clip-rule="evenodd" d="M571.319 75.0927C578.356 72.3744 586.077 71.7921 593.407 73.3452C600.737 74.9956 607.481 78.6844 612.758 84.121C618.036 89.5572 621.457 96.3528 622.825 103.731C624.193 111.108 623.216 118.681 620.186 125.573C617.157 132.466 612.172 138.29 605.819 142.271C599.467 146.348 592.039 148.386 584.513 148.289C576.988 148.192 569.658 145.765 563.403 141.494C557.246 137.222 552.457 131.204 549.622 124.214C547.765 119.554 546.886 114.603 546.983 109.652C547.081 104.701 548.156 99.7504 550.209 95.1879C552.261 90.625 555.096 86.4507 558.711 83.0531C562.426 79.5581 566.628 76.8402 571.319 75.0927Z" fill="white"/>
<path fill-rule="evenodd" clip-rule="evenodd" d="M570.296 71.7679C562.796 74.8815 556.367 80.1357 551.789 86.8496C547.211 93.5631 544.776 101.542 544.776 109.618C544.776 117.791 547.114 125.672 551.594 132.483C556.075 139.294 562.504 144.549 570.004 147.759C577.504 150.97 585.784 151.846 593.771 150.289C601.758 148.732 609.161 144.938 614.908 139.197C620.752 133.554 624.746 126.256 626.401 118.277C628.057 110.299 627.376 102.028 624.356 94.5361C622.31 89.4765 619.291 84.9035 615.492 81.0114C611.693 77.1193 607.115 74.0057 602.05 71.9624C596.985 69.8218 591.628 68.7516 586.173 68.6543C580.719 68.7516 575.361 69.7246 570.296 71.7679ZM572.829 78.0923C579.16 75.66 586.076 75.1733 592.797 76.633C599.42 78.0923 605.46 81.4977 610.135 86.4601C614.81 91.4225 617.928 97.5524 619.194 104.266C620.363 110.98 619.583 117.888 616.856 124.115C614.128 130.343 609.648 135.597 603.901 139.294C598.154 142.992 591.531 144.84 584.712 144.743C577.894 144.646 571.27 142.505 565.718 138.613C560.166 134.721 555.783 129.272 553.25 123.045C549.938 114.483 550.133 104.947 553.835 96.4821C557.341 88.0171 564.257 81.4005 572.829 78.0923Z" fill="#CE1340"/>
<path fill-rule="evenodd" clip-rule="evenodd" d="M569.034 74.3572C564.225 85.6004 565.894 101.011 571.782 114.775C577.671 128.538 587.976 140.556 600.539 145.403C601.128 145.597 601.717 145.597 602.305 145.403C602.894 145.209 603.287 144.724 603.483 144.142C603.68 143.561 603.68 142.979 603.483 142.398C603.287 141.816 602.796 141.429 602.207 141.235C590.626 136.873 581.303 125.727 575.904 113.03C570.507 100.43 568.936 86.279 573.156 76.0051C573.353 75.4233 573.353 74.8416 573.156 74.3572C572.96 73.7755 572.469 73.3879 571.979 73.1942C571.39 73.0004 570.801 73.0004 570.212 73.1942C569.623 73.3879 569.231 73.7755 569.034 74.3572Z" fill="#CE1340"/>
<path fill-rule="evenodd" clip-rule="evenodd" d="M570.892 77.2206C577.423 80.1312 583.272 84.3999 587.951 89.7358C592.631 95.0717 596.14 101.378 598.187 108.266C602.281 119.617 603.061 131.939 600.429 143.775C600.331 144.066 600.331 144.357 600.331 144.648C600.331 144.939 600.429 145.23 600.624 145.521C600.819 145.812 601.014 146.006 601.209 146.2C601.404 146.395 601.696 146.492 601.989 146.589C602.573 146.686 603.158 146.686 603.646 146.395C604.133 146.103 604.523 145.618 604.718 145.036C607.545 132.327 606.765 119.132 602.379 106.908C600.136 99.4378 596.335 92.6464 591.266 86.8252C586.099 81.004 579.763 76.3474 572.647 73.2428C572.354 73.1458 572.062 73.0488 571.77 73.0488C571.477 73.0488 571.185 73.1458 570.892 73.2428C570.6 73.3398 570.405 73.5337 570.21 73.7277C570.015 73.922 569.82 74.213 569.722 74.407C569.625 74.6979 569.527 74.9892 569.527 75.2802C569.527 75.5711 569.625 75.8621 569.722 76.1534C569.82 76.4443 570.015 76.6383 570.21 76.8323C570.308 76.9292 570.6 77.1236 570.892 77.2206Z" fill="#CE1340"/>
<path fill-rule="evenodd" clip-rule="evenodd" d="M573.407 145.131C579.325 138.556 586.6 133.335 594.846 130.047C603.091 126.76 611.919 125.309 620.747 125.986C621.329 125.986 621.814 125.793 622.202 125.406C622.59 125.019 622.881 124.536 622.881 123.955C622.881 123.375 622.784 122.892 622.493 122.408C622.202 121.925 621.717 121.635 621.135 121.538C611.628 120.861 602.025 122.408 593.197 125.986C584.369 129.564 576.415 135.172 570.109 142.231C569.916 142.424 569.721 142.714 569.624 143.004C569.527 143.294 569.527 143.585 569.527 143.875C569.527 144.165 569.624 144.455 569.721 144.745C569.818 145.035 570.013 145.228 570.303 145.422C570.692 145.808 571.274 146.098 571.855 146.098C572.438 146.098 573.02 145.905 573.407 145.422V145.131Z" fill="#CE1340"/>
<path fill-rule="evenodd" clip-rule="evenodd" d="M596.951 74.7538C588.388 86.3322 570.483 93.7267 553.162 92.6565C552.578 92.6565 551.994 92.8514 551.605 93.2404C551.216 93.6295 550.924 94.2134 550.827 94.797C550.827 95.381 551.021 95.9649 551.41 96.354C551.8 96.743 552.384 97.0352 552.967 97.1324C571.943 98.1054 591.21 90.1269 600.551 77.4783C600.843 76.9916 600.941 76.4076 600.843 75.9213C600.746 75.3374 600.454 74.851 599.968 74.5593C599.481 74.2671 598.994 74.0726 598.411 74.1698C597.73 74.0726 597.243 74.3643 596.951 74.7538Z" fill="#CE1340"/>
<path fill-rule="evenodd" clip-rule="evenodd" d="M552.478 127.325C582.482 113.818 595.202 108.376 621.128 97.1045C621.614 96.8131 622.002 96.4242 622.196 95.8414C622.39 95.3553 622.39 94.7725 622.099 94.1893C621.905 93.7037 621.516 93.3147 620.934 93.0233C620.448 92.8291 619.866 92.7319 619.283 92.9262C593.454 104.101 580.54 109.64 550.536 123.146C550.245 123.244 550.051 123.438 549.856 123.632C549.662 123.827 549.468 124.118 549.371 124.313C549.274 124.604 549.177 124.896 549.177 125.187C549.177 125.479 549.274 125.77 549.371 126.062C549.468 126.353 549.662 126.548 549.856 126.742C550.051 126.936 550.342 127.13 550.633 127.228C550.925 127.325 551.216 127.422 551.507 127.422C551.896 127.422 552.187 127.422 552.478 127.325Z" fill="#CE1340"/>
<path fill-rule="evenodd" clip-rule="evenodd" d="M549.223 165.156L523.325 103.214L559.933 51.0781L624.874 58.3596L650.383 121.175L608.031 166.418L549.029 165.156H549.223ZM552.729 159.913L529.361 103.894L562.465 56.9035L621.174 63.6023L644.249 120.496L606.181 161.272L552.729 159.913Z" fill="#CE1340"/>
<path fill-rule="evenodd" clip-rule="evenodd" d="M559.37 48.8828L555.227 58.1763L564.284 62.0645L568.427 52.771L559.37 48.8828Z" fill="white"/>
<path fill-rule="evenodd" clip-rule="evenodd" d="M572.277 51.0761L557.784 45.0371L551.376 59.3198L565.869 65.3589L572.277 51.0761ZM559.46 48.5836L555.221 57.978L564.488 61.9081L568.728 52.5138L559.46 48.5836Z" fill="#CE1340"/>
<path fill-rule="evenodd" clip-rule="evenodd" d="M604.018 157.631L600.33 166.801L609.842 170.263L613.53 161.093L604.018 157.631Z" fill="white"/>
<path fill-rule="evenodd" clip-rule="evenodd" d="M616.831 159.327L602.632 153.785L597.029 168.564L611.228 174.107L616.831 159.327ZM604.08 157.285L600.41 166.814L609.876 170.412L613.546 160.883L604.08 157.285Z" fill="#CE1340"/>
<path fill-rule="evenodd" clip-rule="evenodd" d="M644.827 113.691L641.032 123.26L649.985 126.873L653.683 117.304L644.827 113.691Z" fill="white"/>
<path fill-rule="evenodd" clip-rule="evenodd" d="M656.983 115.921L642.937 110.396L637.182 124.644L651.228 130.169L656.983 115.921ZM644.497 113.886L640.693 123.385L649.667 126.971L653.374 117.472L644.497 113.886Z" fill="#CE1340"/>
<path fill-rule="evenodd" clip-rule="evenodd" d="M621.05 54.9258L617.38 64.4948L626.265 68.1075L630.031 58.5384L621.05 54.9258Z" fill="white"/>
<path fill-rule="evenodd" clip-rule="evenodd" d="M633.331 57.1535L619.285 51.6289L613.53 65.8769L627.576 71.4014L633.331 57.1535ZM620.845 55.118L617.139 64.6165L626.113 68.203L629.917 58.7044L620.845 55.118Z" fill="#CE1340"/>
<path fill-rule="evenodd" clip-rule="evenodd" d="M548.24 155.434L544.226 165.256L554.062 169.165L557.976 159.342L548.24 155.434Z" fill="white"/>
<path fill-rule="evenodd" clip-rule="evenodd" d="M561.277 158.001L546.894 152.139L540.925 166.501L555.308 172.46L561.277 158.001ZM548.361 155.656L544.447 165.231L554.036 169.041L557.852 159.466L548.361 155.656Z" fill="#CE1340"/>
<path fill-rule="evenodd" clip-rule="evenodd" d="M523.46 97.7637L519.474 107.124L529.239 110.945L533.225 101.584L523.46 97.7637Z" fill="white"/>
<path fill-rule="evenodd" clip-rule="evenodd" d="M536.525 99.9082L522.142 93.9199L516.174 108.352L530.557 114.242L536.525 99.9082ZM523.61 97.454L519.696 107.075L529.285 110.904L533.198 101.283L523.61 97.454Z" fill="#CE1340"/>
<path fill-rule="evenodd" clip-rule="evenodd" d="M124.045 127.137L152.358 115.408L165.496 143.928L135.574 156.079L124.045 127.137Z" fill="#CE1340"/>
<path fill-rule="evenodd" clip-rule="evenodd" d="M157.274 104.184L152.357 115.406L165.581 144.095L169.735 132.366L157.274 104.184Z" fill="#CE1340"/>
<path fill-rule="evenodd" clip-rule="evenodd" d="M127.69 125.786L152.358 115.407L157.274 103.848L130.573 114.732L127.69 125.786Z" fill="#CE1340" stroke="#CE1340" stroke-width="23.2338" stroke-linecap="round" stroke-linejoin="round"/>
<path fill-rule="evenodd" clip-rule="evenodd" d="M93.3594 170.843C96.8348 183.246 101.667 189.659 115.653 184.343L107.346 164.768L93.3594 170.843Z" fill="#CE1340"/>
<path fill-rule="evenodd" clip-rule="evenodd" d="M113.874 61.4902C111.415 61.9963 109.126 62.9248 107.007 64.1903L108.025 68.9997C106.244 70.35 104.718 72.0376 103.532 73.9782L98.7002 73.3874C97.5981 75.6658 96.9199 78.1128 96.5811 80.5596L100.989 82.9223C100.904 85.2006 101.328 87.4786 102.091 89.6727L98.7002 93.1322C99.7172 95.4102 101.158 97.5199 102.854 99.3762L107.346 97.3509C109.042 98.8698 111.076 100.051 113.28 100.81L113.874 105.789C116.332 106.38 118.79 106.548 121.333 106.379L122.52 101.57C124.724 101.148 126.843 100.304 128.792 99.1228L132.946 101.739C134.895 100.22 136.591 98.3633 137.862 96.254L134.895 92.1194C135.913 90.0944 136.591 87.9007 136.761 85.6223L141.423 84.0191C141.423 81.4877 140.999 78.9566 140.151 76.5939L135.235 76.4252C134.302 74.3156 132.946 72.3749 131.335 70.7717L132.861 66.0466C130.912 64.4434 128.708 63.1778 126.334 62.2497L123.198 66.0466C120.994 65.4559 118.705 65.2872 116.416 65.5402L113.874 61.4902ZM113.874 71.6998C117.094 70.5187 120.57 70.6873 123.706 72.0376C126.843 73.3874 129.301 76.0032 130.488 79.1253C131.166 80.6442 131.505 82.3315 131.505 84.0191C131.505 85.7067 131.166 87.3943 130.572 88.9132C129.894 90.5165 128.962 91.8663 127.775 93.1322C126.588 94.3134 125.147 95.2415 123.622 95.9166C120.401 97.0978 116.84 96.9291 113.789 95.5789C110.652 94.1447 108.194 91.6133 107.007 88.4911C106.329 86.8882 105.99 85.2006 106.075 83.513C106.075 81.8254 106.414 80.1378 107.092 78.5346C107.77 76.9313 108.787 75.5814 109.974 74.3999C111.246 73.2187 112.687 72.2906 114.297 71.6998H113.874Z" fill="#CE1340"/>
<path fill-rule="evenodd" clip-rule="evenodd" d="M134.132 144.348C132.098 144.77 130.233 145.529 128.453 146.626L129.216 150.592C127.69 151.773 126.419 153.123 125.486 154.726L121.333 154.304C120.4 156.161 119.807 158.101 119.553 160.126L123.113 161.983C123.028 163.839 123.367 165.695 123.961 167.383L121.163 170.252C122.096 172.108 123.282 173.796 124.639 175.23L128.368 173.543C129.809 174.724 131.42 175.652 133.2 176.243L133.624 180.377C135.658 180.883 137.693 181.052 139.727 180.799L140.744 176.918C142.609 176.58 144.304 175.905 145.83 174.893L149.306 177.002C150.916 175.737 152.357 174.302 153.459 172.53L151.001 169.324C151.849 167.721 152.442 165.864 152.612 164.092L156.426 162.742C156.426 160.717 156.172 158.692 155.494 156.751H151.34C150.577 155.064 149.475 153.545 148.204 152.195L149.475 148.398C147.865 147.132 146.085 146.12 144.135 145.36L141.592 148.398C139.812 147.892 137.947 147.807 136.082 148.06L133.878 144.685L134.132 144.348ZM134.132 152.701C136.76 151.688 139.642 151.688 142.185 152.786C144.729 153.882 146.763 155.907 147.865 158.523C148.374 159.789 148.628 161.139 148.628 162.574C148.628 163.923 148.289 165.274 147.78 166.539C147.271 167.805 146.424 168.986 145.491 169.914C144.474 170.842 143.372 171.602 142.101 172.108C139.473 173.121 136.591 173.121 134.048 172.024C131.505 170.927 129.47 168.902 128.368 166.286C127.86 165.02 127.605 163.67 127.605 162.236C127.605 160.886 127.945 159.451 128.453 158.186C128.962 156.92 129.809 155.739 130.827 154.811C131.674 153.882 132.861 153.123 134.132 152.701Z" fill="#CE1340"/>
<path fill-rule="evenodd" clip-rule="evenodd" d="M89.46 146.795L89.714 90.5151L119.298 90.1777L132.437 103.425L132.013 145.867L89.46 146.795Z" fill="#CE1340"/>
<path fill-rule="evenodd" clip-rule="evenodd" d="M118.959 102.836V88.4922L133.37 103.005L118.959 102.836Z" fill="#CE1340" stroke="#CE1340" stroke-width="23.2338" stroke-linecap="round" stroke-linejoin="round"/>
<path fill-rule="evenodd" clip-rule="evenodd" d="M72.5073 92.541C38.6005 104.945 42.3303 154.728 83.866 162.997C83.866 162.997 89.2913 170.169 92.5123 171.013C95.7336 171.856 103.024 168.06 103.024 168.06L72.5073 92.541Z" fill="#CE1340"/>
<path fill-rule="evenodd" clip-rule="evenodd" d="M128.708 120.135L157.02 108.406L170.158 136.926L140.236 149.076L128.708 120.135Z" fill="#F2F2F2"/>
<path fill-rule="evenodd" clip-rule="evenodd" d="M128.03 118.53C127.606 118.699 127.267 119.036 127.097 119.543C126.928 119.965 126.928 120.471 127.097 120.893L138.626 149.919C138.711 150.172 138.795 150.341 138.965 150.509C139.134 150.678 139.304 150.847 139.558 150.931C139.812 151.016 139.982 151.1 140.236 151.1C140.49 151.1 140.745 151.016 140.915 150.931L170.837 138.781C171.261 138.612 171.6 138.275 171.854 137.853C172.024 137.431 172.024 136.925 171.854 136.419L158.715 107.898C158.546 107.477 158.207 107.139 157.783 106.97C157.359 106.802 156.85 106.802 156.427 106.97L128.03 118.699V118.53ZM130.997 121.061L156.003 110.599L167.701 135.912L141.169 146.713L130.912 120.977L130.997 121.061Z" fill="#CE1340"/>
<path fill-rule="evenodd" clip-rule="evenodd" d="M161.852 97.1836L157.02 108.406L170.243 137.095L174.397 125.366L161.852 97.1836Z" fill="white"/>
<path fill-rule="evenodd" clip-rule="evenodd" d="M163.546 96.3406C163.377 96.0032 163.207 95.7499 162.868 95.5812C162.614 95.4125 162.275 95.3281 161.936 95.3281C161.597 95.3281 161.258 95.4125 160.919 95.5812C160.664 95.7499 160.41 96.0876 160.24 96.3406L155.409 107.563C155.324 107.816 155.239 108.069 155.239 108.322C155.239 108.576 155.324 108.829 155.409 109.082L168.632 137.77C168.802 138.108 169.056 138.361 169.31 138.53C169.565 138.699 169.904 138.783 170.328 138.783C170.667 138.783 171.006 138.614 171.345 138.446C171.599 138.277 171.854 137.939 172.023 137.602L176.431 125.873C176.516 125.62 176.6 125.451 176.6 125.198C176.6 124.945 176.516 124.692 176.431 124.523L163.546 96.3406ZM161.936 101.488L172.701 125.367L170.073 132.455L158.969 108.322L161.936 101.488Z" fill="#CE1340"/>
<path fill-rule="evenodd" clip-rule="evenodd" d="M132.353 118.782L157.02 108.404L161.851 96.8438L135.235 107.728L132.353 118.782Z" fill="#F2F2F2"/>
<path fill-rule="evenodd" clip-rule="evenodd" d="M130.827 118.276C130.742 118.614 130.742 118.951 130.827 119.204C130.912 119.542 131.081 119.795 131.335 120.048C131.59 120.301 131.929 120.386 132.183 120.47C132.522 120.554 132.861 120.47 133.116 120.386L157.783 110.007C157.952 109.923 158.207 109.754 158.376 109.67C158.546 109.585 158.63 109.332 158.715 109.079L163.631 97.5191C163.801 97.1814 163.801 96.844 163.716 96.5066C163.631 96.1689 163.462 95.8315 163.208 95.5785C162.953 95.3251 162.614 95.1564 162.275 95.072C161.936 94.9877 161.597 95.072 161.258 95.1564L134.641 106.041C134.387 106.126 134.133 106.294 133.963 106.463C133.794 106.632 133.624 106.885 133.539 107.138L130.827 118.276ZM135.235 115.745L137.015 108.995L158.885 100.051L156.003 107.054L135.15 115.745H135.235Z" fill="#CE1340"/>
<path fill-rule="evenodd" clip-rule="evenodd" d="M100.734 166.879C103.786 177.932 108.194 183.417 120.4 178.776L113.195 161.479L100.734 166.879Z" fill="#F2F2F2"/>
<path fill-rule="evenodd" clip-rule="evenodd" d="M115.145 156.248L96.0723 164.517L97.0048 167.724C99.2936 175.824 102.515 181.224 107.685 183.249C112.347 184.684 117.433 184.346 121.841 182.236L125.571 180.802L115.145 156.248ZM100.735 166.88C103.786 177.933 108.194 183.418 120.4 178.777L113.195 161.48L100.735 166.88Z" fill="#CE1340"/>
<path fill-rule="evenodd" clip-rule="evenodd" d="M117.179 55.498C114.721 56.0041 112.432 56.9323 110.313 58.1981L111.33 63.0919C109.55 64.4421 108.024 66.1297 106.837 68.0704L102.006 67.4796C100.904 69.7579 100.226 72.1203 99.8867 74.6517L104.295 77.0144C104.21 79.2924 104.634 81.6551 105.481 83.7645L102.006 87.3084C103.108 89.5867 104.464 91.6961 106.159 93.5523L110.652 91.6117C112.432 93.1306 114.382 94.2274 116.586 94.9869L117.179 99.9654C119.637 100.556 122.096 100.725 124.638 100.556L125.825 95.7464C128.029 95.3243 130.149 94.4805 132.098 93.2993L136.252 95.9151C138.201 94.3961 139.897 92.5398 141.168 90.4305L138.201 86.2959C139.218 84.2709 139.897 82.0772 140.066 79.7989L144.728 78.1956C144.728 75.6642 144.305 73.1328 143.457 70.7704L138.54 70.6017C137.608 68.4921 136.252 66.5514 134.641 64.9482L136.167 60.2231C134.217 58.6199 132.013 57.3543 129.64 56.4262L126.504 60.2231C124.3 59.6324 122.011 59.4637 119.807 59.7167L117.094 55.5824L117.179 55.498ZM117.179 65.7076C120.4 64.5265 123.876 64.6952 127.012 66.045C130.149 67.3952 132.607 70.011 133.793 73.1328C134.472 74.6517 134.811 76.3393 134.811 78.0269C134.811 79.7145 134.472 81.4021 133.878 82.9207C133.2 84.5239 132.268 85.8741 131.081 87.1397C129.894 88.3212 128.453 89.2493 126.927 89.9241C123.706 91.1056 120.231 90.9369 117.094 89.5867C113.958 88.2365 111.5 85.6211 110.313 82.4989C109.635 80.98 109.296 79.2924 109.296 77.6048C109.296 75.9176 109.635 74.23 110.228 72.6267C110.906 71.0235 111.839 69.6736 113.025 68.4077C114.127 67.3109 115.569 66.2984 117.179 65.7076Z" fill="white"/>
<path fill-rule="evenodd" clip-rule="evenodd" d="M120.485 53.3897L119.044 51.1113L116.416 51.7021C113.534 52.2929 110.821 53.3897 108.278 54.9083L105.905 56.3428L107.007 61.6587C106.244 62.4181 105.566 63.1776 104.888 64.0214L99.5472 63.4306L98.3606 65.8776C97.0891 68.4934 96.3262 71.2778 95.987 74.1466L95.7329 76.7624L100.48 79.2937C100.565 80.3906 100.734 81.4874 100.988 82.5846L97.2584 86.3815L98.4454 88.7442C99.7168 91.4443 101.412 93.891 103.447 96.0007L105.311 97.9413L109.974 96.0851C110.906 96.6758 111.838 97.2662 112.856 97.7727L113.534 103.088L116.077 103.679C118.959 104.438 121.926 104.607 124.808 104.354L127.605 104.101L128.876 98.8695C129.894 98.5321 130.826 98.1944 131.759 97.7727L136.336 100.641L138.54 98.9538C140.829 97.0975 142.778 94.9039 144.389 92.4568L145.83 90.1785L142.609 85.7908C143.033 84.7783 143.287 83.7658 143.541 82.6689L148.543 80.897V78.1969C148.543 75.2434 148.034 72.2903 147.101 69.5059L146.254 66.9745L140.914 66.8058C140.32 65.8776 139.727 64.9495 138.964 64.0214L140.659 58.9586L138.625 57.271C136.336 55.4147 133.793 53.8958 130.996 52.7989L128.453 51.7864L125.062 55.9211C123.96 55.7521 122.943 55.6677 121.841 55.6677L120.4 53.3053L120.485 53.3897ZM117.179 55.499C114.721 56.0054 112.432 56.9336 110.313 58.1991L111.33 63.0932C109.55 64.4431 108.024 66.1307 106.837 68.0713L102.006 67.4809C100.903 69.7589 100.225 72.1216 99.8864 74.653L104.294 77.0154C104.21 79.2938 104.633 81.6565 105.481 83.7658L102.006 87.3097C103.107 89.588 104.464 91.6974 106.159 93.5537L110.652 91.613C112.432 93.1319 114.382 94.2288 116.586 94.9882L117.179 99.9663C119.637 100.557 122.095 100.726 124.638 100.557L125.825 95.7473C128.029 95.3256 130.148 94.4818 132.098 93.3006L136.251 95.9164C138.201 94.3975 139.896 92.5412 141.168 90.4318L138.201 86.2972C139.218 84.2722 139.896 82.0782 140.066 79.8002L144.728 78.1969C144.728 75.6655 144.304 73.1341 143.456 70.7714L138.54 70.6027C137.608 68.4934 136.251 66.5528 134.641 64.9495L136.166 60.2241C134.217 58.6212 132.013 57.3553 129.639 56.4272L126.503 60.2241C124.299 59.6337 122.011 59.465 119.807 59.718L117.094 55.5834L117.179 55.499ZM117.179 65.709C120.4 64.5274 123.875 64.6965 127.012 66.0463C130.148 67.3966 132.606 70.012 133.793 73.1341C134.471 74.653 134.81 76.3406 134.81 78.0282C134.81 79.7155 134.471 81.4031 133.878 82.922C133.2 84.5252 132.267 85.8751 131.08 87.141C129.894 88.3222 128.453 89.2503 126.927 89.9254C123.706 91.1066 120.23 90.9379 117.094 89.588C113.958 88.2378 111.5 85.6221 110.313 82.5003C109.634 80.9814 109.296 79.2938 109.296 77.6062C109.296 75.9186 109.634 74.231 110.228 72.6277C110.906 71.0248 111.838 69.6746 113.025 68.409C114.127 67.3119 115.568 66.2994 117.179 65.709ZM118.62 69.2528C120.909 68.409 123.367 68.4934 125.571 69.5059C127.775 70.5184 129.47 72.2903 130.318 74.5687C130.826 75.6655 131.08 76.8467 131.08 78.0282C131.08 79.2094 130.911 80.3906 130.402 81.4874C129.979 82.5846 129.301 83.5971 128.453 84.4409C127.605 85.2847 126.588 85.9595 125.486 86.3815C123.197 87.2253 120.739 87.141 118.535 86.1285C116.331 85.116 114.636 83.3441 113.788 81.0657C113.364 79.9689 113.11 78.7873 113.025 77.6062C113.025 76.425 113.279 75.2435 113.703 74.1466C114.127 73.0498 114.805 72.0373 115.653 71.1935C116.501 70.434 117.518 69.7589 118.62 69.2528Z" fill="#CE1340"/>
<path fill-rule="evenodd" clip-rule="evenodd" d="M138.286 138.695C136.252 139.117 134.302 139.877 132.607 140.973L133.37 144.939C131.844 146.036 130.573 147.471 129.64 149.074L125.487 148.652C124.639 150.508 124.046 152.449 123.792 154.474L127.352 156.33C127.267 158.187 127.606 160.043 128.199 161.731L125.402 164.515C126.25 166.371 127.437 168.059 128.878 169.493L132.522 167.89C133.963 169.071 135.574 170 137.354 170.59L137.863 174.725C139.812 175.231 141.931 175.315 143.966 175.147L144.983 171.265C146.848 170.928 148.543 170.253 150.154 169.24L153.544 171.35C155.155 170.084 156.596 168.565 157.698 166.878L155.325 163.671C156.172 161.984 156.681 160.212 156.935 158.44L160.75 157.09C160.75 155.065 160.411 153.04 159.817 151.099H155.664C154.901 149.411 153.799 147.892 152.527 146.543L153.799 142.745C152.188 141.48 150.408 140.467 148.458 139.708L145.916 142.745C144.135 142.239 142.271 142.155 140.406 142.324L138.202 138.948L138.286 138.695ZM138.286 147.049C140.914 146.036 143.796 146.036 146.339 147.217C148.882 148.314 150.917 150.424 151.934 152.955C152.443 154.221 152.697 155.571 152.697 157.005C152.697 158.355 152.443 159.705 151.849 160.971C151.341 162.237 150.493 163.418 149.561 164.346C148.543 165.274 147.441 166.034 146.085 166.54C143.457 167.553 140.575 167.553 138.032 166.371C135.489 165.274 133.455 163.165 132.438 160.634C131.929 159.368 131.675 158.018 131.675 156.583C131.675 155.233 131.929 153.799 132.522 152.533C133.031 151.268 133.879 150.086 134.896 149.158C135.913 148.23 137.1 147.471 138.286 147.049Z" fill="white"/>
<path fill-rule="evenodd" clip-rule="evenodd" d="M141.592 136.589L140.151 134.311L137.524 134.817C135.15 135.408 132.946 136.336 130.827 137.517L128.454 138.952L129.301 143.339C128.878 143.761 128.454 144.267 128.03 144.774L123.537 144.352L122.35 146.714C121.248 148.908 120.485 151.271 120.231 153.802L119.892 156.502L124.046 158.612C124.13 159.287 124.215 159.877 124.3 160.552L121.164 163.674L122.35 166.121C123.367 168.4 124.809 170.425 126.504 172.196L128.369 174.137L132.522 172.281C133.031 172.619 133.624 172.956 134.218 173.293L134.726 177.681L137.354 178.356C139.727 178.947 142.271 179.116 144.729 178.863L147.441 178.609L148.543 174.475L150.408 173.8L154.223 176.162L156.427 174.475C158.376 172.956 160.072 171.1 161.428 169.075L162.869 166.796L160.156 163.252C160.411 162.662 160.58 162.071 160.665 161.396L164.819 159.877V157.177C164.819 154.73 164.48 152.283 163.632 149.921L162.784 147.389H158.292L157.19 145.786L158.631 141.652L156.511 139.964C154.562 138.445 152.358 137.18 150.069 136.336L147.526 135.408L144.644 138.783H142.609L141.677 137.264L141.592 136.589ZM138.286 138.698C136.252 139.12 134.302 139.88 132.607 140.977L133.37 144.942C131.844 146.039 130.573 147.474 129.64 149.077L125.487 148.655C124.639 150.511 124.046 152.452 123.792 154.477L127.352 156.333C127.267 158.19 127.606 160.046 128.199 161.734L125.402 164.518C126.25 166.375 127.437 168.062 128.878 169.496L132.522 167.893C133.963 169.075 135.574 170.003 137.354 170.593L137.863 174.728C139.812 175.234 141.931 175.319 143.966 175.15L144.983 171.268C146.848 170.931 148.543 170.256 150.154 169.243L153.545 171.353C155.155 170.087 156.596 168.568 157.698 166.881L155.325 163.674C156.172 161.987 156.681 160.215 156.935 158.443L160.75 157.093C160.75 155.068 160.411 153.043 159.817 151.102H155.664C154.901 149.414 153.799 147.896 152.527 146.545L153.799 142.749C152.188 141.483 150.408 140.47 148.458 139.711L145.916 142.749C144.135 142.242 142.271 142.158 140.406 142.326L138.202 138.952L138.286 138.698ZM138.286 146.968C140.914 145.955 143.796 145.955 146.339 147.136C148.882 148.233 150.917 150.342 151.934 152.874C152.443 154.14 152.697 155.49 152.697 156.924C152.697 158.274 152.443 159.624 151.849 160.89C151.341 162.156 150.493 163.337 149.561 164.265C148.543 165.193 147.441 165.953 146.085 166.459C143.457 167.471 140.575 167.471 138.032 166.29C135.489 165.193 133.455 163.084 132.438 160.552C131.929 159.287 131.675 157.937 131.675 156.502C131.675 155.152 131.929 153.718 132.522 152.452C133.031 151.186 133.879 150.005 134.896 149.077C135.913 148.149 137.1 147.389 138.286 146.968ZM139.727 150.596C141.338 149.921 143.203 150.005 144.813 150.68C146.424 151.355 147.696 152.705 148.374 154.308C148.713 155.068 148.882 155.996 148.882 156.84C148.882 157.684 148.713 158.527 148.374 159.371C148.035 160.131 147.526 160.89 146.933 161.48C146.339 162.071 145.576 162.577 144.729 162.831C143.118 163.505 141.253 163.421 139.643 162.746C138.032 162.071 136.761 160.721 136.083 159.118C135.744 158.359 135.574 157.43 135.574 156.587C135.574 155.743 135.744 154.899 136.083 154.055C136.422 153.296 136.93 152.536 137.524 151.946C138.202 151.44 138.964 150.933 139.727 150.596Z" fill="#CE1340"/>
<path fill-rule="evenodd" clip-rule="evenodd" d="M94.1226 139.71L94.2922 83.3455L123.876 83.0078L137.015 96.2552L136.591 138.698L94.1226 139.71Z" fill="#F2F2F2"/>
<path fill-rule="evenodd" clip-rule="evenodd" d="M90.7316 79.8827L90.4775 143.335L140.066 142.154L140.49 94.8177L125.317 79.4609L90.7316 79.8827ZM94.0377 139.707L94.2918 83.3422L123.876 83.0048L137.014 96.2522L136.591 138.695L94.0377 139.707Z" fill="#CE1340"/>
<path fill-rule="evenodd" clip-rule="evenodd" d="M121.757 95.75C121.757 96.0031 121.757 96.1718 121.842 96.4251C121.926 96.6782 122.096 96.8469 122.181 97.0155C122.35 97.1846 122.52 97.3533 122.774 97.4376C123.029 97.522 123.198 97.6063 123.452 97.6063L137.947 97.8593C138.286 97.8593 138.626 97.775 138.965 97.6063C139.304 97.4376 139.473 97.0999 139.643 96.8469C139.812 96.5095 139.812 96.1717 139.727 95.8344C139.643 95.497 139.473 95.1593 139.219 94.9062L124.809 80.3089C124.554 80.0556 124.215 79.8869 123.876 79.8025C123.537 79.7182 123.198 79.8025 122.859 79.8869C122.52 80.0556 122.266 80.2242 122.096 80.562C121.926 80.815 121.757 81.1527 121.757 81.5745V95.75ZM125.402 93.9781V85.7091L133.709 93.9781H125.402Z" fill="#CE1340"/>
<path fill-rule="evenodd" clip-rule="evenodd" d="M79.9668 84.6101C46.06 97.0137 49.7898 146.797 91.3255 155.066C91.3255 155.066 96.7508 162.238 99.9717 163.082C103.193 163.926 110.483 160.129 110.483 160.129L79.9668 84.4414V84.6101Z" fill="white"/>
<path fill-rule="evenodd" clip-rule="evenodd" d="M117.942 163.081L83.2727 77.0996L77.8475 79.1246C72.677 80.9809 67.9298 83.85 63.8611 87.5626C59.7924 91.2752 56.5711 95.7472 54.3671 100.81C52.1632 105.788 50.9766 111.188 50.8918 116.673C50.807 122.158 51.9091 127.558 54.0283 132.621C56.9103 139.708 61.4875 145.952 67.4213 150.846C73.3551 155.74 80.3907 159.115 87.9347 160.634C89.3758 162.406 90.9864 164.094 92.6819 165.612C94.2925 167.131 96.2421 168.313 98.3612 168.988C100.565 169.409 102.854 169.325 105.058 168.734C107.855 167.891 110.568 166.878 113.195 165.612L117.942 163.081ZM79.9666 84.6091C46.0601 97.0127 49.7896 146.796 91.3257 155.065C91.3257 155.065 96.7506 162.237 99.9719 163.081C103.193 163.925 110.483 160.128 110.483 160.128L79.9666 84.4404V84.6091Z" fill="#CE1340"/>
</svg>
