<svg width="272" height="300" viewBox="0 0 272 300" fill="none" xmlns="http://www.w3.org/2000/svg">
<path fill-rule="evenodd" clip-rule="evenodd" d="M40.405 48.3623H117.894C119.038 48.3623 119.977 49.2942 119.977 50.4453V78.6227C119.977 79.7575 119.038 80.7057 117.894 80.7057H40.405C39.254 80.7057 38.3226 79.7575 38.3226 78.6227V50.4453C38.322 49.2942 39.2533 48.3623 40.405 48.3623ZM214.349 117.554H40.405C39.254 117.554 38.3226 116.622 38.3226 115.472V102.466C38.3226 101.315 39.254 100.384 40.405 100.384H214.349C215.493 100.384 216.433 101.315 216.433 102.466V115.472C216.433 116.622 215.493 117.554 214.349 117.554ZM119.63 187.423H147.232V180.464H119.63V187.423ZM115.811 52.5284H42.4783V76.5403H115.811V52.5284ZM42.4783 113.388H212.266V104.548H42.4783V113.388ZM72.2066 2.13327C69.0559 0.811962 64.6706 0 59.7852 0C54.8997 0 50.5053 0.811962 47.3638 2.13327C44.7727 3.21719 43.1651 4.52025 43.1651 5.77373C43.1651 6.99265 44.7225 8.2794 47.221 9.36332L47.3644 9.41419C49.3888 10.2614 51.9199 10.9044 54.7817 11.2436L57.0506 11.464C57.5841 11.4972 58.126 11.5149 58.6771 11.5318H58.7195H58.7952H58.8467H58.8799H58.9315H58.9647L59.0071 11.5481H59.0495H59.101H59.1343H59.1767H59.2191H59.2706H59.3039H59.3293H59.3554H59.3886H59.4402H59.4734H59.525H59.5582H59.5673H59.6097H59.6521H59.6945H59.7447H59.7871H59.8295H59.8797H59.9143H59.9645H60.0069H60.016H60.0493H60.1008H60.1341H60.1856H60.228H60.2437H60.2704H60.3128H60.3552H60.3969H60.4393H60.4726H60.4817H60.5241L60.5665 11.5318H60.6089H60.6513H60.6937H60.7361H60.7784H60.8632H60.8965H60.9219H60.9487H60.9819L61.5924 11.5155H61.6256C62.21 11.4809 62.778 11.447 63.3369 11.3968H63.3448C66.7915 11.0909 69.8561 10.3801 72.2105 9.41484C74.8016 8.33092 76.4014 7.02722 76.4014 5.77438C76.4014 4.53785 74.8518 3.26806 72.3455 2.18349L72.2066 2.13327ZM63.1217 15.5955C62.3261 15.6464 61.5128 15.6803 60.6917 15.6973H60.6402H60.6069H60.5554H60.5469H60.513H60.4706H60.4204H60.3858H60.3356L60.301 15.7136H60.2932H60.2508H60.2084H60.1667H60.1243H60.0819H60.0395H59.9971H59.9547H59.9123H59.87H59.8276H59.7852H59.7428H59.7004H59.658H59.6156H59.5732H59.5387H59.5308H59.4884H59.4539H59.4037H59.3691H59.3189H59.285H59.2765L59.2341 15.6973H59.1923H59.15H59.116H59.0658H59.0326H59.0234H58.981H58.9387H58.8963C58.0667 15.6803 57.2541 15.6464 56.4493 15.5955V22.8262H63.1211L63.1217 15.5955ZM121.297 2.13327C118.165 0.811962 113.763 0 108.885 0C103.992 0 99.6052 0.811962 96.4637 2.13327C93.8726 3.21719 92.2728 4.52025 92.2728 5.77373C92.2728 6.99265 93.8145 8.2794 96.3208 9.36332L96.4637 9.41419C98.488 10.2614 101.028 10.9044 103.872 11.2436L106.141 11.464C106.683 11.4972 107.225 11.5149 107.776 11.5318H107.818H107.894H107.936H107.971H107.979H108.021H108.063L108.106 11.5481H108.148H108.19H108.2H108.233H108.275H108.318H108.36H108.402H108.428H108.445H108.487H108.53H108.581H108.614H108.648H108.665H108.708H108.75H108.792H108.835H108.885H108.927H108.97H109.012H109.055H109.105H109.147H109.19H109.232H109.274H109.326H109.342H109.359H109.41H109.443H109.495H109.537H109.563H109.58H109.622L109.664 11.5318H109.707H109.749H109.782H109.792H109.834H109.876H109.952H110.004H110.02H110.037H110.079L110.68 11.5155H110.689H110.722C111.307 11.4809 111.866 11.447 112.434 11.3968H112.441C115.888 11.0909 118.953 10.3801 121.298 9.41484C123.889 8.33092 125.498 7.02722 125.498 5.77438C125.498 4.53785 123.948 3.26806 121.442 2.18349L121.297 2.13327ZM112.221 15.5955C111.425 15.6464 110.612 15.6803 109.782 15.6973H109.74H109.698H109.655H109.647H109.613H109.563H109.528H109.478H109.436L109.393 15.7136H109.351H109.308H109.266H109.224H109.181H109.139H109.089H109.054H109.012H108.969H108.919H108.884H108.834H108.8H108.757H108.715H108.673H108.631H108.588H108.546H108.504H108.461H108.419H108.376L108.334 15.6973H108.292H108.249H108.207H108.164H108.122H108.072H108.037H107.987C107.157 15.6803 106.344 15.6464 105.549 15.5955V22.8262H112.22L112.221 15.5955ZM170.397 2.13327C167.256 0.811962 162.87 0 157.976 0C153.099 0 148.697 0.811962 145.563 2.13327C142.972 3.21719 141.364 4.52025 141.364 5.77373C141.364 6.99265 142.904 8.2794 145.41 9.36332L145.562 9.41419C147.578 10.2614 150.118 10.9044 152.971 11.2436L155.241 11.464C155.773 11.4972 156.315 11.5149 156.874 11.5318H156.908H156.993H157.035H157.069H157.078H157.119H157.161L157.196 11.5481H157.246H157.281H157.298H157.331H157.365H157.416H157.458H157.5H157.517H157.542H157.584H157.626H157.668H157.71H157.745H157.753H157.804H157.838H157.889H157.931H157.973H158.023H158.066H158.108H158.15H158.192H158.2H158.242H158.284H158.326H158.368H158.41H158.427H158.453H158.494H158.546H158.579H158.631H158.655H158.664H158.715L158.749 11.5318H158.8H158.833H158.885H158.918H158.97H159.045H159.087H159.104H159.129H159.171L159.772 11.5155H159.781H159.815C160.391 11.4809 160.958 11.447 161.526 11.3968C164.981 11.0909 168.045 10.3801 170.39 9.41484C172.982 8.33092 174.582 7.02722 174.582 5.77438C174.582 4.53785 173.041 3.26806 170.535 2.18349L170.397 2.13327ZM161.313 15.5955C160.516 15.6464 159.704 15.6803 158.882 15.6973H158.84H158.79H158.755H158.738H158.705H158.67H158.62H158.578H158.536L158.485 15.7136H158.451H158.4H158.366H158.316H158.282H158.231H158.197H158.147H158.112H158.062H158.02H157.978H157.943H157.893H157.858H157.808H157.774H157.723H157.689H157.647H157.605H157.563H157.521H157.479H157.47L157.436 15.6973H157.386H157.351H157.309H157.267H157.217H157.182H157.132H157.09C156.261 15.6803 155.447 15.6464 154.643 15.5955V22.8262H161.315V15.5955H161.313ZM219.497 2.13327C216.347 0.811962 211.962 0 207.076 0C202.191 0 197.797 0.811962 194.655 2.13327C192.063 3.21719 190.463 4.52025 190.463 5.77373C190.463 6.99265 192.014 8.2794 194.51 9.36332L194.655 9.41419C196.679 10.2614 199.209 10.9044 202.072 11.2436L204.341 11.464C204.874 11.4972 205.415 11.5149 205.966 11.5318H206.008H206.084H206.135H206.169H206.219H206.254L206.296 11.5481H206.338H206.388H206.423H206.465H206.506H206.557H206.592H206.617H206.641H206.676H206.727H206.761H206.811H206.845H206.854H206.896H206.947H206.98H207.033H207.074H207.116H207.167H207.202H207.251H207.294H207.302H207.337H207.386H207.421H207.472H207.513H207.53H207.555H207.597H207.64H207.682H207.723H207.758H207.766H207.809L207.851 11.5318H207.892H207.935H207.976H208.028H208.061H208.146H208.188H208.205H208.23H208.265L208.874 11.5155H208.908C209.493 11.4809 210.06 11.447 210.619 11.3968H210.627C214.073 11.0909 217.137 10.3801 219.493 9.41484C222.084 8.33092 223.683 7.02722 223.683 5.77438C223.683 4.53785 222.134 3.26806 219.628 2.18349L219.497 2.13327ZM210.413 15.5955C209.616 15.6464 208.804 15.6803 207.982 15.6973H207.931H207.897H207.847H207.837H207.804H207.762H207.711H207.678H207.625L207.592 15.7136H207.583H207.541H207.499H207.457H207.415H207.374H207.331H207.289H207.247H207.205H207.163H207.121H207.079H207.037H206.995H206.952H206.911H206.869H206.834H206.826H206.784H206.749H206.699H206.665H206.614H206.579H206.572L206.53 15.6973H206.487H206.445H206.411H206.361H206.326H206.318H206.276H206.234H206.192C205.362 15.6803 204.548 15.6464 203.745 15.5955V22.8262H210.417V15.5955H210.413ZM24.4273 33.9524H242.434C243.577 33.9524 244.517 34.8844 244.517 36.0348V178.381C244.517 179.533 243.577 180.464 242.434 180.464H151.389V187.423H252.027V26.9923H212.555H212.496H201.659H201.599H163.455H152.507H114.355H114.305H103.467H103.407H65.2641H65.2048H54.3675H54.3082H14.8344V187.423H115.465V180.464H24.4273C23.2841 180.464 22.3449 179.532 22.3449 178.381V36.0348C22.3449 34.8837 23.2847 33.9524 24.4273 33.9524ZM40.405 131.643C39.254 131.643 38.3226 130.695 38.3226 129.561C38.3226 128.409 39.254 127.479 40.405 127.479H110.308C111.451 127.479 112.391 128.41 112.391 129.561C112.391 130.695 111.452 131.643 110.308 131.643H40.405ZM40.405 144.107C39.254 144.107 38.3226 143.158 38.3226 142.024C38.3226 140.872 39.254 139.941 40.405 139.941H204.595C205.739 139.941 206.678 140.872 206.678 142.024C206.678 143.158 205.739 144.107 204.595 144.107H40.405ZM40.405 156.57C39.254 156.57 38.3226 155.621 38.3226 154.487C38.3226 153.336 39.254 152.404 40.405 152.404H204.595C205.739 152.404 206.678 153.336 206.678 154.487C206.678 155.621 205.739 156.57 204.595 156.57H40.405ZM107.285 252.771C106.142 252.771 105.211 251.822 105.211 250.689C105.211 249.537 106.142 248.606 107.285 248.606H119.63V234.195H107.285C106.142 234.195 105.211 233.263 105.211 232.112C105.211 230.961 106.142 230.03 107.285 230.03H119.63V215.618H107.285C106.142 215.618 105.211 214.687 105.211 213.536C105.211 212.402 106.142 211.453 107.285 211.453H119.63V199.43H107.285C106.142 199.43 105.211 198.482 105.211 197.347C105.211 196.195 106.142 195.265 107.285 195.265H119.63V191.59H147.232V195.265H159.577C160.72 195.265 161.652 196.196 161.652 197.347C161.652 198.482 160.72 199.43 159.577 199.43H147.232V211.453H159.577C160.72 211.453 161.652 212.402 161.652 213.536C161.652 214.688 160.72 215.618 159.577 215.618H147.232V230.03H159.577C160.72 230.03 161.652 230.961 161.652 232.112C161.652 233.263 160.72 234.195 159.577 234.195H147.232V248.606H159.577C160.72 248.606 161.652 249.538 161.652 250.689C161.652 251.822 160.72 252.771 159.577 252.771H147.232V273.38H119.63V252.771H107.285ZM25.8752 300C24.7241 300 23.7928 299.068 23.7928 297.917C23.7928 296.766 24.7241 295.835 25.8752 295.835H195.434C196.577 295.835 197.508 296.766 197.508 297.917C197.508 299.068 196.577 300 195.434 300H25.8752ZM125.159 289.687C124.016 289.687 123.076 288.756 123.076 287.605C123.076 286.452 124.016 285.522 125.159 285.522H242.494C243.646 285.522 244.577 286.453 244.577 287.605C244.577 288.756 243.645 289.687 242.494 289.687H125.159ZM254.499 289.687C253.347 289.687 252.417 288.756 252.417 287.605C252.417 286.452 253.348 285.522 254.499 285.522H269.164C270.315 285.522 271.247 286.453 271.247 287.605C271.247 288.756 270.315 289.687 269.164 289.687H254.499ZM19.1943 290.009C18.0523 290.009 17.1112 289.06 17.1112 287.926C17.1112 286.774 18.0523 285.843 19.1943 285.843H74.7977C75.9396 285.843 76.8801 286.774 76.8801 287.926C76.8801 289.06 75.9396 290.009 74.7977 290.009H19.1943ZM263.339 134.979C263.339 133.828 264.278 132.897 265.422 132.897C266.573 132.897 267.505 133.828 267.505 134.979V202.173C267.505 203.307 266.573 204.255 265.422 204.255H219.903C218.761 204.255 217.82 203.307 217.82 202.173C217.82 201.021 218.761 200.09 219.903 200.09H263.339V134.979ZM18.3314 14.2247C19.4747 14.2247 20.4145 15.156 20.4145 16.3071C20.4145 17.4419 19.4753 18.3725 18.3314 18.3725H4.15764V72.1205C4.15764 73.2553 3.22633 74.2029 2.07458 74.2029C0.931313 74.2029 0 73.2553 0 72.1205V16.3071C0 15.1553 0.931313 14.2247 2.07458 14.2247H18.3314ZM240.352 38.1179H26.5013V176.297H117.496H149.365H240.352V38.1179Z" fill="#CE1340"/>
</svg>
