<svg width="551" height="127" viewBox="0 0 551 127" fill="none" xmlns="http://www.w3.org/2000/svg">
<rect width="551" height="127" rx="8" fill="#FFD0DB"/>
<path fill-rule="evenodd" clip-rule="evenodd" d="M196.259 69.3642C198.569 64.1609 198.21 57.6445 194.109 53.2272C188.246 46.9141 177.349 48.4757 167.387 48.5331C163.533 48.6056 159.768 50.217 157.055 52.9636C149.372 60.938 154.236 77.6671 167.387 77.91C174.819 77.9561 182.988 79.1844 188.798 76.8605C189.252 76.6797 189.691 76.4717 190.115 76.2421C188.922 75.0193 187.485 73.3787 186.551 71.7466C185.626 72.1391 184.626 72.3735 183.572 72.4064C175.305 72.5579 165.347 74.7191 160.61 69.2183C157.604 65.7281 157.77 59.9873 161.155 56.644C162.84 55.0212 165.121 54.079 167.454 54.0348C176.976 53.9802 188.821 51.8962 191.913 59.913C192.522 61.4915 192.585 63.1942 192.216 64.8189C193.091 66.2195 194.44 68.0088 196.259 69.3642ZM186.967 57.8629C184.658 63.0662 185.016 69.5826 189.118 74.0009C194.98 80.313 205.877 78.7515 215.84 78.695C219.693 78.6216 223.458 77.0101 226.171 74.2635C233.855 66.2901 228.991 49.561 215.84 49.3181C208.409 49.272 200.239 48.0436 194.429 50.3676C193.975 50.5483 193.536 50.7564 193.112 50.986C194.305 52.2087 195.742 53.8494 196.675 55.4806C197.6 55.0881 198.602 54.8546 199.655 54.8217C207.922 54.6701 217.88 52.509 222.617 58.0098C225.622 61.499 225.457 67.2407 222.071 70.5832C220.387 72.2068 218.105 73.1481 215.772 73.1924C206.251 73.2479 194.406 75.3318 191.314 67.3151C190.704 65.7357 190.642 64.0338 191.01 62.4083C190.136 61.0086 188.786 59.2183 186.967 57.8629Z" fill="#CE1340"/>
<path fill-rule="evenodd" clip-rule="evenodd" d="M365.259 69.3642C367.569 64.1609 367.21 57.6445 363.109 53.2272C357.246 46.9141 346.349 48.4757 336.387 48.5331C332.533 48.6056 328.768 50.217 326.055 52.9636C318.372 60.938 323.236 77.6671 336.387 77.91C343.819 77.9561 351.988 79.1844 357.798 76.8605C358.252 76.6797 358.691 76.4717 359.115 76.2421C357.922 75.0193 356.485 73.3787 355.551 71.7466C354.626 72.1391 353.626 72.3735 352.572 72.4064C344.305 72.5579 334.347 74.7191 329.61 69.2183C326.604 65.7281 326.77 59.9873 330.155 56.644C331.84 55.0212 334.121 54.079 336.454 54.0348C345.976 53.9802 357.821 51.8962 360.913 59.913C361.522 61.4915 361.585 63.1942 361.216 64.8189C362.091 66.2195 363.44 68.0088 365.259 69.3642ZM355.967 57.8629C353.658 63.0662 354.016 69.5826 358.118 74.0009C363.98 80.313 374.877 78.7515 384.84 78.695C388.693 78.6216 392.458 77.0101 395.171 74.2635C402.855 66.2901 397.991 49.561 384.84 49.3181C377.409 49.272 369.239 48.0436 363.429 50.3676C362.975 50.5483 362.536 50.7564 362.112 50.986C363.305 52.2087 364.742 53.8494 365.675 55.4806C366.6 55.0881 367.602 54.8546 368.655 54.8217C376.922 54.6701 386.88 52.509 391.617 58.0098C394.622 61.499 394.457 67.2407 391.071 70.5832C389.387 72.2068 387.105 73.1481 384.772 73.1924C375.251 73.2479 363.406 75.3318 360.314 67.3151C359.704 65.7357 359.642 64.0338 360.01 62.4083C359.136 61.0086 357.786 59.2183 355.967 57.8629Z" fill="#CE1340"/>
<rect x="212" y="25" width="128" height="78" rx="7" fill="white" stroke="#CE1340" stroke-width="2"/>
<rect x="221" y="33" width="110" height="28" rx="4" fill="#FFD0DB"/>
<path d="M271.768 40C272.538 38.6667 274.462 38.6667 275.232 40L280.861 49.75C281.631 51.0833 280.669 52.75 279.129 52.75H267.871C266.331 52.75 265.369 51.0833 266.139 49.75L271.768 40Z" fill="#CE1340"/>
<path d="M278.768 43C279.538 41.6667 281.462 41.6667 282.232 43L286.129 49.75C286.899 51.0833 285.937 52.75 284.397 52.75H276.603C275.063 52.75 274.101 51.0833 274.871 49.75L278.768 43Z" fill="#CE1340"/>
<line x1="221" y1="68" x2="331" y2="68" stroke="#FFD0DB" stroke-width="2"/>
<line x1="221" y1="74.5" x2="331" y2="74.5" stroke="#FFD0DB"/>
<line x1="221" y1="80.5" x2="331" y2="80.5" stroke="#FFD0DB"/>
<line x1="221" y1="86.5" x2="331" y2="86.5" stroke="#FFD0DB"/>
<line x1="221" y1="92.5" x2="331" y2="92.5" stroke="#FFD0DB"/>
<rect x="221" y="33" width="110" height="28" rx="4" fill="#FFD0DB"/>
<path d="M271.768 40C272.538 38.6667 274.462 38.6667 275.232 40L280.861 49.75C281.631 51.0833 280.669 52.75 279.129 52.75H267.871C266.331 52.75 265.369 51.0833 266.139 49.75L271.768 40Z" fill="#CE1340"/>
<path d="M278.768 43C279.538 41.6667 281.462 41.6667 282.232 43L286.129 49.75C286.899 51.0833 285.937 52.75 284.397 52.75H276.603C275.063 52.75 274.101 51.0833 274.871 49.75L278.768 43Z" fill="#CE1340"/>
<line x1="221" y1="68" x2="331" y2="68" stroke="#FFD0DB" stroke-width="2"/>
<line x1="221" y1="74.5" x2="331" y2="74.5" stroke="#FFD0DB"/>
<line x1="221" y1="80.5" x2="331" y2="80.5" stroke="#FFD0DB"/>
<line x1="221" y1="86.5" x2="331" y2="86.5" stroke="#FFD0DB"/>
<line x1="221" y1="92.5" x2="331" y2="92.5" stroke="#FFD0DB"/>
<rect x="45" y="25" width="128" height="78" rx="7" fill="white" stroke="#CE1340" stroke-width="2"/>
<rect x="379" y="25" width="128" height="78" rx="7" fill="white" stroke="#CE1340" stroke-width="2"/>
<rect x="388" y="33" width="110" height="28" rx="4" fill="#FFD0DB"/>
<path d="M438.768 40C439.538 38.6667 441.462 38.6667 442.232 40L447.861 49.75C448.631 51.0833 447.669 52.75 446.129 52.75H434.871C433.331 52.75 432.369 51.0833 433.139 49.75L438.768 40Z" fill="#CE1340"/>
<path d="M445.768 43C446.538 41.6667 448.462 41.6667 449.232 43L453.129 49.75C453.899 51.0833 452.937 52.75 451.397 52.75H443.603C442.063 52.75 441.101 51.0833 441.871 49.75L445.768 43Z" fill="#CE1340"/>
<line x1="388" y1="68" x2="498" y2="68" stroke="#FFD0DB" stroke-width="2"/>
<line x1="388" y1="74.5" x2="498" y2="74.5" stroke="#FFD0DB"/>
<line x1="388" y1="80.5" x2="498" y2="80.5" stroke="#FFD0DB"/>
<line x1="388" y1="86.5" x2="498" y2="86.5" stroke="#FFD0DB"/>
<line x1="388" y1="92.5" x2="498" y2="92.5" stroke="#FFD0DB"/>
<rect x="388" y="33" width="110" height="28" rx="4" fill="#FFD0DB"/>
<path d="M438.768 40C439.538 38.6667 441.462 38.6667 442.232 40L447.861 49.75C448.631 51.0833 447.669 52.75 446.129 52.75H434.871C433.331 52.75 432.369 51.0833 433.139 49.75L438.768 40Z" fill="#CE1340"/>
<path d="M445.768 43C446.538 41.6667 448.462 41.6667 449.232 43L453.129 49.75C453.899 51.0833 452.937 52.75 451.397 52.75H443.603C442.063 52.75 441.101 51.0833 441.871 49.75L445.768 43Z" fill="#CE1340"/>
<line x1="388" y1="68" x2="498" y2="68" stroke="#FFD0DB" stroke-width="2"/>
<line x1="388" y1="74.5" x2="498" y2="74.5" stroke="#FFD0DB"/>
<line x1="388" y1="80.5" x2="498" y2="80.5" stroke="#FFD0DB"/>
<line x1="388" y1="86.5" x2="498" y2="86.5" stroke="#FFD0DB"/>
<line x1="388" y1="92.5" x2="498" y2="92.5" stroke="#FFD0DB"/>
<rect x="54" y="33" width="110" height="28" rx="4" fill="#FFD0DB"/>
<path d="M104.768 40C105.538 38.6667 107.462 38.6667 108.232 40L113.861 49.75C114.631 51.0833 113.669 52.75 112.129 52.75H100.871C99.3312 52.75 98.369 51.0833 99.1388 49.75L104.768 40Z" fill="#CE1340"/>
<path d="M111.768 43C112.538 41.6667 114.462 41.6667 115.232 43L119.129 49.75C119.899 51.0833 118.937 52.75 117.397 52.75H109.603C108.063 52.75 107.101 51.0833 107.871 49.75L111.768 43Z" fill="#CE1340"/>
<line x1="54" y1="68" x2="164" y2="68" stroke="#FFD0DB" stroke-width="2"/>
<line x1="54" y1="74.5" x2="164" y2="74.5" stroke="#FFD0DB"/>
<line x1="54" y1="80.5" x2="164" y2="80.5" stroke="#FFD0DB"/>
<line x1="54" y1="86.5" x2="164" y2="86.5" stroke="#FFD0DB"/>
<line x1="54" y1="92.5" x2="164" y2="92.5" stroke="#FFD0DB"/>
<circle cx="109" cy="76" r="16" stroke="#CE1340" stroke-width="2"/>
<path d="M117.333 79.6103L117.977 76.0037C118.138 75.1029 117.422 74.279 116.478 74.279H111.743C111.274 74.279 110.916 73.8716 110.992 73.4231L111.598 69.8477C111.696 69.2669 111.668 68.6725 111.515 68.1028C111.389 67.6309 111.012 67.2519 110.517 67.0981L110.385 67.0569C110.085 66.9639 109.759 66.9855 109.477 67.117C109.166 67.2618 108.939 67.5257 108.855 67.8397L108.42 69.4608C108.282 69.9766 108.08 70.4745 107.821 70.945C107.441 71.6323 106.854 72.1824 106.244 72.6909L104.929 73.7869C104.558 74.096 104.364 74.5587 104.406 75.0306L105.148 83.3338C105.216 84.0953 105.874 84.68 106.664 84.68H110.912C114.094 84.68 116.809 82.5358 117.333 79.6103Z" fill="#CE1340"/>
<path opacity="0.5" fill-rule="evenodd" clip-rule="evenodd" d="M101.592 73.8014C101.923 73.7863 102.206 74.0494 102.235 74.3981L103.036 84.1897C103.088 84.8187 102.619 85.3608 102.02 85.3608C101.456 85.3608 101 84.8773 101 84.2826V74.4544C101 74.1044 101.261 73.8165 101.592 73.8014Z" fill="#CE1340"/>
<circle cx="276" cy="76" r="16" stroke="#CE1340" stroke-width="2"/>
<path d="M284.332 79.6103L284.977 76.0037C285.138 75.1029 284.422 74.279 283.478 74.279H278.743C278.273 74.279 277.916 73.8716 277.992 73.4231L278.598 69.8477C278.696 69.2669 278.668 68.6725 278.515 68.1028C278.389 67.6309 278.012 67.2519 277.517 67.0981L277.385 67.0569C277.085 66.9639 276.759 66.9855 276.477 67.117C276.166 67.2618 275.939 67.5257 275.855 67.8397L275.42 69.4608C275.282 69.9766 275.08 70.4745 274.82 70.945C274.441 71.6323 273.854 72.1824 273.244 72.6909L271.929 73.7869C271.558 74.096 271.363 74.5587 271.406 75.0306L272.148 83.3338C272.216 84.0953 272.874 84.68 273.664 84.68H277.912C281.094 84.68 283.809 82.5358 284.332 79.6103Z" fill="#CE1340"/>
<path opacity="0.5" fill-rule="evenodd" clip-rule="evenodd" d="M268.592 73.8014C268.923 73.7863 269.206 74.0494 269.235 74.3981L270.036 84.1897C270.088 84.8187 269.619 85.3608 269.02 85.3608C268.456 85.3608 268 84.8773 268 84.2826V74.4544C268 74.1044 268.261 73.8165 268.592 73.8014Z" fill="#CE1340"/>
<circle cx="443" cy="76" r="16" stroke="#CE1340" stroke-width="2"/>
<path d="M451.332 79.6103L451.977 76.0037C452.138 75.1029 451.422 74.279 450.478 74.279H445.743C445.273 74.279 444.916 73.8716 444.992 73.4231L445.598 69.8477C445.696 69.2669 445.668 68.6725 445.515 68.1028C445.389 67.6309 445.012 67.2519 444.517 67.0981L444.385 67.0569C444.085 66.9639 443.759 66.9855 443.477 67.117C443.166 67.2618 442.939 67.5257 442.855 67.8397L442.42 69.4608C442.282 69.9766 442.08 70.4745 441.82 70.945C441.441 71.6323 440.854 72.1824 440.244 72.6909L438.929 73.7869C438.558 74.096 438.363 74.5587 438.406 75.0306L439.148 83.3338C439.216 84.0953 439.874 84.68 440.664 84.68H444.912C448.094 84.68 450.809 82.5358 451.332 79.6103Z" fill="#CE1340"/>
<path opacity="0.5" fill-rule="evenodd" clip-rule="evenodd" d="M435.592 73.8014C435.923 73.7863 436.206 74.0494 436.235 74.3981L437.036 84.1897C437.088 84.8187 436.619 85.3608 436.02 85.3608C435.456 85.3608 435 84.8773 435 84.2826V74.4544C435 74.1044 435.261 73.8165 435.592 73.8014Z" fill="#CE1340"/>
</svg>
