<svg xmlns="http://www.w3.org/2000/svg" width="54" height="54" viewBox="0 0 54 54" fill="none"><g clip-path="url(#clip0_381_20)"><path d="M47.4805 35.3567C44.5129 46.432 33.1291 53.0047 22.0535 50.037C10.9779 47.0693 4.40561 35.6853 7.37323 24.61C10.3408 13.5347 21.7246 6.96206 32.8002 9.92975C43.8758 12.8974 50.4481 24.2814 47.4805 35.3567Z" fill="#CE1340" stroke="#053751" stroke-width="2"></path><mask id="path-2-inside-1_381_20" fill="white"><path d="M27.3679 20.8394L32.3637 22.178L33.1929 19.0833C33.4636 18.0733 33.3237 17.1375 32.7714 16.2755C32.2248 15.3919 31.4147 14.8063 30.34 14.5184C29.2871 14.2362 28.3134 14.3439 27.4199 14.8416C26.5265 15.3392 25.9473 16.0824 25.6825 17.0709C25.5385 17.6082 25.4573 18.1277 25.438 18.6293C25.4404 19.1366 25.5731 19.5868 25.8362 19.9798C26.1268 20.3571 26.637 20.6436 27.3679 20.8394ZM15.0164 36.1177C17.6601 36.8261 19.8718 37.3382 21.6526 37.654C23.4343 37.9702 24.7552 38.0248 25.6171 37.818C26.4781 37.6111 27.0359 37.2077 27.2886 36.6075L24.5158 35.8645C21.6815 35.0129 19.2567 33.6607 17.2417 31.8079C15.2435 29.9826 13.8484 27.7546 13.0563 25.1239C12.2691 22.4713 12.3078 19.5335 13.1715 16.3099C14.1332 12.7209 15.4331 9.89065 17.0714 7.81905C18.736 5.73143 20.548 4.21302 22.5063 3.26357C24.4714 2.29291 26.4207 1.76722 28.3532 1.68614C30.2925 1.58386 32.025 1.73718 33.5507 2.146C38.1712 3.38407 41.6703 6.18738 44.047 10.5556C46.2182 14.9148 46.6075 19.6949 45.2139 24.8956L41.9835 36.9518C41.1614 39.9332 40.033 42.3833 38.5973 44.302C37.1785 46.2481 35.6252 47.7898 33.9376 48.9269C32.2726 50.0701 30.6492 50.971 29.0676 51.6298C28.1505 51.9595 26.9368 52.2339 25.427 52.4511C23.9331 52.6959 21.8888 52.6781 19.2923 52.3962C17.0293 52.1582 14.1681 51.5763 10.7078 50.6492L7.19439 49.7077L11.1159 35.0726L15.0164 36.1177Z"></path></mask><path d="M27.3679 20.8394L32.3637 22.178L33.1929 19.0833C33.4636 18.0733 33.3237 17.1375 32.7714 16.2755C32.2248 15.3919 31.4147 14.8063 30.34 14.5184C29.2871 14.2362 28.3134 14.3439 27.4199 14.8416C26.5265 15.3392 25.9473 16.0824 25.6825 17.0709C25.5385 17.6082 25.4573 18.1277 25.438 18.6293C25.4404 19.1366 25.5731 19.5868 25.8362 19.9798C26.1268 20.3571 26.637 20.6436 27.3679 20.8394ZM15.0164 36.1177C17.6601 36.8261 19.8718 37.3382 21.6526 37.654C23.4343 37.9702 24.7552 38.0248 25.6171 37.818C26.4781 37.6111 27.0359 37.2077 27.2886 36.6075L24.5158 35.8645C21.6815 35.0129 19.2567 33.6607 17.2417 31.8079C15.2435 29.9826 13.8484 27.7546 13.0563 25.1239C12.2691 22.4713 12.3078 19.5335 13.1715 16.3099C14.1332 12.7209 15.4331 9.89065 17.0714 7.81905C18.736 5.73143 20.548 4.21302 22.5063 3.26357C24.4714 2.29291 26.4207 1.76722 28.3532 1.68614C30.2925 1.58386 32.025 1.73718 33.5507 2.146C38.1712 3.38407 41.6703 6.18738 44.047 10.5556C46.2182 14.9148 46.6075 19.6949 45.2139 24.8956L41.9835 36.9518C41.1614 39.9332 40.033 42.3833 38.5973 44.302C37.1785 46.2481 35.6252 47.7898 33.9376 48.9269C32.2726 50.0701 30.6492 50.971 29.0676 51.6298C28.1505 51.9595 26.9368 52.2339 25.427 52.4511C23.9331 52.6959 21.8888 52.6781 19.2923 52.3962C17.0293 52.1582 14.1681 51.5763 10.7078 50.6492L7.19439 49.7077L11.1159 35.0726L15.0164 36.1177Z" fill="white" stroke="#053751" stroke-width="4" mask="url(#path-2-inside-1_381_20)"></path></g><defs><clipPath id="clip0_381_20"><rect width="54" height="54" fill="white"></rect></clipPath></defs></svg>