<svg width="583" height="224" viewBox="0 0 583 224" fill="none" xmlns="http://www.w3.org/2000/svg">
<rect x="1" y="1" width="581" height="222" rx="15" fill="white" stroke="#053751" stroke-width="2"/>
<path d="M256 110C254.895 110 254 110.895 254 112C254 113.105 254.895 114 256 114L256 110ZM438.414 113.414C439.195 112.633 439.195 111.367 438.414 110.586L425.686 97.8579C424.905 97.0768 423.639 97.0768 422.858 97.8579C422.077 98.6389 422.077 99.9053 422.858 100.686L434.172 112L422.858 123.314C422.077 124.095 422.077 125.361 422.858 126.142C423.639 126.923 424.905 126.923 425.686 126.142L438.414 113.414ZM256 114L437 114L437 110L256 110L256 114Z" fill="#053751"/>
<path d="M479.333 98.2222H472.444M479.333 125.778H472.444M479.333 112H469M482.778 86.2202C487.704 82.9229 493.627 81 500 81C517.121 81 531 94.8792 531 112C531 129.121 517.121 143 500 143C493.627 143 487.704 141.077 482.778 137.78M506.889 103.389C505.167 102.961 502.36 102.946 500 102.961M500 102.961C499.211 102.967 499.688 102.933 498.622 102.961C495.841 103.048 493.117 104.204 493.111 107.479C493.105 110.967 496.556 112 500 112C503.444 112 506.889 112.796 506.889 116.52C506.889 119.319 504.107 120.546 500.641 120.952C500.419 120.952 500.206 120.952 500 120.953M500 102.961V98.2222M500 120.953C497.657 120.963 496.278 121.007 493.111 120.611M500 120.953V125.778" stroke="#CE1340" stroke-width="4" stroke-linecap="round" stroke-linejoin="round"/>
<path d="M76.3978 106.312C69.6605 106.312 64.1988 100.87 64.1988 94.1562C64.1988 87.4425 69.6605 82 76.3978 82C83.135 82 88.5967 87.4425 88.5967 94.1562C88.5967 100.87 83.135 106.312 76.3978 106.312Z" stroke="#CE1340" stroke-width="4"/>
<path d="M52.0076 130.626C52 130.127 52 129.62 52 129.106C52 121.553 62.9232 115.431 76.3978 115.431C89.8724 115.431 100.796 121.553 100.796 129.106C100.796 136.659 100.796 142.782 76.3978 142.782C69.5939 142.782 64.6875 142.306 61.1492 141.455" stroke="#CE1340" stroke-width="4" stroke-linecap="round"/>
<path d="M138.94 106.312C132.203 106.312 126.742 100.87 126.742 94.1562C126.742 87.4425 132.203 82 138.94 82C145.678 82 151.139 87.4425 151.139 94.1562C151.139 100.87 145.678 106.312 138.94 106.312Z" stroke="#CE1340" stroke-width="4"/>
<path d="M114.55 130.626C114.543 130.127 114.543 129.62 114.543 129.106C114.543 121.553 125.466 115.431 138.941 115.431C152.415 115.431 163.338 121.553 163.338 129.106C163.338 136.659 163.338 142.782 138.941 142.782C132.137 142.782 127.23 142.306 123.692 141.455" stroke="#CE1340" stroke-width="4" stroke-linecap="round"/>
<path d="M200.602 106.312C193.865 106.312 188.403 100.87 188.403 94.1562C188.403 87.4425 193.865 82 200.602 82C207.339 82 212.801 87.4425 212.801 94.1562C212.801 100.87 207.339 106.312 200.602 106.312Z" stroke="#CE1340" stroke-width="4"/>
<path d="M176.212 130.626C176.204 130.127 176.204 129.62 176.204 129.106C176.204 121.553 187.128 115.431 200.602 115.431C214.077 115.431 225 121.553 225 129.106C225 136.659 225 142.782 200.602 142.782C193.798 142.782 188.892 142.306 185.354 141.455" stroke="#CE1340" stroke-width="4" stroke-linecap="round"/>
</svg>
