<svg width="558" height="421" viewBox="0 0 558 421" fill="none" xmlns="http://www.w3.org/2000/svg">
<path d="M0 16C0 7.16345 7.16344 0 16 0H486C494.837 0 502 7.16344 502 16V421H0V16Z" fill="#CE1340"/>
<rect x="40" y="46" width="432" height="127" rx="8" fill="#FFD0DB"/>
<path d="M96.4622 120H89.2331V111.258C89.2331 109.261 88.5155 108.262 87.0803 108.262C86.5955 108.262 86.1446 108.373 85.7276 108.596C85.3203 108.819 84.9906 109.188 84.7385 109.702C84.4864 110.216 84.3603 110.909 84.3603 111.782V120H77.1313V96.2618H84.3603V103.898C85.7567 102.754 87.4003 102.182 89.2913 102.182C90.6391 102.182 91.8513 102.453 92.9276 102.996C94.0137 103.53 94.8719 104.373 95.5022 105.527C96.1422 106.681 96.4622 108.179 96.4622 110.022V120ZM108.051 120.32C106.441 120.32 105.064 120.063 103.92 119.549C102.776 119.035 101.903 118.255 101.302 117.207C100.701 116.16 100.4 114.832 100.4 113.222V108.742H98V103.462H100.4V98.56H107.629V103.462H111.222V108.742H107.629V113.149C107.629 113.692 107.77 114.114 108.051 114.415C108.342 114.705 108.705 114.851 109.142 114.851C109.714 114.851 110.257 114.691 110.771 114.371L112.502 119.389C111.93 119.709 111.256 119.942 110.48 120.087C109.704 120.242 108.895 120.32 108.051 120.32ZM122.77 120.32C121.16 120.32 119.783 120.063 118.639 119.549C117.495 119.035 116.622 118.255 116.021 117.207C115.419 116.16 115.119 114.832 115.119 113.222V108.742H112.719V103.462H115.119V98.56H122.348V103.462H125.941V108.742H122.348V113.149C122.348 113.692 122.488 114.114 122.77 114.415C123.061 114.705 123.424 114.851 123.861 114.851C124.433 114.851 124.976 114.691 125.49 114.371L127.221 119.389C126.648 119.709 125.975 119.942 125.199 120.087C124.423 120.242 123.613 120.32 122.77 120.32ZM136.267 126.211H129.038V102.502H135.918V103.942C136.945 102.768 138.545 102.182 140.717 102.182C142.24 102.182 143.641 102.55 144.921 103.287C146.201 104.015 147.229 105.057 148.005 106.415C148.781 107.772 149.168 109.387 149.168 111.258C149.168 113.139 148.781 114.759 148.005 116.116C147.229 117.464 146.201 118.502 144.921 119.229C143.641 119.956 142.24 120.32 140.717 120.32C138.797 120.32 137.314 119.821 136.267 118.822V126.211ZM138.987 114.691C139.52 114.691 140 114.565 140.427 114.313C140.863 114.051 141.207 113.668 141.459 113.164C141.711 112.65 141.838 112.015 141.838 111.258C141.838 110.124 141.561 109.265 141.008 108.684C140.465 108.102 139.791 107.811 138.987 107.811C138.191 107.811 137.517 108.102 136.965 108.684C136.412 109.265 136.136 110.124 136.136 111.258C136.136 112.015 136.262 112.65 136.514 113.164C136.766 113.668 137.105 114.051 137.532 114.313C137.968 114.565 138.453 114.691 138.987 114.691ZM158.295 120.32C156.792 120.32 155.323 120.165 153.887 119.855C152.462 119.535 151.284 119.113 150.353 118.589L152.346 113.818C153.199 114.322 154.169 114.71 155.255 114.982C156.35 115.253 157.417 115.389 158.455 115.389C159.337 115.389 159.929 115.316 160.229 115.171C160.54 115.016 160.695 114.812 160.695 114.56C160.695 114.356 160.578 114.201 160.346 114.095C160.113 113.988 159.798 113.905 159.4 113.847C159.003 113.779 158.552 113.716 158.047 113.658C157.436 113.6 156.792 113.518 156.113 113.411C155.444 113.295 154.784 113.13 154.135 112.916C153.485 112.703 152.893 112.402 152.36 112.015C151.836 111.617 151.415 111.108 151.095 110.487C150.775 109.867 150.615 109.091 150.615 108.16C150.615 107.064 150.949 106.065 151.618 105.164C152.297 104.252 153.301 103.53 154.629 102.996C155.958 102.453 157.606 102.182 159.575 102.182C160.855 102.182 162.125 102.303 163.386 102.545C164.656 102.778 165.761 103.137 166.702 103.622L164.724 108.378C163.143 107.525 161.456 107.098 159.662 107.098C159.051 107.098 158.571 107.142 158.222 107.229C157.883 107.307 157.645 107.408 157.509 107.535C157.373 107.661 157.306 107.796 157.306 107.942C157.306 108.145 157.422 108.305 157.655 108.422C157.887 108.528 158.203 108.616 158.6 108.684C158.998 108.752 159.453 108.815 159.967 108.873C160.569 108.941 161.204 109.033 161.873 109.149C162.542 109.256 163.196 109.421 163.836 109.644C164.486 109.857 165.073 110.162 165.596 110.56C166.13 110.948 166.552 111.452 166.862 112.073C167.182 112.693 167.342 113.469 167.342 114.4C167.342 115.457 167.007 116.436 166.338 117.338C165.679 118.23 164.68 118.953 163.342 119.505C162.004 120.048 160.321 120.32 158.295 120.32ZM172.796 110.429C171.603 110.429 170.599 110.041 169.785 109.265C168.98 108.49 168.577 107.491 168.577 106.269C168.577 105.038 168.98 104.048 169.785 103.302C170.599 102.555 171.603 102.182 172.796 102.182C173.998 102.182 175.002 102.555 175.807 103.302C176.621 104.048 177.028 105.038 177.028 106.269C177.028 107.491 176.621 108.49 175.807 109.265C175.002 110.041 173.998 110.429 172.796 110.429ZM172.796 120.32C171.603 120.32 170.599 119.932 169.785 119.156C168.98 118.371 168.577 117.372 168.577 116.16C168.577 114.928 168.98 113.939 169.785 113.193C170.599 112.436 171.603 112.058 172.796 112.058C173.998 112.058 175.002 112.436 175.807 113.193C176.621 113.939 177.028 114.928 177.028 116.16C177.028 117.372 176.621 118.371 175.807 119.156C175.002 119.932 173.998 120.32 172.796 120.32ZM182.776 123.2H176.376L186.936 93.0618H193.336L182.776 123.2ZM196.87 123.2H190.47L201.03 93.0618H207.43L196.87 123.2ZM210.687 121.455C209.543 121.455 208.569 121.052 207.764 120.247C206.969 119.442 206.571 118.473 206.571 117.338C206.571 116.194 206.969 115.215 207.764 114.4C208.569 113.585 209.543 113.178 210.687 113.178C211.832 113.178 212.811 113.585 213.626 114.4C214.44 115.215 214.847 116.194 214.847 117.338C214.847 118.473 214.44 119.442 213.626 120.247C212.811 121.052 211.832 121.455 210.687 121.455ZM220.406 121.455C219.262 121.455 218.287 121.052 217.482 120.247C216.687 119.442 216.29 118.473 216.29 117.338C216.29 116.194 216.687 115.215 217.482 114.4C218.287 113.585 219.262 113.178 220.406 113.178C221.55 113.178 222.53 113.585 223.344 114.4C224.159 115.215 224.566 116.194 224.566 117.338C224.566 118.473 224.159 119.442 223.344 120.247C222.53 121.052 221.55 121.455 220.406 121.455ZM230.125 121.455C228.981 121.455 228.006 121.052 227.201 120.247C226.406 119.442 226.009 118.473 226.009 117.338C226.009 116.194 226.406 115.215 227.201 114.4C228.006 113.585 228.981 113.178 230.125 113.178C231.269 113.178 232.249 113.585 233.063 114.4C233.878 115.215 234.285 116.194 234.285 117.338C234.285 118.473 233.878 119.442 233.063 120.247C232.249 121.052 231.269 121.455 230.125 121.455Z" fill="#CE1340"/>
<line x1="242" y1="208" x2="296" y2="208" stroke="#FFD0DB" stroke-width="8" stroke-linecap="round"/>
<line x1="260" y1="228" x2="298" y2="228" stroke="#FFD0DB" stroke-width="8" stroke-linecap="round"/>
<line x1="322" y1="228" x2="360" y2="228" stroke="#FFD0DB" stroke-width="8" stroke-linecap="round"/>
<line x1="242" y1="248" x2="335" y2="248" stroke="#FFD0DB" stroke-width="8" stroke-linecap="round"/>
<line x1="320" y1="208" x2="358" y2="208" stroke="#FFD0DB" stroke-width="8" stroke-linecap="round"/>
<line x1="260" y1="268" x2="332" y2="268" stroke="#FFD0DB" stroke-width="8" stroke-linecap="round"/>
<line x1="242" y1="288" x2="322" y2="288" stroke="#FFD0DB" stroke-width="8" stroke-linecap="round"/>
<line x1="346" y1="288" x2="364" y2="288" stroke="#FFD0DB" stroke-width="8" stroke-linecap="round"/>
<line x1="273" y1="308" x2="359" y2="308" stroke="#FFD0DB" stroke-width="8" stroke-linecap="round"/>
<line x1="383" y1="308" x2="432" y2="308" stroke="#FFD0DB" stroke-width="8" stroke-linecap="round"/>
<line x1="393" y1="348" x2="468" y2="348" stroke="#FFD0DB" stroke-width="8" stroke-linecap="round"/>
<line x1="280" y1="328" x2="407" y2="328" stroke="#FFD0DB" stroke-width="8" stroke-linecap="round"/>
<circle cx="440.5" cy="199.5" r="115.5" fill="white" stroke="#CE1340" stroke-width="4"/>
<rect x="40" y="204" width="105" height="107" rx="8" fill="#FFD0DB"/>
<circle cx="92" cy="247" r="16" stroke="#CE1340" stroke-width="6"/>
<line x1="102.116" y1="263.029" x2="114.029" y2="282.884" stroke="#CE1340" stroke-width="6" stroke-linecap="round"/>
<line x1="164" y1="208" x2="218" y2="208" stroke="#FFD0DB" stroke-width="8" stroke-linecap="round"/>
<line x1="164" y1="228" x2="236" y2="228" stroke="#FFD0DB" stroke-width="8" stroke-linecap="round"/>
<line x1="164" y1="248" x2="218" y2="248" stroke="#FFD0DB" stroke-width="8" stroke-linecap="round"/>
<line x1="164" y1="268" x2="236" y2="268" stroke="#FFD0DB" stroke-width="8" stroke-linecap="round"/>
<line x1="211" y1="308" x2="249" y2="308" stroke="#FFD0DB" stroke-width="8" stroke-linecap="round"/>
<line x1="164" y1="288" x2="218" y2="288" stroke="#FFD0DB" stroke-width="8" stroke-linecap="round"/>
<line x1="164" y1="308" x2="187" y2="308" stroke="#FFD0DB" stroke-width="8" stroke-linecap="round"/>
<line x1="44" y1="328" x2="98" y2="328" stroke="#FFD0DB" stroke-width="8" stroke-linecap="round"/>
<line x1="122" y1="328" x2="194" y2="328" stroke="#FFD0DB" stroke-width="8" stroke-linecap="round"/>
<line x1="218" y1="328" x2="256" y2="328" stroke="#FFD0DB" stroke-width="8" stroke-linecap="round"/>
<line x1="431" y1="328" x2="468" y2="328" stroke="#FFD0DB" stroke-width="8" stroke-linecap="round"/>
<line x1="242" y1="348" x2="369" y2="348" stroke="#FFD0DB" stroke-width="8" stroke-linecap="round"/>
<line x1="44" y1="348" x2="156" y2="348" stroke="#FFD0DB" stroke-width="8" stroke-linecap="round"/>
<line x1="180" y1="348" x2="218" y2="348" stroke="#FFD0DB" stroke-width="8" stroke-linecap="round"/>
<line x1="393" y1="388" x2="468" y2="388" stroke="#FFD0DB" stroke-width="8" stroke-linecap="round"/>
<line x1="280" y1="368" x2="468" y2="368" stroke="#FFD0DB" stroke-width="8" stroke-linecap="round"/>
<line x1="44" y1="368" x2="98" y2="368" stroke="#FFD0DB" stroke-width="8" stroke-linecap="round"/>
<line x1="122" y1="368" x2="194" y2="368" stroke="#FFD0DB" stroke-width="8" stroke-linecap="round"/>
<line x1="218" y1="368" x2="256" y2="368" stroke="#FFD0DB" stroke-width="8" stroke-linecap="round"/>
<line x1="242" y1="388" x2="369" y2="388" stroke="#FFD0DB" stroke-width="8" stroke-linecap="round"/>
<line x1="44" y1="388" x2="156" y2="388" stroke="#FFD0DB" stroke-width="8" stroke-linecap="round"/>
<line x1="180" y1="388" x2="218" y2="388" stroke="#FFD0DB" stroke-width="8" stroke-linecap="round"/>
<path d="M441.556 201.556C452.997 190.114 471.613 190.114 483.055 201.555L491.42 209.921C502.861 221.362 502.861 239.978 491.42 251.419C479.978 262.86 461.362 262.86 449.921 251.419L441.556 243.054C430.115 231.613 430.115 212.997 441.556 201.556ZM480.645 240.644C486.145 235.145 486.145 226.195 480.645 220.696L472.28 212.331C466.78 206.831 457.831 206.831 452.331 212.331C446.831 217.83 446.831 226.78 452.331 232.279L460.696 240.644C466.196 246.144 475.145 246.144 480.645 240.644Z" fill="#CE1340"/>
<path d="M396.946 198.445L388.581 190.08C377.14 178.638 377.14 160.022 388.581 148.581C400.022 137.14 418.638 137.14 430.08 148.581L438.445 156.946C449.886 168.387 449.886 187.003 438.445 198.445C427.003 209.886 408.387 209.886 396.946 198.445ZM399.356 179.305L407.721 187.67C413.221 193.17 422.17 193.17 427.67 187.67C433.169 182.17 433.169 173.221 427.67 167.721L419.304 159.356C413.805 153.856 404.855 153.856 399.356 159.356C393.856 164.856 393.856 173.805 399.356 179.305Z" fill="#CE1340"/>
<path opacity="0.1" d="M452.692 232.729C447.167 227.204 447.167 218.215 452.692 212.69C458.217 207.165 467.206 207.165 472.731 212.69L477.628 217.587C476.884 215.191 475.568 212.935 473.674 211.041L456.531 193.897C451.153 195.042 446.036 197.697 441.867 201.866C437.699 206.035 435.043 211.152 433.899 216.529L451.042 233.673C452.936 235.567 455.192 236.883 457.588 237.627L452.692 232.729Z" fill="black"/>
<path opacity="0.1" d="M427.31 167.27C432.834 172.795 432.834 181.785 427.31 187.309C421.785 192.834 412.795 192.834 407.27 187.309L402.373 182.413C403.117 184.809 404.433 187.065 406.327 188.958L423.47 206.102C428.848 204.957 433.965 202.302 438.133 198.134C442.302 193.965 444.957 188.848 446.102 183.47L428.958 166.327C427.064 164.432 424.809 163.117 422.412 162.373L427.31 167.27Z" fill="black"/>
<path d="M412.734 172.732C415.701 169.765 420.512 169.765 423.479 172.732L467.266 216.519C470.234 219.487 470.234 224.297 467.266 227.265C464.299 230.232 459.488 230.232 456.521 227.265L412.734 183.478C409.767 180.511 409.767 175.7 412.734 172.732Z" fill="#ED2555"/>
<path d="M391.973 247.696C392.619 246.975 393.811 247.502 393.713 248.466L393.11 254.337C393.066 254.768 393.304 255.179 393.7 255.354L399.099 257.742C399.985 258.133 399.851 259.43 398.904 259.634L393.134 260.875C392.71 260.966 392.394 261.32 392.349 261.751L391.747 267.623C391.648 268.586 390.374 268.86 389.887 268.023L386.923 262.918C386.706 262.543 386.272 262.351 385.848 262.443L380.078 263.684C379.131 263.888 378.476 262.761 379.123 262.039L383.061 257.643C383.35 257.32 383.399 256.848 383.181 256.473L380.217 251.369C379.731 250.531 380.601 249.56 381.487 249.952L386.885 252.34C387.281 252.515 387.745 252.415 388.034 252.092L391.973 247.696Z" fill="#FFD0DB"/>
<path d="M391.973 247.696C392.619 246.975 393.811 247.502 393.713 248.466L393.11 254.337C393.066 254.768 393.304 255.179 393.7 255.354L399.099 257.742C399.985 258.133 399.851 259.43 398.904 259.634L393.134 260.875C392.71 260.966 392.394 261.32 392.349 261.751L391.747 267.623C391.648 268.586 390.374 268.86 389.887 268.023L386.923 262.918C386.706 262.543 386.272 262.351 385.848 262.443L380.078 263.684C379.131 263.888 378.476 262.761 379.123 262.039L383.061 257.643C383.35 257.32 383.399 256.848 383.181 256.473L380.217 251.369C379.731 250.531 380.601 249.56 381.487 249.952L386.885 252.34C387.281 252.515 387.745 252.415 388.034 252.092L391.973 247.696Z" fill="#FFD0DB"/>
<path d="M384.829 225.02C385.476 224.298 386.668 224.825 386.569 225.789L386.274 228.665C386.23 229.096 386.468 229.507 386.864 229.682L389.508 230.851C390.394 231.243 390.261 232.54 389.314 232.743L386.487 233.351C386.064 233.443 385.747 233.796 385.703 234.227L385.408 237.103C385.309 238.067 384.035 238.341 383.548 237.503L382.097 235.003C381.879 234.628 381.445 234.436 381.021 234.527L378.195 235.135C377.248 235.339 376.593 234.212 377.24 233.491L379.169 231.337C379.458 231.015 379.507 230.542 379.289 230.168L377.837 227.668C377.351 226.83 378.221 225.859 379.107 226.251L381.751 227.42C382.147 227.596 382.611 227.496 382.9 227.173L384.829 225.02Z" fill="#FFD0DB"/>
<path d="M384.829 225.02C385.476 224.298 386.668 224.825 386.569 225.789L386.274 228.665C386.23 229.096 386.468 229.507 386.864 229.682L389.508 230.851C390.394 231.243 390.261 232.54 389.314 232.743L386.487 233.351C386.064 233.443 385.747 233.796 385.703 234.227L385.408 237.103C385.309 238.067 384.035 238.341 383.548 237.503L382.097 235.003C381.879 234.628 381.445 234.436 381.021 234.527L378.195 235.135C377.248 235.339 376.593 234.212 377.24 233.491L379.169 231.337C379.458 231.015 379.507 230.542 379.289 230.168L377.837 227.668C377.351 226.83 378.221 225.859 379.107 226.251L381.751 227.42C382.147 227.596 382.611 227.496 382.9 227.173L384.829 225.02Z" fill="#FFD0DB"/>
<path d="M384.829 131.02C385.476 130.298 386.668 130.825 386.569 131.789L386.274 134.665C386.23 135.096 386.468 135.507 386.864 135.682L389.508 136.851C390.394 137.243 390.261 138.54 389.314 138.743L386.487 139.351C386.064 139.443 385.747 139.796 385.703 140.227L385.408 143.103C385.309 144.067 384.035 144.341 383.548 143.503L382.097 141.003C381.879 140.628 381.445 140.436 381.021 140.527L378.195 141.135C377.248 141.339 376.593 140.212 377.24 139.491L379.169 137.337C379.458 137.015 379.507 136.542 379.289 136.168L377.837 133.668C377.351 132.83 378.221 131.859 379.107 132.251L381.751 133.42C382.147 133.596 382.611 133.496 382.9 133.173L384.829 131.02Z" fill="#FFD0DB"/>
<path d="M384.829 131.02C385.476 130.298 386.668 130.825 386.569 131.789L386.274 134.665C386.23 135.096 386.468 135.507 386.864 135.682L389.508 136.851C390.394 137.243 390.261 138.54 389.314 138.743L386.487 139.351C386.064 139.443 385.747 139.796 385.703 140.227L385.408 143.103C385.309 144.067 384.035 144.341 383.548 143.503L382.097 141.003C381.879 140.628 381.445 140.436 381.021 140.527L378.195 141.135C377.248 141.339 376.593 140.212 377.24 139.491L379.169 137.337C379.458 137.015 379.507 136.542 379.289 136.168L377.837 133.668C377.351 132.83 378.221 131.859 379.107 132.251L381.751 133.42C382.147 133.596 382.611 133.496 382.9 133.173L384.829 131.02Z" fill="#FFD0DB"/>
<path d="M445.829 276.02C446.476 275.298 447.668 275.825 447.569 276.789L447.274 279.665C447.23 280.096 447.468 280.507 447.864 280.682L450.508 281.851C451.394 282.243 451.261 283.54 450.314 283.743L447.487 284.351C447.064 284.443 446.747 284.796 446.703 285.227L446.408 288.103C446.309 289.067 445.035 289.341 444.548 288.503L443.097 286.003C442.879 285.628 442.445 285.436 442.021 285.527L439.195 286.135C438.248 286.339 437.593 285.212 438.24 284.491L440.169 282.337C440.458 282.015 440.507 281.542 440.289 281.168L438.837 278.668C438.351 277.83 439.221 276.859 440.107 277.251L442.751 278.42C443.147 278.596 443.611 278.496 443.9 278.173L445.829 276.02Z" fill="#FFD0DB"/>
<path d="M445.829 276.02C446.476 275.298 447.668 275.825 447.569 276.789L447.274 279.665C447.23 280.096 447.468 280.507 447.864 280.682L450.508 281.851C451.394 282.243 451.261 283.54 450.314 283.743L447.487 284.351C447.064 284.443 446.747 284.796 446.703 285.227L446.408 288.103C446.309 289.067 445.035 289.341 444.548 288.503L443.097 286.003C442.879 285.628 442.445 285.436 442.021 285.527L439.195 286.135C438.248 286.339 437.593 285.212 438.24 284.491L440.169 282.337C440.458 282.015 440.507 281.542 440.289 281.168L438.837 278.668C438.351 277.83 439.221 276.859 440.107 277.251L442.751 278.42C443.147 278.596 443.611 278.496 443.9 278.173L445.829 276.02Z" fill="#FFD0DB"/>
<path d="M498.293 145.475C498.939 144.754 500.131 145.281 500.032 146.245L499.287 153.509C499.243 153.94 499.481 154.35 499.877 154.525L506.555 157.479C507.441 157.871 507.308 159.167 506.361 159.371L499.222 160.907C498.799 160.998 498.482 161.351 498.438 161.782L497.693 169.046C497.594 170.01 496.319 170.284 495.833 169.446L492.166 163.132C491.949 162.757 491.515 162.565 491.091 162.656L483.953 164.192C483.006 164.396 482.351 163.268 482.997 162.547L487.87 157.108C488.159 156.786 488.208 156.314 487.99 155.939L484.323 149.624C483.837 148.786 484.707 147.816 485.593 148.208L492.271 151.161C492.667 151.336 493.131 151.236 493.42 150.914L498.293 145.475Z" fill="#FFD0DB"/>
<path d="M498.293 145.475C498.939 144.754 500.131 145.281 500.032 146.245L499.287 153.509C499.243 153.94 499.481 154.35 499.877 154.525L506.555 157.479C507.441 157.871 507.308 159.167 506.361 159.371L499.222 160.907C498.799 160.998 498.482 161.351 498.438 161.782L497.693 169.046C497.594 170.01 496.319 170.284 495.833 169.446L492.166 163.132C491.949 162.757 491.515 162.565 491.091 162.656L483.953 164.192C483.006 164.396 482.351 163.268 482.997 162.547L487.87 157.108C488.159 156.786 488.208 156.314 487.99 155.939L484.323 149.624C483.837 148.786 484.707 147.816 485.593 148.208L492.271 151.161C492.667 151.336 493.131 151.236 493.42 150.914L498.293 145.475Z" fill="#FFD0DB"/>
</svg>
