<svg width="154" height="154" viewBox="0 0 154 154" fill="none" xmlns="http://www.w3.org/2000/svg">
<path d="M76.9517 152C118.346 152 151.903 118.421 151.903 77C151.903 35.5786 118.346 2 76.9517 2C35.557 2 2 35.5786 2 77C2 118.421 35.557 152 76.9517 152Z" fill="white" stroke="#CE1340" stroke-width="4"/>
<path d="M77.6371 78.3303C85.0615 70.9004 97.1421 70.9004 104.567 78.3296L109.995 83.7621C117.42 91.1913 117.42 103.28 109.995 110.709C102.57 118.138 90.4898 118.138 83.0654 110.709L77.6371 105.277C70.2127 97.8478 70.2127 85.7595 77.6371 78.3303ZM103.003 103.712C106.572 100.141 106.572 94.3296 103.003 90.7589L97.5749 85.327C94.0058 81.7556 88.1985 81.7556 84.6293 85.327C81.0602 88.8978 81.0602 94.7095 84.6293 98.2803L90.0577 103.712C93.6268 107.284 99.4341 107.284 103.003 103.712Z" fill="#CE1340"/>
<path d="M48.6882 76.3125L43.2599 70.8806C35.8354 63.4508 35.8354 51.3625 43.2599 43.9332C50.6843 36.504 62.7648 36.504 70.1899 43.9332L75.6182 49.3651C83.0426 56.7943 83.0426 68.8826 75.6182 76.3125C68.1931 83.7417 56.1126 83.7417 48.6882 76.3125ZM50.2521 63.8839L55.6804 69.3157C59.2495 72.8871 65.0568 72.8871 68.626 69.3157C72.1944 65.7443 72.1944 59.9332 68.626 56.3618L63.197 50.93C59.6285 47.3586 53.8206 47.3586 50.2521 50.93C46.683 54.5014 46.683 60.3125 50.2521 63.8839Z" fill="#CE1340"/>
<path opacity="0.1" d="M84.8635 98.5769C81.2781 94.9893 81.2781 89.1522 84.8635 85.5646C88.4488 81.9769 94.2821 81.9769 97.8674 85.5646L101.045 88.7444C100.562 87.1886 99.7085 85.7237 98.4794 84.4938L87.3547 73.3613C83.8648 74.1048 80.5442 75.8289 77.8388 78.536C75.134 81.2432 73.4105 84.5659 72.6681 88.0574L83.7927 99.1899C85.0218 100.42 86.4858 101.274 88.0407 101.757L84.8635 98.5769Z" fill="black"/>
<path opacity="0.1" d="M68.3917 56.0666C71.977 59.6543 71.977 65.4919 68.3917 69.0789C64.807 72.6666 58.9731 72.6666 55.3877 69.0789L52.2099 65.8997C52.6927 67.4555 53.5467 68.9205 54.7751 70.1497L65.9004 81.2822C69.3897 80.5387 72.7103 78.8146 75.4157 76.1081C78.1211 73.401 79.844 70.0783 80.5871 66.5861L69.4618 55.4542C68.2327 54.2237 66.7693 53.3698 65.2139 52.8867L68.3917 56.0666Z" fill="black"/>
<path d="M58.9334 59.6188C60.8587 57.6922 63.9807 57.6922 65.9061 59.6188L94.3216 88.0519C96.2469 89.9792 96.2469 93.1026 94.3216 95.0298C92.3955 96.9565 89.2735 96.9565 87.3481 95.0298L58.9334 66.5967C57.008 64.6701 57.008 61.5461 58.9334 59.6188Z" fill="#ED2555"/>
<path d="M45.4609 108.294C45.8801 107.826 46.6537 108.168 46.5894 108.794L46.1987 112.606C46.1702 112.886 46.3247 113.153 46.5816 113.267L50.0846 114.817C50.6595 115.071 50.5732 115.913 49.9587 116.046L46.2143 116.852C45.9392 116.911 45.7335 117.141 45.7049 117.421L45.3143 121.234C45.25 121.859 44.4233 122.037 44.1072 121.493L42.1838 118.178C42.043 117.935 41.7614 117.81 41.4862 117.87L37.7419 118.676C37.1273 118.808 36.7023 118.076 37.1215 117.608L39.6776 114.753C39.8652 114.543 39.897 114.237 39.7555 113.993L37.8321 110.679C37.5167 110.135 38.0813 109.504 38.6562 109.759L42.1592 111.31C42.4161 111.423 42.7172 111.358 42.9048 111.148L45.4609 108.294Z" fill="#FFD0DB"/>
<path d="M40.8251 93.5717C41.245 93.1029 42.0185 93.4451 41.9542 94.0711L41.7628 95.9386C41.7336 96.2185 41.8887 96.4854 42.1457 96.599L43.8614 97.3581C44.4364 97.6126 44.3501 98.4548 43.7356 98.5867L41.901 98.9815C41.6265 99.0412 41.4208 99.2704 41.3923 99.5503L41.2008 101.418C41.1366 102.044 40.3098 102.222 39.9938 101.678L39.0516 100.054C38.9108 99.8107 38.6291 99.686 38.354 99.7451L36.5201 100.14C35.9055 100.272 35.4805 99.5406 35.9003 99.0724L37.1521 97.6737C37.3397 97.4646 37.3715 97.1574 37.23 96.9146L36.2878 95.2912C35.9724 94.7471 36.5369 94.1165 37.1119 94.3711L38.8277 95.1302C39.0847 95.2445 39.3858 95.1795 39.5733 94.9698L40.8251 93.5717Z" fill="#FFD0DB"/>
<path d="M40.8251 32.5288C41.245 32.0599 42.0185 32.4021 41.9542 33.0281L41.7628 34.8956C41.7336 35.1755 41.8887 35.4424 42.1457 35.556L43.8614 36.3151C44.4364 36.5697 44.3501 37.4119 43.7356 37.5437L41.901 37.9385C41.6265 37.9982 41.4208 38.2275 41.3923 38.5073L41.2008 40.3749C41.1366 41.0008 40.3098 41.1788 39.9938 40.6346L39.0516 39.0112C38.9108 38.7677 38.6291 38.643 38.354 38.7021L36.5201 39.0969C35.9055 39.2294 35.4805 38.4976 35.9003 38.0294L37.1521 36.6307C37.3397 36.4216 37.3715 36.1145 37.23 35.8716L36.2878 34.2482C35.9724 33.7041 36.5369 33.0736 37.1119 33.3281L38.8277 34.0872C39.0847 34.2015 39.3858 34.1366 39.5733 33.9268L40.8251 32.5288Z" fill="#FFD0DB"/>
<path d="M80.4099 126.685C80.8298 126.216 81.6033 126.558 81.5391 127.184L81.3476 129.052C81.3184 129.332 81.4735 129.599 81.7305 129.712L83.4463 130.471C84.0212 130.726 83.9349 131.568 83.3204 131.7L81.4859 132.095C81.2114 132.155 81.0057 132.384 80.9771 132.664L80.7857 134.531C80.7214 135.157 79.8947 135.335 79.5787 134.791L78.6364 133.167C78.4956 132.924 78.2139 132.799 77.9388 132.858L76.1049 133.253C75.4904 133.386 75.0653 132.654 75.4852 132.186L76.737 130.787C76.9245 130.578 76.9563 130.271 76.8149 130.028L75.8726 128.405C75.5572 127.86 76.1218 127.23 76.6967 127.484L78.4125 128.243C78.6695 128.358 78.9706 128.293 79.1581 128.083L80.4099 126.685Z" fill="#FFD0DB"/>
<path d="M114.455 41.915C114.875 41.4469 115.648 41.7891 115.584 42.415L115.1 47.1319C115.072 47.4118 115.226 47.678 115.483 47.7917L119.817 49.7098C120.392 49.9644 120.306 50.8059 119.691 50.9384L115.058 51.9358C114.784 51.9949 114.578 52.2241 114.55 52.504L114.066 57.2209C114.002 57.8469 113.174 58.0248 112.859 57.4806L110.479 53.3806C110.339 53.1371 110.057 53.0124 109.782 53.0715L105.15 54.0689C104.535 54.2014 104.11 53.4689 104.529 53.0007L107.692 49.4689C107.879 49.2598 107.911 48.9533 107.77 48.7098L105.39 44.6092C105.074 44.065 105.639 43.4352 106.214 43.6897L110.548 45.6072C110.805 45.7209 111.106 45.6559 111.293 45.4469L114.455 41.915Z" fill="#FFD0DB"/>
</svg>
