<svg width="401" height="402" viewBox="0 0 401 402" fill="none" xmlns="http://www.w3.org/2000/svg">
<path d="M51.1551 321.706L73.246 258.37L22.0912 241.699L106.037 1.02344L400.177 96.883L316.232 337.558L197.297 298.798L51.1551 321.706ZM56.505 224.7L107.66 241.372L91.3126 288.24L201.017 271.796L299.491 303.889L365.763 113.882L122.778 34.6933L56.505 224.7Z" fill="#CE1340" fill-opacity="0.05"/>
<path d="M172.217 135.561L133.842 123.057L120.583 161.064L158.959 173.568L172.217 135.561Z" fill="#CE1340" fill-opacity="0.05"/>
<path d="M236.695 156.667L198.32 144.162L185.061 182.169L223.437 194.674L236.695 156.667Z" fill="#CE1340" fill-opacity="0.05"/>
<path d="M301.173 177.78L262.798 165.275L249.539 203.282L287.915 215.787L301.173 177.78Z" fill="#CE1340" fill-opacity="0.05"/>
</svg>
