<svg width="551" height="127" viewBox="0 0 551 127" fill="none" xmlns="http://www.w3.org/2000/svg">
<rect width="551" height="127" rx="8" fill="#FFD0DB"/>
<path fill-rule="evenodd" clip-rule="evenodd" d="M196.259 69.3642C198.569 64.1609 198.21 57.6445 194.109 53.2272C188.246 46.9141 177.349 48.4757 167.387 48.5331C163.533 48.6056 159.768 50.217 157.055 52.9636C149.372 60.938 154.236 77.6671 167.387 77.91C174.819 77.9561 182.988 79.1844 188.798 76.8605C189.252 76.6797 189.691 76.4717 190.115 76.2421C188.922 75.0193 187.485 73.3787 186.551 71.7466C185.626 72.1391 184.626 72.3735 183.572 72.4064C175.305 72.5579 165.347 74.7191 160.61 69.2183C157.604 65.7281 157.77 59.9873 161.155 56.644C162.84 55.0212 165.121 54.079 167.454 54.0348C176.976 53.9802 188.821 51.8962 191.913 59.913C192.522 61.4915 192.585 63.1942 192.216 64.8189C193.091 66.2195 194.44 68.0088 196.259 69.3642ZM186.967 57.8629C184.658 63.0662 185.016 69.5826 189.118 74.0009C194.98 80.313 205.877 78.7515 215.84 78.695C219.693 78.6216 223.458 77.0101 226.171 74.2635C233.855 66.2901 228.991 49.561 215.84 49.3181C208.409 49.272 200.239 48.0436 194.429 50.3676C193.975 50.5483 193.536 50.7564 193.112 50.986C194.305 52.2087 195.742 53.8494 196.675 55.4806C197.6 55.0881 198.602 54.8546 199.655 54.8217C207.922 54.6701 217.88 52.509 222.617 58.0098C225.622 61.499 225.457 67.2407 222.071 70.5832C220.387 72.2068 218.105 73.1481 215.772 73.1924C206.251 73.2479 194.406 75.3318 191.314 67.3151C190.704 65.7357 190.642 64.0338 191.01 62.4083C190.136 61.0086 188.786 59.2183 186.967 57.8629Z" fill="#CE1340"/>
<path fill-rule="evenodd" clip-rule="evenodd" d="M365.259 69.3642C367.569 64.1609 367.21 57.6445 363.109 53.2272C357.246 46.9141 346.349 48.4757 336.387 48.5331C332.533 48.6056 328.768 50.217 326.055 52.9636C318.372 60.938 323.236 77.6671 336.387 77.91C343.819 77.9561 351.988 79.1844 357.798 76.8605C358.252 76.6797 358.691 76.4717 359.115 76.2421C357.922 75.0193 356.485 73.3787 355.551 71.7466C354.626 72.1391 353.626 72.3735 352.572 72.4064C344.305 72.5579 334.347 74.7191 329.61 69.2183C326.604 65.7281 326.77 59.9873 330.155 56.644C331.84 55.0212 334.121 54.079 336.454 54.0348C345.976 53.9802 357.821 51.8962 360.913 59.913C361.522 61.4915 361.585 63.1942 361.216 64.8189C362.091 66.2195 363.44 68.0088 365.259 69.3642ZM355.967 57.8629C353.658 63.0662 354.016 69.5826 358.118 74.0009C363.98 80.313 374.877 78.7515 384.84 78.695C388.693 78.6216 392.458 77.0101 395.171 74.2635C402.855 66.2901 397.991 49.561 384.84 49.3181C377.409 49.272 369.239 48.0436 363.429 50.3676C362.975 50.5483 362.536 50.7564 362.112 50.986C363.305 52.2087 364.742 53.8494 365.675 55.4806C366.6 55.0881 367.602 54.8546 368.655 54.8217C376.922 54.6701 386.88 52.509 391.617 58.0098C394.622 61.499 394.457 67.2407 391.071 70.5832C389.387 72.2068 387.105 73.1481 384.772 73.1924C375.251 73.2479 363.406 75.3318 360.314 67.3151C359.704 65.7357 359.642 64.0338 360.01 62.4083C359.136 61.0086 357.786 59.2183 355.967 57.8629Z" fill="#CE1340"/>
<rect x="212" y="25" width="128" height="78" rx="7" fill="white" stroke="#CE1340" stroke-width="2"/>
<rect x="221" y="33" width="110" height="28" rx="4" fill="#FFD0DB"/>
<path d="M271.768 40C272.538 38.6667 274.462 38.6667 275.232 40L280.861 49.75C281.631 51.0833 280.669 52.75 279.129 52.75H267.871C266.331 52.75 265.369 51.0833 266.139 49.75L271.768 40Z" fill="#CE1340"/>
<path d="M278.768 43C279.538 41.6667 281.462 41.6667 282.232 43L286.129 49.75C286.899 51.0833 285.937 52.75 284.397 52.75H276.603C275.063 52.75 274.101 51.0833 274.871 49.75L278.768 43Z" fill="#CE1340"/>
<line x1="221" y1="68" x2="331" y2="68" stroke="#FFD0DB" stroke-width="2"/>
<line x1="221" y1="74.5" x2="331" y2="74.5" stroke="#FFD0DB"/>
<line x1="221" y1="80.5" x2="331" y2="80.5" stroke="#FFD0DB"/>
<line x1="221" y1="86.5" x2="331" y2="86.5" stroke="#FFD0DB"/>
<line x1="221" y1="92.5" x2="331" y2="92.5" stroke="#FFD0DB"/>
<rect x="221" y="33" width="110" height="28" rx="4" fill="#FFD0DB"/>
<path d="M271.768 40C272.538 38.6667 274.462 38.6667 275.232 40L280.861 49.75C281.631 51.0833 280.669 52.75 279.129 52.75H267.871C266.331 52.75 265.369 51.0833 266.139 49.75L271.768 40Z" fill="#CE1340"/>
<path d="M278.768 43C279.538 41.6667 281.462 41.6667 282.232 43L286.129 49.75C286.899 51.0833 285.937 52.75 284.397 52.75H276.603C275.063 52.75 274.101 51.0833 274.871 49.75L278.768 43Z" fill="#CE1340"/>
<line x1="221" y1="68" x2="331" y2="68" stroke="#FFD0DB" stroke-width="2"/>
<line x1="221" y1="74.5" x2="331" y2="74.5" stroke="#FFD0DB"/>
<line x1="221" y1="80.5" x2="331" y2="80.5" stroke="#FFD0DB"/>
<line x1="221" y1="86.5" x2="331" y2="86.5" stroke="#FFD0DB"/>
<line x1="221" y1="92.5" x2="331" y2="92.5" stroke="#FFD0DB"/>
<rect x="45" y="25" width="128" height="78" rx="7" fill="white" stroke="#CE1340" stroke-width="2"/>
<rect x="379" y="25" width="128" height="78" rx="7" fill="white" stroke="#CE1340" stroke-width="2"/>
<rect x="388" y="33" width="110" height="28" rx="4" fill="#FFD0DB"/>
<path d="M438.768 40C439.538 38.6667 441.462 38.6667 442.232 40L447.861 49.75C448.631 51.0833 447.669 52.75 446.129 52.75H434.871C433.331 52.75 432.369 51.0833 433.139 49.75L438.768 40Z" fill="#CE1340"/>
<path d="M445.768 43C446.538 41.6667 448.462 41.6667 449.232 43L453.129 49.75C453.899 51.0833 452.937 52.75 451.397 52.75H443.603C442.063 52.75 441.101 51.0833 441.871 49.75L445.768 43Z" fill="#CE1340"/>
<line x1="388" y1="68" x2="498" y2="68" stroke="#FFD0DB" stroke-width="2"/>
<line x1="388" y1="74.5" x2="498" y2="74.5" stroke="#FFD0DB"/>
<line x1="388" y1="80.5" x2="498" y2="80.5" stroke="#FFD0DB"/>
<line x1="388" y1="86.5" x2="498" y2="86.5" stroke="#FFD0DB"/>
<line x1="388" y1="92.5" x2="498" y2="92.5" stroke="#FFD0DB"/>
<rect x="388" y="33" width="110" height="28" rx="4" fill="#FFD0DB"/>
<path d="M438.768 40C439.538 38.6667 441.462 38.6667 442.232 40L447.861 49.75C448.631 51.0833 447.669 52.75 446.129 52.75H434.871C433.331 52.75 432.369 51.0833 433.139 49.75L438.768 40Z" fill="#CE1340"/>
<path d="M445.768 43C446.538 41.6667 448.462 41.6667 449.232 43L453.129 49.75C453.899 51.0833 452.937 52.75 451.397 52.75H443.603C442.063 52.75 441.101 51.0833 441.871 49.75L445.768 43Z" fill="#CE1340"/>
<line x1="388" y1="68" x2="498" y2="68" stroke="#FFD0DB" stroke-width="2"/>
<line x1="388" y1="74.5" x2="498" y2="74.5" stroke="#FFD0DB"/>
<line x1="388" y1="80.5" x2="498" y2="80.5" stroke="#FFD0DB"/>
<line x1="388" y1="86.5" x2="498" y2="86.5" stroke="#FFD0DB"/>
<line x1="388" y1="92.5" x2="498" y2="92.5" stroke="#FFD0DB"/>
<rect x="54" y="33" width="110" height="28" rx="4" fill="#FFD0DB"/>
<path d="M104.768 40C105.538 38.6667 107.462 38.6667 108.232 40L113.861 49.75C114.631 51.0833 113.669 52.75 112.129 52.75H100.871C99.3312 52.75 98.369 51.0833 99.1388 49.75L104.768 40Z" fill="#CE1340"/>
<path d="M111.768 43C112.538 41.6667 114.462 41.6667 115.232 43L119.129 49.75C119.899 51.0833 118.937 52.75 117.397 52.75H109.603C108.063 52.75 107.101 51.0833 107.871 49.75L111.768 43Z" fill="#CE1340"/>
<line x1="54" y1="68" x2="164" y2="68" stroke="#FFD0DB" stroke-width="2"/>
<line x1="54" y1="74.5" x2="164" y2="74.5" stroke="#FFD0DB"/>
<line x1="54" y1="80.5" x2="164" y2="80.5" stroke="#FFD0DB"/>
<line x1="54" y1="86.5" x2="164" y2="86.5" stroke="#FFD0DB"/>
<line x1="54" y1="92.5" x2="164" y2="92.5" stroke="#FFD0DB"/>
<circle cx="109" cy="76" r="16" transform="rotate(180 109 76)" stroke="#CE1340" stroke-width="2"/>
<path d="M100.667 72.3897L100.023 75.9963C99.8616 76.8971 100.578 77.721 101.522 77.721H106.257C106.726 77.721 107.084 78.1284 107.008 78.5769L106.402 82.1523C106.304 82.7331 106.332 83.3275 106.485 83.8972C106.611 84.3691 106.988 84.7481 107.483 84.9019L107.615 84.9431C107.915 85.0361 108.241 85.0145 108.523 84.883C108.834 84.7382 109.061 84.4743 109.145 84.1603L109.58 82.5392C109.718 82.0234 109.92 81.5255 110.179 81.055C110.559 80.3677 111.146 79.8176 111.756 79.3091L113.071 78.2131C113.442 77.904 113.636 77.4413 113.594 76.9694L112.852 68.6662C112.784 67.9047 112.126 67.32 111.336 67.32H107.088C103.906 67.32 101.191 69.4642 100.667 72.3897Z" fill="#CE1340"/>
<path opacity="0.5" fill-rule="evenodd" clip-rule="evenodd" d="M116.408 78.1986C116.077 78.2137 115.794 77.9506 115.765 77.6019L114.964 67.8103C114.912 67.1813 115.381 66.6392 115.98 66.6392C116.544 66.6392 117 67.1227 117 67.7174V77.5456C117 77.8956 116.739 78.1835 116.408 78.1986Z" fill="#CE1340"/>
<circle cx="276" cy="76" r="16" transform="rotate(180 276 76)" stroke="#CE1340" stroke-width="2"/>
<path d="M267.667 72.3897L267.023 75.9963C266.862 76.8971 267.578 77.721 268.522 77.721H273.257C273.726 77.721 274.084 78.1284 274.008 78.5769L273.402 82.1523C273.304 82.7331 273.332 83.3275 273.485 83.8972C273.611 84.3691 273.988 84.7481 274.483 84.9019L274.615 84.9431C274.915 85.0361 275.241 85.0145 275.523 84.883C275.834 84.7382 276.061 84.4743 276.145 84.1603L276.58 82.5392C276.718 82.0234 276.92 81.5255 277.179 81.055C277.559 80.3677 278.146 79.8176 278.756 79.3091L280.071 78.2131C280.442 77.904 280.636 77.4413 280.594 76.9694L279.852 68.6662C279.784 67.9047 279.126 67.32 278.336 67.32H274.088C270.906 67.32 268.191 69.4642 267.667 72.3897Z" fill="#CE1340"/>
<path opacity="0.5" fill-rule="evenodd" clip-rule="evenodd" d="M283.408 78.1986C283.077 78.2137 282.794 77.9506 282.765 77.6019L281.964 67.8103C281.912 67.1813 282.381 66.6392 282.98 66.6392C283.544 66.6392 284 67.1227 284 67.7174V77.5456C284 77.8956 283.739 78.1835 283.408 78.1986Z" fill="#CE1340"/>
<circle cx="443" cy="76" r="16" transform="rotate(180 443 76)" stroke="#CE1340" stroke-width="2"/>
<path d="M434.667 72.3897L434.023 75.9963C433.862 76.8971 434.578 77.721 435.522 77.721H440.257C440.726 77.721 441.084 78.1284 441.008 78.5769L440.402 82.1523C440.304 82.7331 440.332 83.3275 440.485 83.8972C440.611 84.3691 440.988 84.7481 441.483 84.9019L441.615 84.9431C441.915 85.0361 442.241 85.0145 442.523 84.883C442.834 84.7382 443.061 84.4743 443.145 84.1603L443.58 82.5392C443.718 82.0234 443.92 81.5255 444.179 81.055C444.559 80.3677 445.146 79.8176 445.756 79.3091L447.071 78.2131C447.442 77.904 447.636 77.4413 447.594 76.9694L446.852 68.6662C446.784 67.9047 446.126 67.32 445.336 67.32H441.088C437.906 67.32 435.191 69.4642 434.667 72.3897Z" fill="#CE1340"/>
<path opacity="0.5" fill-rule="evenodd" clip-rule="evenodd" d="M450.408 78.1986C450.077 78.2137 449.794 77.9506 449.765 77.6019L448.964 67.8103C448.912 67.1813 449.381 66.6392 449.98 66.6392C450.544 66.6392 451 67.1227 451 67.7174V77.5456C451 77.8956 450.739 78.1835 450.408 78.1986Z" fill="#CE1340"/>
</svg>
