<svg width="142" height="229" viewBox="0 0 142 229" fill="none" xmlns="http://www.w3.org/2000/svg">
<circle cx="71" cy="151" r="71" fill="#CE1340"/>
<path d="M113.324 218L29.1553 229V146C29.1553 138.213 38.9076 120.636 53.6468 120.636H88.8326C105.456 120.636 113.324 136.611 113.324 144.353V218Z" fill="#053751"/>
<path d="M91.4724 79.8667C91.4724 79.8667 89.3112 82.7508 89.3112 85.5794C89.3112 88.7408 93.5782 88.7408 93.6337 85.5794C93.6891 83.25 91.4724 79.8667 91.4724 79.8667Z" fill="white"/>
<path d="M83.1045 122.906C83.1045 130.338 77.0641 136.494 69.6382 136.494H69.5274C62.1016 136.494 55.9503 130.338 55.9503 122.906V110.981H83.1045V122.906Z" fill="#F6AE8D"/>
<path d="M69.472 128.453C50.1316 128.453 26.912 111.536 26.912 87.8537V16.5283H112.309V87.7982C112.254 111.536 88.757 128.453 69.472 128.453Z" fill="#F8C09D"/>
<path d="M36.9424 48.1973H16.8262V69.8278H36.9424V48.1973Z" fill="#C94B4B"/>
<path d="M26.6349 80.7542C33.3376 80.7542 38.7712 75.3161 38.7712 68.6078C38.7712 61.8995 33.3376 56.4614 26.6349 56.4614C19.9323 56.4614 14.4987 61.8995 14.4987 68.6078C14.4987 75.3161 19.9323 80.7542 26.6349 80.7542Z" fill="#F8C09D"/>
<path d="M24.1966 70.3272C24.1966 67.9423 26.1361 66.0011 28.5191 66.0011C29.1841 66.0011 29.7936 66.1675 30.3478 66.3893C29.572 65.1137 28.242 64.2817 26.6349 64.2817C24.252 64.2817 22.3124 66.2229 22.3124 68.6079C22.3124 70.3272 23.3099 71.8247 24.8061 72.4903C24.4182 71.8802 24.1966 71.1037 24.1966 70.3272Z" fill="#EF937E"/>
<path d="M33.8945 14.3098V14.5316H28.5745C22.0908 14.5316 16.8262 19.6897 16.8262 26.1234V26.0125V42.5959V56.2398H36.9424V50.0834C36.9424 45.9791 40.1012 42.7068 44.2574 42.7068H109.649C117.463 42.7068 123.836 36.2731 123.836 28.4529V0.000349952H48.192C40.3782 -0.055113 33.8945 6.48952 33.8945 14.3098Z" fill="#C94B4B"/>
<path d="M120.289 65.1138L111.755 59.0683V36.1621H120.289V65.1138Z" fill="#C94B4B"/>
<path d="M113.196 80.7542C119.898 80.7542 125.332 75.3161 125.332 68.6078C125.332 61.8995 119.898 56.4614 113.196 56.4614C106.493 56.4614 101.06 61.8995 101.06 68.6078C101.06 75.3161 106.493 80.7542 113.196 80.7542Z" fill="#F8C09D"/>
<path d="M117.186 70.3272C117.186 67.9423 115.246 66.0011 112.863 66.0011C112.198 66.0011 111.589 66.1675 111.035 66.3893C111.81 65.1137 113.14 64.2817 114.748 64.2817C117.13 64.2817 119.07 66.2229 119.07 68.6079C119.07 70.3272 118.072 71.8247 116.576 72.4903C116.964 71.8802 117.186 71.1037 117.186 70.3272Z" fill="#EF937E"/>
<path d="M58.2778 106.101C61.6028 101.054 67.1999 97.1714 74.1824 97.1714C82.4949 97.1714 87.7595 101.664 90.087 106.101" stroke="#EF937E" stroke-width="4.0717" stroke-miterlimit="10" stroke-linecap="round"/>
<path d="M70.8574 109.65C70.8574 109.65 71.7995 108.375 74.7366 108.319C76.787 108.319 78.782 109.429 78.782 109.429" stroke="#EF937E" stroke-width="4.0717" stroke-miterlimit="10" stroke-linecap="round"/>
<path d="M71.9103 80.5321V89.2398C71.9103 89.6281 72.409 89.9608 72.797 89.9608H77.9507C79.3361 89.9608 80.112 88.3524 79.2253 87.2432L73.2403 80.0884C72.797 79.5893 71.9103 79.8666 71.9103 80.5321Z" fill="#EF937E"/>
<path d="M57.1141 75.929C58.6444 75.929 59.8849 73.7438 59.8849 71.0482C59.8849 68.3527 58.6444 66.1675 57.1141 66.1675C55.5838 66.1675 54.3433 68.3527 54.3433 71.0482C54.3433 73.7438 55.5838 75.929 57.1141 75.929Z" fill="#333333"/>
<path d="M91.9712 75.929C93.5014 75.929 94.742 73.7438 94.742 71.0482C94.742 68.3527 93.5014 66.1675 91.9712 66.1675C90.4409 66.1675 89.2003 68.3527 89.2003 71.0482C89.2003 73.7438 90.4409 75.929 91.9712 75.929Z" fill="#333333"/>
<path d="M52.9579 66.4446C52.9579 66.4446 54.5095 66.611 55.6179 66.2228C57.5575 65.5017 58.4996 64.5034 58.4996 64.5034" stroke="#333333" stroke-width="3.5942" stroke-miterlimit="10" stroke-linecap="round"/>
<path d="M95.1853 66.9439C95.1853 66.9439 93.2458 66.6112 92.2483 66.0011C91.0845 65.3355 90.087 64.0044 90.087 64.0044" stroke="#333333" stroke-width="3.5942" stroke-miterlimit="10" stroke-linecap="round"/>
</svg>
