<svg width="394" height="636" viewBox="0 0 394 636" fill="none" xmlns="http://www.w3.org/2000/svg">
<path d="M19.6721 177.031C19.6721 79.2594 98.9397 0 196.721 0C294.503 0 373.77 79.2594 373.77 177.031V636H19.6721V177.031Z" fill="#494949"/>
<path d="M49.9329 185.791C49.9329 103.825 116.387 37.3777 198.361 37.3777C280.336 37.3777 346.791 103.825 346.791 185.791V191.117C346.791 212.345 329.581 229.553 308.352 229.553H88.3719C67.1424 229.553 49.9329 212.345 49.9329 191.117V185.791Z" fill="#D9D9D9"/>
<path d="M129.714 295.737H132.024V294.307C132.024 293.84 131.855 293.452 131.517 293.144C131.18 292.826 130.762 292.668 130.266 292.668C129.778 292.668 129.371 292.826 129.043 293.144C128.715 293.462 128.552 293.85 128.552 294.307C128.552 294.555 128.576 294.788 128.626 295.007C128.686 295.225 128.795 295.404 128.954 295.543C129.123 295.672 129.376 295.737 129.714 295.737ZM126.152 303.754C127.375 303.754 128.388 303.72 129.192 303.65C129.997 303.581 130.574 303.451 130.921 303.263C131.269 303.074 131.463 302.835 131.502 302.547H130.221C128.899 302.507 127.697 302.204 126.615 301.638C125.541 301.082 124.682 300.282 124.036 299.239C123.39 298.186 123.068 296.914 123.068 295.424C123.068 293.765 123.301 292.394 123.768 291.311C124.245 290.219 124.851 289.354 125.586 288.718C126.321 288.073 127.101 287.621 127.926 287.363C128.75 287.094 129.515 286.96 130.221 286.96C132.357 286.96 134.19 287.764 135.72 289.374C137.161 291.003 137.881 293.02 137.881 295.424V300.997C137.871 302.378 137.668 303.565 137.27 304.559C136.883 305.562 136.391 306.406 135.795 307.092C135.209 307.777 134.613 308.354 134.006 308.821C133.649 309.069 133.157 309.327 132.531 309.596C131.915 309.874 131.03 310.102 129.878 310.281C128.875 310.44 127.573 310.519 125.973 310.519H124.349V303.754H126.152ZM171.186 302.621C162.839 302.621 158.245 302.611 157.4 302.592C156.556 302.572 155.835 302.512 155.239 302.413C153.53 302.145 152.229 301.32 151.335 299.94C150.947 299.343 150.659 298.633 150.47 297.809C150.291 296.974 150.202 296.114 150.202 295.231C150.202 294.724 150.232 294.227 150.291 293.74C150.53 292.19 150.823 290.899 151.171 289.866L151.186 289.777L157.043 291.505L156.834 292.399C156.436 294.028 156.237 294.947 156.237 295.156C156.237 295.354 156.293 295.514 156.401 295.632C156.521 295.752 156.739 295.811 157.057 295.811H171.35C172.035 295.811 172.497 295.672 172.735 295.394C172.974 295.116 173.093 294.694 173.093 294.128V290.983H179.188V294.635C179.209 295.002 179.352 295.275 179.62 295.454C179.889 295.632 180.326 295.722 180.932 295.722H182.214V302.547C180.853 302.547 179.824 302.528 179.129 302.488C178.434 302.457 177.902 302.373 177.535 302.234C177.176 302.095 176.849 301.882 176.551 301.593C176.024 301.931 175.468 302.17 174.881 302.309C174.305 302.457 173.704 302.547 173.078 302.577C172.462 302.607 171.832 302.621 171.186 302.621ZM165.045 310.579L161.573 307.107L165.045 303.62L168.533 307.107L165.045 310.579ZM210.325 302.532C208.805 302.532 207.677 302.507 206.942 302.457C206.217 302.408 205.666 302.289 205.288 302.1C204.911 301.921 204.533 301.633 204.155 301.236C203.47 301.753 202.551 302.145 201.399 302.413C201.031 302.482 200.639 302.522 200.221 302.532C198.125 302.532 196.684 302.1 195.899 301.236C195.293 301.643 194.687 301.961 194.081 302.189C193.475 302.418 192.794 302.532 192.039 302.532C190.986 302.532 190.122 302.403 189.446 302.145C188.78 301.896 188.199 301.593 187.702 301.236L187.449 301.489C187.171 301.807 186.883 302.04 186.585 302.189C186.287 302.339 185.775 302.433 185.05 302.472C184.325 302.512 183.133 302.532 181.473 302.532V295.722H182.978C183.624 295.722 184.076 295.618 184.335 295.409C184.593 295.2 184.722 294.893 184.722 294.485V290.983H190.832V294.515C190.832 294.882 190.917 295.186 191.085 295.424C191.255 295.663 191.498 295.787 191.816 295.796C192.551 295.796 192.919 295.399 192.919 294.604V290.983H199.014V294.515C199.014 294.882 199.118 295.186 199.327 295.424C199.536 295.663 199.799 295.782 200.117 295.782C200.435 295.782 200.668 295.663 200.817 295.424C200.967 295.186 201.041 294.882 201.041 294.515V290.983H207.151V294.515C207.151 294.922 207.28 295.225 207.538 295.424C207.807 295.623 208.259 295.722 208.895 295.722H210.325V302.532ZM211.746 288.614L212.372 283.443L225.413 277.497L227.946 283.056L219.019 287.139C219.257 287.387 219.516 287.65 219.794 287.928C220.439 288.564 221.165 289.305 221.97 290.149C222.119 290.308 222.263 290.457 222.402 290.596C222.958 291.172 223.435 291.698 223.833 292.176C224.23 292.643 224.553 293.134 224.801 293.651C225.129 294.356 225.338 295.002 225.427 295.588C225.487 296.025 225.517 296.442 225.517 296.84C225.517 296.989 225.507 297.232 225.487 297.57C225.467 297.908 225.333 298.405 225.085 299.06C224.896 299.547 224.538 300.063 224.011 300.61C223.485 301.146 222.715 301.598 221.702 301.966C220.599 302.343 219.197 302.532 217.499 302.532H209.585V295.722H217.499C217.797 295.722 218.15 295.717 218.557 295.707C218.964 295.688 219.268 295.667 219.466 295.648C218.542 294.575 217.519 293.532 216.396 292.518C215.274 291.495 214.27 290.631 213.386 289.926C212.511 289.21 211.98 288.783 211.791 288.644L211.746 288.614ZM248.102 302.488C246.99 302.488 245.788 302.349 244.496 302.071C243.215 301.802 242.092 301.529 241.128 301.251C240.174 300.962 239.588 300.779 239.369 300.7L241.307 294.321C242.221 294.629 243.363 294.952 244.735 295.29C246.106 295.618 247.228 295.782 248.102 295.782C248.52 295.782 248.758 295.707 248.818 295.558C248.838 295.518 248.848 295.469 248.848 295.409C248.848 295.26 248.763 295.052 248.594 294.783L243.23 287.124L248.266 283.682C248.266 283.682 248.495 283.994 248.952 284.65C249.637 285.644 251.182 287.849 253.587 291.266C254.511 292.578 254.973 294.033 254.973 295.632C254.973 296.845 254.729 297.957 254.243 298.97C253.656 300.083 252.822 300.947 251.739 301.564C250.666 302.179 249.454 302.488 248.102 302.488ZM265.559 302.547H264.232C263.358 302.547 262.588 302.448 261.922 302.249C261.266 302.05 260.705 301.802 260.238 301.504C259.771 301.206 259.384 300.908 259.076 300.61C258.778 300.312 258.479 299.929 258.182 299.462C257.894 298.995 257.645 298.434 257.437 297.779C257.238 297.113 257.138 296.343 257.138 295.469L257.154 280.344H263.249V294.768C263.249 295.116 263.363 295.364 263.592 295.514C263.82 295.653 264.024 295.722 264.203 295.722H265.559V302.547ZM270.955 302.517H264.338V295.722H270.955C271.323 295.722 271.571 295.678 271.7 295.588C271.829 295.489 271.894 295.339 271.894 295.141C271.894 294.992 271.874 294.818 271.834 294.619L271.089 290.745L276.991 288.957L277.825 293.487C277.975 294.261 278.049 294.977 278.049 295.632C278.049 296.546 277.885 297.495 277.557 298.479C277.338 299.134 277.055 299.676 276.708 300.104C276.012 301.007 275.093 301.678 273.95 302.115C273.106 302.383 272.108 302.517 270.955 302.517ZM268.824 310.713L265.56 307.435L268.824 304.171L272.102 307.435L268.824 310.713ZM275.813 310.713L272.55 307.435L275.813 304.171L279.092 307.435L275.813 310.713ZM297.541 296.363C297.72 296.363 297.929 296.313 298.167 296.214C298.415 296.114 298.634 295.956 298.822 295.737C299.011 295.509 299.106 295.215 299.106 294.858C299.106 294.679 299.021 294.465 298.853 294.217C298.683 293.959 298.495 293.711 298.286 293.472C298.077 293.224 297.889 293.02 297.72 292.861L297.466 292.608L297.243 292.846C297.084 292.995 296.905 293.189 296.706 293.427C296.517 293.665 296.344 293.919 296.185 294.187C296.036 294.446 295.961 294.684 295.961 294.903C295.961 295.26 296.056 295.549 296.245 295.767C296.443 295.975 296.666 296.129 296.915 296.228C297.163 296.318 297.372 296.363 297.541 296.363ZM297.586 302.577C296.502 302.577 295.544 302.453 294.71 302.204C293.875 301.956 293.11 301.509 292.415 300.863C291.848 300.326 291.361 299.577 290.954 298.613C290.546 297.64 290.343 296.577 290.343 295.424V295.081C290.492 292.747 291.277 290.834 292.697 289.344C292.936 289.096 293.15 288.852 293.338 288.614L293.04 288.286C292.861 288.088 292.772 287.974 292.772 287.974L297.333 283.905L297.422 284.009C297.839 284.486 299.369 286.175 302.012 289.076C302.687 289.762 303.308 290.562 303.875 291.475C304.441 292.379 304.789 293.557 304.918 295.007C304.938 295.245 304.948 295.474 304.948 295.692C304.948 297.242 304.575 298.569 303.83 299.671C302.986 300.943 301.873 301.782 300.492 302.189C299.637 302.448 298.669 302.577 297.586 302.577ZM314.662 302.741C313.54 302.741 312.367 302.627 311.145 302.398C309.933 302.179 308.89 301.951 308.016 301.713C307.141 301.484 306.605 301.335 306.406 301.265L308.224 294.753C308.602 294.873 309.163 295.027 309.908 295.215C310.653 295.404 311.458 295.578 312.323 295.737C313.187 295.886 313.967 295.96 314.662 295.96C314.921 295.96 315.129 295.926 315.289 295.856C315.517 295.757 315.631 295.632 315.631 295.484C315.631 295.345 315.571 295.175 315.453 294.977L315.437 294.962C313.53 292.151 312.184 290.164 311.399 289.002C310.624 287.829 310.251 287.243 310.251 287.243L315.363 283.905C315.363 283.945 317.072 286.493 320.489 291.55C320.559 291.649 320.624 291.754 320.683 291.862C321.001 292.389 321.488 293.069 322.144 293.904C323.108 295.126 323.838 295.737 324.335 295.737H325.125V302.532H323.679C322.258 302.522 320.892 301.996 319.58 300.953C319.223 301.28 318.826 301.564 318.388 301.802C317.245 302.428 316.004 302.741 314.662 302.741ZM328.082 302.517H324.371V295.722H328.082C328.45 295.722 328.698 295.678 328.828 295.588C328.957 295.489 329.021 295.339 329.021 295.141C329.021 294.992 329.001 294.818 328.961 294.619L328.216 290.745L334.118 288.957L334.953 293.487C335.102 294.261 335.176 294.977 335.176 295.632C335.176 296.546 335.012 297.495 334.684 298.479C334.466 299.134 334.182 299.676 333.835 300.104C333.139 301.007 332.22 301.678 331.077 302.115C330.234 302.383 329.235 302.517 328.082 302.517ZM330.109 286.856L326.637 283.384L330.109 279.896L333.596 283.384L330.109 286.856ZM335.938 310.549H334.477V303.739H335.938C337.637 303.739 338.809 303.377 339.455 302.651C340.091 301.867 340.409 300.644 340.409 298.986V290.983H346.519V298.986C346.519 300.605 346.306 302.185 345.878 303.724C345.451 305.264 344.835 306.481 344.03 307.375C343.087 308.458 341.909 309.263 340.498 309.789C339.157 310.296 337.637 310.549 335.938 310.549ZM343.509 289.18L340.036 285.708L343.509 282.221L346.996 285.708L343.509 289.18ZM232.967 369.515H229.003C227.215 369.515 225.674 369.202 224.383 368.576C223.091 367.95 222.028 367.116 221.194 366.072C220.359 365.039 219.743 363.877 219.346 362.586C218.948 361.294 218.75 359.978 218.75 358.636C218.75 357.435 218.948 356.073 219.346 354.554C219.753 353.034 220.329 351.578 221.074 350.188L226.544 352.825C225.451 355.09 224.904 357.027 224.904 358.636C224.904 359.928 225.247 360.937 225.933 361.662C226.618 362.397 227.641 362.765 229.003 362.765H232.967C233.722 362.765 234.358 362.74 234.875 362.69C235.392 362.64 235.818 362.576 236.156 362.496C236.494 362.427 236.752 362.352 236.931 362.273C237.12 362.203 237.249 362.144 237.319 362.094L237.423 362.019C236.837 361.741 236.171 361.527 235.426 361.378C234.691 361.23 233.891 361.1 233.027 360.991L232.117 360.857V354.747H245.739V361.542H243.012C243.062 361.83 243.086 362.119 243.086 362.407C243.086 363.728 242.843 364.821 242.356 365.685C241.879 366.549 241.253 367.24 240.478 367.756C239.703 368.273 238.864 368.656 237.959 368.904C237.056 369.162 236.161 369.326 235.277 369.395C234.403 369.475 233.633 369.515 232.967 369.515ZM246.61 347.312L243.346 344.048L246.61 340.769L249.889 344.048L246.61 347.312ZM253.599 347.312L250.336 344.048L253.599 340.769L256.878 344.048L253.599 347.312ZM258.026 361.527H255.835C254.355 361.527 252.974 361.12 251.692 360.306C251.115 360.763 250.47 361.081 249.755 361.259C249.049 361.438 248.135 361.527 247.013 361.527H242.02V354.733H247.445C247.931 354.733 248.249 354.683 248.399 354.583C248.548 354.474 248.622 354.285 248.622 354.017V349.993H254.733V354.017C254.733 354.266 254.787 354.449 254.896 354.569C255.005 354.678 255.279 354.733 255.716 354.733H258.026V361.527ZM269.514 361.527H268.917C267.397 361.527 266.016 361.145 264.774 360.38C263.493 361.145 261.933 361.527 260.094 361.527H257.293V354.733H260.527C261.014 354.733 261.331 354.683 261.481 354.583C261.63 354.474 261.704 354.285 261.704 354.017V349.993H267.815V354.017C267.815 354.266 267.869 354.449 267.978 354.569C268.087 354.678 268.361 354.733 268.798 354.733H269.514V361.527ZM263.686 346.879L260.214 343.407L263.686 339.92L267.173 343.407L263.686 346.879ZM288.711 361.542C286.853 361.542 285.313 361.11 284.091 360.246C283.485 360.653 282.864 360.971 282.228 361.2C281.592 361.428 280.896 361.542 280.141 361.542C279.088 361.542 278.224 361.413 277.548 361.155C276.883 360.906 276.301 360.603 275.805 360.246C275.437 360.643 275.045 360.931 274.627 361.11C274.22 361.299 273.589 361.419 272.735 361.468C271.88 361.518 270.554 361.542 268.755 361.542V354.733H271.065C271.711 354.733 272.163 354.623 272.422 354.405C272.69 354.176 272.824 353.858 272.824 353.451V349.993H278.934V353.526C278.934 353.893 279.024 354.196 279.203 354.434C279.391 354.673 279.645 354.797 279.963 354.807C280.727 354.807 281.11 354.39 281.11 353.555V349.993H287.205V353.526C287.205 353.893 287.315 354.196 287.533 354.434C287.752 354.673 288.02 354.792 288.338 354.792C288.746 354.792 289.053 354.683 289.262 354.464C289.481 354.236 289.59 354.017 289.59 353.809C289.59 353.719 289.485 353.103 289.277 351.96L288.815 349.487L294.791 348.25L294.925 348.861C295.154 350.004 295.348 351.062 295.506 352.035C295.635 352.82 295.7 353.461 295.7 353.958C295.7 354.762 295.611 355.517 295.432 356.222C295.253 356.928 295.03 357.549 294.761 358.085C294.493 358.612 294.22 359.024 293.942 359.322C292.59 360.733 290.847 361.473 288.711 361.542ZM308.434 369.559H306.974V362.75H308.434C310.133 362.75 311.306 362.387 311.952 361.662C312.587 360.877 312.905 359.655 312.905 357.996V349.993H319.015V357.996C319.015 359.615 318.802 361.195 318.375 362.734C317.948 364.275 317.331 365.492 316.527 366.385C315.583 367.468 314.405 368.273 312.995 368.799C311.653 369.306 310.133 369.559 308.434 369.559ZM329.948 361.557H328.622C327.747 361.557 326.977 361.458 326.312 361.259C325.656 361.06 325.094 360.812 324.628 360.514C324.161 360.216 323.773 359.918 323.465 359.62C323.167 359.322 322.869 358.939 322.571 358.473C322.283 358.006 322.034 357.444 321.826 356.789C321.627 356.123 321.527 355.354 321.527 354.479L321.542 339.354H327.638V353.779C327.638 354.126 327.752 354.375 327.98 354.524C328.209 354.663 328.413 354.733 328.592 354.733H329.948V361.557ZM331.335 347.625L331.961 342.453L345.001 336.508L347.535 342.066L338.608 346.149C338.846 346.398 339.104 346.661 339.383 346.939C340.028 347.575 340.754 348.315 341.559 349.159C341.708 349.318 341.852 349.467 341.991 349.607C342.547 350.182 343.024 350.709 343.422 351.186C343.819 351.653 344.142 352.145 344.39 352.661C344.718 353.366 344.927 354.012 345.016 354.598C345.076 355.036 345.106 355.453 345.106 355.85C345.106 355.999 345.096 356.243 345.076 356.58C345.056 356.918 344.922 357.415 344.674 358.071C344.485 358.557 344.127 359.074 343.6 359.62C343.074 360.156 342.304 360.609 341.291 360.976C340.188 361.354 338.787 361.542 337.088 361.542H329.174V354.733H337.088C337.386 354.733 337.738 354.727 338.146 354.718C338.553 354.698 338.856 354.678 339.055 354.658C338.131 353.585 337.108 352.542 335.985 351.528C334.862 350.506 333.858 349.641 332.975 348.936C332.1 348.221 331.569 347.793 331.38 347.654L331.335 347.625Z" fill="white"/>
<path d="M248.46 432.194C248.413 433.29 248.21 434.276 247.853 435.151C247.495 436.032 247.002 436.78 246.374 437.392C245.746 438.011 244.987 438.489 244.097 438.822C243.207 439.156 242.201 439.323 241.081 439.323H239.602V436.354H241.081C241.843 436.354 242.503 436.275 243.06 436.116C243.616 435.957 244.073 435.703 244.431 435.353C244.788 435.003 245.055 434.547 245.23 433.982C245.405 433.425 245.492 432.746 245.492 431.944V424.683H248.46V432.194ZM254.434 432.921H251.464V415.731H254.434V432.921ZM262.523 432.194C262.475 433.29 262.273 434.276 261.915 435.151C261.557 436.032 261.064 436.78 260.437 437.392C259.809 438.011 259.05 438.489 258.159 438.822C257.269 439.156 256.264 439.323 255.143 439.323H253.664V436.354H255.143C255.906 436.354 256.566 436.275 257.122 436.116C257.679 435.957 258.136 435.703 258.493 435.353C258.851 435.003 259.117 434.547 259.292 433.982C259.467 433.425 259.554 432.746 259.554 431.944V424.683H262.523V432.194ZM258.756 419.521L260.902 417.352L263.095 419.546L260.925 421.715L258.756 419.521ZM271.321 432.921C270.447 432.921 269.696 432.866 269.068 432.754C268.44 432.651 267.912 432.496 267.482 432.289C267.053 432.075 266.708 431.805 266.445 431.479C266.191 431.153 265.996 430.771 265.861 430.334C265.726 429.897 265.634 429.404 265.586 428.856C265.547 428.299 265.527 427.688 265.527 427.02V415.731H268.496V427.02C268.496 427.656 268.516 428.164 268.556 428.546C268.603 428.928 268.718 429.225 268.901 429.44C269.092 429.647 269.374 429.786 269.748 429.857C270.129 429.921 270.654 429.952 271.321 429.952V432.921ZM277.735 422.907C277.752 422.963 277.783 423.094 277.831 423.301C277.887 423.507 277.946 423.762 278.01 424.064C278.073 424.358 278.136 424.687 278.2 425.053C278.272 425.418 278.335 425.788 278.391 426.162C278.455 426.527 278.502 426.885 278.535 427.235C278.574 427.584 278.594 427.89 278.594 428.153C278.594 428.971 278.458 429.682 278.188 430.287C277.918 430.883 277.565 431.375 277.127 431.765C276.69 432.154 276.197 432.444 275.649 432.635C275.108 432.826 274.564 432.921 274.016 432.921H270.844V429.952H274.099C274.194 429.952 274.329 429.941 274.504 429.917C274.687 429.885 274.866 429.809 275.041 429.69C275.224 429.571 275.382 429.392 275.518 429.154C275.653 428.908 275.721 428.574 275.721 428.153C275.721 427.978 275.704 427.767 275.673 427.52C275.649 427.266 275.613 426.996 275.565 426.71C275.518 426.424 275.462 426.134 275.399 425.84C275.343 425.538 275.287 425.256 275.232 424.994C275.176 424.723 275.12 424.481 275.065 424.266C275.009 424.043 274.965 423.873 274.934 423.754L277.735 422.907ZM272.525 437.07L274.672 434.9L276.865 437.093L274.695 439.263L272.525 437.07ZM290.971 429.464C291.552 429.464 292.001 429.631 292.318 429.965C292.636 430.291 292.795 430.7 292.795 431.192C292.795 431.677 292.636 432.083 292.318 432.409C292.001 432.727 291.552 432.885 290.971 432.885C290.415 432.885 289.974 432.727 289.648 432.409C289.33 432.091 289.171 431.685 289.171 431.192C289.171 430.7 289.326 430.291 289.635 429.965C289.954 429.631 290.399 429.464 290.971 429.464ZM290.971 419.784C291.552 419.784 292.001 419.951 292.318 420.285C292.636 420.61 292.795 421.02 292.795 421.513C292.795 421.997 292.636 422.402 292.318 422.728C292.001 423.046 291.552 423.206 290.971 423.206C290.415 423.206 289.974 423.046 289.648 422.728C289.33 422.41 289.171 422.005 289.171 421.513C289.171 421.02 289.326 420.61 289.635 420.285C289.954 419.951 290.399 419.784 290.971 419.784ZM308.834 432.921H307.868C306.811 432.921 305.801 432.456 304.839 431.526C304.577 431.836 304.264 432.094 303.898 432.301C303.54 432.5 303.155 432.659 302.741 432.778C302.328 432.897 301.907 432.981 301.477 433.028C301.056 433.076 300.651 433.1 300.262 433.1C299.959 433.1 299.653 433.08 299.344 433.041C299.034 433.008 298.679 432.949 298.282 432.862C297.893 432.782 297.444 432.675 296.935 432.54C296.426 432.397 295.818 432.218 295.111 432.003L295.969 429.154C296.455 429.345 296.955 429.516 297.472 429.667C297.988 429.809 298.493 429.929 298.986 430.025C299.479 430.112 299.952 430.167 300.405 430.191C300.588 430.207 300.762 430.215 300.929 430.215C301.176 430.215 301.442 430.195 301.728 430.156C302.014 430.116 302.28 430.032 302.527 429.905C302.781 429.77 302.952 429.591 303.039 429.369C303.079 429.273 303.099 429.186 303.099 429.107C303.099 429.034 303.076 428.947 303.028 428.844C302.988 428.741 302.92 428.617 302.825 428.474C302.729 428.324 302.606 428.129 302.455 427.89L298.223 421.941L300.727 420.332L304.983 426.782C305.213 427.131 305.456 427.493 305.71 427.867C305.965 428.24 306.218 428.582 306.473 428.891C306.727 429.194 306.974 429.444 307.213 429.643C307.451 429.842 307.67 429.941 307.868 429.941H308.834V432.921ZM315.235 422.907C315.251 422.963 315.283 423.094 315.331 423.301C315.386 423.507 315.446 423.762 315.51 424.064C315.573 424.358 315.637 424.687 315.7 425.053C315.772 425.418 315.836 425.788 315.891 426.162C315.955 426.527 316.003 426.885 316.034 427.235C316.074 427.584 316.094 427.89 316.094 428.153C316.094 428.971 315.959 429.682 315.689 430.287C315.418 430.883 315.064 431.375 314.628 431.765C314.19 432.154 313.697 432.444 313.149 432.635C312.609 432.826 312.064 432.921 311.516 432.921H308.344V429.952H311.599C311.695 429.952 311.83 429.941 312.005 429.917C312.187 429.885 312.366 429.809 312.541 429.69C312.724 429.571 312.883 429.392 313.018 429.154C313.153 428.908 313.22 428.574 313.22 428.153C313.22 427.978 313.205 427.767 313.173 427.52C313.149 427.266 313.113 426.996 313.066 426.71C313.018 426.424 312.962 426.134 312.898 425.84C312.843 425.538 312.787 425.256 312.732 424.994C312.676 424.723 312.62 424.481 312.565 424.266C312.509 424.043 312.466 423.873 312.434 423.754L315.235 422.907ZM310.765 418.115L312.91 415.945L315.104 418.139L312.935 420.308L310.765 418.115ZM323.307 432.194C323.259 433.29 323.056 434.276 322.699 435.151C322.341 436.032 321.849 436.78 321.22 437.392C320.592 438.011 319.834 438.489 318.943 438.822C318.053 439.156 317.047 439.323 315.927 439.323H314.449V436.354H315.927C316.69 436.354 317.35 436.275 317.906 436.116C318.462 435.957 318.919 435.703 319.277 435.353C319.635 435.003 319.901 434.547 320.076 433.982C320.251 433.425 320.338 432.746 320.338 431.944V424.683H323.307V432.194ZM319.539 419.521L321.685 417.352L323.879 419.546L321.709 421.715L319.539 419.521ZM336.385 432.921H335.932C335.606 432.921 335.296 432.901 335.002 432.862C334.716 432.822 334.434 432.711 334.155 432.528C334.06 433.553 333.826 434.483 333.452 435.317C333.079 436.152 332.578 436.863 331.95 437.451C331.33 438.047 330.587 438.508 329.72 438.834C328.854 439.16 327.88 439.323 326.799 439.323H325.309V436.354H326.799C327.563 436.354 328.222 436.275 328.778 436.116C329.335 435.957 329.792 435.703 330.15 435.353C330.507 435.003 330.774 434.547 330.948 433.982C331.123 433.425 331.211 432.746 331.211 431.944V424.683H334.179V428.248C334.179 428.614 334.255 428.908 334.406 429.13C334.565 429.352 334.744 429.528 334.942 429.655C335.149 429.774 335.348 429.853 335.538 429.893C335.729 429.933 335.86 429.952 335.932 429.952H336.385V432.921ZM336.013 432.921V429.952H340.877C341.545 429.952 342.106 429.917 342.558 429.845C343.011 429.766 343.377 429.667 343.655 429.547C343.942 429.428 344.156 429.297 344.299 429.154C344.442 429.003 344.546 428.852 344.609 428.701C344.029 428.781 343.485 428.82 342.976 428.82C342.546 428.82 342.026 428.781 341.414 428.701C340.802 428.613 340.202 428.391 339.614 428.033C339.026 427.668 338.573 427.183 338.255 426.579C337.944 425.975 337.79 425.252 337.79 424.409C337.79 423.742 337.913 423.114 338.159 422.526C338.405 421.93 338.747 421.413 339.184 420.976C339.63 420.531 340.154 420.181 340.758 419.927C341.283 419.712 341.859 419.605 342.487 419.605H342.725C343.361 419.629 343.921 419.74 344.407 419.939C344.899 420.138 345.325 420.4 345.682 420.726C346.048 421.052 346.35 421.433 346.588 421.87C346.835 422.299 347.03 422.764 347.173 423.265C347.323 423.765 347.431 424.29 347.495 424.838C347.566 425.379 347.605 425.923 347.614 426.471L347.566 427.354C347.502 428.467 347.279 429.385 346.898 430.108C346.517 430.823 346.02 431.391 345.408 431.813C344.804 432.226 344.112 432.516 343.333 432.683C342.554 432.842 341.736 432.921 340.877 432.921H336.013ZM342.702 422.573C342.622 422.566 342.546 422.562 342.475 422.562C342.268 422.562 342.046 422.593 341.807 422.657C341.576 422.712 341.358 422.82 341.152 422.979C340.953 423.138 340.79 423.337 340.663 423.575C340.544 423.805 340.484 424.076 340.484 424.386C340.484 425.077 340.849 425.574 341.581 425.875C342.002 426.058 342.531 426.149 343.167 426.149C343.628 426.149 344.144 426.102 344.716 426.007C344.7 425.665 344.673 425.304 344.633 424.922C344.593 424.54 344.506 424.182 344.371 423.849C344.235 423.515 344.037 423.233 343.775 423.002C343.512 422.764 343.155 422.621 342.702 422.573ZM339.995 415.003L342.141 412.833L344.335 415.027L342.165 417.197L339.995 415.003Z" fill="white"/>
<path d="M86.3645 564.091C85.7999 564.091 85.2596 564.027 84.7429 563.9C84.2262 563.773 83.7416 563.587 83.2885 563.34C82.8353 563.093 82.4183 562.796 82.0367 562.446C81.655 562.104 81.3212 561.711 81.0353 561.265C80.916 561.075 80.7927 560.848 80.6655 560.586C80.5462 560.332 80.4393 560.042 80.3435 559.716C80.2485 559.39 80.1685 559.028 80.1048 558.631C80.0412 558.234 80.0098 557.8 80.0098 557.331C80.0098 556.942 80.0294 556.545 80.0694 556.139C80.1088 555.726 80.1848 555.289 80.2957 554.828C80.4071 554.367 80.5619 553.87 80.7606 553.338C80.9593 552.797 81.2176 552.198 81.5357 551.538L84.2183 552.813C83.9803 553.306 83.777 553.759 83.6104 554.172C83.4511 554.578 83.3245 554.963 83.2288 555.329C83.1337 555.686 83.0622 556.028 83.0144 556.354C82.9744 556.68 82.9547 557.01 82.9547 557.343C82.9547 557.796 83.0026 558.218 83.0976 558.607C83.2012 559.005 83.3521 559.362 83.5507 559.68L83.5389 559.668C83.8406 560.097 84.2426 560.447 84.7429 560.717C85.2517 560.987 85.7921 561.123 86.3645 561.123H86.9127C87.7475 561.123 88.4268 561.035 88.9514 560.86C89.4839 560.685 89.8976 560.439 90.1914 560.121C90.4937 559.803 90.6963 559.418 90.7999 558.965C90.9107 558.512 90.9665 558.007 90.9665 557.451V540.308H93.8996V557.451C93.8996 561.861 91.5704 564.075 86.9127 564.091H86.3645ZM103.676 557.499C102.802 557.499 102.05 557.443 101.423 557.331C100.795 557.229 100.266 557.073 99.8366 556.867C99.4078 556.652 99.0622 556.382 98.7999 556.056C98.5455 555.73 98.3507 555.349 98.2157 554.911C98.0806 554.475 97.9888 553.982 97.9409 553.434C97.9016 552.877 97.8819 552.265 97.8819 551.598V540.308H100.85V551.598C100.85 552.233 100.87 552.742 100.91 553.123C100.957 553.505 101.073 553.803 101.256 554.018C101.446 554.224 101.728 554.363 102.102 554.435C102.484 554.498 103.008 554.53 103.676 554.53V557.499ZM116.003 554.53V557.499H114.239C113.563 557.499 112.947 557.407 112.391 557.225C111.835 557.042 111.366 556.772 110.984 556.414C110.539 556.787 110.01 557.061 109.399 557.236C108.795 557.411 108.103 557.499 107.324 557.499H103.199V554.53H107.324C107.808 554.53 108.194 554.486 108.481 554.399C108.774 554.304 108.993 554.188 109.136 554.053C109.287 553.918 109.382 553.767 109.422 553.6C109.47 553.434 109.494 553.27 109.494 553.112V549.249H112.45V553.028C112.45 553.386 112.53 553.668 112.689 553.874C112.848 554.073 113.027 554.224 113.225 554.327C113.432 554.423 113.635 554.483 113.833 554.506C114.032 554.522 114.167 554.53 114.239 554.53H116.003ZM111.962 546.173L109.959 544.147L111.938 542.096L113.989 544.147L111.962 546.173ZM106.966 546.185L104.963 544.158L106.93 542.108L108.981 544.158L106.966 546.185ZM128.325 554.53V557.499H126.56C125.884 557.499 125.268 557.407 124.711 557.225C124.155 557.042 123.686 556.772 123.305 556.414C122.86 556.787 122.331 557.061 121.719 557.236C121.115 557.411 120.424 557.499 119.645 557.499H115.519V554.53H119.645C120.13 554.53 120.515 554.486 120.801 554.399C121.095 554.304 121.314 554.188 121.457 554.053C121.608 553.918 121.704 553.767 121.743 553.6C121.791 553.434 121.814 553.27 121.814 553.112V549.249H124.771V553.028C124.771 553.386 124.851 553.668 125.01 553.874C125.168 554.073 125.347 554.224 125.546 554.327C125.753 554.423 125.955 554.483 126.154 554.506C126.353 554.522 126.488 554.53 126.56 554.53H128.325ZM123.555 564.055L121.552 562.029L123.531 559.978L125.582 562.029L123.555 564.055ZM118.56 564.067L116.557 562.04L118.524 559.99L120.574 562.04L118.56 564.067ZM144.222 552.754C144.182 552.778 144.055 552.865 143.84 553.016C143.625 553.159 143.336 553.346 142.97 553.576C143.049 553.815 143.172 554.001 143.34 554.136C143.506 554.264 143.677 554.359 143.852 554.423C144.027 554.479 144.19 554.51 144.341 554.518C144.5 554.526 144.611 554.53 144.675 554.53H146.856V557.499H144.675C143.729 557.491 142.879 557.284 142.123 556.878C141.376 556.465 140.792 555.85 140.37 555.031C139.759 555.333 139.099 555.635 138.391 555.937C137.684 556.231 136.945 556.493 136.174 556.724C135.403 556.954 134.612 557.141 133.801 557.284C132.991 557.427 132.18 557.499 131.369 557.499H127.816V554.53H131.369C132.148 554.53 132.979 554.45 133.861 554.292C134.744 554.132 135.614 553.93 136.472 553.684C137.33 553.43 138.145 553.147 138.916 552.837C139.695 552.527 140.37 552.221 140.943 551.92C140.585 551.808 140.192 551.689 139.763 551.562C139.334 551.427 138.896 551.295 138.451 551.168C138.006 551.033 137.565 550.906 137.128 550.787C136.69 550.659 136.281 550.549 135.9 550.453C135.518 550.358 135.176 550.282 134.875 550.227C134.572 550.171 134.334 550.143 134.159 550.143C133.976 550.143 133.813 550.167 133.67 550.215C133.535 550.254 133.412 550.326 133.301 550.429C133.189 550.524 133.086 550.651 132.991 550.811C132.895 550.969 132.796 551.16 132.692 551.383L129.963 550.56C130.113 550.084 130.296 549.638 130.511 549.225C130.733 548.804 130.999 548.439 131.309 548.128C131.627 547.818 131.993 547.576 132.406 547.401C132.82 547.218 133.292 547.127 133.825 547.127C134.032 547.127 134.326 547.171 134.707 547.258C135.089 547.346 135.522 547.461 136.007 547.604C136.492 547.747 137.008 547.909 137.557 548.092C138.113 548.275 138.669 548.466 139.226 548.665C139.782 548.863 140.323 549.058 140.848 549.249C141.372 549.44 141.845 549.614 142.266 549.774C142.688 549.924 143.041 550.052 143.327 550.155C143.614 550.258 143.797 550.322 143.876 550.346L144.222 552.754ZM134.147 561.587L136.293 559.418L138.487 561.611L136.317 563.781L134.147 561.587ZM155.218 547.485C155.234 547.54 155.266 547.671 155.313 547.878C155.369 548.085 155.429 548.339 155.492 548.641C155.556 548.935 155.62 549.265 155.683 549.631C155.755 549.996 155.818 550.366 155.874 550.739C155.938 551.105 155.985 551.463 156.017 551.812C156.056 552.162 156.077 552.468 156.077 552.73C156.077 553.548 155.942 554.26 155.671 554.864C155.401 555.46 155.047 555.953 154.61 556.342C154.173 556.732 153.68 557.021 153.132 557.212C152.591 557.403 152.046 557.499 151.498 557.499H146.359V554.53H151.582C151.677 554.53 151.812 554.518 151.987 554.494C152.17 554.462 152.349 554.387 152.523 554.268C152.706 554.149 152.865 553.97 153.001 553.731C153.136 553.485 153.203 553.151 153.203 552.73C153.203 552.555 153.187 552.344 153.155 552.098C153.132 551.843 153.096 551.573 153.048 551.288C153.001 551.002 152.945 550.711 152.881 550.417C152.825 550.115 152.77 549.833 152.714 549.571C152.659 549.301 152.603 549.058 152.547 548.844C152.492 548.621 152.448 548.45 152.416 548.331L155.218 547.485ZM153.835 563.984L151.832 561.957L153.811 559.906L155.862 561.957L153.835 563.984ZM148.839 563.996L146.837 561.969L148.804 559.919L150.854 561.969L148.839 563.996ZM163.086 557.51C162.784 557.51 162.486 557.495 162.192 557.463C161.898 557.431 161.6 557.387 161.298 557.331C160.996 557.276 160.686 557.208 160.368 557.129C160.05 557.042 159.717 556.946 159.366 556.843L157.948 556.414L158.806 553.553C159.498 553.791 160.213 554.001 160.952 554.184C161.7 554.367 162.403 554.487 163.063 554.542C163.277 554.558 163.484 554.566 163.683 554.566C164.08 554.566 164.477 554.522 164.875 554.435C165.28 554.347 165.566 554.129 165.733 553.779C165.765 553.715 165.781 553.64 165.781 553.553C165.781 553.497 165.765 553.409 165.733 553.291C165.702 553.171 165.622 553.02 165.495 552.837L161.048 546.352L163.551 544.731L164.362 545.982C164.362 545.982 164.374 546.015 164.398 546.054C164.429 546.094 164.485 546.177 164.565 546.304C164.652 546.432 164.772 546.615 164.923 546.853C165.081 547.083 165.288 547.39 165.542 547.77C165.797 548.152 166.107 548.625 166.473 549.189C166.846 549.745 167.291 550.413 167.808 551.192C168.213 551.804 168.464 552.436 168.559 553.087C168.583 553.254 168.595 553.417 168.595 553.576C168.595 554.053 168.5 554.51 168.309 554.947C168.174 555.265 167.991 555.559 167.76 555.829C167.538 556.092 167.275 556.326 166.973 556.533C166.409 556.922 165.729 557.189 164.934 557.331C164.267 557.451 163.651 557.51 163.086 557.51ZM188.745 557.499H188.292C187.966 557.499 187.656 557.478 187.362 557.439C187.075 557.399 186.793 557.288 186.515 557.105C186.42 558.13 186.185 559.06 185.812 559.894C185.438 560.729 184.938 561.441 184.309 562.029C183.69 562.625 182.946 563.086 182.08 563.411C181.214 563.737 180.24 563.9 179.159 563.9H177.669V560.932H179.159C179.922 560.932 180.582 560.852 181.138 560.693C181.694 560.534 182.151 560.28 182.509 559.931C182.867 559.58 183.133 559.124 183.308 558.56C183.483 558.003 183.57 557.324 183.57 556.521V549.261H186.539V552.825C186.539 553.191 186.614 553.485 186.766 553.708C186.925 553.93 187.104 554.105 187.302 554.232C187.509 554.351 187.707 554.431 187.898 554.471C188.089 554.51 188.22 554.53 188.292 554.53H188.745V557.499ZM196.134 553.767C196.452 553.243 196.786 552.714 197.136 552.182C197.493 551.641 197.867 551.125 198.256 550.632C198.646 550.139 199.059 549.674 199.496 549.237C199.934 548.8 200.399 548.422 200.891 548.104C201.384 547.787 201.905 547.536 202.453 547.353C203.001 547.163 203.589 547.068 204.218 547.068C204.837 547.068 205.45 547.155 206.054 547.33C206.658 547.496 207.198 547.783 207.675 548.188C208.152 548.593 208.538 549.134 208.831 549.809C209.126 550.485 209.273 551.327 209.273 552.337C209.273 552.774 209.233 553.171 209.153 553.529C209.082 553.879 208.983 554.212 208.856 554.53H211.109V557.499H196.551C195.9 557.499 195.315 557.427 194.799 557.284C194.282 557.133 193.845 556.839 193.487 556.402C193.043 556.783 192.526 557.057 191.938 557.225C191.349 557.391 190.665 557.482 189.886 557.499H188.265V554.53H189.803C190.288 554.53 190.673 554.486 190.96 554.399C191.246 554.311 191.46 554.2 191.604 554.065C191.755 553.922 191.854 553.771 191.902 553.612C191.949 553.445 191.973 553.282 191.973 553.123V549.261H194.93V553.028C194.93 553.171 194.958 553.31 195.014 553.445C195.069 553.58 195.141 553.704 195.228 553.815C195.315 553.918 195.415 554.005 195.526 554.077C195.637 554.141 195.753 554.18 195.872 554.196L196.134 553.767ZM204.218 550.024C203.741 550.024 203.256 550.147 202.763 550.393C202.27 550.64 201.785 550.973 201.309 551.395C200.831 551.808 200.37 552.285 199.926 552.825C199.488 553.366 199.087 553.934 198.721 554.53H204.075C204.376 554.53 204.683 554.483 204.993 554.387C205.303 554.292 205.581 554.153 205.827 553.97C206.081 553.779 206.285 553.548 206.435 553.278C206.594 553 206.673 552.686 206.673 552.337C206.673 551.891 206.606 551.522 206.471 551.228C206.336 550.926 206.153 550.688 205.923 550.512C205.7 550.33 205.442 550.202 205.147 550.131C204.854 550.059 204.544 550.024 204.218 550.024ZM210.627 557.499V554.53H214.013C213.814 554.252 213.66 553.978 213.548 553.708C213.437 553.437 213.353 553.183 213.298 552.944C213.242 552.699 213.206 552.468 213.19 552.253C213.182 552.03 213.178 551.836 213.178 551.669C213.178 550.962 213.313 550.306 213.584 549.702C213.854 549.098 214.22 548.574 214.681 548.128C215.149 547.683 215.69 547.334 216.302 547.079C216.922 546.825 217.578 546.698 218.269 546.698C218.667 546.698 219.032 546.734 219.366 546.805C219.7 546.869 220.038 546.972 220.38 547.115C220.729 547.25 221.099 547.429 221.488 547.652C221.886 547.866 222.335 548.121 222.835 548.414L221.345 550.954C221.139 550.819 220.908 550.676 220.654 550.524C220.399 550.373 220.133 550.234 219.855 550.107C219.585 549.98 219.311 549.876 219.032 549.797C218.762 549.71 218.507 549.666 218.269 549.666C218.007 549.666 217.737 549.71 217.458 549.797C217.188 549.885 216.942 550.012 216.719 550.179C216.497 550.346 216.314 550.556 216.171 550.811C216.028 551.057 215.957 551.343 215.957 551.669C215.957 551.764 215.968 551.876 215.992 552.003C216.024 552.13 216.075 552.273 216.147 552.432C216.219 552.583 216.318 552.742 216.445 552.909C216.58 553.076 216.751 553.247 216.958 553.422H216.946C217.423 553.811 218.063 554.093 218.865 554.268C219.676 554.443 220.622 554.53 221.703 554.53H223.014V557.499H210.627ZM242.214 556.771C242.166 557.868 241.963 558.853 241.606 559.728C241.248 560.61 240.755 561.357 240.127 561.969C239.5 562.589 238.74 563.066 237.85 563.4C236.96 563.733 235.954 563.9 234.833 563.9H233.355V560.932H234.833C235.597 560.932 236.256 560.852 236.813 560.693C237.369 560.534 237.826 560.28 238.184 559.931C238.542 559.58 238.808 559.124 238.983 558.56C239.157 558.003 239.245 557.324 239.245 556.521V549.261H242.214V556.771ZM238.446 544.099L240.592 541.929L242.786 544.123L240.616 546.293L238.446 544.099ZM251.012 557.499C250.138 557.499 249.387 557.443 248.759 557.331C248.13 557.229 247.602 557.073 247.173 556.867C246.744 556.652 246.398 556.382 246.136 556.056C245.881 555.73 245.686 555.349 245.551 554.911C245.416 554.475 245.325 553.982 245.277 553.434C245.237 552.877 245.218 552.265 245.218 551.598V540.308H248.186V551.598C248.186 552.233 248.206 552.742 248.246 553.123C248.294 553.505 248.409 553.803 248.591 554.018C248.782 554.224 249.065 554.363 249.438 554.435C249.82 554.498 250.344 554.53 251.012 554.53V557.499ZM250.535 557.499V554.53H253.921C253.722 554.252 253.567 553.978 253.456 553.708C253.345 553.437 253.261 553.183 253.205 552.944C253.15 552.699 253.114 552.468 253.098 552.253C253.09 552.03 253.086 551.836 253.086 551.669C253.086 550.962 253.222 550.306 253.492 549.702C253.762 549.098 254.127 548.574 254.588 548.128C255.058 547.683 255.598 547.334 256.21 547.079C256.83 546.825 257.486 546.698 258.177 546.698C258.574 546.698 258.94 546.734 259.274 546.805C259.608 546.869 259.945 546.972 260.287 547.115C260.637 547.25 261.006 547.429 261.396 547.652C261.793 547.866 262.243 548.121 262.744 548.414L261.253 550.954C261.046 550.819 260.816 550.676 260.562 550.524C260.307 550.373 260.041 550.234 259.763 550.107C259.492 549.98 259.218 549.876 258.94 549.797C258.67 549.71 258.416 549.666 258.177 549.666C257.915 549.666 257.645 549.71 257.366 549.797C257.096 549.885 256.85 550.012 256.627 550.179C256.405 550.346 256.222 550.556 256.079 550.811C255.936 551.057 255.864 551.343 255.864 551.669C255.864 551.764 255.876 551.876 255.9 552.003C255.932 552.13 255.984 552.273 256.055 552.432C256.126 552.583 256.225 552.742 256.353 552.909C256.488 553.076 256.659 553.247 256.865 553.422H256.854C257.33 553.811 257.97 554.093 258.773 554.268C259.584 554.443 260.53 554.53 261.611 554.53H262.923V557.499H250.535ZM255.959 542.251L258.105 540.081L260.3 542.275L258.129 544.445L255.959 542.251ZM272.547 557.499H269.578V542.06H272.547V557.499ZM275.992 540.344H270.15C269.681 540.344 269.284 540.359 268.958 540.392C268.64 540.415 268.366 540.487 268.135 540.606C267.913 540.717 267.726 540.884 267.575 541.107C267.432 541.321 267.301 541.62 267.182 542.001L264.964 541.345C265.17 540.63 265.452 540.046 265.81 539.593C266.168 539.14 266.597 538.786 267.098 538.531C267.527 538.325 267.992 538.19 268.493 538.126C268.993 538.055 269.546 538.019 270.15 538.019H275.992V540.344ZM287.772 554.041C288.353 554.041 288.802 554.209 289.12 554.542C289.437 554.868 289.597 555.277 289.597 555.77C289.597 556.255 289.437 556.66 289.12 556.986C288.802 557.304 288.353 557.463 287.772 557.463C287.216 557.463 286.775 557.304 286.449 556.986C286.131 556.668 285.972 556.263 285.972 555.77C285.972 555.277 286.127 554.868 286.437 554.542C286.755 554.209 287.2 554.041 287.772 554.041ZM287.772 544.361C288.353 544.361 288.802 544.528 289.12 544.862C289.437 545.188 289.597 545.597 289.597 546.09C289.597 546.575 289.437 546.98 289.12 547.306C288.802 547.624 288.353 547.783 287.772 547.783C287.216 547.783 286.775 547.624 286.449 547.306C286.131 546.988 285.972 546.582 285.972 546.09C285.972 545.597 286.127 545.188 286.437 544.862C286.755 544.528 287.2 544.361 287.772 544.361ZM296.753 557.499C296.164 557.499 295.608 557.399 295.084 557.2C294.559 557.002 294.094 556.712 293.688 556.33C293.53 556.179 293.363 555.997 293.188 555.782C293.021 555.567 292.87 555.313 292.735 555.019C292.6 554.725 292.488 554.395 292.401 554.029C292.313 553.656 292.27 553.239 292.27 552.778C292.27 552.38 292.309 551.951 292.389 551.49C292.469 551.021 292.556 550.58 292.652 550.167C292.755 549.754 292.85 549.396 292.938 549.094C293.025 548.792 293.081 548.605 293.104 548.534L294.523 548.987L295.93 549.428C295.858 549.642 295.783 549.901 295.704 550.202C295.624 550.497 295.549 550.803 295.477 551.12C295.406 551.43 295.346 551.733 295.298 552.026C295.25 552.321 295.227 552.575 295.227 552.79C295.227 553.171 295.279 553.481 295.382 553.719C295.493 553.95 295.624 554.129 295.775 554.256C295.934 554.375 296.089 554.45 296.24 554.483C296.391 554.514 296.57 554.53 296.776 554.53H310.988C311.084 554.53 311.219 554.518 311.393 554.494C311.576 554.462 311.755 554.387 311.93 554.268C312.113 554.149 312.272 553.97 312.407 553.731C312.542 553.485 312.61 553.151 312.61 552.73C312.61 552.555 312.594 552.344 312.562 552.098C312.538 551.843 312.502 551.573 312.455 551.288C312.407 551.002 312.351 550.711 312.288 550.417C312.232 550.115 312.176 549.829 312.121 549.559C312.097 549.456 312.077 549.357 312.062 549.261L314.875 548.522C314.883 548.561 314.891 548.597 314.899 548.629C314.963 548.931 315.026 549.265 315.09 549.631C315.161 549.996 315.225 550.366 315.281 550.739C315.344 551.105 315.391 551.463 315.424 551.812C315.463 552.162 315.483 552.468 315.483 552.73C315.483 553.548 315.348 554.26 315.078 554.864C314.807 555.46 314.454 555.953 314.016 556.342C313.58 556.732 313.086 557.021 312.538 557.212C311.998 557.403 311.453 557.499 310.905 557.499H296.753ZM306.374 548.26L304.371 546.233L306.35 544.183L308.401 546.233L306.374 548.26ZM301.379 548.271L299.376 546.245L301.343 544.194L303.393 546.245L301.379 548.271ZM324.321 557.499C323.447 557.499 322.696 557.443 322.068 557.331C321.44 557.229 320.911 557.073 320.483 556.867C320.053 556.652 319.707 556.382 319.445 556.056C319.191 555.73 318.996 555.349 318.861 554.911C318.726 554.475 318.635 553.982 318.587 553.434C318.547 552.877 318.527 552.265 318.527 551.598V540.308H321.496V551.598C321.496 552.233 321.515 552.742 321.555 553.123C321.603 553.505 321.719 553.803 321.901 554.018C322.092 554.224 322.374 554.363 322.747 554.435C323.129 554.498 323.654 554.53 324.321 554.53V557.499ZM323.951 557.499V554.53H328.816C329.484 554.53 330.044 554.494 330.497 554.423C330.95 554.344 331.315 554.244 331.594 554.125C331.88 554.005 332.094 553.874 332.238 553.731C332.381 553.58 332.484 553.43 332.547 553.278C331.967 553.358 331.423 553.397 330.914 553.397C330.485 553.397 329.964 553.358 329.353 553.278C328.74 553.191 328.14 552.969 327.552 552.611C326.964 552.245 326.511 551.76 326.193 551.156C325.883 550.552 325.728 549.829 325.728 548.987C325.728 548.319 325.851 547.691 326.098 547.103C326.344 546.507 326.686 545.99 327.123 545.554C327.568 545.108 328.092 544.758 328.697 544.505C329.222 544.29 329.797 544.183 330.425 544.183H330.664C331.3 544.206 331.86 544.318 332.345 544.516C332.838 544.715 333.263 544.977 333.621 545.303C333.986 545.629 334.288 546.011 334.526 546.447C334.773 546.877 334.968 547.342 335.111 547.842C335.262 548.343 335.369 548.867 335.433 549.416C335.504 549.956 335.544 550.501 335.552 551.049L335.504 551.931C335.441 553.044 335.218 553.962 334.837 554.685C334.455 555.4 333.959 555.968 333.346 556.39C332.742 556.803 332.051 557.093 331.272 557.26C330.493 557.419 329.674 557.499 328.816 557.499H323.951ZM330.64 547.151C330.561 547.143 330.485 547.139 330.414 547.139C330.207 547.139 329.984 547.171 329.746 547.234C329.515 547.29 329.297 547.397 329.09 547.556C328.892 547.715 328.728 547.914 328.601 548.152C328.482 548.383 328.422 548.653 328.422 548.963C328.422 549.654 328.788 550.151 329.519 550.453C329.941 550.636 330.469 550.727 331.105 550.727C331.566 550.727 332.083 550.68 332.655 550.584C332.639 550.242 332.611 549.881 332.572 549.499C332.532 549.118 332.445 548.76 332.309 548.426C332.174 548.092 331.976 547.81 331.713 547.58C331.451 547.342 331.093 547.199 330.64 547.151ZM327.934 539.581L330.08 537.411L332.273 539.605L330.104 541.774L327.934 539.581ZM339.846 560.932C340.482 560.932 341.046 560.908 341.539 560.86C342.04 560.82 342.481 560.757 342.862 560.669C343.252 560.59 343.589 560.483 343.876 560.348C344.17 560.22 344.424 560.066 344.639 559.883C344.972 559.613 345.223 559.298 345.39 558.941C345.565 558.583 345.668 558.103 345.7 557.499H343.864C343.466 557.499 343.061 557.467 342.648 557.403C342.235 557.339 341.837 557.232 341.456 557.081C341.074 556.922 340.712 556.72 340.37 556.473C340.037 556.227 339.743 555.925 339.488 555.567C339.242 555.202 339.043 554.772 338.892 554.28C338.749 553.787 338.677 553.223 338.677 552.587C338.677 552.038 338.725 551.554 338.821 551.133C338.916 550.703 339.035 550.326 339.178 550C339.329 549.674 339.496 549.392 339.679 549.153C339.862 548.907 340.037 548.692 340.204 548.51C340.681 548.033 341.221 547.668 341.825 547.413C342.429 547.151 343.081 547.02 343.78 547.02C344.646 547.02 345.386 547.171 345.998 547.473C346.618 547.767 347.123 548.176 347.512 548.701C347.909 549.225 348.2 549.849 348.382 550.572C348.565 551.287 348.657 552.066 348.657 552.909V557.141C348.657 558.325 348.478 559.318 348.12 560.121C347.763 560.932 347.218 561.627 346.487 562.208C346.121 562.494 345.724 562.74 345.294 562.947C344.865 563.161 344.384 563.34 343.852 563.483C343.319 563.626 342.723 563.729 342.064 563.793C341.412 563.865 340.673 563.9 339.846 563.9V560.932ZM343.78 549.988C343.105 549.988 342.568 550.198 342.171 550.62C341.774 551.041 341.575 551.697 341.575 552.587C341.575 552.936 341.643 553.235 341.778 553.481C341.921 553.727 342.1 553.93 342.314 554.089C342.536 554.24 342.783 554.351 343.053 554.423C343.323 554.494 343.593 554.53 343.864 554.53H345.7V552.909C345.7 552.456 345.664 552.07 345.593 551.752C345.521 551.427 345.425 551.156 345.307 550.942C345.195 550.727 345.064 550.556 344.913 550.429C344.77 550.302 344.627 550.207 344.484 550.143C344.349 550.08 344.218 550.04 344.09 550.024C343.963 550 343.86 549.988 343.78 549.988Z" fill="white"/>
<path d="M147.912 158.428H135.268V183.588H123.917V118.331H146.868C154.407 118.331 160.221 120.028 164.311 123.421C168.4 126.787 170.445 131.668 170.445 138.066C170.445 142.406 169.388 146.049 167.274 148.998C165.187 151.946 162.252 154.214 158.469 155.799L173.116 183.003V183.588H160.973L147.912 158.428ZM135.268 149.332H146.91C150.749 149.332 153.739 148.372 155.881 146.453C158.024 144.533 159.095 141.891 159.095 138.525C159.095 135.048 158.093 132.35 156.09 130.43C154.115 128.511 151.166 127.524 147.243 127.468H135.268V149.332ZM211.542 183.588H200.233V118.331H211.542V183.588ZM255.186 159.346V183.588H243.836V118.331H268.789C276.077 118.331 281.864 120.236 286.148 124.047C290.46 127.83 292.617 132.837 292.617 139.068C292.617 145.466 290.516 150.445 286.315 154.005C282.114 157.565 276.231 159.346 268.664 159.346H255.186ZM255.186 150.25H268.789C272.823 150.25 275.897 149.304 278.011 147.412C280.153 145.493 281.224 142.739 281.224 139.151C281.224 135.646 280.139 132.837 277.969 130.723C275.828 128.608 272.879 127.524 269.123 127.468H255.186V150.25Z" fill="#494949"/>
<path d="M360.383 605.969L379.184 636H341.582L360.383 605.969Z" fill="#039800"/>
<path d="M346.207 604.114L357.377 636H346.208H334.426L346.207 604.114Z" fill="#039800"/>
<path d="M381.007 574.083L393.443 636H381.007H370.492L381.007 574.083Z" fill="#039800"/>
<path d="M14.0475 604.114L26.2295 636H0L14.0475 604.114Z" fill="#039800"/>
<path d="M61.8094 604.114L75.4099 636H62.2952H49.1804L61.8094 604.114Z" fill="#039800"/>
<path d="M32.9355 574.083L59.0165 636H32.787H9.83618L32.9355 574.083Z" fill="#039800"/>
<path d="M106.24 498.488H105.787C105.461 498.488 105.151 498.468 104.856 498.429C104.57 498.389 104.288 498.278 104.01 498.095C103.915 499.12 103.681 500.05 103.307 500.884C102.933 501.719 102.432 502.43 101.804 503.018C101.184 503.614 100.441 504.075 99.575 504.401C98.7087 504.727 97.735 504.89 96.6537 504.89H95.1638V501.921H96.6537C97.4169 501.921 98.0766 501.842 98.6333 501.683C99.1894 501.524 99.6464 501.27 100.004 500.92C100.362 500.57 100.628 500.114 100.803 499.549C100.978 498.993 101.065 498.313 101.065 497.511V490.25H104.034V493.815C104.034 494.181 104.109 494.475 104.26 494.697C104.42 494.92 104.599 495.095 104.797 495.222C105.004 495.341 105.203 495.42 105.393 495.46C105.584 495.5 105.715 495.519 105.787 495.519H106.24V498.488ZM105.76 495.519H107.298C107.767 495.519 108.145 495.48 108.431 495.401C108.725 495.321 108.951 495.206 109.111 495.055C109.277 494.896 109.389 494.705 109.444 494.483C109.5 494.26 109.528 494.006 109.528 493.72V490.25H112.496V493.66C112.496 494.304 112.652 494.773 112.961 495.067C113.271 495.361 113.76 495.512 114.428 495.519C114.547 495.512 114.69 495.488 114.857 495.448C115.032 495.409 115.199 495.329 115.358 495.21C115.524 495.083 115.663 494.904 115.775 494.674C115.894 494.435 115.954 494.117 115.954 493.72V490.25H118.911V493.66C118.911 494.312 119.065 494.784 119.376 495.079C119.686 495.373 120.19 495.519 120.89 495.519C121.081 495.519 121.267 495.492 121.45 495.436C121.641 495.373 121.812 495.274 121.963 495.139C122.114 494.995 122.237 494.813 122.332 494.59C122.428 494.367 122.483 494.093 122.5 493.768V490.25H125.468V493.779C125.484 494.391 125.671 494.836 126.029 495.114C126.386 495.384 126.934 495.519 127.674 495.519H128.842V498.488H127.674C126.855 498.488 126.143 498.4 125.54 498.226C124.936 498.043 124.415 497.749 123.978 497.344C123.572 497.717 123.096 498.003 122.547 498.202C122.006 498.393 121.454 498.488 120.89 498.488C120.143 498.488 119.487 498.397 118.923 498.214C118.366 498.031 117.869 497.737 117.432 497.332C117.019 497.698 116.554 497.98 116.037 498.178C115.528 498.377 115.012 498.48 114.488 498.488H114.404C113.688 498.488 113.053 498.393 112.496 498.202C111.94 498.003 111.455 497.729 111.042 497.38C110.112 498.119 108.864 498.488 107.298 498.488H105.76V495.519ZM117.098 485.315L115.071 487.366L113.045 485.339L115.071 483.289L117.098 485.315ZM122.213 485.267L120.21 487.294L118.124 485.291L120.174 483.241L122.213 485.267ZM119.578 481.906L117.671 483.813L115.787 481.929L117.694 480.022L119.578 481.906ZM135.269 488.474C135.285 488.53 135.317 488.661 135.364 488.868C135.42 489.074 135.48 489.329 135.543 489.631C135.607 489.925 135.671 490.254 135.734 490.62C135.806 490.986 135.869 491.355 135.925 491.729C135.989 492.094 136.036 492.452 136.068 492.802C136.107 493.151 136.128 493.457 136.128 493.72C136.128 494.538 135.993 495.249 135.723 495.854C135.452 496.45 135.098 496.942 134.661 497.332C134.224 497.721 133.731 498.011 133.183 498.202C132.643 498.393 132.098 498.488 131.549 498.488H128.378V495.519H131.633C131.728 495.519 131.863 495.508 132.038 495.484C132.221 495.452 132.4 495.377 132.575 495.257C132.757 495.139 132.917 494.96 133.052 494.721C133.187 494.475 133.254 494.141 133.254 493.72C133.254 493.545 133.239 493.334 133.206 493.088C133.183 492.833 133.147 492.563 133.1 492.277C133.052 491.991 132.996 491.701 132.932 491.407C132.877 491.105 132.821 490.823 132.766 490.561C132.71 490.291 132.654 490.048 132.599 489.834C132.543 489.611 132.499 489.44 132.467 489.321L135.269 488.474ZM130.059 502.637L132.205 500.467L134.399 502.66L132.229 504.83L130.059 502.637ZM166.52 498.488H163.336C163.519 498.751 163.67 499.037 163.789 499.347C163.909 499.665 163.968 499.951 163.968 500.205C163.968 500.944 163.766 501.611 163.361 502.207C162.955 502.812 162.406 503.324 161.715 503.746C161.023 504.166 160.217 504.492 159.295 504.723C158.381 504.953 157.407 505.069 156.374 505.069H153.322C152.67 505.069 152.046 504.993 151.45 504.842C150.854 504.691 150.293 504.473 149.768 504.187C149.244 503.908 148.763 503.567 148.326 503.161C147.889 502.764 147.503 502.311 147.17 501.802C146.383 500.531 145.989 499.04 145.989 497.332C145.989 496.807 146.017 496.287 146.073 495.77C146.136 495.253 146.236 494.725 146.371 494.185C146.514 493.636 146.697 493.068 146.919 492.48C147.15 491.884 147.432 491.24 147.766 490.549L150.412 491.824C150.134 492.412 149.904 492.949 149.721 493.434C149.538 493.918 149.387 494.379 149.268 494.817C149.157 495.245 149.077 495.663 149.029 496.068C148.982 496.466 148.958 496.867 148.958 497.272C148.958 498.425 149.212 499.402 149.721 500.205C150.086 500.809 150.583 501.27 151.211 501.588C151.847 501.914 152.551 502.076 153.322 502.076H156.374C156.97 502.076 157.534 502.021 158.067 501.91C158.599 501.798 159.068 501.643 159.473 501.445C159.879 501.246 160.209 501.015 160.463 500.753C160.717 500.499 160.865 500.221 160.904 499.919C160.674 499.672 160.38 499.462 160.022 499.287C159.673 499.12 159.271 498.977 158.818 498.858C158.373 498.747 157.888 498.659 157.363 498.595C156.846 498.54 156.306 498.5 155.742 498.477L155.825 495.519H166.52V498.488ZM174.027 495.519V498.488H173.276C172.601 498.488 171.984 498.397 171.428 498.214C170.871 498.031 170.403 497.761 170.021 497.403C169.576 497.777 169.047 498.051 168.435 498.226C167.831 498.4 167.14 498.488 166.361 498.488H164.25V495.519H166.361C166.846 495.519 167.231 495.476 167.517 495.388C167.812 495.293 168.03 495.178 168.173 495.043C168.324 494.908 168.42 494.757 168.459 494.59C168.507 494.423 168.531 494.26 168.531 494.101V490.239H171.488V494.018C171.488 494.375 171.567 494.657 171.726 494.864C171.885 495.062 172.063 495.214 172.262 495.317C172.469 495.413 172.672 495.472 172.871 495.496C173.069 495.512 173.204 495.519 173.276 495.519H174.027ZM167.16 484.755L169.305 482.585L171.5 484.779L169.33 486.949L167.16 484.755ZM186.367 495.519V498.488H184.603C183.927 498.488 183.311 498.397 182.755 498.214C182.199 498.031 181.729 497.761 181.348 497.403C180.903 497.777 180.374 498.051 179.762 498.226C179.158 498.4 178.467 498.488 177.688 498.488H173.563V495.519H177.688C178.172 495.519 178.558 495.476 178.844 495.388C179.138 495.293 179.357 495.178 179.5 495.043C179.651 494.908 179.746 494.757 179.786 494.59C179.834 494.423 179.858 494.26 179.858 494.101V490.239H182.814V494.018C182.814 494.375 182.894 494.657 183.053 494.864C183.212 495.062 183.391 495.214 183.589 495.317C183.796 495.413 183.999 495.472 184.197 495.496C184.396 495.512 184.531 495.519 184.603 495.519H186.367ZM181.598 505.045L179.595 503.018L181.574 500.968L183.625 503.018L181.598 505.045ZM176.603 505.057L174.6 503.03L176.567 500.98L178.618 503.03L176.603 505.057ZM185.883 495.519H187.421C187.89 495.519 188.267 495.48 188.554 495.401C188.848 495.321 189.075 495.206 189.233 495.055C189.401 494.896 189.511 494.705 189.567 494.483C189.623 494.26 189.65 494.006 189.65 493.72V490.25H192.62V493.66C192.62 494.304 192.774 494.773 193.084 495.067C193.394 495.361 193.883 495.512 194.551 495.519C194.67 495.512 194.813 495.488 194.98 495.448C195.155 495.409 195.322 495.329 195.481 495.21C195.648 495.083 195.787 494.904 195.898 494.674C196.017 494.435 196.077 494.117 196.077 493.72V490.25H199.033V493.66C199.033 494.312 199.189 494.784 199.499 495.079C199.808 495.373 200.313 495.519 201.013 495.519C201.204 495.519 201.39 495.492 201.573 495.436C201.764 495.373 201.935 495.274 202.086 495.139C202.237 494.995 202.36 494.813 202.456 494.59C202.551 494.367 202.606 494.093 202.622 493.768V490.25H205.591V493.779C205.607 494.391 205.794 494.836 206.151 495.114C206.509 495.384 207.058 495.519 207.797 495.519H208.965V498.488H207.797C206.978 498.488 206.267 498.4 205.663 498.226C205.058 498.043 204.538 497.749 204.101 497.344C203.696 497.717 203.218 498.003 202.67 498.202C202.13 498.393 201.577 498.488 201.013 498.488C200.265 498.488 199.61 498.397 199.046 498.214C198.489 498.031 197.993 497.737 197.555 497.332C197.142 497.698 196.677 497.98 196.161 498.178C195.652 498.377 195.135 498.48 194.61 498.488H194.527C193.812 498.488 193.176 498.393 192.62 498.202C192.063 498.003 191.578 497.729 191.164 497.38C190.235 498.119 188.987 498.488 187.421 498.488H185.883V495.519ZM197.222 485.315L195.195 487.366L193.168 485.339L195.195 483.289L197.222 485.315ZM202.336 485.267L200.333 487.294L198.246 485.291L200.298 483.241L202.336 485.267ZM199.702 481.906L197.794 483.813L195.91 481.929L197.818 480.022L199.702 481.906ZM215.392 488.474C215.408 488.53 215.44 488.661 215.488 488.868C215.543 489.074 215.603 489.329 215.666 489.631C215.73 489.925 215.793 490.254 215.857 490.62C215.928 490.986 215.992 491.355 216.048 491.729C216.111 492.094 216.159 492.452 216.191 492.802C216.231 493.151 216.25 493.457 216.25 493.72C216.25 494.538 216.115 495.249 215.845 495.854C215.575 496.45 215.222 496.942 214.784 497.332C214.347 497.721 213.854 498.011 213.305 498.202C212.765 498.393 212.221 498.488 211.672 498.488H208.501V495.519H211.756C211.851 495.519 211.986 495.508 212.161 495.484C212.344 495.452 212.523 495.377 212.698 495.257C212.881 495.139 213.039 494.96 213.174 494.721C213.309 494.475 213.377 494.141 213.377 493.72C213.377 493.545 213.361 493.334 213.33 493.088C213.305 492.833 213.27 492.563 213.222 492.277C213.174 491.991 213.119 491.701 213.056 491.407C213 491.105 212.944 490.823 212.888 490.561C212.833 490.291 212.777 490.048 212.721 489.834C212.666 489.611 212.622 489.44 212.59 489.321L215.392 488.474ZM210.921 483.682L213.067 481.512L215.261 483.706L213.091 485.875L210.921 483.682ZM224.86 498.488C223.985 498.488 223.234 498.433 222.606 498.321C221.978 498.218 221.45 498.063 221.02 497.856C220.591 497.642 220.245 497.372 219.983 497.046C219.728 496.72 219.534 496.338 219.399 495.901C219.264 495.464 219.172 494.971 219.124 494.423C219.085 493.867 219.065 493.255 219.065 492.587V481.298H222.033V492.587C222.033 493.223 222.054 493.731 222.093 494.113C222.141 494.495 222.256 494.792 222.439 495.007C222.63 495.214 222.912 495.353 223.286 495.424C223.667 495.488 224.191 495.519 224.86 495.519V498.488ZM240.764 493.743C240.724 493.768 240.597 493.855 240.382 494.006C240.168 494.149 239.877 494.335 239.512 494.566C239.591 494.805 239.715 494.991 239.881 495.126C240.048 495.253 240.219 495.349 240.394 495.413C240.569 495.468 240.732 495.5 240.883 495.508C241.042 495.516 241.153 495.519 241.217 495.519H243.399V498.488H241.217C240.271 498.48 239.42 498.273 238.665 497.868C237.918 497.455 237.334 496.839 236.913 496.02C236.301 496.323 235.641 496.624 234.934 496.927C234.226 497.22 233.487 497.483 232.716 497.713C231.945 497.944 231.154 498.13 230.343 498.273C229.532 498.417 228.722 498.488 227.911 498.488H224.359V495.519H227.911C228.69 495.519 229.521 495.44 230.403 495.281C231.285 495.122 232.155 494.92 233.014 494.674C233.873 494.419 234.687 494.137 235.458 493.827C236.237 493.517 236.913 493.211 237.485 492.909C237.127 492.798 236.734 492.678 236.305 492.551C235.875 492.416 235.438 492.285 234.993 492.158C234.548 492.023 234.107 491.896 233.67 491.776C233.233 491.649 232.823 491.538 232.442 491.443C232.06 491.347 231.719 491.272 231.416 491.216C231.115 491.161 230.876 491.133 230.701 491.133C230.518 491.133 230.355 491.157 230.212 491.205C230.077 491.244 229.954 491.315 229.842 491.419C229.731 491.514 229.628 491.641 229.532 491.801C229.437 491.959 229.338 492.15 229.235 492.372L226.504 491.55C226.656 491.073 226.838 490.628 227.053 490.215C227.275 489.794 227.542 489.428 227.852 489.118C228.17 488.808 228.535 488.565 228.949 488.391C229.362 488.208 229.835 488.117 230.367 488.117C230.574 488.117 230.868 488.16 231.25 488.248C231.631 488.335 232.064 488.451 232.549 488.594C233.034 488.737 233.551 488.899 234.099 489.082C234.656 489.265 235.212 489.456 235.768 489.655C236.324 489.853 236.865 490.048 237.389 490.239C237.914 490.429 238.387 490.604 238.808 490.763C239.229 490.914 239.583 491.041 239.869 491.145C240.155 491.248 240.338 491.311 240.418 491.336L240.764 493.743ZM230.689 502.577L232.835 500.408L235.029 502.601L232.859 504.771L230.689 502.577ZM258.269 498.488H257.912C257.212 498.488 256.604 498.425 256.088 498.298C255.571 498.162 255.106 497.98 254.693 497.749C254.28 497.511 253.898 497.229 253.548 496.903C253.206 496.569 252.857 496.199 252.499 495.794C252.309 496.294 252.003 496.72 251.581 497.069C251.168 497.419 250.691 497.702 250.151 497.916C249.618 498.13 249.046 498.282 248.433 498.369C247.909 498.448 247.388 498.488 246.872 498.488H242.902V495.519H246.788C247.313 495.519 247.798 495.492 248.243 495.436C248.688 495.373 249.073 495.274 249.399 495.139C249.725 494.995 249.983 494.809 250.174 494.578C250.365 494.348 250.473 494.065 250.496 493.731C250.496 493.39 250.349 492.956 250.055 492.432C249.769 491.907 249.391 491.323 248.923 490.68C248.462 490.036 247.937 489.356 247.349 488.641C246.768 487.918 246.18 487.187 245.584 486.448L246.085 484.028L256.433 479.009L257.65 481.727L248.601 485.911C249.347 486.913 250.091 487.91 250.83 488.904C251.577 489.889 252.324 490.883 253.071 491.884C253.509 492.464 253.91 492.981 254.276 493.434C254.641 493.878 255.007 494.256 255.372 494.566C255.746 494.876 256.136 495.114 256.541 495.281C256.946 495.44 257.403 495.519 257.912 495.519H258.269V498.488ZM266.642 488.474C266.658 488.53 266.69 488.661 266.738 488.868C266.793 489.074 266.853 489.329 266.917 489.631C266.98 489.925 267.044 490.254 267.107 490.62C267.179 490.986 267.243 491.355 267.298 491.729C267.361 492.094 267.409 492.452 267.441 492.802C267.481 493.151 267.501 493.457 267.501 493.72C267.501 494.538 267.365 495.249 267.095 495.854C266.825 496.45 266.471 496.942 266.034 497.332C265.597 497.721 265.104 498.011 264.556 498.202C264.015 498.393 263.471 498.488 262.923 498.488H257.783V495.519H263.006C263.101 495.519 263.237 495.508 263.411 495.484C263.594 495.452 263.773 495.377 263.947 495.257C264.13 495.139 264.29 494.96 264.425 494.721C264.56 494.475 264.627 494.141 264.627 493.72C264.627 493.545 264.611 493.334 264.58 493.088C264.556 492.833 264.52 492.563 264.472 492.277C264.425 491.991 264.369 491.701 264.305 491.407C264.25 491.105 264.194 490.823 264.138 490.561C264.083 490.291 264.027 490.048 263.972 489.834C263.916 489.611 263.872 489.44 263.841 489.321L266.642 488.474ZM265.259 504.974L263.256 502.947L265.235 500.896L267.286 502.947L265.259 504.974ZM260.264 504.985L258.261 502.959L260.228 500.908L262.279 502.959L260.264 504.985ZM280.139 495.031C280.719 495.031 281.168 495.198 281.486 495.532C281.804 495.858 281.963 496.267 281.963 496.759C281.963 497.245 281.804 497.65 281.486 497.976C281.168 498.294 280.719 498.452 280.139 498.452C279.583 498.452 279.142 498.294 278.816 497.976C278.498 497.658 278.339 497.252 278.339 496.759C278.339 496.267 278.494 495.858 278.804 495.532C279.122 495.198 279.567 495.031 280.139 495.031ZM280.139 485.351C280.719 485.351 281.168 485.518 281.486 485.852C281.804 486.177 281.963 486.587 281.963 487.08C281.963 487.564 281.804 487.969 281.486 488.295C281.168 488.613 280.719 488.773 280.139 488.773C279.583 488.773 279.142 488.613 278.816 488.295C278.498 487.977 278.339 487.572 278.339 487.08C278.339 486.587 278.494 486.177 278.804 485.852C279.122 485.518 279.567 485.351 280.139 485.351ZM289.119 498.488C288.531 498.488 287.975 498.389 287.45 498.19C286.926 497.991 286.461 497.702 286.056 497.32C285.896 497.169 285.73 496.986 285.555 496.772C285.388 496.557 285.237 496.302 285.102 496.009C284.966 495.714 284.855 495.384 284.768 495.019C284.681 494.645 284.637 494.228 284.637 493.768C284.637 493.37 284.677 492.941 284.756 492.48C284.835 492.011 284.923 491.57 285.018 491.157C285.121 490.744 285.217 490.386 285.304 490.084C285.392 489.782 285.447 489.595 285.471 489.523L286.89 489.976L288.297 490.418C288.225 490.632 288.15 490.89 288.07 491.192C287.991 491.486 287.915 491.793 287.844 492.11C287.772 492.42 287.713 492.722 287.665 493.016C287.618 493.311 287.593 493.565 287.593 493.779C287.593 494.161 287.645 494.47 287.749 494.709C287.86 494.94 287.991 495.118 288.142 495.245C288.301 495.365 288.456 495.44 288.607 495.472C288.758 495.504 288.937 495.519 289.143 495.519H303.355C303.45 495.519 303.585 495.508 303.761 495.484C303.943 495.452 304.122 495.377 304.297 495.257C304.48 495.139 304.639 494.96 304.774 494.721C304.909 494.475 304.976 494.141 304.976 493.72C304.976 493.545 304.961 493.334 304.929 493.088C304.905 492.833 304.869 492.563 304.822 492.277C304.774 491.991 304.718 491.701 304.654 491.407C304.599 491.105 304.543 490.819 304.488 490.549C304.463 490.445 304.444 490.346 304.428 490.25L307.242 489.512C307.25 489.551 307.258 489.587 307.265 489.618C307.329 489.921 307.393 490.254 307.456 490.62C307.528 490.986 307.591 491.355 307.647 491.729C307.711 492.094 307.759 492.452 307.79 492.802C307.83 493.151 307.85 493.457 307.85 493.72C307.85 494.538 307.715 495.249 307.444 495.854C307.174 496.45 306.82 496.942 306.383 497.332C305.946 497.721 305.454 498.011 304.905 498.202C304.364 498.393 303.82 498.488 303.271 498.488H289.119ZM298.741 489.249L296.738 487.223L298.717 485.172L300.768 487.223L298.741 489.249ZM293.745 489.261L291.742 487.234L293.709 485.184L295.761 487.234L293.745 489.261ZM314.828 498.5C314.526 498.5 314.228 498.484 313.934 498.452C313.64 498.421 313.342 498.377 313.04 498.321C312.738 498.265 312.428 498.198 312.11 498.119C311.792 498.031 311.458 497.936 311.109 497.833L309.69 497.403L310.548 494.543C311.24 494.781 311.955 494.991 312.694 495.174C313.441 495.357 314.145 495.476 314.804 495.532C315.019 495.548 315.225 495.556 315.424 495.556C315.822 495.556 316.219 495.512 316.617 495.424C317.022 495.337 317.308 495.118 317.475 494.769C317.507 494.705 317.523 494.63 317.523 494.543C317.523 494.487 317.507 494.399 317.475 494.28C317.443 494.161 317.364 494.009 317.237 493.827L312.789 487.342L315.293 485.721L316.104 486.972C316.104 486.972 316.116 487.004 316.14 487.044C316.172 487.084 316.227 487.167 316.307 487.294C316.394 487.421 316.513 487.604 316.664 487.842C316.824 488.073 317.03 488.379 317.284 488.76C317.539 489.142 317.848 489.615 318.214 490.179C318.588 490.735 319.033 491.403 319.549 492.182C319.955 492.794 320.205 493.426 320.301 494.077C320.324 494.244 320.336 494.407 320.336 494.566C320.336 495.043 320.241 495.5 320.05 495.937C319.915 496.255 319.732 496.549 319.502 496.819C319.279 497.081 319.017 497.316 318.715 497.523C318.151 497.912 317.471 498.178 316.676 498.321C316.008 498.441 315.393 498.5 314.828 498.5ZM322.542 498.488V495.519H327.657C328.579 495.519 329.322 495.444 329.886 495.293C330.45 495.135 330.888 494.876 331.198 494.518C331.507 494.161 331.715 493.688 331.818 493.1C331.921 492.512 331.973 491.784 331.973 490.918V481.298H334.93V490.918C334.93 491.387 334.909 491.868 334.87 492.36C334.838 492.854 334.77 493.342 334.667 493.827C334.572 494.304 334.429 494.769 334.238 495.222C334.055 495.667 333.817 496.076 333.523 496.45C332.942 497.125 332.172 497.634 331.21 497.976C330.248 498.317 329.064 498.488 327.657 498.488H322.542ZM323.973 493.552L323.198 481.763L326.143 481.417L326.93 493.552H323.973ZM339.846 501.921C340.482 501.921 341.046 501.898 341.539 501.85C342.04 501.81 342.481 501.746 342.862 501.659C343.252 501.58 343.589 501.472 343.876 501.337C344.17 501.21 344.424 501.055 344.639 500.872C344.972 500.602 345.223 500.288 345.39 499.931C345.564 499.573 345.668 499.092 345.7 498.488H343.864C343.466 498.488 343.061 498.456 342.648 498.393C342.235 498.329 341.837 498.222 341.456 498.071C341.074 497.912 340.712 497.709 340.37 497.463C340.037 497.216 339.743 496.915 339.488 496.557C339.242 496.192 339.043 495.762 338.892 495.27C338.749 494.777 338.677 494.213 338.677 493.577C338.677 493.028 338.725 492.543 338.821 492.122C338.916 491.693 339.035 491.315 339.178 490.989C339.329 490.664 339.496 490.382 339.679 490.143C339.862 489.897 340.037 489.682 340.204 489.5C340.681 489.022 341.221 488.657 341.825 488.403C342.429 488.141 343.081 488.009 343.78 488.009C344.646 488.009 345.386 488.16 345.998 488.463C346.618 488.756 347.123 489.166 347.512 489.691C347.909 490.215 348.2 490.839 348.382 491.562C348.565 492.277 348.657 493.056 348.657 493.899V498.13C348.657 499.315 348.478 500.308 348.12 501.111C347.763 501.921 347.218 502.617 346.487 503.197C346.121 503.483 345.724 503.73 345.294 503.936C344.865 504.151 344.384 504.33 343.852 504.473C343.319 504.616 342.723 504.719 342.063 504.783C341.412 504.854 340.673 504.89 339.846 504.89V501.921ZM343.78 490.978C343.105 490.978 342.568 491.188 342.171 491.61C341.774 492.031 341.575 492.686 341.575 493.577C341.575 493.926 341.643 494.225 341.778 494.47C341.921 494.717 342.1 494.92 342.314 495.079C342.536 495.23 342.783 495.341 343.053 495.413C343.323 495.484 343.593 495.519 343.864 495.519H345.7V493.899C345.7 493.446 345.664 493.06 345.593 492.742C345.521 492.416 345.425 492.146 345.307 491.932C345.195 491.717 345.064 491.546 344.913 491.419C344.77 491.292 344.627 491.197 344.484 491.133C344.349 491.069 344.218 491.029 344.09 491.014C343.963 490.989 343.86 490.978 343.78 490.978Z" fill="white"/>
</svg>
