<svg width="520" height="230" viewBox="0 0 520 230" fill="none" xmlns="http://www.w3.org/2000/svg">
<rect width="520" height="230" rx="8" fill="#607884"/>
<circle cx="260" cy="115" r="82.5" fill="#053751" stroke="white"/>
<circle cx="88.5" cy="114.5" r="61" fill="#053751" stroke="white"/>
<circle cx="431.5" cy="114.5" r="61" fill="#053751" stroke="white"/>
<g clip-path="url(#clip0_406_72)">
<path d="M260.734 108.455V122.397H280.504C279.636 126.88 277.031 130.677 273.124 133.229L285.046 142.295C291.992 136.012 296 126.782 296 115.819C296 113.266 295.766 110.811 295.332 108.455L260.734 108.455Z" fill="#4285F4"/>
<path d="M240.147 121.853L237.458 123.87L227.94 131.135C233.985 142.884 246.374 151.001 260.734 151.001C270.652 151.001 278.967 147.793 285.045 142.295L273.123 133.23C269.85 135.39 265.676 136.699 260.734 136.699C251.183 136.699 243.068 130.383 240.162 121.873L240.147 121.853Z" fill="#34A853"/>
<path d="M227.94 98.8657C225.436 103.709 224 109.175 224 115C224 120.826 225.436 126.291 227.94 131.135C227.94 131.167 240.163 121.84 240.163 121.84C239.429 119.68 238.994 117.389 238.994 115C238.994 112.61 239.429 110.32 240.163 108.16L227.94 98.8657Z" fill="#FBBC05"/>
<path d="M260.734 93.3346C266.145 93.3346 270.953 95.1673 274.794 98.7019L285.313 88.3929C278.935 82.5675 270.653 79 260.734 79C246.374 79 233.985 87.0837 227.94 98.8656L240.163 108.16C243.068 99.651 251.183 93.3346 260.734 93.3346Z" fill="#EA4335"/>
</g>
<path d="M421.174 88.0288C414.766 88.5878 409.14 92.3129 406.137 97.9945C404.033 101.984 403.448 106.751 404.536 111.126C405.74 115.959 408.825 120.126 413.114 122.703C418.811 126.123 425.936 126.235 431.709 123.003C432.314 122.662 433.401 121.966 433.752 121.692L433.905 121.57L443.891 131.551C451.661 139.316 453.938 141.562 454.156 141.684C455.167 142.243 456.341 142.05 457.205 141.186C458.064 140.327 458.262 139.138 457.703 138.142C457.581 137.918 455.335 135.642 447.57 127.871L437.589 117.885L437.711 117.733C437.985 117.382 438.671 116.315 439.017 115.7C441.187 111.828 441.883 107.305 440.989 102.909C440.404 100.012 439.185 97.4355 437.228 94.9454C436.705 94.2796 435.139 92.7042 434.489 92.1859C431.592 89.8888 428.421 88.537 424.884 88.1051C424.122 88.0085 421.921 87.9678 421.174 88.0288ZM424.183 92.7296C429.026 93.2429 433.229 96.2057 435.322 100.581C435.907 101.806 436.273 102.955 436.496 104.266C437.182 108.296 436.135 112.336 433.579 115.507C433.091 116.117 432.08 117.123 431.475 117.606C429.382 119.278 426.917 120.294 424.198 120.609C423.502 120.691 421.881 120.691 421.174 120.609C418.486 120.304 415.97 119.257 413.856 117.575C413.302 117.133 412.194 116.025 411.752 115.471C410.172 113.489 409.171 111.162 408.79 108.585C408.662 107.716 408.662 105.572 408.79 104.748C409.049 103.071 409.455 101.776 410.157 100.368C411.798 97.0798 414.685 94.5642 418.15 93.3954C419.131 93.06 420.315 92.8059 421.301 92.7093C422.038 92.6382 423.431 92.6483 424.183 92.7296Z" fill="white"/>
<path d="M91.9158 94.0498C90.0283 94.3491 88.7977 95.2222 88.7977 96.2615V96.5775L88.5732 96.3613C88.0826 95.904 87.4257 95.7127 86.9185 95.879C86.7439 95.9372 86.4529 96.1285 86.2533 96.3114C85.3553 97.1346 85.2472 98.7477 85.9873 100.145C86.3864 100.893 87.3592 101.874 88.3404 102.523L89.1802 103.071L88.9307 103.238C88.6397 103.429 88.5482 103.803 88.7312 104.053C88.8975 104.277 89.3215 104.369 89.5959 104.227C89.7206 104.161 89.8287 104.119 89.8454 104.136C89.8537 104.144 89.9784 104.41 90.1197 104.718C90.3276 105.175 90.3609 105.358 90.3359 105.732C90.3027 106.148 90.3276 106.223 90.5521 106.48C90.6935 106.638 90.8764 106.788 90.9595 106.813C91.1092 106.863 91.1175 106.88 90.9928 107.071C90.7932 107.37 90.9013 107.62 91.4584 108.168C91.8326 108.526 91.974 108.734 92.0072 108.95C92.0571 109.216 92.0405 109.249 91.816 109.291C91.6829 109.316 91.4418 109.449 91.2672 109.59C91.0926 109.723 90.8431 109.865 90.7101 109.89C90.5771 109.923 90.3442 110.056 90.1946 110.197C90.0449 110.339 89.7373 110.555 89.5128 110.671C89.2467 110.813 89.0554 110.987 88.9473 111.187C88.7811 111.511 88.6314 112.259 88.6314 112.775C88.6314 113.149 88.8226 113.124 86.6109 112.983C85.2971 112.891 85.1142 112.891 85.056 113.008C85.0227 113.074 84.6569 113.889 84.2411 114.804L83.4928 116.483L83.3182 119.959C83.2184 121.88 83.1436 123.509 83.1436 123.584C83.1436 123.725 83.0189 123.734 81.6552 123.734H80.1669L79.9507 123.443C79.7927 123.243 79.643 123.143 79.4185 123.102C78.7367 122.977 78.6286 122.728 78.5704 121.115C78.5122 119.493 78.4623 119.36 77.8221 119.102C77.4479 118.953 77.3564 118.878 77.3065 118.67C77.2234 118.379 76.9906 118.196 76.5499 118.071C76.342 118.022 76.209 117.922 76.1591 117.797C76.0593 117.531 75.7018 117.265 75.3609 117.198C75.1281 117.157 75.0782 117.107 75.0782 116.949C75.0782 116.566 75.3027 116.209 75.7932 115.801C76.0593 115.577 76.3503 115.311 76.4252 115.219C76.6247 114.978 76.6164 114.612 76.4085 114.488C76.3171 114.429 76.2422 114.355 76.2422 114.321C76.2422 114.288 76.4834 114.147 76.7827 114.014C77.3564 113.748 77.3731 113.731 77.4313 112.958C77.4562 112.667 77.5726 112.342 77.7888 111.935C78.1214 111.336 78.2378 111.22 78.2378 111.503C78.2378 111.719 78.4207 111.852 78.7949 111.902C79.6846 112.018 79.8842 110.862 79.0028 110.671L78.7783 110.621L79.0277 110.513C80.857 109.698 81.622 109.216 82.4119 108.368C82.9357 107.811 83.2018 107.312 83.4013 106.514C83.6092 105.699 83.5843 105.084 83.3182 104.477C83.1186 104.044 82.653 103.495 82.3121 103.329C81.6718 102.997 80.7822 103.13 80.2833 103.62L79.9673 103.944L80.0255 103.628C80.1835 102.747 80.1669 102.365 79.9839 102.082C79.1857 100.926 76.4501 100.02 73.7478 100.012C72.459 100.012 71.6275 100.161 71.0039 100.502C70.3969 100.826 70.3054 101.018 70.2971 101.907C70.2805 102.947 70.2805 102.938 70.0477 102.597C69.7816 102.207 69.0915 101.866 68.4429 101.808C67.5865 101.724 66.755 102.24 66.281 103.155C66.0815 103.529 66.0565 103.662 66.0565 104.443C66.0565 105.483 66.2561 106.156 66.7716 106.905C67.5698 108.035 68.3514 108.759 69.5488 109.474C70.2472 109.898 70.5299 110.106 70.4717 110.156C70.4551 110.181 70.3636 110.147 70.2722 110.089C70.0726 109.964 69.7234 110.048 69.5072 110.264C68.9418 110.829 69.9728 111.686 70.6131 111.178C70.7378 111.079 70.8376 110.937 70.8376 110.862C70.8376 110.646 70.9623 110.854 71.1619 111.403C71.3781 111.977 71.4279 112.451 71.3198 112.758C71.1951 113.107 71.3115 113.315 71.7938 113.606C72.3343 113.922 72.4091 114.055 72.1264 114.188C71.852 114.313 71.7772 114.612 71.9601 114.887C72.0349 115.012 72.301 115.319 72.5421 115.585C72.8914 115.968 72.9911 116.134 73.0327 116.442C73.066 116.658 73.0743 116.866 73.0493 116.907C73.0244 116.949 72.8248 117.007 72.6087 117.04C72.2927 117.082 72.1513 117.165 71.9185 117.415C71.6857 117.664 71.5277 117.747 71.1619 117.822C70.6713 117.922 70.4884 118.055 70.347 118.421C70.2805 118.604 70.2057 118.645 69.8897 118.678C69.133 118.77 68.9418 119.036 68.6757 120.391C68.5843 120.84 68.4762 121.389 68.4263 121.622C68.3099 122.179 67.9191 122.62 67.4618 122.694C66.9379 122.786 66.6885 122.911 66.5305 123.168L66.3891 123.41L64.8509 123.368C64.0028 123.343 62.5227 123.301 61.5499 123.268L59.7955 123.227L59.7456 123.459C59.7206 123.584 59.3963 125.821 59.0305 128.432C58.6646 131.043 58.3237 133.396 58.2655 133.67L58.1741 134.169L57.8165 134.194C56.9351 134.244 54.5571 134.909 54.1912 135.208L54 135.366L54.3076 135.491C54.9479 135.765 55.6048 135.882 56.6608 135.923C57.2594 135.948 57.8082 135.982 57.8914 135.998C58.041 136.023 68.5926 135.782 81.2727 135.458C87.8248 135.291 98.576 135.034 105.594 134.876C118.839 134.585 123.928 134.452 123.986 134.393C124.044 134.335 123.038 124.765 122.963 124.69C122.922 124.657 117.392 124.49 116.095 124.482C115.796 124.482 115.738 124.449 115.58 124.191C115.447 123.958 115.347 123.892 115.056 123.85C114.798 123.809 114.615 123.701 114.399 123.493C114.116 123.21 114.091 123.143 113.95 122.196C113.767 120.94 113.601 120.524 113.21 120.366C113.044 120.3 112.844 120.242 112.753 120.242C112.636 120.242 112.562 120.167 112.528 120.034C112.462 119.751 112.113 119.493 111.813 119.493C111.63 119.493 111.489 119.402 111.264 119.161C111.048 118.92 110.882 118.811 110.649 118.778C110.258 118.712 110.225 118.662 110.292 118.263C110.325 118.046 110.491 117.78 110.832 117.39C111.373 116.774 111.447 116.508 111.148 116.3C110.998 116.192 110.99 116.159 111.082 116.043C111.148 115.968 111.331 115.835 111.506 115.752C111.863 115.56 111.93 115.427 111.863 115.003C111.83 114.82 111.83 114.554 111.863 114.396C111.913 114.114 111.921 114.114 112.287 114.155C112.736 114.205 112.994 114.022 112.994 113.681C112.994 113.39 112.911 113.282 112.578 113.141L112.287 113.024L112.57 112.866C114.258 111.952 115.305 110.763 115.58 109.449C115.771 108.501 115.48 107.495 114.823 106.905C114.341 106.472 113.85 106.372 113.127 106.58C112.986 106.622 112.977 106.58 113.035 105.915C113.102 105.067 112.994 104.784 112.495 104.526C111.805 104.177 111.198 104.077 109.751 104.069C108.279 104.069 107.548 104.169 106.467 104.502C105.635 104.768 105.253 104.959 104.854 105.325C104.538 105.607 104.521 105.607 104.164 105.516C103.69 105.383 103.282 105.466 102.858 105.774C101.686 106.622 101.603 108.459 102.667 109.981C103.299 110.871 104.064 111.528 105.452 112.376C105.693 112.525 105.752 112.675 105.569 112.675C105.402 112.675 105.178 112.949 105.178 113.166C105.178 113.448 105.535 113.756 105.868 113.756C106.126 113.756 106.159 113.789 106.384 114.247C106.533 114.571 106.625 114.887 106.625 115.153C106.633 115.635 106.749 115.793 107.232 116.018C107.639 116.209 107.664 116.284 107.415 116.492C107.165 116.691 107.248 116.882 107.88 117.489C108.18 117.78 108.446 118.113 108.471 118.238C108.496 118.354 108.529 118.52 108.545 118.595C108.562 118.687 108.504 118.762 108.387 118.786C107.93 118.92 107.747 119.036 107.598 119.294C107.498 119.468 107.365 119.576 107.265 119.576C106.949 119.576 106.683 119.768 106.591 120.042C106.517 120.267 106.433 120.341 106.192 120.408C105.577 120.574 105.502 120.74 105.444 122.046C105.419 122.611 105.394 123.06 105.378 123.044C105.361 123.035 105.278 121.04 105.186 118.628C105.086 116.209 105.003 114.213 104.987 114.205C104.97 114.188 103.224 114.064 101.104 113.922C98.842 113.773 97.2206 113.631 97.1874 113.581C97.1624 113.531 97.1125 113.132 97.0793 112.692C97.0543 112.251 96.9878 111.735 96.9379 111.553C96.8382 111.212 96.3642 110.679 96.148 110.679C96.0815 110.679 95.8819 110.53 95.6907 110.355C95.5078 110.172 95.2168 109.981 95.0505 109.923C94.8842 109.873 94.6513 109.74 94.5432 109.632C94.4352 109.524 94.2273 109.391 94.0693 109.332C93.6286 109.174 93.6868 108.942 94.3686 108.227C94.826 107.744 94.9507 107.553 94.9507 107.362C94.9507 107.229 94.9174 107.087 94.8675 107.063C94.7179 106.971 94.7761 106.88 95.0421 106.772C95.408 106.614 95.566 106.323 95.5743 105.782C95.5743 105.516 95.6491 105.15 95.7406 104.926C95.8986 104.535 96.0316 104.41 96.0316 104.635C96.0316 104.834 96.3226 105.025 96.6303 105.025C96.9878 105.025 97.1957 104.818 97.1957 104.46C97.1957 104.144 96.888 103.903 96.5721 103.961C96.4557 103.986 96.3642 103.994 96.3642 103.978C96.3642 103.969 96.7883 103.753 97.3038 103.504C99.2827 102.539 100.355 101.051 100.256 99.4045C100.222 98.7227 99.9645 98.1573 99.5072 97.7499C98.9501 97.2427 98.2683 97.1845 97.5366 97.5919L97.1707 97.7915L97.2289 97.3175C97.2622 97.0514 97.3038 96.7022 97.3287 96.5442C97.4451 95.5298 96.4889 94.6401 94.801 94.2078C94.061 94.0165 92.6308 93.9417 91.9158 94.0498ZM88.199 97.093C88.4485 97.2759 88.7977 97.8996 88.7977 98.1573C88.7977 98.307 88.7894 98.307 88.648 98.1823C88.4568 98.0076 88.0992 97.9993 87.9662 98.1739C87.8997 98.2405 87.8581 98.4151 87.8581 98.5564C87.8581 99.0054 88.4568 99.3131 88.7145 98.9971C88.8975 98.7809 88.964 98.8558 88.964 99.2798C88.964 99.7039 89.2384 101.891 89.3465 102.315C89.4047 102.548 89.388 102.539 88.8725 102.132C87.7417 101.242 87.0765 100.461 86.5942 99.4461C86.0787 98.3652 86.1203 97.7416 86.7522 97.118C86.9934 96.8768 87.0432 96.8685 87.4922 96.8935C87.7916 96.9184 88.0493 96.9932 88.199 97.093ZM98.7506 98.6562C99.8897 99.9118 99.4158 101.666 97.6281 102.747C97.2788 102.963 96.8382 103.238 96.6469 103.362L96.306 103.587L96.4972 102.93C96.6053 102.573 96.7716 101.749 96.8714 101.109C97.046 100.036 97.0626 99.9616 97.1957 100.078C97.2705 100.145 97.4285 100.203 97.5532 100.203C97.8692 100.203 98.0438 99.9866 98.0105 99.629C97.9939 99.3879 97.944 99.3214 97.7528 99.2549C97.5865 99.1967 97.4701 99.1967 97.362 99.2715C97.2123 99.363 97.1957 99.3463 97.1957 99.1551C97.1957 98.8474 97.4202 98.4151 97.6364 98.2987C97.9856 98.1241 98.3764 98.2488 98.7506 98.6562ZM88.5399 98.5564C88.5981 98.7144 88.5815 98.756 88.4485 98.7726C88.2655 98.8059 88.0493 98.6562 88.0493 98.4899C88.0493 98.2904 88.4651 98.3486 88.5399 98.5564ZM97.8276 99.7122C97.9274 99.8785 97.7195 99.9866 97.4867 99.8868C97.3038 99.8037 97.2872 99.7621 97.362 99.6207C97.4368 99.4877 97.4867 99.4711 97.6114 99.5376C97.6946 99.5875 97.7944 99.6623 97.8276 99.7122ZM69.4157 103.005C69.7982 103.296 70.0061 103.678 70.0061 104.127V104.535L69.765 104.352C69.5987 104.227 69.4573 104.186 69.316 104.227C68.8337 104.344 68.7007 104.768 69.0333 105.15C69.2827 105.441 69.7982 105.466 70.0144 105.2C70.1558 105.025 70.1641 105.034 70.2057 105.541C70.2306 105.832 70.2722 106.514 70.2971 107.063C70.3304 107.611 70.4135 108.443 70.4967 108.917L70.638 109.765L70.2971 109.441C70.1142 109.266 69.74 108.967 69.4656 108.767C68.393 108.002 67.6114 107.079 67.1957 106.073C66.913 105.383 66.8963 104.551 67.1624 104.044C67.4119 103.57 67.9108 103.03 68.2184 102.888C68.5427 102.747 69.133 102.805 69.4157 103.005ZM89.3631 103.545C89.5294 103.712 89.4795 103.878 89.2799 103.845C89.1552 103.828 89.0804 103.753 89.0638 103.628C89.0305 103.429 89.1968 103.379 89.3631 103.545ZM81.7966 104.144C82.3454 104.427 82.7528 105.2 82.7528 105.94C82.7528 107.063 81.5388 108.568 79.9008 109.474C79.4185 109.74 78.9446 110.031 78.8448 110.122C78.6037 110.339 78.6037 110.264 78.8531 109.532C79.0527 108.942 79.5765 106.763 79.7012 106.023C79.7594 105.657 79.7594 105.649 79.8259 105.898C79.9174 106.206 80.1087 106.356 80.4329 106.356C80.7572 106.356 80.9817 106.14 80.9817 105.832C80.9817 105.366 80.566 105.133 80.1336 105.366C79.9756 105.449 79.9673 105.441 80.0255 105.175C80.2084 104.319 81.1148 103.786 81.7966 104.144ZM96.7633 104.427C96.7799 104.543 96.7467 104.61 96.6635 104.61C96.5222 104.61 96.3393 104.327 96.4224 104.244C96.5388 104.136 96.7384 104.244 96.7633 104.427ZM69.765 104.751C69.8814 105.067 69.6153 105.217 69.2494 105.025C68.9584 104.867 69.1164 104.526 69.4823 104.526C69.6153 104.526 69.7068 104.593 69.765 104.751ZM80.6824 105.632C80.9817 105.849 80.5826 106.206 80.2334 106.023C80.0754 105.94 80.0754 105.923 80.2001 105.732C80.3498 105.499 80.4662 105.474 80.6824 105.632ZM103.989 106.364C104.405 106.522 104.679 106.846 104.679 107.204C104.679 107.387 104.637 107.52 104.579 107.52C104.388 107.52 104.18 107.803 104.18 108.06C104.18 108.36 104.28 108.476 104.621 108.559C104.795 108.609 104.845 108.667 104.845 108.842C104.845 108.958 104.953 109.599 105.086 110.264C105.22 110.929 105.311 111.486 105.286 111.511C105.203 111.602 103.939 110.181 103.615 109.64C102.841 108.318 102.692 107.029 103.241 106.422C103.39 106.256 103.648 106.231 103.989 106.364ZM113.701 107.536C114.748 108.592 114.607 110.488 113.393 111.711C113.144 111.952 112.861 112.201 112.753 112.259C112.57 112.359 112.553 112.351 112.611 112.168C112.653 111.993 112.844 110.613 112.961 109.615C112.986 109.391 113.044 109.266 113.119 109.266C113.302 109.266 113.518 108.883 113.451 108.684C113.418 108.592 113.31 108.459 113.21 108.393C113.044 108.276 113.019 108.21 113.052 107.827C113.119 107.046 113.185 107.021 113.701 107.536ZM104.629 107.819C104.762 107.869 104.82 108.268 104.696 108.268C104.579 108.268 104.43 108.077 104.43 107.919C104.43 107.753 104.438 107.744 104.629 107.819ZM113.16 108.9C113.16 108.967 113.127 109.017 113.077 109.017C113.035 109.017 112.994 108.942 112.994 108.842C112.994 108.75 113.035 108.701 113.077 108.725C113.127 108.75 113.16 108.834 113.16 108.9ZM70.2888 110.397C70.4551 110.555 70.4551 110.63 70.2971 110.763C70.1059 110.921 69.8814 110.829 69.8814 110.596C69.8814 110.272 70.0726 110.172 70.2888 110.397ZM79.1524 111.137C79.1524 111.378 78.8947 111.553 78.7533 111.411C78.5621 111.22 78.7118 110.929 79.0028 110.929C79.1026 110.929 79.1524 110.995 79.1524 111.137ZM105.885 113.166C105.926 113.307 105.918 113.349 105.835 113.324C105.768 113.299 105.71 113.174 105.693 113.041C105.66 112.767 105.785 112.841 105.885 113.166ZM112.495 113.548C112.495 113.665 112.462 113.756 112.412 113.756C112.37 113.756 112.329 113.665 112.329 113.548C112.329 113.432 112.37 113.34 112.412 113.34C112.462 113.34 112.495 113.432 112.495 113.548Z" fill="white"/>
<defs>
<clipPath id="clip0_406_72">
<rect width="72" height="72" fill="white" transform="translate(224 79)"/>
</clipPath>
</defs>
</svg>
