<svg width="249" height="1146" viewBox="0 0 249 1146" fill="none" xmlns="http://www.w3.org/2000/svg">
<g clip-path="url(#clip0_470_204)">
<path d="M243.182 72.5662C235.303 49.4602 218.333 37.9071 192.273 37.9071H163.864C142.045 37.9071 128.977 29.3086 124.659 12.1117C120.72 29.3086 107.652 37.9071 85.4545 37.9071H57.8409C30.2651 37.9071 12.8409 49.2708 5.56821 71.998L2.28882e-05 70.2935C4.09094 57.2632 10.7197 47.5662 19.8864 41.2026C29.053 34.7632 40.9848 31.4677 55.6818 31.3162H86.1364C109.167 31.3162 120.682 21.1268 120.682 0.748047H128.75C128.75 21.1268 140.341 31.3162 163.523 31.3162H192.386C207.538 31.3162 219.697 34.5359 228.864 40.9753C238.03 47.3389 244.697 57.1117 248.864 70.2935L243.182 72.5662Z" fill="#053751"/>
</g>
<g filter="url(#filter0_d_470_204)">
<rect x="53" y="105" width="142" height="142" rx="8" fill="#CE1340"/>
</g>
<path d="M95.3299 186.342H93.3954C92.5226 186.342 91.7711 186.189 91.1408 185.884C90.5105 185.578 89.9917 185.171 89.5844 184.662C89.1772 184.158 88.8766 183.59 88.6826 182.96C88.4887 182.33 88.3917 181.687 88.3917 181.033C88.3917 180.446 88.4887 179.782 88.6826 179.04C88.8814 178.298 89.1626 177.588 89.5263 176.909L92.1954 178.196C91.662 179.302 91.3954 180.247 91.3954 181.033C91.3954 181.663 91.5626 182.155 91.8972 182.509C92.2317 182.868 92.7311 183.047 93.3954 183.047H95.3299C95.6984 183.047 96.0087 183.035 96.2608 183.011C96.5129 182.987 96.7214 182.955 96.8863 182.916C97.0511 182.882 97.1772 182.846 97.2644 182.807C97.3566 182.773 97.4196 182.744 97.4535 182.72L97.5044 182.684C97.2184 182.548 96.8935 182.444 96.5299 182.371C96.1711 182.298 95.7808 182.235 95.359 182.182L94.9154 182.116V179.135H101.563V182.451H100.232C100.256 182.592 100.268 182.732 100.268 182.873C100.268 183.518 100.149 184.051 99.9117 184.473C99.679 184.895 99.3735 185.232 98.9954 185.484C98.6172 185.736 98.2075 185.922 97.7663 186.044C97.325 186.17 96.8887 186.25 96.4572 186.284C96.0305 186.322 95.6547 186.342 95.3299 186.342ZM107.755 178.88C107.755 179.564 107.585 180.175 107.246 180.713C106.911 181.251 106.419 181.675 105.77 181.985C105.12 182.296 104.33 182.451 103.399 182.451H99.864V179.127H100.555C100.536 178.856 100.526 178.601 100.526 178.364C100.526 177.554 100.642 176.882 100.875 176.349C101.108 175.816 101.401 175.394 101.755 175.084C102.114 174.773 102.494 174.555 102.897 174.429C103.299 174.298 103.673 174.233 104.017 174.233C105.059 174.233 105.954 174.625 106.7 175.411C107.403 176.206 107.755 177.19 107.755 178.364V178.88ZM104.039 177.36C103.801 177.36 103.602 177.438 103.442 177.593C103.282 177.748 103.202 177.937 103.202 178.16C103.202 178.281 103.214 178.395 103.239 178.502C103.268 178.608 103.321 178.696 103.399 178.764C103.481 178.827 103.605 178.858 103.77 178.858H104.897V178.16C104.897 177.932 104.814 177.743 104.65 177.593C104.49 177.438 104.286 177.36 104.039 177.36ZM104.046 173.324L102.351 171.629L104.046 169.927L105.748 171.629L104.046 173.324ZM112.06 182.465H109.079V171.622H112.06V182.465ZM112.775 186.356H112.055V183.04H112.775C113.599 183.04 114.171 182.863 114.491 182.509C114.801 182.126 114.956 181.53 114.956 180.72V176.815H117.938V178.553C117.938 178.703 117.989 178.836 118.091 178.953C118.198 179.069 118.35 179.127 118.549 179.127H118.811V182.451H118.476C118.253 182.451 118.038 182.427 117.829 182.378C117.587 183.377 117.218 184.187 116.724 184.807C116.263 185.336 115.686 185.728 114.993 185.985C114.338 186.233 113.599 186.356 112.775 186.356ZM119.505 175.658L119.811 173.135L126.174 170.233L127.411 172.945L123.054 174.938C123.171 175.059 123.297 175.188 123.433 175.324C123.748 175.634 124.102 175.995 124.494 176.407C124.567 176.485 124.637 176.558 124.705 176.625C124.977 176.907 125.21 177.164 125.404 177.396C125.597 177.624 125.755 177.864 125.876 178.116C126.036 178.461 126.138 178.776 126.182 179.062C126.211 179.275 126.225 179.479 126.225 179.673C126.225 179.745 126.221 179.864 126.211 180.029C126.201 180.194 126.136 180.436 126.014 180.756C125.922 180.994 125.748 181.246 125.491 181.513C125.234 181.775 124.858 181.995 124.364 182.175C123.825 182.359 123.142 182.451 122.313 182.451H118.451V179.127H122.313C122.458 179.127 122.63 179.125 122.829 179.12C123.028 179.11 123.176 179.101 123.273 179.091C122.822 178.567 122.322 178.058 121.774 177.564C121.227 177.064 120.737 176.642 120.305 176.298C119.879 175.949 119.619 175.741 119.527 175.673L119.505 175.658ZM119.92 172.429L120.014 171.396L125.454 169.025L125.833 169.84L119.92 172.429ZM131.239 179.135H132.367V178.436C132.367 178.208 132.284 178.019 132.119 177.869C131.954 177.714 131.751 177.636 131.508 177.636C131.271 177.636 131.072 177.714 130.912 177.869C130.752 178.024 130.672 178.213 130.672 178.436C130.672 178.558 130.684 178.672 130.708 178.778C130.738 178.885 130.791 178.972 130.868 179.04C130.951 179.103 131.074 179.135 131.239 179.135ZM135.225 179.127H135.61V182.451H135.174C135.13 182.815 135.05 183.144 134.934 183.44C134.74 183.93 134.498 184.342 134.207 184.676C133.921 185.011 133.63 185.292 133.334 185.52C133.159 185.641 132.919 185.767 132.614 185.898C132.313 186.034 131.882 186.145 131.319 186.233C130.83 186.31 130.194 186.349 129.414 186.349H128.621V183.047H129.501C130.098 183.047 130.592 183.03 130.985 182.996C131.378 182.962 131.659 182.899 131.828 182.807C131.998 182.715 132.093 182.599 132.112 182.458H131.487C130.842 182.439 130.255 182.291 129.727 182.015C129.203 181.743 128.784 181.353 128.468 180.844C128.153 180.33 127.996 179.709 127.996 178.982C127.996 178.172 128.11 177.503 128.338 176.975C128.57 176.441 128.866 176.019 129.225 175.709C129.584 175.394 129.964 175.173 130.367 175.047C130.769 174.916 131.142 174.851 131.487 174.851C132.529 174.851 133.424 175.244 134.17 176.029C134.873 176.824 135.225 177.808 135.225 178.982V179.127ZM143.059 182.444H141.99C141.267 182.444 140.593 182.245 139.968 181.847C139.686 182.07 139.371 182.225 139.022 182.313C138.678 182.4 138.232 182.444 137.684 182.444H135.248V179.127H137.895C138.133 179.127 138.288 179.103 138.36 179.055C138.433 179.001 138.47 178.909 138.47 178.778V176.815H141.451V178.778C141.451 178.899 141.478 178.989 141.531 179.047C141.585 179.101 141.718 179.127 141.931 179.127H143.059V182.444ZM139.102 188.48L137.648 187.018L139.102 185.564L140.564 187.018L139.102 188.48ZM137.393 186.364L135.8 184.764L137.393 183.171L138.993 184.764L137.393 186.364ZM140.804 186.364L139.211 184.764L140.804 183.171L142.404 184.764L140.804 186.364ZM145.712 182.444H142.483V179.127H145.712C145.891 179.127 146.012 179.105 146.075 179.062C146.138 179.013 146.17 178.941 146.17 178.844C146.17 178.771 146.16 178.686 146.141 178.589L145.777 176.698L148.657 175.825L149.064 178.036C149.137 178.415 149.174 178.764 149.174 179.084C149.174 179.53 149.094 179.993 148.934 180.473C148.827 180.793 148.689 181.057 148.519 181.265C148.18 181.707 147.731 182.034 147.174 182.247C146.761 182.378 146.274 182.444 145.712 182.444ZM144.672 186.444L143.079 184.844L144.672 183.251L146.272 184.844L144.672 186.444ZM148.083 186.444L146.49 184.844L148.083 183.251L149.683 184.844L148.083 186.444ZM154.438 182.458H153.79C153.364 182.458 152.988 182.41 152.663 182.313C152.343 182.216 152.069 182.095 151.841 181.949C151.614 181.804 151.424 181.658 151.274 181.513C151.129 181.367 150.983 181.181 150.838 180.953C150.697 180.725 150.576 180.451 150.474 180.131C150.377 179.806 150.329 179.43 150.329 179.004L150.336 171.622H153.31V178.662C153.31 178.832 153.366 178.953 153.478 179.025C153.589 179.093 153.689 179.127 153.776 179.127H154.438V182.458ZM157.071 182.444H153.842V179.127H157.071C157.25 179.127 157.372 179.105 157.435 179.062C157.498 179.013 157.529 178.941 157.529 178.844C157.529 178.771 157.52 178.686 157.5 178.589L157.137 176.698L160.017 175.825L160.424 178.036C160.497 178.415 160.533 178.764 160.533 179.084C160.533 179.53 160.453 179.993 160.293 180.473C160.186 180.793 160.048 181.057 159.878 181.265C159.539 181.707 159.09 182.034 158.533 182.247C158.121 182.378 157.634 182.444 157.071 182.444ZM155.915 174.945L154.322 173.353L155.915 171.753L157.515 173.353L155.915 174.945ZM159.326 174.945L157.733 173.353L159.326 171.753L160.926 173.353L159.326 174.945Z" fill="white"/>
<g filter="url(#filter1_d_470_204)">
<rect x="53" y="279" width="142" height="142" rx="8" fill="#CE1340"/>
</g>
<path d="M108.752 360.342H106.817C105.945 360.342 105.193 360.189 104.563 359.884C103.932 359.578 103.414 359.171 103.006 358.662C102.599 358.158 102.298 357.59 102.105 356.96C101.911 356.33 101.814 355.687 101.814 355.033C101.814 354.446 101.911 353.782 102.105 353.04C102.303 352.298 102.585 351.588 102.948 350.909L105.617 352.196C105.084 353.302 104.817 354.247 104.817 355.033C104.817 355.663 104.985 356.155 105.319 356.509C105.654 356.868 106.153 357.047 106.817 357.047H108.752C109.12 357.047 109.431 357.035 109.683 357.011C109.935 356.987 110.143 356.955 110.308 356.916C110.473 356.882 110.599 356.846 110.686 356.807C110.778 356.773 110.841 356.744 110.875 356.72L110.926 356.684C110.64 356.548 110.315 356.444 109.952 356.371C109.593 356.298 109.203 356.235 108.781 356.182L108.337 356.116V353.135H114.985V356.451H113.654C113.678 356.592 113.69 356.732 113.69 356.873C113.69 357.518 113.571 358.051 113.334 358.473C113.101 358.895 112.795 359.232 112.417 359.484C112.039 359.736 111.629 359.922 111.188 360.044C110.747 360.17 110.311 360.25 109.879 360.284C109.452 360.322 109.077 360.342 108.752 360.342ZM113.13 349.658L113.436 347.135L119.799 344.233L121.036 346.945L116.679 348.938C116.796 349.059 116.922 349.188 117.058 349.324C117.373 349.634 117.727 349.995 118.119 350.407C118.192 350.485 118.262 350.558 118.33 350.625C118.602 350.907 118.835 351.164 119.029 351.396C119.222 351.624 119.38 351.864 119.501 352.116C119.661 352.461 119.763 352.776 119.807 353.062C119.836 353.275 119.85 353.479 119.85 353.673C119.85 353.745 119.846 353.864 119.836 354.029C119.826 354.194 119.761 354.436 119.639 354.756C119.547 354.994 119.373 355.246 119.116 355.513C118.859 355.775 118.483 355.995 117.989 356.175C117.45 356.359 116.767 356.451 115.938 356.451H112.076V353.127H115.938C116.083 353.127 116.255 353.125 116.454 353.12C116.653 353.11 116.801 353.101 116.898 353.091C116.447 352.567 115.947 352.058 115.399 351.564C114.852 351.064 114.362 350.642 113.93 350.298C113.504 349.949 113.244 349.741 113.152 349.673L113.13 349.658ZM113.545 346.429L113.639 345.396L119.079 343.025L119.458 343.84L113.545 346.429ZM125.81 356.429C125.267 356.429 124.68 356.361 124.05 356.225C123.424 356.095 122.876 355.961 122.406 355.825C121.941 355.685 121.655 355.595 121.548 355.556L122.493 352.444C122.939 352.594 123.497 352.752 124.166 352.916C124.835 353.076 125.383 353.156 125.81 353.156C126.013 353.156 126.13 353.12 126.159 353.047C126.169 353.028 126.173 353.004 126.173 352.975C126.173 352.902 126.132 352.8 126.05 352.669L123.432 348.931L125.89 347.251C125.89 347.246 126.001 347.404 126.224 347.724C126.559 348.208 127.313 349.285 128.486 350.953C128.937 351.593 129.163 352.303 129.163 353.084C129.163 353.675 129.044 354.218 128.806 354.713C128.52 355.256 128.113 355.678 127.584 355.978C127.061 356.279 126.469 356.429 125.81 356.429ZM134.328 356.458H133.681C133.254 356.458 132.879 356.41 132.554 356.313C132.234 356.216 131.96 356.095 131.732 355.949C131.504 355.804 131.315 355.658 131.165 355.513C131.019 355.367 130.874 355.181 130.728 354.953C130.588 354.725 130.467 354.451 130.365 354.131C130.268 353.806 130.219 353.43 130.219 353.004L130.227 345.622H133.201V352.662C133.201 352.832 133.257 352.953 133.368 353.025C133.48 353.093 133.579 353.127 133.667 353.127H134.328V356.458ZM143.689 356.451C142.782 356.451 142.031 356.24 141.434 355.818C141.139 356.017 140.836 356.172 140.525 356.284C140.215 356.395 139.876 356.451 139.507 356.451C138.993 356.451 138.571 356.388 138.242 356.262C137.917 356.141 137.633 355.993 137.391 355.818C137.211 356.012 137.02 356.153 136.816 356.24C136.617 356.332 136.31 356.39 135.893 356.415C135.476 356.439 134.828 356.451 133.951 356.451V353.127H135.078C135.393 353.127 135.614 353.074 135.74 352.967C135.871 352.856 135.936 352.701 135.936 352.502V350.815H138.918V352.538C138.918 352.718 138.962 352.865 139.049 352.982C139.141 353.098 139.265 353.159 139.42 353.164C139.793 353.164 139.98 352.96 139.98 352.553V350.815H142.954V352.538C142.954 352.718 143.008 352.865 143.114 352.982C143.221 353.098 143.352 353.156 143.507 353.156C143.706 353.156 143.856 353.103 143.958 352.996C144.065 352.885 144.118 352.778 144.118 352.676C144.118 352.633 144.067 352.332 143.965 351.775L143.74 350.567L146.656 349.964L146.722 350.262C146.833 350.819 146.928 351.336 147.005 351.811C147.068 352.194 147.1 352.507 147.1 352.749C147.1 353.142 147.056 353.51 146.969 353.855C146.882 354.199 146.773 354.502 146.642 354.764C146.511 355.021 146.377 355.222 146.242 355.367C145.582 356.056 144.731 356.417 143.689 356.451Z" fill="white"/>
<g filter="url(#filter2_d_470_204)">
<rect x="53" y="453" width="142" height="142" rx="8" fill="#CE1340"/>
</g>
<path d="M90.7898 530.495C86.7171 530.495 84.4747 530.49 84.0626 530.48C83.6504 530.47 83.2989 530.441 83.008 530.393C82.1741 530.262 81.5389 529.859 81.1026 529.185C80.9135 528.895 80.7729 528.548 80.6808 528.145C80.5935 527.738 80.5498 527.319 80.5498 526.887C80.5498 526.64 80.5644 526.398 80.5935 526.16C80.7098 525.404 80.8529 524.773 81.0226 524.269L81.0298 524.225L83.888 525.069L83.7862 525.505C83.5923 526.301 83.4953 526.749 83.4953 526.851C83.4953 526.948 83.522 527.025 83.5753 527.084C83.6335 527.142 83.7401 527.171 83.8953 527.171H90.8698C91.2044 527.171 91.4298 527.103 91.5462 526.967C91.6626 526.832 91.7208 526.625 91.7208 526.349V524.815H94.6953V526.596C94.705 526.776 94.7753 526.909 94.9062 526.996C95.0371 527.084 95.2504 527.127 95.5462 527.127H96.1717V530.458C95.5074 530.458 95.0056 530.448 94.6662 530.429C94.3268 530.415 94.0674 530.373 93.888 530.305C93.7135 530.238 93.5535 530.133 93.408 529.993C93.1511 530.158 92.8795 530.274 92.5935 530.342C92.3123 530.415 92.0189 530.458 91.7135 530.473C91.4129 530.487 91.105 530.495 90.7898 530.495ZM87.7935 534.378L86.0989 532.684L87.7935 530.982L89.4953 532.684L87.7935 534.378ZM98.8211 530.444H95.592V527.127H98.8211C99.0005 527.127 99.1217 527.105 99.1847 527.062C99.2478 527.013 99.2793 526.941 99.2793 526.844C99.2793 526.771 99.2696 526.686 99.2502 526.589L98.8865 524.698L101.767 523.825L102.174 526.036C102.247 526.415 102.283 526.764 102.283 527.084C102.283 527.53 102.203 527.993 102.043 528.473C101.936 528.793 101.798 529.057 101.628 529.265C101.289 529.707 100.84 530.034 100.283 530.247C99.8708 530.378 99.3835 530.444 98.8211 530.444ZM97.6647 522.945L96.072 521.353L97.6647 519.753L99.2647 521.353L97.6647 522.945ZM101.076 522.945L99.4829 521.353L101.076 519.753L102.676 521.353L101.076 522.945ZM106.42 530.465H103.438V519.622H106.42V530.465ZM107.134 534.356H106.414V531.04H107.134C107.958 531.04 108.53 530.863 108.85 530.509C109.161 530.126 109.316 529.53 109.316 528.72V524.815H112.298V526.553C112.298 526.703 112.348 526.836 112.45 526.953C112.557 527.069 112.71 527.127 112.908 527.127H113.17V530.451H112.836C112.613 530.451 112.397 530.427 112.188 530.378C111.946 531.377 111.578 532.187 111.083 532.807C110.622 533.336 110.045 533.728 109.352 533.985C108.698 534.233 107.958 534.356 107.134 534.356ZM118.548 527.898C118.645 527.898 118.737 527.792 118.825 527.578C118.888 527.418 118.919 527.241 118.919 527.047C118.919 526.819 118.859 526.594 118.737 526.371C118.65 526.216 118.536 526.082 118.396 525.971C118.26 525.859 118.105 525.804 117.93 525.804C117.756 525.804 117.605 525.891 117.479 526.065C117.358 526.24 117.259 526.434 117.181 526.647C117.104 526.856 117.05 527.028 117.021 527.164C117.142 527.265 117.302 527.375 117.501 527.491C117.705 527.602 117.906 527.699 118.105 527.782C118.308 527.859 118.456 527.898 118.548 527.898ZM118.563 530.64C118.088 530.64 117.639 530.587 117.217 530.48C116.8 530.378 116.43 530.259 116.105 530.124C115.785 529.988 115.53 529.867 115.341 529.76C115.137 529.959 114.839 530.124 114.447 530.255C114.054 530.385 113.678 530.451 113.319 530.451H112.81V527.127H113.101C113.581 527.127 113.891 527.045 114.032 526.88C114.173 526.715 114.306 526.398 114.432 525.927L114.556 525.535C114.59 525.413 114.655 525.248 114.752 525.04C114.849 524.832 114.982 524.606 115.152 524.364C115.327 524.121 115.54 523.891 115.792 523.673C116.049 523.455 116.354 523.275 116.708 523.135C117.067 522.989 117.479 522.916 117.945 522.916C118.454 522.916 118.9 523.006 119.283 523.185C119.666 523.365 119.993 523.598 120.265 523.884C120.536 524.17 120.757 524.482 120.927 524.822C121.101 525.156 121.232 525.486 121.319 525.811C121.407 526.136 121.455 526.424 121.465 526.676L121.472 527.018C121.472 528.085 121.234 528.926 120.759 529.542C120.376 530.032 119.911 530.359 119.363 530.524C119.096 530.601 118.83 530.64 118.563 530.64ZM131.192 526.836C131.371 526.836 131.536 526.795 131.686 526.713C131.982 526.548 132.13 526.286 132.13 525.927C132.13 525.728 132.079 525.438 131.977 525.055L131.912 524.8C131.519 524.965 131.233 525.091 131.053 525.178C130.879 525.265 130.755 525.348 130.683 525.425C130.489 525.629 130.392 525.838 130.392 526.051C130.392 526.245 130.464 526.424 130.61 526.589C130.76 526.754 130.954 526.836 131.192 526.836ZM137.323 530.451H136.893C135.929 530.451 135.126 530.288 134.486 529.964C134.04 529.736 133.696 529.474 133.453 529.178C133.07 529.392 132.692 529.535 132.319 529.607C131.946 529.675 131.55 529.709 131.133 529.709C130.663 529.709 130.198 529.619 129.737 529.44C129.281 529.256 128.879 528.953 128.53 528.531C128.186 528.109 127.936 527.539 127.781 526.822C127.723 526.541 127.693 526.252 127.693 525.956C127.693 525.137 127.938 524.407 128.428 523.767C129.005 523.025 129.933 522.473 131.213 522.109L131.119 521.695L134.028 521.033C134.203 521.775 134.43 522.771 134.712 524.022C134.886 524.817 135.073 525.61 135.272 526.4C135.306 526.56 135.364 526.693 135.446 526.8C135.529 526.907 135.676 526.989 135.89 527.047C136.108 527.101 136.443 527.127 136.893 527.127H137.323V530.451ZM151.046 530.451C150.305 530.451 149.754 530.439 149.396 530.415C149.042 530.39 148.772 530.332 148.588 530.24C148.404 530.153 148.22 530.012 148.036 529.818C147.701 530.07 147.252 530.262 146.69 530.393C146.511 530.427 146.319 530.446 146.116 530.451C145.092 530.451 144.389 530.24 144.006 529.818C143.711 530.017 143.415 530.172 143.119 530.284C142.823 530.395 142.491 530.451 142.123 530.451C141.609 530.451 141.187 530.388 140.857 530.262C140.532 530.141 140.249 529.993 140.006 529.818L139.883 529.942C139.747 530.097 139.606 530.211 139.461 530.284C139.316 530.356 139.066 530.402 138.712 530.422C138.358 530.441 137.776 530.451 136.966 530.451V527.127H137.701C138.016 527.127 138.237 527.076 138.363 526.975C138.489 526.873 138.552 526.722 138.552 526.524V524.815H141.534V526.538C141.534 526.718 141.575 526.865 141.657 526.982C141.74 527.098 141.859 527.159 142.014 527.164C142.372 527.164 142.552 526.97 142.552 526.582V524.815H145.526V526.538C145.526 526.718 145.577 526.865 145.679 526.982C145.781 527.098 145.909 527.156 146.065 527.156C146.22 527.156 146.334 527.098 146.406 526.982C146.479 526.865 146.516 526.718 146.516 526.538V524.815H149.497V526.538C149.497 526.737 149.56 526.885 149.686 526.982C149.817 527.079 150.038 527.127 150.348 527.127H151.046V530.451ZM155.66 530.458C154.85 530.458 154.135 530.247 153.514 529.825C152.879 530.247 152.128 530.458 151.26 530.458H150.685V527.127H151.26C151.522 527.127 151.713 527.091 151.834 527.018C151.96 526.941 152.023 526.785 152.023 526.553V519.622H155.005V526.669C155.005 526.742 155.022 526.815 155.056 526.887C155.09 526.955 155.153 527.013 155.245 527.062C155.337 527.105 155.475 527.127 155.66 527.127V530.458ZM165.033 530.451C164.126 530.451 163.375 530.24 162.778 529.818C162.482 530.017 162.179 530.172 161.869 530.284C161.559 530.395 161.219 530.451 160.851 530.451C160.337 530.451 159.915 530.388 159.585 530.262C159.261 530.141 158.977 529.993 158.735 529.818C158.555 530.012 158.364 530.153 158.16 530.24C157.961 530.332 157.653 530.39 157.236 530.415C156.819 530.439 156.172 530.451 155.295 530.451V527.127H156.422C156.737 527.127 156.958 527.074 157.084 526.967C157.215 526.856 157.28 526.701 157.28 526.502V524.815H160.262V526.538C160.262 526.718 160.305 526.865 160.393 526.982C160.485 527.098 160.609 527.159 160.764 527.164C161.137 527.164 161.324 526.96 161.324 526.553V524.815H164.298V526.538C164.298 526.718 164.352 526.865 164.458 526.982C164.565 527.098 164.696 527.156 164.851 527.156C165.05 527.156 165.2 527.103 165.302 526.996C165.409 526.885 165.462 526.778 165.462 526.676C165.462 526.633 165.411 526.332 165.309 525.775L165.084 524.567L168 523.964L168.065 524.262C168.177 524.819 168.272 525.336 168.349 525.811C168.412 526.194 168.444 526.507 168.444 526.749C168.444 527.142 168.4 527.51 168.313 527.855C168.225 528.199 168.116 528.502 167.985 528.764C167.855 529.021 167.721 529.222 167.585 529.367C166.926 530.056 166.075 530.417 165.033 530.451Z" fill="white"/>
<g filter="url(#filter3_d_470_204)">
<rect x="53" y="627" width="142" height="142" rx="8" fill="#CE1340"/>
</g>
<path d="M89.5939 708.342H87.3684C86.5491 708.342 85.8412 708.194 85.2448 707.898C84.6484 707.602 84.1563 707.215 83.7684 706.735C83.3854 706.255 83.0994 705.726 82.9103 705.149C82.726 704.577 82.6339 704.015 82.6339 703.462C82.6339 702.555 82.743 701.738 82.9612 701.011C83.1794 700.279 83.463 699.568 83.8121 698.88L86.4812 700.189C86.2194 700.718 86.0084 701.229 85.8484 701.724C85.6884 702.218 85.6084 702.701 85.6084 703.171C85.6084 703.69 85.6909 704.082 85.8557 704.349C86.0206 704.621 86.2388 704.802 86.5103 704.895C86.7818 704.992 87.0751 705.04 87.3903 705.04H89.6157C90.0084 705.04 90.3091 704.996 90.5175 704.909C90.7309 704.827 90.8788 704.73 90.9612 704.618C91.0484 704.507 91.0921 704.405 91.0921 704.313C91.0581 704.303 90.8763 704.255 90.5466 704.167C90.2218 704.08 89.8484 703.981 89.4266 703.869C89.0097 703.758 88.6388 703.658 88.3139 703.571L87.8266 703.44L87.7539 703.156C87.7054 702.962 87.6545 702.708 87.6012 702.393C87.5527 702.073 87.5284 701.724 87.5284 701.345C87.5284 700.618 87.6618 699.952 87.9284 699.345C88.2484 698.623 88.7381 698.007 89.3975 697.498C90.2315 696.853 91.2715 696.531 92.5175 696.531C92.9394 696.531 93.463 696.613 94.0884 696.778L93.3321 699.658C93.0024 699.532 92.6581 699.469 92.2994 699.469C92.0133 699.469 91.7345 699.525 91.463 699.636C91.1963 699.743 90.9636 699.927 90.7648 700.189C90.566 700.446 90.423 700.795 90.3357 701.236L91.5212 701.556C92.0933 701.702 92.5418 701.828 92.8666 701.935C93.2739 702.07 93.5648 702.286 93.7394 702.582C93.9139 702.878 94.0012 703.236 94.0012 703.658C93.9915 704.478 93.8872 705.164 93.6884 705.716C93.4945 706.274 93.2351 706.725 92.9103 707.069C92.5903 707.418 92.2363 707.685 91.8484 707.869C91.4606 708.053 91.0703 708.177 90.6775 708.24C90.2848 708.308 89.9236 708.342 89.5939 708.342ZM95.1657 708.364H94.4529V705.04H95.1657C95.9948 705.04 96.5669 704.863 96.882 704.509C97.1923 704.126 97.3475 703.53 97.3475 702.72V698.815H100.329V702.72C100.329 703.51 100.225 704.281 100.017 705.033C99.8081 705.784 99.5075 706.378 99.1148 706.815C98.6542 707.343 98.0796 707.736 97.3911 707.993C96.7366 708.24 95.9948 708.364 95.1657 708.364ZM98.8602 697.935L97.1657 696.24L98.8602 694.538L100.562 696.24L98.8602 697.935ZM105.664 704.458H105.017C104.59 704.458 104.215 704.41 103.89 704.313C103.57 704.216 103.296 704.095 103.068 703.949C102.84 703.804 102.651 703.658 102.501 703.513C102.355 703.367 102.21 703.181 102.064 702.953C101.924 702.725 101.802 702.451 101.701 702.131C101.604 701.806 101.555 701.43 101.555 701.004L101.562 693.622H104.537V700.662C104.537 700.832 104.593 700.953 104.704 701.025C104.816 701.093 104.915 701.127 105.002 701.127H105.664V704.458ZM115.025 704.451C114.118 704.451 113.367 704.24 112.77 703.818C112.475 704.017 112.172 704.172 111.861 704.284C111.551 704.395 111.212 704.451 110.843 704.451C110.329 704.451 109.907 704.388 109.578 704.262C109.253 704.141 108.969 703.993 108.727 703.818C108.547 704.012 108.356 704.153 108.152 704.24C107.953 704.332 107.646 704.39 107.229 704.415C106.812 704.439 106.164 704.451 105.287 704.451V701.127H106.414C106.729 701.127 106.95 701.074 107.076 700.967C107.207 700.856 107.272 700.701 107.272 700.502V698.815H110.254V700.538C110.254 700.718 110.298 700.865 110.385 700.982C110.477 701.098 110.601 701.159 110.756 701.164C111.129 701.164 111.316 700.96 111.316 700.553V698.815H114.29V700.538C114.29 700.718 114.344 700.865 114.45 700.982C114.557 701.098 114.688 701.156 114.843 701.156C115.042 701.156 115.192 701.103 115.294 700.996C115.401 700.885 115.454 700.778 115.454 700.676C115.454 700.633 115.403 700.332 115.301 699.775L115.076 698.567L117.992 697.964L118.058 698.262C118.169 698.819 118.264 699.336 118.341 699.811C118.404 700.194 118.436 700.507 118.436 700.749C118.436 701.142 118.392 701.51 118.305 701.855C118.218 702.199 118.109 702.502 117.978 702.764C117.847 703.021 117.713 703.222 117.578 703.367C116.918 704.056 116.067 704.417 115.025 704.451ZM124.657 708.356H123.937V705.04H124.657C125.482 705.04 126.054 704.863 126.374 704.509C126.684 704.126 126.839 703.53 126.839 702.72V698.815H129.821V700.553C129.821 700.703 129.872 700.836 129.974 700.953C130.08 701.069 130.233 701.127 130.432 701.127H130.694V704.451H130.359C130.136 704.451 129.92 704.427 129.712 704.378C129.469 705.377 129.101 706.187 128.606 706.807C128.146 707.336 127.569 707.728 126.875 707.985C126.221 708.233 125.482 708.356 124.657 708.356ZM133.345 704.444H130.115V701.127H133.345C133.524 701.127 133.645 701.105 133.708 701.062C133.771 701.013 133.803 700.941 133.803 700.844C133.803 700.771 133.793 700.686 133.774 700.589L133.41 698.698L136.29 697.825L136.697 700.036C136.77 700.415 136.806 700.764 136.806 701.084C136.806 701.53 136.726 701.993 136.566 702.473C136.46 702.793 136.321 703.057 136.152 703.265C135.812 703.707 135.364 704.034 134.806 704.247C134.394 704.378 133.907 704.444 133.345 704.444ZM132.305 708.444L130.712 706.844L132.305 705.251L133.905 706.844L132.305 708.444ZM135.715 708.444L134.123 706.844L135.715 705.251L137.315 706.844L135.715 708.444ZM141.2 701.135H142.328V700.436C142.328 700.208 142.245 700.019 142.08 699.869C141.915 699.714 141.712 699.636 141.469 699.636C141.232 699.636 141.033 699.714 140.873 699.869C140.713 700.024 140.633 700.213 140.633 700.436C140.633 700.558 140.645 700.672 140.669 700.778C140.698 700.885 140.752 700.972 140.829 701.04C140.912 701.103 141.035 701.135 141.2 701.135ZM145.186 701.127H145.571V704.451H145.135C145.091 704.815 145.011 705.144 144.895 705.44C144.701 705.93 144.458 706.342 144.168 706.676C143.881 707.011 143.591 707.292 143.295 707.52C143.12 707.641 142.88 707.767 142.575 707.898C142.274 708.034 141.843 708.145 141.28 708.233C140.791 708.31 140.155 708.349 139.375 708.349H138.582V705.047H139.462C140.058 705.047 140.553 705.03 140.946 704.996C141.338 704.962 141.62 704.899 141.789 704.807C141.959 704.715 142.054 704.599 142.073 704.458H141.448C140.803 704.439 140.216 704.291 139.688 704.015C139.164 703.743 138.745 703.353 138.429 702.844C138.114 702.33 137.957 701.709 137.957 700.982C137.957 700.172 138.071 699.503 138.298 698.975C138.531 698.441 138.827 698.019 139.186 697.709C139.545 697.394 139.925 697.173 140.328 697.047C140.73 696.916 141.103 696.851 141.448 696.851C142.49 696.851 143.385 697.244 144.131 698.029C144.834 698.824 145.186 699.808 145.186 700.982V701.127ZM160.176 704.458H150.649C149.907 704.458 149.233 704.272 148.627 703.898C148.011 704.272 147.25 704.458 146.343 704.458H145.209V701.127H146.51C146.598 701.127 146.69 701.122 146.787 701.113C146.884 701.098 146.964 701.069 147.027 701.025C147.095 700.977 147.129 700.902 147.129 700.8V698.815H150.11V701.098C150.595 700.153 151.167 699.375 151.827 698.764C152.38 698.235 152.944 697.828 153.521 697.542C154.239 697.178 154.969 696.996 155.71 696.996C156.026 696.996 156.304 697.004 156.547 697.018C157.104 697.052 157.594 697.19 158.016 697.433C158.923 697.976 159.376 698.938 159.376 700.32C159.376 700.601 159.352 700.87 159.303 701.127H160.176V704.458ZM155.405 701.135C155.822 701.135 156.11 701.081 156.27 700.975C156.43 700.868 156.51 700.686 156.51 700.429C156.51 700.245 156.477 700.114 156.409 700.036C156.341 699.959 156.239 699.913 156.103 699.898C155.972 699.884 155.81 699.876 155.616 699.876C155.335 699.876 155.005 699.971 154.627 700.16C154.253 700.349 153.897 700.604 153.558 700.924C153.485 700.992 153.415 701.062 153.347 701.135H155.405ZM162.829 704.444H159.6V701.127H162.829C163.008 701.127 163.13 701.105 163.193 701.062C163.256 701.013 163.287 700.941 163.287 700.844C163.287 700.771 163.277 700.686 163.258 700.589L162.894 698.698L165.774 697.825L166.182 700.036C166.254 700.415 166.291 700.764 166.291 701.084C166.291 701.53 166.211 701.993 166.051 702.473C165.944 702.793 165.806 703.057 165.636 703.265C165.297 703.707 164.848 704.034 164.291 704.247C163.879 704.378 163.391 704.444 162.829 704.444ZM161.673 696.945L160.08 695.353L161.673 693.753L163.273 695.353L161.673 696.945ZM165.083 696.945L163.491 695.353L165.083 693.753L166.683 695.353L165.083 696.945Z" fill="white"/>
<g filter="url(#filter4_d_470_204)">
<rect x="53" y="801" width="142" height="142" rx="8" fill="#CE1340"/>
</g>
<path d="M91.9377 882.342H89.7122C88.8928 882.342 88.1849 882.194 87.5886 881.898C86.9922 881.602 86.5001 881.215 86.1122 880.735C85.7292 880.255 85.4431 879.726 85.254 879.149C85.0698 878.577 84.9777 878.015 84.9777 877.462C84.9777 876.555 85.0867 875.738 85.3049 875.011C85.5231 874.279 85.8067 873.568 86.1558 872.88L88.8249 874.189C88.5631 874.718 88.3522 875.229 88.1922 875.724C88.0322 876.218 87.9522 876.701 87.9522 877.171C87.9522 877.69 88.0346 878.082 88.1995 878.349C88.3643 878.621 88.5825 878.802 88.854 878.895C89.1255 878.992 89.4189 879.04 89.734 879.04H91.9595C92.3522 879.04 92.6528 878.996 92.8613 878.909C93.0746 878.827 93.2225 878.73 93.3049 878.618C93.3922 878.507 93.4358 878.405 93.4358 878.313C93.4019 878.303 93.2201 878.255 92.8904 878.167C92.5655 878.08 92.1922 877.981 91.7704 877.869C91.3534 877.758 90.9825 877.658 90.6577 877.571L90.1704 877.44L90.0977 877.156C90.0492 876.962 89.9983 876.708 89.9449 876.393C89.8964 876.073 89.8722 875.724 89.8722 875.345C89.8722 874.618 90.0055 873.952 90.2722 873.345C90.5922 872.623 91.0819 872.007 91.7413 871.498C92.5752 870.853 93.6152 870.531 94.8613 870.531C95.2831 870.531 95.8067 870.613 96.4322 870.778L95.6758 873.658C95.3461 873.532 95.0019 873.469 94.6431 873.469C94.357 873.469 94.0783 873.525 93.8067 873.636C93.5401 873.743 93.3074 873.927 93.1086 874.189C92.9098 874.446 92.7667 874.795 92.6795 875.236L93.8649 875.556C94.437 875.702 94.8855 875.828 95.2104 875.935C95.6177 876.07 95.9086 876.286 96.0831 876.582C96.2577 876.878 96.3449 877.236 96.3449 877.658C96.3352 878.478 96.231 879.164 96.0322 879.716C95.8383 880.274 95.5789 880.725 95.254 881.069C94.934 881.418 94.5801 881.685 94.1922 881.869C93.8043 882.053 93.414 882.177 93.0213 882.24C92.6286 882.308 92.2674 882.342 91.9377 882.342ZM101.189 878.553C100.642 878.553 100.069 878.497 99.4731 878.385C98.8815 878.279 98.3724 878.167 97.9458 878.051C97.5191 877.939 97.2573 877.867 97.1603 877.833L98.0476 874.655C98.2318 874.713 98.5058 874.788 98.8694 874.88C99.2331 874.972 99.6258 875.057 100.048 875.135C100.469 875.207 100.85 875.244 101.189 875.244C101.315 875.244 101.417 875.227 101.495 875.193C101.606 875.144 101.662 875.084 101.662 875.011C101.662 874.943 101.633 874.861 101.575 874.764L101.568 874.756C100.637 873.384 99.9797 872.415 99.5967 871.847C99.2185 871.275 99.0318 870.989 99.0367 870.989L101.531 869.36C101.531 869.379 102.365 870.623 104.033 873.091C104.067 873.139 104.099 873.19 104.128 873.244C104.283 873.501 104.52 873.833 104.84 874.24C105.311 874.836 105.667 875.135 105.909 875.135H106.295V878.451H105.589C104.896 878.446 104.229 878.189 103.589 877.68C103.415 877.84 103.221 877.978 103.008 878.095C102.45 878.4 101.844 878.553 101.189 878.553ZM111.891 878.444H111.6C110.858 878.444 110.184 878.257 109.578 877.884C108.953 878.257 108.192 878.444 107.295 878.444H105.927V875.127H107.506C107.743 875.127 107.898 875.103 107.971 875.055C108.044 875.001 108.08 874.909 108.08 874.778V872.815H111.062V874.778C111.062 874.899 111.089 874.989 111.142 875.047C111.195 875.101 111.329 875.127 111.542 875.127H111.891V878.444ZM109.047 871.295L107.353 869.6L109.047 867.898L110.749 869.6L109.047 871.295ZM113.332 878.444H111.521V875.127H113.332C113.511 875.127 113.633 875.105 113.696 875.062C113.759 875.013 113.79 874.941 113.79 874.844C113.79 874.771 113.781 874.686 113.761 874.589L113.397 872.698L116.277 871.825L116.685 874.036C116.757 874.415 116.794 874.764 116.794 875.084C116.794 875.53 116.714 875.993 116.554 876.473C116.447 876.793 116.309 877.057 116.139 877.265C115.8 877.707 115.351 878.034 114.794 878.247C114.382 878.378 113.894 878.444 113.332 878.444ZM113.892 882.385L112.197 880.691L113.892 878.989L115.594 880.691L113.892 882.385ZM126.403 874.836C126.582 874.836 126.747 874.795 126.897 874.713C127.193 874.548 127.341 874.286 127.341 873.927C127.341 873.728 127.29 873.438 127.188 873.055L127.123 872.8C126.73 872.965 126.444 873.091 126.264 873.178C126.09 873.265 125.966 873.348 125.893 873.425C125.7 873.629 125.603 873.838 125.603 874.051C125.603 874.245 125.675 874.424 125.821 874.589C125.971 874.754 126.165 874.836 126.403 874.836ZM132.533 878.451H132.104C131.14 878.451 130.337 878.288 129.697 877.964C129.251 877.736 128.907 877.474 128.664 877.178C128.281 877.392 127.903 877.535 127.53 877.607C127.156 877.675 126.761 877.709 126.344 877.709C125.874 877.709 125.409 877.619 124.948 877.44C124.492 877.256 124.09 876.953 123.741 876.531C123.396 876.109 123.147 875.539 122.992 874.822C122.933 874.541 122.904 874.252 122.904 873.956C122.904 873.137 123.149 872.407 123.639 871.767C124.216 871.025 125.144 870.473 126.424 870.109L126.33 869.695L129.239 869.033C129.413 869.775 129.641 870.771 129.923 872.022C130.097 872.817 130.284 873.61 130.483 874.4C130.516 874.56 130.575 874.693 130.657 874.8C130.74 874.907 130.887 874.989 131.101 875.047C131.319 875.101 131.653 875.127 132.104 875.127H132.533V878.451ZM137.152 878.458C136.342 878.458 135.627 878.247 135.006 877.825C134.371 878.247 133.62 878.458 132.752 878.458H132.177V875.127H132.752C133.014 875.127 133.205 875.091 133.326 875.018C133.453 874.941 133.516 874.785 133.516 874.553V867.622H136.497V874.669C136.497 874.742 136.514 874.815 136.548 874.887C136.582 874.955 136.645 875.013 136.737 875.062C136.829 875.105 136.968 875.127 137.152 875.127V878.458ZM147.165 878.444H142.227C141.485 878.444 140.811 878.257 140.205 877.884C139.589 878.257 138.828 878.444 137.921 878.444H136.787V875.127H138.089C138.176 875.127 138.268 875.122 138.365 875.113C138.462 875.098 138.542 875.069 138.605 875.025C138.673 874.977 138.707 874.902 138.707 874.8V872.815H141.689V875.098C142.173 874.153 142.746 873.375 143.405 872.764C143.958 872.235 144.523 871.828 145.099 871.542C145.817 871.178 146.547 870.996 147.289 870.996C147.604 870.996 147.883 871.004 148.125 871.018C148.683 871.052 149.172 871.19 149.594 871.433C150.501 871.976 150.954 872.938 150.954 874.32C150.954 875.256 150.809 876.002 150.518 876.56C150.251 877.069 149.873 877.486 149.383 877.811C149.102 877.99 148.821 878.126 148.539 878.218C148.084 878.368 147.626 878.444 147.165 878.444ZM146.983 875.135C147.4 875.135 147.689 875.081 147.849 874.975C148.009 874.868 148.089 874.686 148.089 874.429C148.089 874.245 148.055 874.114 147.987 874.036C147.919 873.959 147.817 873.913 147.681 873.898C147.55 873.884 147.388 873.876 147.194 873.876C146.913 873.876 146.583 873.971 146.205 874.16C145.832 874.349 145.475 874.604 145.136 874.924C145.063 874.992 144.993 875.062 144.925 875.135H146.983ZM156.149 878.458H155.501C155.075 878.458 154.699 878.41 154.374 878.313C154.054 878.216 153.78 878.095 153.552 877.949C153.324 877.804 153.135 877.658 152.985 877.513C152.84 877.367 152.694 877.181 152.549 876.953C152.408 876.725 152.287 876.451 152.185 876.131C152.088 875.806 152.04 875.43 152.04 875.004L152.047 867.622H155.021V874.662C155.021 874.832 155.077 874.953 155.189 875.025C155.3 875.093 155.4 875.127 155.487 875.127H156.149V878.458ZM163.778 874.88C163.778 875.564 163.609 876.175 163.269 876.713C162.935 877.251 162.443 877.675 161.793 877.985C161.143 878.296 160.353 878.451 159.422 878.451H155.887V875.127H156.578C156.559 874.856 156.549 874.601 156.549 874.364C156.549 873.554 156.666 872.882 156.898 872.349C157.131 871.816 157.424 871.394 157.778 871.084C158.137 870.773 158.518 870.555 158.92 870.429C159.323 870.298 159.696 870.233 160.04 870.233C161.083 870.233 161.977 870.625 162.724 871.411C163.427 872.206 163.778 873.19 163.778 874.364V874.88ZM160.062 873.36C159.824 873.36 159.626 873.438 159.466 873.593C159.306 873.748 159.226 873.937 159.226 874.16C159.226 874.281 159.238 874.395 159.262 874.502C159.291 874.608 159.344 874.696 159.422 874.764C159.504 874.827 159.628 874.858 159.793 874.858H160.92V874.16C160.92 873.932 160.838 873.743 160.673 873.593C160.513 873.438 160.309 873.36 160.062 873.36ZM160.069 869.324L158.375 867.629L160.069 865.927L161.771 867.629L160.069 869.324Z" fill="white"/>
<g filter="url(#filter5_d_470_204)">
<rect x="53" y="975" width="142" height="142" rx="8" fill="#CE1340"/>
</g>
<path d="M107.485 1052.46H106.837C106.411 1052.46 106.035 1052.41 105.71 1052.31C105.39 1052.22 105.116 1052.09 104.888 1051.95C104.66 1051.8 104.471 1051.66 104.321 1051.51C104.176 1051.37 104.03 1051.18 103.885 1050.95C103.744 1050.72 103.623 1050.45 103.521 1050.13C103.424 1049.81 103.376 1049.43 103.376 1049L103.383 1041.62H106.357V1048.66C106.357 1048.83 106.413 1048.95 106.525 1049.03C106.636 1049.09 106.736 1049.13 106.823 1049.13H107.485V1052.46ZM117.987 1045.73C118.879 1046.63 119.454 1047.45 119.711 1048.21C119.856 1048.65 119.929 1049.05 119.929 1049.43C119.929 1049.7 119.89 1049.95 119.813 1050.2C119.701 1050.59 119.485 1050.97 119.165 1051.34C118.845 1051.7 118.389 1051.99 117.798 1052.21C117.299 1052.4 116.68 1052.49 115.943 1052.49C115.813 1052.49 115.679 1052.49 115.543 1052.49C114.341 1052.41 113.41 1052.33 112.751 1052.23L111.762 1052.09C111.277 1052.23 110.787 1052.32 110.293 1052.37C109.798 1052.43 109.279 1052.46 108.736 1052.46H107.143L107.151 1049.13H108.06C107.987 1048.82 107.948 1048.5 107.943 1048.17C107.943 1047.1 108.3 1046.17 109.013 1045.38C109.74 1044.6 110.656 1044.2 111.762 1044.2C112.591 1044.2 113.318 1044.43 113.943 1044.89L115.493 1043.33C115.507 1043.34 115.64 1043.47 115.893 1043.71C116.145 1043.95 116.46 1044.26 116.838 1044.63C117.216 1044.99 117.599 1045.36 117.987 1045.73ZM111.762 1049.06C111.791 1049.06 111.856 1049.04 111.958 1049C112.06 1048.96 112.171 1048.91 112.293 1048.84C112.414 1048.76 112.518 1048.66 112.605 1048.54C112.697 1048.42 112.743 1048.27 112.743 1048.09C112.743 1048.02 112.731 1047.93 112.707 1047.82C112.683 1047.7 112.634 1047.58 112.562 1047.46C112.494 1047.34 112.394 1047.24 112.263 1047.15C112.137 1047.06 111.97 1047.02 111.762 1047.02C111.548 1047.02 111.376 1047.06 111.245 1047.15C111.119 1047.24 111.022 1047.34 110.954 1047.46C110.886 1047.58 110.84 1047.7 110.816 1047.82C110.792 1047.93 110.78 1048.02 110.78 1048.09C110.78 1048.27 110.823 1048.43 110.911 1048.55C110.998 1048.67 111.102 1048.77 111.223 1048.84C111.345 1048.92 111.456 1048.97 111.558 1049C111.66 1049.04 111.728 1049.06 111.762 1049.06ZM116.853 1048.97C116.857 1048.95 116.86 1048.94 116.86 1048.93C116.86 1048.84 116.799 1048.72 116.678 1048.57C116.562 1048.42 116.411 1048.27 116.227 1048.1C116.048 1047.94 115.885 1047.8 115.74 1047.68L115.522 1047.51C115.556 1047.72 115.573 1047.95 115.573 1048.17C115.573 1048.51 115.536 1048.83 115.463 1049.13L115.434 1049.22C115.638 1049.29 115.834 1049.32 116.023 1049.32C116.125 1049.32 116.271 1049.31 116.46 1049.27C116.654 1049.24 116.785 1049.14 116.853 1048.97ZM135.261 1052.44H134.941C134.398 1052.44 133.893 1052.41 133.428 1052.33C132.618 1052.2 131.906 1051.84 131.29 1051.26C131.023 1051.55 130.703 1051.79 130.33 1051.99C129.729 1052.29 129.081 1052.44 128.388 1052.44C126.24 1052.44 124.96 1052.44 124.548 1052.43C124.136 1052.42 123.784 1052.39 123.493 1052.34C122.66 1052.21 122.024 1051.81 121.588 1051.13C121.224 1050.6 121.043 1049.86 121.043 1048.92C121.043 1048.66 121.057 1048.39 121.086 1048.12C121.203 1047.37 121.346 1046.74 121.515 1046.23L121.523 1046.19L124.381 1047.03L124.279 1047.47C124.085 1048.26 123.988 1048.71 123.988 1048.81C123.988 1048.91 124.015 1048.99 124.068 1049.05C124.126 1049.11 124.233 1049.13 124.388 1049.13H128.17C128.378 1049.13 128.594 1049.12 128.817 1049.1C129.04 1049.07 129.232 1049.04 129.392 1049C129.552 1048.96 129.644 1048.92 129.668 1048.88L128.759 1047.64L127.013 1045.55L127.53 1043.28L133.821 1040.23L135.123 1042.92L130.504 1045.15C131.028 1045.82 131.685 1046.67 132.475 1047.72C132.82 1048.18 133.093 1048.51 133.297 1048.71C133.501 1048.9 133.714 1049.03 133.937 1049.07C134.165 1049.11 134.502 1049.13 134.948 1049.13H135.268L135.261 1052.44ZM127.646 1042.41L127.741 1041.38L133.181 1039.01L133.559 1039.83L127.646 1042.41ZM136.699 1052.44H134.888V1049.13H136.699C136.879 1049.13 137 1049.11 137.063 1049.06C137.126 1049.01 137.157 1048.94 137.157 1048.84C137.157 1048.77 137.148 1048.69 137.128 1048.59L136.765 1046.7L139.645 1045.83L140.052 1048.04C140.125 1048.41 140.161 1048.76 140.161 1049.08C140.161 1049.53 140.081 1049.99 139.921 1050.47C139.814 1050.79 139.676 1051.06 139.506 1051.27C139.167 1051.71 138.719 1052.03 138.161 1052.25C137.749 1052.38 137.262 1052.44 136.699 1052.44ZM137.688 1044.8L135.994 1043.11L137.688 1041.4L139.39 1043.11L137.688 1044.8ZM140.533 1056.36H139.82V1053.04H140.533C141.362 1053.04 141.934 1052.86 142.249 1052.51C142.56 1052.13 142.715 1051.53 142.715 1050.72V1046.81H145.696V1050.72C145.696 1051.51 145.592 1052.28 145.384 1053.03C145.175 1053.78 144.875 1054.38 144.482 1054.81C144.021 1055.34 143.447 1055.74 142.758 1055.99C142.104 1056.24 141.362 1056.36 140.533 1056.36Z" fill="white"/>
<defs>
<filter id="filter0_d_470_204" x="28" y="84" width="192" height="192" filterUnits="userSpaceOnUse" color-interpolation-filters="sRGB">
<feFlood flood-opacity="0" result="BackgroundImageFix"/>
<feColorMatrix in="SourceAlpha" type="matrix" values="0 0 0 0 0 0 0 0 0 0 0 0 0 0 0 0 0 0 127 0" result="hardAlpha"/>
<feOffset dy="4"/>
<feGaussianBlur stdDeviation="12.5"/>
<feComposite in2="hardAlpha" operator="out"/>
<feColorMatrix type="matrix" values="0 0 0 0 0.807843 0 0 0 0 0.0745098 0 0 0 0 0.25098 0 0 0 0.25 0"/>
<feBlend mode="normal" in2="BackgroundImageFix" result="effect1_dropShadow_470_204"/>
<feBlend mode="normal" in="SourceGraphic" in2="effect1_dropShadow_470_204" result="shape"/>
</filter>
<filter id="filter1_d_470_204" x="28" y="258" width="192" height="192" filterUnits="userSpaceOnUse" color-interpolation-filters="sRGB">
<feFlood flood-opacity="0" result="BackgroundImageFix"/>
<feColorMatrix in="SourceAlpha" type="matrix" values="0 0 0 0 0 0 0 0 0 0 0 0 0 0 0 0 0 0 127 0" result="hardAlpha"/>
<feOffset dy="4"/>
<feGaussianBlur stdDeviation="12.5"/>
<feComposite in2="hardAlpha" operator="out"/>
<feColorMatrix type="matrix" values="0 0 0 0 0.807843 0 0 0 0 0.0745098 0 0 0 0 0.25098 0 0 0 0.25 0"/>
<feBlend mode="normal" in2="BackgroundImageFix" result="effect1_dropShadow_470_204"/>
<feBlend mode="normal" in="SourceGraphic" in2="effect1_dropShadow_470_204" result="shape"/>
</filter>
<filter id="filter2_d_470_204" x="28" y="432" width="192" height="192" filterUnits="userSpaceOnUse" color-interpolation-filters="sRGB">
<feFlood flood-opacity="0" result="BackgroundImageFix"/>
<feColorMatrix in="SourceAlpha" type="matrix" values="0 0 0 0 0 0 0 0 0 0 0 0 0 0 0 0 0 0 127 0" result="hardAlpha"/>
<feOffset dy="4"/>
<feGaussianBlur stdDeviation="12.5"/>
<feComposite in2="hardAlpha" operator="out"/>
<feColorMatrix type="matrix" values="0 0 0 0 0.807843 0 0 0 0 0.0745098 0 0 0 0 0.25098 0 0 0 0.25 0"/>
<feBlend mode="normal" in2="BackgroundImageFix" result="effect1_dropShadow_470_204"/>
<feBlend mode="normal" in="SourceGraphic" in2="effect1_dropShadow_470_204" result="shape"/>
</filter>
<filter id="filter3_d_470_204" x="28" y="606" width="192" height="192" filterUnits="userSpaceOnUse" color-interpolation-filters="sRGB">
<feFlood flood-opacity="0" result="BackgroundImageFix"/>
<feColorMatrix in="SourceAlpha" type="matrix" values="0 0 0 0 0 0 0 0 0 0 0 0 0 0 0 0 0 0 127 0" result="hardAlpha"/>
<feOffset dy="4"/>
<feGaussianBlur stdDeviation="12.5"/>
<feComposite in2="hardAlpha" operator="out"/>
<feColorMatrix type="matrix" values="0 0 0 0 0.807843 0 0 0 0 0.0745098 0 0 0 0 0.25098 0 0 0 0.25 0"/>
<feBlend mode="normal" in2="BackgroundImageFix" result="effect1_dropShadow_470_204"/>
<feBlend mode="normal" in="SourceGraphic" in2="effect1_dropShadow_470_204" result="shape"/>
</filter>
<filter id="filter4_d_470_204" x="28" y="780" width="192" height="192" filterUnits="userSpaceOnUse" color-interpolation-filters="sRGB">
<feFlood flood-opacity="0" result="BackgroundImageFix"/>
<feColorMatrix in="SourceAlpha" type="matrix" values="0 0 0 0 0 0 0 0 0 0 0 0 0 0 0 0 0 0 127 0" result="hardAlpha"/>
<feOffset dy="4"/>
<feGaussianBlur stdDeviation="12.5"/>
<feComposite in2="hardAlpha" operator="out"/>
<feColorMatrix type="matrix" values="0 0 0 0 0.807843 0 0 0 0 0.0745098 0 0 0 0 0.25098 0 0 0 0.25 0"/>
<feBlend mode="normal" in2="BackgroundImageFix" result="effect1_dropShadow_470_204"/>
<feBlend mode="normal" in="SourceGraphic" in2="effect1_dropShadow_470_204" result="shape"/>
</filter>
<filter id="filter5_d_470_204" x="28" y="954" width="192" height="192" filterUnits="userSpaceOnUse" color-interpolation-filters="sRGB">
<feFlood flood-opacity="0" result="BackgroundImageFix"/>
<feColorMatrix in="SourceAlpha" type="matrix" values="0 0 0 0 0 0 0 0 0 0 0 0 0 0 0 0 0 0 127 0" result="hardAlpha"/>
<feOffset dy="4"/>
<feGaussianBlur stdDeviation="12.5"/>
<feComposite in2="hardAlpha" operator="out"/>
<feColorMatrix type="matrix" values="0 0 0 0 0.807843 0 0 0 0 0.0745098 0 0 0 0 0.25098 0 0 0 0.25 0"/>
<feBlend mode="normal" in2="BackgroundImageFix" result="effect1_dropShadow_470_204"/>
<feBlend mode="normal" in="SourceGraphic" in2="effect1_dropShadow_470_204" result="shape"/>
</filter>
<clipPath id="clip0_470_204">
<rect width="249" height="73" fill="white"/>
</clipPath>
</defs>
</svg>
