<svg width="664" height="366" viewBox="0 0 664 366" fill="none" xmlns="http://www.w3.org/2000/svg">
<g filter="url(#filter0_d_468_172)">
<rect x="25" y="21" width="142" height="142" rx="8" fill="#CE1340"/>
</g>
<path d="M67.3299 102.342H65.3953C64.5226 102.342 63.7711 102.189 63.1408 101.884C62.5105 101.578 61.9917 101.171 61.5844 100.662C61.1771 100.158 60.8765 99.5903 60.6826 98.96C60.4887 98.3297 60.3917 97.6873 60.3917 97.0327C60.3917 96.4461 60.4887 95.7818 60.6826 95.04C60.8814 94.2982 61.1626 93.5879 61.5262 92.9091L64.1953 94.1964C63.662 95.3018 63.3953 96.2473 63.3953 97.0327C63.3953 97.663 63.5626 98.1552 63.8971 98.5091C64.2317 98.8679 64.7311 99.0473 65.3953 99.0473H67.3299C67.6984 99.0473 68.0087 99.0352 68.2608 99.0109C68.5129 98.9867 68.7214 98.9552 68.8862 98.9164C69.0511 98.8824 69.1771 98.8461 69.2644 98.8073C69.3565 98.7733 69.4196 98.7442 69.4535 98.72L69.5044 98.6836C69.2184 98.5479 68.8935 98.4436 68.5299 98.3709C68.1711 98.2982 67.7808 98.2352 67.359 98.1818L66.9153 98.1164V95.1345H73.5626V98.4509H72.2317C72.2559 98.5915 72.268 98.7321 72.268 98.8727C72.268 99.5176 72.1493 100.051 71.9117 100.473C71.679 100.895 71.3735 101.232 70.9953 101.484C70.6171 101.736 70.2074 101.922 69.7662 102.044C69.325 102.17 68.8887 102.25 68.4571 102.284C68.0305 102.322 67.6547 102.342 67.3299 102.342ZM79.7549 94.88C79.7549 95.5636 79.5852 96.1745 79.2458 96.7127C78.9113 97.2509 78.4192 97.6752 77.7695 97.9855C77.1198 98.2958 76.3295 98.4509 75.3986 98.4509H71.864V95.1273H72.5549C72.5355 94.8558 72.5258 94.6012 72.5258 94.3636C72.5258 93.5539 72.6422 92.8824 72.8749 92.3491C73.1077 91.8158 73.401 91.3939 73.7549 91.0836C74.1137 90.7733 74.4943 90.5552 74.8967 90.4291C75.2992 90.2982 75.6725 90.2327 76.0167 90.2327C77.0592 90.2327 77.9537 90.6255 78.7004 91.4109C79.4034 92.2061 79.7549 93.1903 79.7549 94.3636V94.88ZM76.0386 93.36C75.801 93.36 75.6022 93.4376 75.4422 93.5927C75.2822 93.7479 75.2022 93.937 75.2022 94.16C75.2022 94.2812 75.2143 94.3952 75.2386 94.5018C75.2677 94.6085 75.321 94.6958 75.3986 94.7636C75.481 94.8267 75.6046 94.8582 75.7695 94.8582H76.8967V94.16C76.8967 93.9321 76.8143 93.743 76.6495 93.5927C76.4895 93.4376 76.2858 93.36 76.0386 93.36ZM76.0458 89.3236L74.3513 87.6291L76.0458 85.9273L77.7477 87.6291L76.0458 89.3236ZM84.0604 98.4655H81.0786V87.6218H84.0604V98.4655ZM84.7745 102.356H84.0545V99.04H84.7745C85.5987 99.04 86.1708 98.863 86.4908 98.5091C86.8011 98.1261 86.9563 97.5297 86.9563 96.72V92.8145H89.9381V94.5527C89.9381 94.703 89.989 94.8364 90.0908 94.9527C90.1975 95.0691 90.3502 95.1273 90.549 95.1273H90.8108V98.4509H90.4763C90.2533 98.4509 90.0375 98.4267 89.829 98.3782C89.5866 99.377 89.2181 100.187 88.7236 100.807C88.263 101.336 87.686 101.728 86.9927 101.985C86.3381 102.233 85.5987 102.356 84.7745 102.356ZM91.5053 91.6582L91.8108 89.1345L98.1744 86.2327L99.4108 88.9455L95.0544 90.9382C95.1708 91.0594 95.2968 91.1879 95.4326 91.3236C95.7477 91.6339 96.1017 91.9952 96.4944 92.4073C96.5671 92.4848 96.6374 92.5576 96.7053 92.6255C96.9768 92.9067 97.2096 93.1636 97.4035 93.3964C97.5974 93.6242 97.755 93.8642 97.8762 94.1164C98.0362 94.4606 98.138 94.7758 98.1817 95.0618C98.2108 95.2752 98.2253 95.4788 98.2253 95.6727C98.2253 95.7455 98.2205 95.8642 98.2108 96.0291C98.2011 96.1939 98.1356 96.4364 98.0144 96.7564C97.9223 96.9939 97.7477 97.2461 97.4908 97.5127C97.2338 97.7745 96.858 97.9952 96.3635 98.1745C95.8253 98.3588 95.1417 98.4509 94.3126 98.4509H90.4508V95.1273H94.3126C94.458 95.1273 94.6302 95.1248 94.829 95.12C95.0277 95.1103 95.1756 95.1006 95.2726 95.0909C94.8217 94.5673 94.3223 94.0582 93.7744 93.5636C93.2265 93.0642 92.7368 92.6424 92.3053 92.2982C91.8787 91.9491 91.6193 91.7406 91.5271 91.6727L91.5053 91.6582ZM91.9199 88.4291L92.0144 87.3964L97.4544 85.0255L97.8326 85.84L91.9199 88.4291ZM103.239 95.1345H104.367V94.4364C104.367 94.2085 104.284 94.0194 104.119 93.8691C103.954 93.7139 103.751 93.6364 103.508 93.6364C103.271 93.6364 103.072 93.7139 102.912 93.8691C102.752 94.0242 102.672 94.2133 102.672 94.4364C102.672 94.5576 102.684 94.6715 102.708 94.7782C102.737 94.8848 102.791 94.9721 102.868 95.04C102.951 95.103 103.074 95.1345 103.239 95.1345ZM107.225 95.1273H107.61V98.4509H107.174C107.13 98.8145 107.05 99.1442 106.934 99.44C106.74 99.9297 106.497 100.342 106.207 100.676C105.921 101.011 105.63 101.292 105.334 101.52C105.159 101.641 104.919 101.767 104.614 101.898C104.313 102.034 103.882 102.145 103.319 102.233C102.83 102.31 102.194 102.349 101.414 102.349H100.621V99.0473H101.501C102.097 99.0473 102.592 99.0303 102.985 98.9964C103.377 98.9624 103.659 98.8994 103.828 98.8073C103.998 98.7152 104.093 98.5988 104.112 98.4582H103.487C102.842 98.4388 102.255 98.2909 101.727 98.0145C101.203 97.743 100.784 97.3527 100.468 96.8436C100.153 96.3297 99.9957 95.7091 99.9957 94.9818C99.9957 94.1721 100.11 93.503 100.337 92.9745C100.57 92.4412 100.866 92.0194 101.225 91.7091C101.584 91.3939 101.964 91.1733 102.367 91.0473C102.769 90.9164 103.142 90.8509 103.487 90.8509C104.529 90.8509 105.424 91.2436 106.17 92.0291C106.873 92.8242 107.225 93.8085 107.225 94.9818V95.1273ZM115.059 98.4436H113.989C113.267 98.4436 112.593 98.2448 111.968 97.8473C111.686 98.0703 111.371 98.2255 111.022 98.3127C110.678 98.4 110.232 98.4436 109.684 98.4436H107.248V95.1273H109.895C110.133 95.1273 110.288 95.103 110.36 95.0545C110.433 95.0012 110.469 94.9091 110.469 94.7782V92.8145H113.451V94.7782C113.451 94.8994 113.478 94.9891 113.531 95.0473C113.585 95.1006 113.718 95.1273 113.931 95.1273H115.059V98.4436ZM111.102 104.48L109.648 103.018L111.102 101.564L112.564 103.018L111.102 104.48ZM109.393 102.364L107.8 100.764L109.393 99.1709L110.993 100.764L109.393 102.364ZM112.804 102.364L111.211 100.764L112.804 99.1709L114.404 100.764L112.804 102.364ZM117.712 98.4436H114.483V95.1273H117.712C117.891 95.1273 118.012 95.1055 118.075 95.0618C118.138 95.0133 118.17 94.9406 118.17 94.8436C118.17 94.7709 118.16 94.6861 118.141 94.5891L117.777 92.6982L120.657 91.8255L121.064 94.0364C121.137 94.4145 121.174 94.7636 121.174 95.0836C121.174 95.5297 121.094 95.9927 120.934 96.4727C120.827 96.7927 120.689 97.057 120.519 97.2655C120.18 97.7067 119.731 98.0339 119.174 98.2473C118.761 98.3782 118.274 98.4436 117.712 98.4436ZM116.672 102.444L115.079 100.844L116.672 99.2509L118.272 100.844L116.672 102.444ZM120.083 102.444L118.49 100.844L120.083 99.2509L121.683 100.844L120.083 102.444ZM126.438 98.4582H125.79C125.364 98.4582 124.988 98.4097 124.663 98.3127C124.343 98.2158 124.069 98.0945 123.841 97.9491C123.613 97.8036 123.424 97.6582 123.274 97.5127C123.129 97.3673 122.983 97.1806 122.838 96.9527C122.697 96.7248 122.576 96.4509 122.474 96.1309C122.377 95.8061 122.329 95.4303 122.329 95.0036L122.336 87.6218H125.31V94.6618C125.31 94.8315 125.366 94.9527 125.478 95.0255C125.589 95.0933 125.689 95.1273 125.776 95.1273H126.438V98.4582ZM129.071 98.4436H125.842V95.1273H129.071C129.25 95.1273 129.372 95.1055 129.435 95.0618C129.498 95.0133 129.529 94.9406 129.529 94.8436C129.529 94.7709 129.52 94.6861 129.5 94.5891L129.137 92.6982L132.017 91.8255L132.424 94.0364C132.497 94.4145 132.533 94.7636 132.533 95.0836C132.533 95.5297 132.453 95.9927 132.293 96.4727C132.186 96.7927 132.048 97.057 131.878 97.2655C131.539 97.7067 131.09 98.0339 130.533 98.2473C130.121 98.3782 129.633 98.4436 129.071 98.4436ZM127.915 90.9455L126.322 89.3527L127.915 87.7527L129.515 89.3527L127.915 90.9455ZM131.326 90.9455L129.733 89.3527L131.326 87.7527L132.926 89.3527L131.326 90.9455Z" fill="white"/>
<g filter="url(#filter1_d_468_172)">
<rect x="199" y="21" width="142" height="142" rx="8" fill="#CE1340"/>
</g>
<path d="M254.752 102.342H252.817C251.944 102.342 251.193 102.189 250.563 101.884C249.932 101.578 249.414 101.171 249.006 100.662C248.599 100.158 248.298 99.5903 248.104 98.96C247.911 98.3297 247.814 97.6873 247.814 97.0327C247.814 96.4461 247.911 95.7818 248.104 95.04C248.303 94.2982 248.584 93.5879 248.948 92.9091L251.617 94.1964C251.084 95.3018 250.817 96.2473 250.817 97.0327C250.817 97.663 250.984 98.1552 251.319 98.5091C251.654 98.8679 252.153 99.0473 252.817 99.0473H254.752C255.12 99.0473 255.431 99.0352 255.683 99.0109C255.935 98.9867 256.143 98.9552 256.308 98.9164C256.473 98.8824 256.599 98.8461 256.686 98.8073C256.778 98.7733 256.841 98.7442 256.875 98.72L256.926 98.6836C256.64 98.5479 256.315 98.4436 255.952 98.3709C255.593 98.2982 255.203 98.2352 254.781 98.1818L254.337 98.1164V95.1345H260.984V98.4509H259.654C259.678 98.5915 259.69 98.7321 259.69 98.8727C259.69 99.5176 259.571 100.051 259.334 100.473C259.101 100.895 258.795 101.232 258.417 101.484C258.039 101.736 257.629 101.922 257.188 102.044C256.747 102.17 256.311 102.25 255.879 102.284C255.452 102.322 255.077 102.342 254.752 102.342ZM259.13 91.6582L259.436 89.1345L265.799 86.2327L267.036 88.9455L262.679 90.9382C262.796 91.0594 262.922 91.1879 263.058 91.3236C263.373 91.6339 263.727 91.9952 264.119 92.4073C264.192 92.4848 264.262 92.5576 264.33 92.6255C264.602 92.9067 264.835 93.1636 265.029 93.3964C265.222 93.6242 265.38 93.8642 265.501 94.1164C265.661 94.4606 265.763 94.7758 265.807 95.0618C265.836 95.2752 265.85 95.4788 265.85 95.6727C265.85 95.7455 265.845 95.8642 265.836 96.0291C265.826 96.1939 265.761 96.4364 265.639 96.7564C265.547 96.9939 265.373 97.2461 265.116 97.5127C264.859 97.7745 264.483 97.9952 263.989 98.1745C263.45 98.3588 262.767 98.4509 261.938 98.4509H258.076V95.1273H261.938C262.083 95.1273 262.255 95.1248 262.454 95.12C262.653 95.1103 262.801 95.1006 262.898 95.0909C262.447 94.5673 261.947 94.0582 261.399 93.5636C260.852 93.0642 260.362 92.6424 259.93 92.2982C259.504 91.9491 259.244 91.7406 259.152 91.6727L259.13 91.6582ZM259.545 88.4291L259.639 87.3964L265.079 85.0255L265.458 85.84L259.545 88.4291ZM271.81 98.4291C271.267 98.4291 270.68 98.3612 270.05 98.2255C269.424 98.0945 268.876 97.9612 268.406 97.8255C267.941 97.6848 267.655 97.5952 267.548 97.5564L268.493 94.4436C268.939 94.5939 269.497 94.7515 270.166 94.9164C270.835 95.0764 271.383 95.1564 271.81 95.1564C272.013 95.1564 272.13 95.12 272.159 95.0473C272.169 95.0279 272.173 95.0036 272.173 94.9745C272.173 94.9018 272.132 94.8 272.05 94.6691L269.432 90.9309L271.89 89.2509C271.89 89.2461 272.001 89.4036 272.224 89.7236C272.559 90.2085 273.313 91.2848 274.486 92.9527C274.937 93.5927 275.162 94.303 275.162 95.0836C275.162 95.6752 275.044 96.2182 274.806 96.7127C274.52 97.2558 274.113 97.6776 273.584 97.9782C273.061 98.2788 272.469 98.4291 271.81 98.4291ZM280.328 98.4582H279.681C279.254 98.4582 278.879 98.4097 278.554 98.3127C278.234 98.2158 277.96 98.0945 277.732 97.9491C277.504 97.8036 277.315 97.6582 277.165 97.5127C277.019 97.3673 276.874 97.1806 276.728 96.9527C276.588 96.7248 276.467 96.4509 276.365 96.1309C276.268 95.8061 276.219 95.4303 276.219 95.0036L276.227 87.6218H279.201V94.6618C279.201 94.8315 279.257 94.9527 279.368 95.0255C279.48 95.0933 279.579 95.1273 279.667 95.1273H280.328V98.4582ZM289.689 98.4509C288.782 98.4509 288.031 98.24 287.434 97.8182C287.139 98.017 286.836 98.1721 286.525 98.2836C286.215 98.3952 285.876 98.4509 285.507 98.4509C284.993 98.4509 284.571 98.3879 284.242 98.2618C283.917 98.1406 283.633 97.9927 283.391 97.8182C283.211 98.0121 283.02 98.1527 282.816 98.24C282.617 98.3321 282.31 98.3903 281.893 98.4145C281.476 98.4388 280.828 98.4509 279.951 98.4509V95.1273H281.078C281.393 95.1273 281.614 95.0739 281.74 94.9673C281.871 94.8558 281.936 94.7006 281.936 94.5018V92.8145H284.918V94.5382C284.918 94.7176 284.962 94.8655 285.049 94.9818C285.141 95.0982 285.265 95.1588 285.42 95.1636C285.793 95.1636 285.98 94.96 285.98 94.5527V92.8145H288.954V94.5382C288.954 94.7176 289.008 94.8655 289.114 94.9818C289.221 95.0982 289.352 95.1564 289.507 95.1564C289.706 95.1564 289.856 95.103 289.958 94.9964C290.065 94.8848 290.118 94.7782 290.118 94.6764C290.118 94.6327 290.067 94.3321 289.965 93.7745L289.74 92.5673L292.656 91.9636L292.722 92.2618C292.833 92.8194 292.928 93.3358 293.005 93.8109C293.068 94.1939 293.1 94.5067 293.1 94.7491C293.1 95.1418 293.056 95.5103 292.969 95.8545C292.882 96.1988 292.773 96.5018 292.642 96.7636C292.511 97.0206 292.377 97.2218 292.242 97.3673C291.582 98.0558 290.731 98.417 289.689 98.4509Z" fill="white"/>
<g filter="url(#filter2_d_468_172)">
<rect x="373" y="21" width="142" height="142" rx="8" fill="#CE1340"/>
</g>
<path d="M410.79 98.4945C406.717 98.4945 404.475 98.4897 404.063 98.48C403.65 98.4703 403.299 98.4412 403.008 98.3927C402.174 98.2618 401.539 97.8594 401.103 97.1855C400.913 96.8945 400.773 96.5479 400.681 96.1455C400.593 95.7382 400.55 95.3188 400.55 94.8873C400.55 94.64 400.564 94.3976 400.593 94.16C400.71 93.4036 400.853 92.7733 401.023 92.2691L401.03 92.2255L403.888 93.0691L403.786 93.5055C403.592 94.3006 403.495 94.7491 403.495 94.8509C403.495 94.9479 403.522 95.0255 403.575 95.0836C403.633 95.1418 403.74 95.1709 403.895 95.1709H410.87C411.204 95.1709 411.43 95.103 411.546 94.9673C411.663 94.8315 411.721 94.6255 411.721 94.3491V92.8145H414.695V94.5964C414.705 94.7758 414.775 94.9091 414.906 94.9964C415.037 95.0836 415.25 95.1273 415.546 95.1273H416.172V98.4582C415.507 98.4582 415.006 98.4485 414.666 98.4291C414.327 98.4145 414.067 98.3733 413.888 98.3055C413.713 98.2376 413.553 98.1333 413.408 97.9927C413.151 98.1576 412.88 98.2739 412.593 98.3418C412.312 98.4145 412.019 98.4582 411.713 98.4727C411.413 98.4873 411.105 98.4945 410.79 98.4945ZM407.793 102.378L406.099 100.684L407.793 98.9818L409.495 100.684L407.793 102.378ZM418.821 98.4436H415.592V95.1273H418.821C419 95.1273 419.122 95.1055 419.185 95.0618C419.248 95.0133 419.279 94.9406 419.279 94.8436C419.279 94.7709 419.27 94.6861 419.25 94.5891L418.887 92.6982L421.767 91.8255L422.174 94.0364C422.247 94.4145 422.283 94.7636 422.283 95.0836C422.283 95.5297 422.203 95.9927 422.043 96.4727C421.936 96.7927 421.798 97.057 421.628 97.2655C421.289 97.7067 420.84 98.0339 420.283 98.2473C419.871 98.3782 419.383 98.4436 418.821 98.4436ZM417.665 90.9455L416.072 89.3527L417.665 87.7527L419.265 89.3527L417.665 90.9455ZM421.076 90.9455L419.483 89.3527L421.076 87.7527L422.676 89.3527L421.076 90.9455ZM426.42 98.4655H423.438V87.6218H426.42V98.4655ZM427.134 102.356H426.414V99.04H427.134C427.958 99.04 428.53 98.863 428.85 98.5091C429.161 98.1261 429.316 97.5297 429.316 96.72V92.8145H432.297V94.5527C432.297 94.703 432.348 94.8364 432.45 94.9527C432.557 95.0691 432.71 95.1273 432.908 95.1273H433.17V98.4509H432.836C432.613 98.4509 432.397 98.4267 432.188 98.3782C431.946 99.377 431.577 100.187 431.083 100.807C430.622 101.336 430.045 101.728 429.352 101.985C428.697 102.233 427.958 102.356 427.134 102.356ZM438.548 95.8982C438.645 95.8982 438.737 95.7915 438.825 95.5782C438.888 95.4182 438.919 95.2412 438.919 95.0473C438.919 94.8194 438.859 94.5939 438.737 94.3709C438.65 94.2158 438.536 94.0824 438.396 93.9709C438.26 93.8594 438.105 93.8036 437.93 93.8036C437.756 93.8036 437.605 93.8909 437.479 94.0655C437.358 94.24 437.259 94.4339 437.181 94.6473C437.103 94.8558 437.05 95.0279 437.021 95.1636C437.142 95.2655 437.302 95.3745 437.501 95.4909C437.705 95.6024 437.906 95.6994 438.105 95.7818C438.308 95.8594 438.456 95.8982 438.548 95.8982ZM438.563 98.64C438.088 98.64 437.639 98.5867 437.217 98.48C436.8 98.3782 436.43 98.2594 436.105 98.1236C435.785 97.9879 435.53 97.8667 435.341 97.76C435.137 97.9588 434.839 98.1236 434.447 98.2545C434.054 98.3855 433.678 98.4509 433.319 98.4509H432.81V95.1273H433.101C433.581 95.1273 433.891 95.0448 434.032 94.88C434.173 94.7152 434.306 94.3976 434.432 93.9273L434.556 93.5345C434.59 93.4133 434.655 93.2485 434.752 93.04C434.849 92.8315 434.982 92.6061 435.152 92.3636C435.327 92.1212 435.54 91.8909 435.792 91.6727C436.049 91.4545 436.354 91.2752 436.708 91.1345C437.067 90.9891 437.479 90.9164 437.945 90.9164C438.454 90.9164 438.9 91.0061 439.283 91.1855C439.666 91.3648 439.993 91.5976 440.265 91.8836C440.536 92.1697 440.757 92.4824 440.927 92.8218C441.101 93.1564 441.232 93.4861 441.319 93.8109C441.407 94.1358 441.455 94.4242 441.465 94.6764L441.472 95.0182C441.472 96.0848 441.234 96.9261 440.759 97.5418C440.376 98.0315 439.911 98.3588 439.363 98.5236C439.096 98.6012 438.83 98.64 438.563 98.64ZM451.192 94.8364C451.371 94.8364 451.536 94.7952 451.686 94.7127C451.982 94.5479 452.13 94.2861 452.13 93.9273C452.13 93.7285 452.079 93.4376 451.977 93.0545L451.912 92.8C451.519 92.9648 451.233 93.0909 451.053 93.1782C450.879 93.2655 450.755 93.3479 450.682 93.4255C450.489 93.6291 450.392 93.8376 450.392 94.0509C450.392 94.2448 450.464 94.4242 450.61 94.5891C450.76 94.7539 450.954 94.8364 451.192 94.8364ZM457.322 98.4509H456.893C455.929 98.4509 455.126 98.2885 454.486 97.9636C454.04 97.7358 453.696 97.4739 453.453 97.1782C453.07 97.3915 452.692 97.5345 452.319 97.6073C451.946 97.6752 451.55 97.7091 451.133 97.7091C450.663 97.7091 450.198 97.6194 449.737 97.44C449.281 97.2558 448.879 96.9527 448.53 96.5309C448.186 96.1091 447.936 95.5394 447.781 94.8218C447.722 94.5406 447.693 94.2521 447.693 93.9564C447.693 93.137 447.938 92.4073 448.428 91.7673C449.005 91.0255 449.933 90.4727 451.213 90.1091L451.119 89.6945L454.028 89.0327C454.202 89.7745 454.43 90.7709 454.712 92.0218C454.886 92.817 455.073 93.6097 455.272 94.4C455.306 94.56 455.364 94.6933 455.446 94.8C455.529 94.9067 455.676 94.9891 455.89 95.0473C456.108 95.1006 456.442 95.1273 456.893 95.1273H457.322V98.4509ZM471.046 98.4509C470.305 98.4509 469.754 98.4388 469.395 98.4145C469.042 98.3903 468.772 98.3321 468.588 98.24C468.404 98.1527 468.22 98.0121 468.035 97.8182C467.701 98.0703 467.252 98.2618 466.69 98.3927C466.511 98.4267 466.319 98.4461 466.115 98.4509C465.092 98.4509 464.389 98.24 464.006 97.8182C463.711 98.017 463.415 98.1721 463.119 98.2836C462.823 98.3952 462.491 98.4509 462.123 98.4509C461.609 98.4509 461.187 98.3879 460.857 98.2618C460.532 98.1406 460.249 97.9927 460.006 97.8182L459.883 97.9418C459.747 98.097 459.606 98.2109 459.461 98.2836C459.315 98.3564 459.066 98.4024 458.712 98.4218C458.358 98.4412 457.776 98.4509 456.966 98.4509V95.1273H457.701C458.016 95.1273 458.237 95.0764 458.363 94.9745C458.489 94.8727 458.552 94.7224 458.552 94.5236V92.8145H461.534V94.5382C461.534 94.7176 461.575 94.8655 461.657 94.9818C461.74 95.0982 461.859 95.1588 462.014 95.1636C462.372 95.1636 462.552 94.9697 462.552 94.5818V92.8145H465.526V94.5382C465.526 94.7176 465.577 94.8655 465.679 94.9818C465.781 95.0982 465.909 95.1564 466.065 95.1564C466.22 95.1564 466.334 95.0982 466.406 94.9818C466.479 94.8655 466.515 94.7176 466.515 94.5382V92.8145H469.497V94.5382C469.497 94.737 469.56 94.8848 469.686 94.9818C469.817 95.0788 470.038 95.1273 470.348 95.1273H471.046V98.4509ZM475.66 98.4582C474.85 98.4582 474.135 98.2473 473.514 97.8255C472.879 98.2473 472.128 98.4582 471.26 98.4582H470.685V95.1273H471.26C471.522 95.1273 471.713 95.0909 471.834 95.0182C471.96 94.9406 472.023 94.7855 472.023 94.5527V87.6218H475.005V94.6691C475.005 94.7418 475.022 94.8145 475.056 94.8873C475.09 94.9552 475.153 95.0133 475.245 95.0618C475.337 95.1055 475.475 95.1273 475.66 95.1273V98.4582ZM485.033 98.4509C484.126 98.4509 483.375 98.24 482.778 97.8182C482.482 98.017 482.179 98.1721 481.869 98.2836C481.559 98.3952 481.219 98.4509 480.851 98.4509C480.337 98.4509 479.915 98.3879 479.585 98.2618C479.261 98.1406 478.977 97.9927 478.735 97.8182C478.555 98.0121 478.364 98.1527 478.16 98.24C477.961 98.3321 477.653 98.3903 477.236 98.4145C476.819 98.4388 476.172 98.4509 475.295 98.4509V95.1273H476.422C476.737 95.1273 476.958 95.0739 477.084 94.9673C477.215 94.8558 477.28 94.7006 477.28 94.5018V92.8145H480.262V94.5382C480.262 94.7176 480.305 94.8655 480.393 94.9818C480.485 95.0982 480.608 95.1588 480.764 95.1636C481.137 95.1636 481.324 94.96 481.324 94.5527V92.8145H484.298V94.5382C484.298 94.7176 484.352 94.8655 484.458 94.9818C484.565 95.0982 484.696 95.1564 484.851 95.1564C485.05 95.1564 485.2 95.103 485.302 94.9964C485.408 94.8848 485.462 94.7782 485.462 94.6764C485.462 94.6327 485.411 94.3321 485.309 93.7745L485.084 92.5673L488 91.9636L488.065 92.2618C488.177 92.8194 488.272 93.3358 488.349 93.8109C488.412 94.1939 488.444 94.5067 488.444 94.7491C488.444 95.1418 488.4 95.5103 488.313 95.8545C488.225 96.1988 488.116 96.5018 487.985 96.7636C487.855 97.0206 487.721 97.2218 487.585 97.3673C486.926 98.0558 486.075 98.417 485.033 98.4509Z" fill="white"/>
<g filter="url(#filter3_d_468_172)">
<rect x="25" y="195" width="142" height="142" rx="8" fill="#CE1340"/>
</g>
<path d="M61.5939 276.342H59.3684C58.549 276.342 57.8411 276.194 57.2448 275.898C56.6484 275.602 56.1563 275.215 55.7684 274.735C55.3854 274.255 55.0993 273.726 54.9102 273.149C54.726 272.577 54.6339 272.015 54.6339 271.462C54.6339 270.555 54.743 269.738 54.9611 269.011C55.1793 268.279 55.463 267.568 55.8121 266.88L58.4811 268.189C58.2193 268.718 58.0084 269.229 57.8484 269.724C57.6884 270.218 57.6084 270.701 57.6084 271.171C57.6084 271.69 57.6908 272.082 57.8557 272.349C58.0205 272.621 58.2387 272.802 58.5102 272.895C58.7818 272.992 59.0751 273.04 59.3902 273.04H61.6157C62.0084 273.04 62.309 272.996 62.5175 272.909C62.7308 272.827 62.8787 272.73 62.9611 272.618C63.0484 272.507 63.0921 272.405 63.0921 272.313C63.0581 272.303 62.8763 272.255 62.5466 272.167C62.2218 272.08 61.8484 271.981 61.4266 271.869C61.0096 271.758 60.6387 271.658 60.3139 271.571L59.8266 271.44L59.7539 271.156C59.7054 270.962 59.6545 270.708 59.6011 270.393C59.5527 270.073 59.5284 269.724 59.5284 269.345C59.5284 268.618 59.6618 267.952 59.9284 267.345C60.2484 266.623 60.7381 266.007 61.3975 265.498C62.2314 264.853 63.2714 264.531 64.5175 264.531C64.9393 264.531 65.463 264.613 66.0884 264.778L65.3321 267.658C65.0024 267.532 64.6581 267.469 64.2993 267.469C64.0133 267.469 63.7345 267.525 63.463 267.636C63.1963 267.743 62.9636 267.927 62.7648 268.189C62.566 268.446 62.423 268.795 62.3357 269.236L63.5211 269.556C64.0933 269.702 64.5418 269.828 64.8666 269.935C65.2739 270.07 65.5648 270.286 65.7393 270.582C65.9139 270.878 66.0011 271.236 66.0011 271.658C65.9914 272.478 65.8872 273.164 65.6884 273.716C65.4945 274.274 65.2351 274.725 64.9102 275.069C64.5902 275.418 64.2363 275.685 63.8484 275.869C63.4605 276.053 63.0702 276.177 62.6775 276.24C62.2848 276.308 61.9236 276.342 61.5939 276.342ZM67.1656 276.364H66.4529V273.04H67.1656C67.9947 273.04 68.5668 272.863 68.882 272.509C69.1923 272.126 69.3475 271.53 69.3475 270.72V266.815H72.3293V270.72C72.3293 271.51 72.225 272.281 72.0165 273.033C71.8081 273.784 71.5075 274.378 71.1147 274.815C70.6541 275.343 70.0796 275.736 69.3911 275.993C68.7365 276.24 67.9947 276.364 67.1656 276.364ZM70.8602 265.935L69.1656 264.24L70.8602 262.538L72.562 264.24L70.8602 265.935ZM77.6643 272.458H77.017C76.5903 272.458 76.2146 272.41 75.8897 272.313C75.5697 272.216 75.2958 272.095 75.0679 271.949C74.84 271.804 74.6509 271.658 74.5006 271.513C74.3552 271.367 74.2097 271.181 74.0643 270.953C73.9237 270.725 73.8025 270.451 73.7006 270.131C73.6037 269.806 73.5552 269.43 73.5552 269.004L73.5625 261.622H76.537V268.662C76.537 268.832 76.5928 268.953 76.7043 269.025C76.8158 269.093 76.9152 269.127 77.0025 269.127H77.6643V272.458ZM87.0249 272.451C86.1182 272.451 85.3667 272.24 84.7704 271.818C84.4746 272.017 84.1716 272.172 83.8613 272.284C83.551 272.395 83.2116 272.451 82.8431 272.451C82.3291 272.451 81.9073 272.388 81.5776 272.262C81.2528 272.141 80.9691 271.993 80.7267 271.818C80.5473 272.012 80.3558 272.153 80.1522 272.24C79.9534 272.332 79.6455 272.39 79.2285 272.415C78.8116 272.439 78.1643 272.451 77.2867 272.451V269.127H78.414C78.7291 269.127 78.9497 269.074 79.0758 268.967C79.2067 268.856 79.2722 268.701 79.2722 268.502V266.815H82.254V268.538C82.254 268.718 82.2976 268.865 82.3849 268.982C82.477 269.098 82.6007 269.159 82.7558 269.164C83.1291 269.164 83.3158 268.96 83.3158 268.553V266.815H86.2904V268.538C86.2904 268.718 86.3437 268.865 86.4504 268.982C86.557 269.098 86.6879 269.156 86.8431 269.156C87.0419 269.156 87.1922 269.103 87.294 268.996C87.4007 268.885 87.454 268.778 87.454 268.676C87.454 268.633 87.4031 268.332 87.3013 267.775L87.0758 266.567L89.9922 265.964L90.0576 266.262C90.1691 266.819 90.2637 267.336 90.3413 267.811C90.4043 268.194 90.4358 268.507 90.4358 268.749C90.4358 269.142 90.3922 269.51 90.3049 269.855C90.2176 270.199 90.1085 270.502 89.9776 270.764C89.8467 271.021 89.7134 271.222 89.5776 271.367C88.9182 272.056 88.0673 272.417 87.0249 272.451ZM96.6573 276.356H95.9373V273.04H96.6573C97.4815 273.04 98.0536 272.863 98.3736 272.509C98.6839 272.126 98.8391 271.53 98.8391 270.72V266.815H101.821V268.553C101.821 268.703 101.872 268.836 101.974 268.953C102.08 269.069 102.233 269.127 102.432 269.127H102.694V272.451H102.359C102.136 272.451 101.92 272.427 101.712 272.378C101.469 273.377 101.101 274.187 100.606 274.807C100.146 275.336 99.5688 275.728 98.8755 275.985C98.2209 276.233 97.4815 276.356 96.6573 276.356ZM105.344 272.444H102.115V269.127H105.344C105.524 269.127 105.645 269.105 105.708 269.062C105.771 269.013 105.803 268.941 105.803 268.844C105.803 268.771 105.793 268.686 105.774 268.589L105.41 266.698L108.29 265.825L108.697 268.036C108.77 268.415 108.806 268.764 108.806 269.084C108.806 269.53 108.726 269.993 108.566 270.473C108.46 270.793 108.321 271.057 108.152 271.265C107.812 271.707 107.364 272.034 106.806 272.247C106.394 272.378 105.907 272.444 105.344 272.444ZM104.304 276.444L102.712 274.844L104.304 273.251L105.904 274.844L104.304 276.444ZM107.715 276.444L106.123 274.844L107.715 273.251L109.315 274.844L107.715 276.444ZM113.2 269.135H114.328V268.436C114.328 268.208 114.245 268.019 114.08 267.869C113.915 267.714 113.712 267.636 113.469 267.636C113.232 267.636 113.033 267.714 112.873 267.869C112.713 268.024 112.633 268.213 112.633 268.436C112.633 268.558 112.645 268.672 112.669 268.778C112.698 268.885 112.752 268.972 112.829 269.04C112.912 269.103 113.035 269.135 113.2 269.135ZM117.186 269.127H117.571V272.451H117.135C117.091 272.815 117.011 273.144 116.895 273.44C116.701 273.93 116.458 274.342 116.168 274.676C115.881 275.011 115.591 275.292 115.295 275.52C115.12 275.641 114.88 275.767 114.575 275.898C114.274 276.034 113.843 276.145 113.28 276.233C112.791 276.31 112.155 276.349 111.375 276.349H110.582V273.047H111.462C112.058 273.047 112.553 273.03 112.946 272.996C113.338 272.962 113.62 272.899 113.789 272.807C113.959 272.715 114.054 272.599 114.073 272.458H113.448C112.803 272.439 112.216 272.291 111.688 272.015C111.164 271.743 110.744 271.353 110.429 270.844C110.114 270.33 109.957 269.709 109.957 268.982C109.957 268.172 110.071 267.503 110.298 266.975C110.531 266.441 110.827 266.019 111.186 265.709C111.544 265.394 111.925 265.173 112.328 265.047C112.73 264.916 113.103 264.851 113.448 264.851C114.49 264.851 115.384 265.244 116.131 266.029C116.834 266.824 117.186 267.808 117.186 268.982V269.127ZM132.176 272.458H122.649C121.907 272.458 121.233 272.272 120.627 271.898C120.011 272.272 119.25 272.458 118.343 272.458H117.209V269.127H118.51C118.598 269.127 118.69 269.122 118.787 269.113C118.884 269.098 118.964 269.069 119.027 269.025C119.095 268.977 119.129 268.902 119.129 268.8V266.815H122.11V269.098C122.595 268.153 123.167 267.375 123.827 266.764C124.38 266.235 124.944 265.828 125.521 265.542C126.239 265.178 126.969 264.996 127.71 264.996C128.026 264.996 128.304 265.004 128.547 265.018C129.104 265.052 129.594 265.19 130.016 265.433C130.923 265.976 131.376 266.938 131.376 268.32C131.376 268.601 131.352 268.87 131.303 269.127H132.176V272.458ZM127.405 269.135C127.822 269.135 128.11 269.081 128.27 268.975C128.43 268.868 128.51 268.686 128.51 268.429C128.51 268.245 128.476 268.114 128.409 268.036C128.341 267.959 128.239 267.913 128.103 267.898C127.972 267.884 127.81 267.876 127.616 267.876C127.335 267.876 127.005 267.971 126.627 268.16C126.253 268.349 125.897 268.604 125.558 268.924C125.485 268.992 125.415 269.062 125.347 269.135H127.405ZM134.829 272.444H131.6V269.127H134.829C135.008 269.127 135.129 269.105 135.193 269.062C135.256 269.013 135.287 268.941 135.287 268.844C135.287 268.771 135.277 268.686 135.258 268.589L134.894 266.698L137.774 265.825L138.182 268.036C138.254 268.415 138.291 268.764 138.291 269.084C138.291 269.53 138.211 269.993 138.051 270.473C137.944 270.793 137.806 271.057 137.636 271.265C137.297 271.707 136.848 272.034 136.291 272.247C135.879 272.378 135.391 272.444 134.829 272.444ZM133.673 264.945L132.08 263.353L133.673 261.753L135.273 263.353L133.673 264.945ZM137.083 264.945L135.491 263.353L137.083 261.753L138.683 263.353L137.083 264.945Z" fill="white"/>
<g filter="url(#filter4_d_468_172)">
<rect x="199" y="195" width="142" height="142" rx="8" fill="#CE1340"/>
</g>
<path d="M237.938 276.342H235.712C234.893 276.342 234.185 276.194 233.589 275.898C232.992 275.602 232.5 275.215 232.112 274.735C231.729 274.255 231.443 273.726 231.254 273.149C231.07 272.577 230.978 272.015 230.978 271.462C230.978 270.555 231.087 269.738 231.305 269.011C231.523 268.279 231.807 267.568 232.156 266.88L234.825 268.189C234.563 268.718 234.352 269.229 234.192 269.724C234.032 270.218 233.952 270.701 233.952 271.171C233.952 271.69 234.035 272.082 234.199 272.349C234.364 272.621 234.582 272.802 234.854 272.895C235.126 272.992 235.419 273.04 235.734 273.04H237.959C238.352 273.04 238.653 272.996 238.861 272.909C239.075 272.827 239.222 272.73 239.305 272.618C239.392 272.507 239.436 272.405 239.436 272.313C239.402 272.303 239.22 272.255 238.89 272.167C238.566 272.08 238.192 271.981 237.77 271.869C237.353 271.758 236.982 271.658 236.658 271.571L236.17 271.44L236.098 271.156C236.049 270.962 235.998 270.708 235.945 270.393C235.896 270.073 235.872 269.724 235.872 269.345C235.872 268.618 236.006 267.952 236.272 267.345C236.592 266.623 237.082 266.007 237.741 265.498C238.575 264.853 239.615 264.531 240.861 264.531C241.283 264.531 241.807 264.613 242.432 264.778L241.676 267.658C241.346 267.532 241.002 267.469 240.643 267.469C240.357 267.469 240.078 267.525 239.807 267.636C239.54 267.743 239.307 267.927 239.109 268.189C238.91 268.446 238.767 268.795 238.679 269.236L239.865 269.556C240.437 269.702 240.886 269.828 241.21 269.935C241.618 270.07 241.909 270.286 242.083 270.582C242.258 270.878 242.345 271.236 242.345 271.658C242.335 272.478 242.231 273.164 242.032 273.716C241.838 274.274 241.579 274.725 241.254 275.069C240.934 275.418 240.58 275.685 240.192 275.869C239.804 276.053 239.414 276.177 239.021 276.24C238.629 276.308 238.267 276.342 237.938 276.342ZM247.189 272.553C246.642 272.553 246.069 272.497 245.473 272.385C244.882 272.279 244.372 272.167 243.946 272.051C243.519 271.939 243.257 271.867 243.16 271.833L244.048 268.655C244.232 268.713 244.506 268.788 244.869 268.88C245.233 268.972 245.626 269.057 246.048 269.135C246.469 269.207 246.85 269.244 247.189 269.244C247.315 269.244 247.417 269.227 247.495 269.193C247.606 269.144 247.662 269.084 247.662 269.011C247.662 268.943 247.633 268.861 247.575 268.764L247.568 268.756C246.637 267.384 245.98 266.415 245.597 265.847C245.218 265.275 245.032 264.989 245.037 264.989L247.531 263.36C247.531 263.379 248.365 264.623 250.033 267.091C250.067 267.139 250.098 267.19 250.128 267.244C250.283 267.501 250.52 267.833 250.84 268.24C251.311 268.836 251.667 269.135 251.909 269.135H252.295V272.451H251.589C250.896 272.446 250.229 272.189 249.589 271.68C249.415 271.84 249.221 271.978 249.008 272.095C248.45 272.4 247.844 272.553 247.189 272.553ZM257.891 272.444H257.6C256.858 272.444 256.184 272.257 255.578 271.884C254.953 272.257 254.192 272.444 253.295 272.444H251.927V269.127H253.506C253.743 269.127 253.898 269.103 253.971 269.055C254.044 269.001 254.08 268.909 254.08 268.778V266.815H257.062V268.778C257.062 268.899 257.089 268.989 257.142 269.047C257.195 269.101 257.329 269.127 257.542 269.127H257.891V272.444ZM255.047 265.295L253.353 263.6L255.047 261.898L256.749 263.6L255.047 265.295ZM259.332 272.444H257.521V269.127H259.332C259.511 269.127 259.633 269.105 259.696 269.062C259.759 269.013 259.79 268.941 259.79 268.844C259.79 268.771 259.78 268.686 259.761 268.589L259.397 266.698L262.277 265.825L262.685 268.036C262.757 268.415 262.794 268.764 262.794 269.084C262.794 269.53 262.714 269.993 262.554 270.473C262.447 270.793 262.309 271.057 262.139 271.265C261.8 271.707 261.351 272.034 260.794 272.247C260.382 272.378 259.894 272.444 259.332 272.444ZM259.892 276.385L258.197 274.691L259.892 272.989L261.594 274.691L259.892 276.385ZM272.403 268.836C272.582 268.836 272.747 268.795 272.897 268.713C273.193 268.548 273.341 268.286 273.341 267.927C273.341 267.728 273.29 267.438 273.188 267.055L273.123 266.8C272.73 266.965 272.444 267.091 272.264 267.178C272.09 267.265 271.966 267.348 271.893 267.425C271.699 267.629 271.603 267.838 271.603 268.051C271.603 268.245 271.675 268.424 271.821 268.589C271.971 268.754 272.165 268.836 272.403 268.836ZM278.533 272.451H278.104C277.139 272.451 276.337 272.288 275.697 271.964C275.251 271.736 274.907 271.474 274.664 271.178C274.281 271.392 273.903 271.535 273.53 271.607C273.156 271.675 272.761 271.709 272.344 271.709C271.874 271.709 271.409 271.619 270.948 271.44C270.492 271.256 270.09 270.953 269.741 270.531C269.396 270.109 269.147 269.539 268.992 268.822C268.933 268.541 268.904 268.252 268.904 267.956C268.904 267.137 269.149 266.407 269.639 265.767C270.216 265.025 271.144 264.473 272.424 264.109L272.33 263.695L275.239 263.033C275.413 263.775 275.641 264.771 275.923 266.022C276.097 266.817 276.284 267.61 276.483 268.4C276.516 268.56 276.575 268.693 276.657 268.8C276.739 268.907 276.887 268.989 277.101 269.047C277.319 269.101 277.653 269.127 278.104 269.127H278.533V272.451ZM283.152 272.458C282.342 272.458 281.627 272.247 281.006 271.825C280.371 272.247 279.62 272.458 278.752 272.458H278.177V269.127H278.752C279.014 269.127 279.205 269.091 279.326 269.018C279.452 268.941 279.516 268.785 279.516 268.553V261.622H282.497V268.669C282.497 268.742 282.514 268.815 282.548 268.887C282.582 268.955 282.645 269.013 282.737 269.062C282.829 269.105 282.968 269.127 283.152 269.127V272.458ZM293.165 272.444H288.227C287.485 272.444 286.811 272.257 286.205 271.884C285.589 272.257 284.828 272.444 283.921 272.444H282.787V269.127H284.089C284.176 269.127 284.268 269.122 284.365 269.113C284.462 269.098 284.542 269.069 284.605 269.025C284.673 268.977 284.707 268.902 284.707 268.8V266.815H287.689V269.098C288.173 268.153 288.746 267.375 289.405 266.764C289.958 266.235 290.522 265.828 291.099 265.542C291.817 265.178 292.547 264.996 293.289 264.996C293.604 264.996 293.882 265.004 294.125 265.018C294.682 265.052 295.172 265.19 295.594 265.433C296.501 265.976 296.954 266.938 296.954 268.32C296.954 269.256 296.809 270.002 296.518 270.56C296.251 271.069 295.873 271.486 295.383 271.811C295.102 271.99 294.821 272.126 294.539 272.218C294.084 272.368 293.626 272.444 293.165 272.444ZM292.983 269.135C293.4 269.135 293.689 269.081 293.849 268.975C294.009 268.868 294.089 268.686 294.089 268.429C294.089 268.245 294.055 268.114 293.987 268.036C293.919 267.959 293.817 267.913 293.681 267.898C293.55 267.884 293.388 267.876 293.194 267.876C292.913 267.876 292.583 267.971 292.205 268.16C291.832 268.349 291.475 268.604 291.136 268.924C291.063 268.992 290.993 269.062 290.925 269.135H292.983ZM302.149 272.458H301.501C301.075 272.458 300.699 272.41 300.374 272.313C300.054 272.216 299.78 272.095 299.552 271.949C299.324 271.804 299.135 271.658 298.985 271.513C298.84 271.367 298.694 271.181 298.549 270.953C298.408 270.725 298.287 270.451 298.185 270.131C298.088 269.806 298.04 269.43 298.04 269.004L298.047 261.622H301.021V268.662C301.021 268.832 301.077 268.953 301.189 269.025C301.3 269.093 301.4 269.127 301.487 269.127H302.149V272.458ZM309.778 268.88C309.778 269.564 309.609 270.175 309.269 270.713C308.935 271.251 308.443 271.675 307.793 271.985C307.143 272.296 306.353 272.451 305.422 272.451H301.887V269.127H302.578C302.559 268.856 302.549 268.601 302.549 268.364C302.549 267.554 302.666 266.882 302.898 266.349C303.131 265.816 303.424 265.394 303.778 265.084C304.137 264.773 304.518 264.555 304.92 264.429C305.323 264.298 305.696 264.233 306.04 264.233C307.083 264.233 307.977 264.625 308.724 265.411C309.427 266.206 309.778 267.19 309.778 268.364V268.88ZM306.062 267.36C305.824 267.36 305.626 267.438 305.466 267.593C305.306 267.748 305.226 267.937 305.226 268.16C305.226 268.281 305.238 268.395 305.262 268.502C305.291 268.608 305.344 268.696 305.422 268.764C305.504 268.827 305.628 268.858 305.793 268.858H306.92V268.16C306.92 267.932 306.838 267.743 306.673 267.593C306.513 267.438 306.309 267.36 306.062 267.36ZM306.069 263.324L304.375 261.629L306.069 259.927L307.771 261.629L306.069 263.324Z" fill="white"/>
<g filter="url(#filter5_d_468_172)">
<rect x="373" y="195" width="142" height="142" rx="8" fill="#CE1340"/>
</g>
<path d="M427.485 272.458H426.837C426.411 272.458 426.035 272.41 425.71 272.313C425.39 272.216 425.116 272.095 424.888 271.949C424.66 271.804 424.471 271.658 424.321 271.513C424.175 271.367 424.03 271.181 423.885 270.953C423.744 270.725 423.623 270.451 423.521 270.131C423.424 269.806 423.375 269.43 423.375 269.004L423.383 261.622H426.357V268.662C426.357 268.832 426.413 268.953 426.525 269.025C426.636 269.093 426.735 269.127 426.823 269.127H427.485V272.458ZM437.987 265.731C438.879 266.628 439.454 267.455 439.711 268.211C439.856 268.647 439.929 269.052 439.929 269.425C439.929 269.697 439.89 269.954 439.812 270.196C439.701 270.589 439.485 270.97 439.165 271.338C438.845 271.702 438.389 271.993 437.798 272.211C437.299 272.4 436.68 272.495 435.943 272.495C435.812 272.495 435.679 272.492 435.543 272.487C434.341 272.415 433.41 272.33 432.751 272.233L431.762 272.095C431.277 272.225 430.787 272.318 430.292 272.371C429.798 272.429 429.279 272.458 428.736 272.458H427.143L427.151 269.127H428.06C427.987 268.822 427.948 268.504 427.943 268.175C427.943 267.098 428.3 266.167 429.012 265.382C429.74 264.596 430.656 264.204 431.762 264.204C432.591 264.204 433.318 264.432 433.943 264.887L435.492 263.331C435.507 263.341 435.64 263.467 435.892 263.709C436.145 263.952 436.46 264.257 436.838 264.625C437.216 264.989 437.599 265.358 437.987 265.731ZM431.762 269.062C431.791 269.057 431.856 269.038 431.958 269.004C432.06 268.965 432.171 268.909 432.292 268.836C432.414 268.759 432.518 268.659 432.605 268.538C432.697 268.417 432.743 268.267 432.743 268.087C432.743 268.024 432.731 267.935 432.707 267.818C432.683 267.702 432.634 267.583 432.562 267.462C432.494 267.341 432.394 267.236 432.263 267.149C432.137 267.062 431.97 267.018 431.762 267.018C431.548 267.018 431.376 267.062 431.245 267.149C431.119 267.236 431.022 267.341 430.954 267.462C430.886 267.583 430.84 267.702 430.816 267.818C430.792 267.935 430.78 268.024 430.78 268.087C430.78 268.272 430.823 268.427 430.911 268.553C430.998 268.674 431.102 268.771 431.223 268.844C431.345 268.916 431.456 268.97 431.558 269.004C431.66 269.038 431.728 269.057 431.762 269.062ZM436.852 268.967C436.857 268.953 436.86 268.941 436.86 268.931C436.86 268.844 436.799 268.725 436.678 268.575C436.562 268.424 436.411 268.267 436.227 268.102C436.048 267.937 435.885 267.796 435.74 267.68L435.522 267.505C435.556 267.724 435.572 267.947 435.572 268.175C435.572 268.509 435.536 268.829 435.463 269.135L435.434 269.222C435.638 269.29 435.834 269.324 436.023 269.324C436.125 269.324 436.271 269.307 436.46 269.273C436.654 269.239 436.785 269.137 436.852 268.967ZM455.261 272.444H454.941C454.398 272.444 453.893 272.407 453.428 272.335C452.618 272.204 451.906 271.845 451.29 271.258C451.023 271.549 450.703 271.792 450.33 271.985C449.729 272.291 449.081 272.444 448.388 272.444C446.24 272.444 444.96 272.439 444.548 272.429C444.136 272.419 443.784 272.39 443.493 272.342C442.66 272.211 442.024 271.808 441.588 271.135C441.224 270.596 441.043 269.859 441.043 268.924C441.043 268.657 441.057 268.39 441.086 268.124C441.203 267.367 441.346 266.737 441.515 266.233L441.523 266.189L444.381 267.033L444.279 267.469C444.085 268.264 443.988 268.713 443.988 268.815C443.988 268.912 444.015 268.989 444.068 269.047C444.126 269.105 444.233 269.135 444.388 269.135H448.17C448.378 269.135 448.594 269.122 448.817 269.098C449.04 269.074 449.232 269.042 449.392 269.004C449.552 268.965 449.644 268.924 449.668 268.88L448.759 267.644L447.013 265.549L447.53 263.28L453.821 260.233L455.123 262.916L450.504 265.149C451.028 265.818 451.685 266.674 452.475 267.716C452.82 268.177 453.093 268.507 453.297 268.705C453.501 268.904 453.714 269.025 453.937 269.069C454.165 269.108 454.502 269.127 454.948 269.127H455.268L455.261 272.444ZM447.646 262.415L447.741 261.382L453.181 259.011L453.559 259.825L447.646 262.415ZM456.699 272.444H454.888V269.127H456.699C456.879 269.127 457 269.105 457.063 269.062C457.126 269.013 457.157 268.941 457.157 268.844C457.157 268.771 457.148 268.686 457.128 268.589L456.765 266.698L459.645 265.825L460.052 268.036C460.125 268.415 460.161 268.764 460.161 269.084C460.161 269.53 460.081 269.993 459.921 270.473C459.814 270.793 459.676 271.057 459.506 271.265C459.167 271.707 458.719 272.034 458.161 272.247C457.749 272.378 457.262 272.444 456.699 272.444ZM457.688 264.8L455.994 263.105L457.688 261.404L459.39 263.105L457.688 264.8ZM460.533 276.364H459.82V273.04H460.533C461.362 273.04 461.934 272.863 462.249 272.509C462.559 272.126 462.715 271.53 462.715 270.72V266.815H465.696V270.72C465.696 271.51 465.592 272.281 465.384 273.033C465.175 273.784 464.875 274.378 464.482 274.815C464.021 275.343 463.447 275.736 462.758 275.993C462.104 276.24 461.362 276.364 460.533 276.364Z" fill="white"/>
<path d="M551.104 345.455C583.452 334.424 599.626 310.667 599.626 274.182V234.409C599.626 203.864 611.664 185.568 635.74 179.523C611.664 174.008 599.626 155.712 599.626 124.636V85.9773C599.626 47.3712 583.717 22.9773 551.899 12.7955L554.285 4.99999C572.528 10.7273 586.104 20.0076 595.013 32.8409C604.028 45.6742 608.641 62.3788 608.854 82.9545V125.591C608.854 157.833 623.119 173.955 651.649 173.955V185.25C623.119 185.25 608.854 201.477 608.854 233.932V274.341C608.854 295.553 604.346 312.576 595.331 325.409C586.422 338.242 572.74 347.576 554.285 353.409L551.104 345.455Z" fill="#053751"/>
<defs>
<filter id="filter0_d_468_172" x="0" y="0" width="192" height="192" filterUnits="userSpaceOnUse" color-interpolation-filters="sRGB">
<feFlood flood-opacity="0" result="BackgroundImageFix"/>
<feColorMatrix in="SourceAlpha" type="matrix" values="0 0 0 0 0 0 0 0 0 0 0 0 0 0 0 0 0 0 127 0" result="hardAlpha"/>
<feOffset dy="4"/>
<feGaussianBlur stdDeviation="12.5"/>
<feComposite in2="hardAlpha" operator="out"/>
<feColorMatrix type="matrix" values="0 0 0 0 0.807843 0 0 0 0 0.0745098 0 0 0 0 0.25098 0 0 0 0.25 0"/>
<feBlend mode="normal" in2="BackgroundImageFix" result="effect1_dropShadow_468_172"/>
<feBlend mode="normal" in="SourceGraphic" in2="effect1_dropShadow_468_172" result="shape"/>
</filter>
<filter id="filter1_d_468_172" x="174" y="0" width="192" height="192" filterUnits="userSpaceOnUse" color-interpolation-filters="sRGB">
<feFlood flood-opacity="0" result="BackgroundImageFix"/>
<feColorMatrix in="SourceAlpha" type="matrix" values="0 0 0 0 0 0 0 0 0 0 0 0 0 0 0 0 0 0 127 0" result="hardAlpha"/>
<feOffset dy="4"/>
<feGaussianBlur stdDeviation="12.5"/>
<feComposite in2="hardAlpha" operator="out"/>
<feColorMatrix type="matrix" values="0 0 0 0 0.807843 0 0 0 0 0.0745098 0 0 0 0 0.25098 0 0 0 0.25 0"/>
<feBlend mode="normal" in2="BackgroundImageFix" result="effect1_dropShadow_468_172"/>
<feBlend mode="normal" in="SourceGraphic" in2="effect1_dropShadow_468_172" result="shape"/>
</filter>
<filter id="filter2_d_468_172" x="348" y="0" width="192" height="192" filterUnits="userSpaceOnUse" color-interpolation-filters="sRGB">
<feFlood flood-opacity="0" result="BackgroundImageFix"/>
<feColorMatrix in="SourceAlpha" type="matrix" values="0 0 0 0 0 0 0 0 0 0 0 0 0 0 0 0 0 0 127 0" result="hardAlpha"/>
<feOffset dy="4"/>
<feGaussianBlur stdDeviation="12.5"/>
<feComposite in2="hardAlpha" operator="out"/>
<feColorMatrix type="matrix" values="0 0 0 0 0.807843 0 0 0 0 0.0745098 0 0 0 0 0.25098 0 0 0 0.25 0"/>
<feBlend mode="normal" in2="BackgroundImageFix" result="effect1_dropShadow_468_172"/>
<feBlend mode="normal" in="SourceGraphic" in2="effect1_dropShadow_468_172" result="shape"/>
</filter>
<filter id="filter3_d_468_172" x="0" y="174" width="192" height="192" filterUnits="userSpaceOnUse" color-interpolation-filters="sRGB">
<feFlood flood-opacity="0" result="BackgroundImageFix"/>
<feColorMatrix in="SourceAlpha" type="matrix" values="0 0 0 0 0 0 0 0 0 0 0 0 0 0 0 0 0 0 127 0" result="hardAlpha"/>
<feOffset dy="4"/>
<feGaussianBlur stdDeviation="12.5"/>
<feComposite in2="hardAlpha" operator="out"/>
<feColorMatrix type="matrix" values="0 0 0 0 0.807843 0 0 0 0 0.0745098 0 0 0 0 0.25098 0 0 0 0.25 0"/>
<feBlend mode="normal" in2="BackgroundImageFix" result="effect1_dropShadow_468_172"/>
<feBlend mode="normal" in="SourceGraphic" in2="effect1_dropShadow_468_172" result="shape"/>
</filter>
<filter id="filter4_d_468_172" x="174" y="174" width="192" height="192" filterUnits="userSpaceOnUse" color-interpolation-filters="sRGB">
<feFlood flood-opacity="0" result="BackgroundImageFix"/>
<feColorMatrix in="SourceAlpha" type="matrix" values="0 0 0 0 0 0 0 0 0 0 0 0 0 0 0 0 0 0 127 0" result="hardAlpha"/>
<feOffset dy="4"/>
<feGaussianBlur stdDeviation="12.5"/>
<feComposite in2="hardAlpha" operator="out"/>
<feColorMatrix type="matrix" values="0 0 0 0 0.807843 0 0 0 0 0.0745098 0 0 0 0 0.25098 0 0 0 0.25 0"/>
<feBlend mode="normal" in2="BackgroundImageFix" result="effect1_dropShadow_468_172"/>
<feBlend mode="normal" in="SourceGraphic" in2="effect1_dropShadow_468_172" result="shape"/>
</filter>
<filter id="filter5_d_468_172" x="348" y="174" width="192" height="192" filterUnits="userSpaceOnUse" color-interpolation-filters="sRGB">
<feFlood flood-opacity="0" result="BackgroundImageFix"/>
<feColorMatrix in="SourceAlpha" type="matrix" values="0 0 0 0 0 0 0 0 0 0 0 0 0 0 0 0 0 0 127 0" result="hardAlpha"/>
<feOffset dy="4"/>
<feGaussianBlur stdDeviation="12.5"/>
<feComposite in2="hardAlpha" operator="out"/>
<feColorMatrix type="matrix" values="0 0 0 0 0.807843 0 0 0 0 0.0745098 0 0 0 0 0.25098 0 0 0 0.25 0"/>
<feBlend mode="normal" in2="BackgroundImageFix" result="effect1_dropShadow_468_172"/>
<feBlend mode="normal" in="SourceGraphic" in2="effect1_dropShadow_468_172" result="shape"/>
</filter>
</defs>
</svg>
