<svg width="583" height="254" viewBox="0 0 583 254" fill="none" xmlns="http://www.w3.org/2000/svg">
<path d="M99.5121 51.352L95.7361 58.984H93.4801L92.1521 55.72L90.3921 58.984H88.1361L85.8161 53.32L84.2161 52.392V51.368L87.9921 50.024L88.6001 52.44L90.2961 56.52L91.5121 54.184L91.1601 53.32L89.5601 52.392V51.368L93.3361 50.024L93.9441 52.44L95.6081 56.456L97.1921 53.096L94.7761 51.512L95.3521 50.344L99.5121 50.328V51.352ZM105.583 50.184C106.735 50.184 107.625 50.6213 108.255 51.496C108.895 52.36 109.204 53.5813 109.183 55.16H103.471C103.588 55.7253 103.807 56.1787 104.127 56.52C104.447 56.8507 104.863 57.016 105.375 57.016C106.132 57.016 107.236 56.6907 108.687 56.04L109.167 57.032L106.863 58.888C106.191 59.0693 105.385 59.16 104.447 59.16C103.647 59.16 102.927 58.9787 102.287 58.616C101.647 58.2427 101.145 57.736 100.783 57.096C100.431 56.456 100.255 55.7413 100.255 54.952C100.255 54.0987 100.532 53.3093 101.087 52.584C101.641 51.848 102.335 51.2667 103.167 50.84C103.999 50.4027 104.804 50.184 105.583 50.184ZM104.719 52.184C104.281 52.184 103.951 52.3333 103.727 52.632C103.513 52.92 103.396 53.368 103.375 53.976H106.223C106.159 53.368 106.015 52.92 105.791 52.632C105.567 52.3333 105.209 52.184 104.719 52.184ZM117.423 50.184C118.106 50.184 118.719 50.3707 119.263 50.744C119.807 51.1067 120.228 51.6133 120.527 52.264C120.836 52.904 120.991 53.6133 120.991 54.392C120.991 55.2347 120.714 56.024 120.159 56.76C119.604 57.496 118.906 58.0827 118.063 58.52C117.231 58.9467 116.426 59.16 115.647 59.16C115.231 59.16 114.836 59.08 114.463 58.92C114.1 58.76 113.775 58.536 113.487 58.248L112.735 59H111.615V48.344L110.191 47.4V46.376L113.439 45.032H114.575V51.656L116.255 50.312C116.596 50.2267 116.986 50.184 117.423 50.184ZM116.575 57.16C117.439 57.16 117.871 56.488 117.871 55.144C117.871 54.3547 117.743 53.7093 117.487 53.208C117.242 52.696 116.874 52.44 116.383 52.44C115.732 52.44 115.13 52.6 114.575 52.92V55.512C114.575 55.9813 114.746 56.376 115.087 56.696C115.439 57.0053 115.935 57.16 116.575 57.16ZM127.606 59H122.358V57.976L123.782 56.76V53.352L122.358 52.408V51.4L125.606 50.04H126.742V57.368L128.182 57.832L127.606 59ZM125.254 45.208C125.756 45.208 126.161 45.368 126.47 45.688C126.79 45.9973 126.95 46.3813 126.95 46.84C126.95 47.1707 126.833 47.48 126.598 47.768C126.374 48.0453 126.086 48.2693 125.734 48.44C125.393 48.6107 125.062 48.696 124.742 48.696C124.252 48.696 123.841 48.5413 123.51 48.232C123.19 47.912 123.03 47.5227 123.03 47.064C123.03 46.7333 123.142 46.4293 123.366 46.152C123.601 45.864 123.894 45.6347 124.246 45.464C124.598 45.2933 124.934 45.208 125.254 45.208ZM139.432 59.016H135.608V57.816L134.072 59.048C133.73 59.1333 133.336 59.176 132.888 59.176C132.184 59.176 131.549 58.9947 130.984 58.632C130.429 58.2587 129.992 57.752 129.672 57.112C129.362 56.4613 129.208 55.7467 129.208 54.968C129.208 54.1147 129.485 53.3253 130.04 52.6C130.594 51.864 131.288 51.2827 132.12 50.856C132.952 50.4187 133.757 50.2 134.536 50.2C134.92 50.2 135.277 50.2907 135.608 50.472V48.344L134.184 47.4V46.376L137.432 45.032H138.568V57.368L140.008 57.848L139.432 59.016ZM133.912 56.776C134.53 56.776 135.096 56.648 135.608 56.392V53.512C135.544 53.128 135.341 52.8133 135 52.568C134.658 52.3227 134.194 52.2 133.608 52.2C132.754 52.2 132.328 52.872 132.328 54.216C132.328 54.9627 132.461 55.5813 132.728 56.072C133.005 56.552 133.405 56.792 133.928 56.792L133.912 56.776ZM150.284 59H146.46V57.608L144.652 59.032C144.439 59.1173 144.172 59.16 143.852 59.16C142.796 59.16 142.034 58.904 141.564 58.392C141.095 57.8693 140.86 57.2453 140.86 56.52C140.86 56.104 140.988 55.6933 141.244 55.288C141.5 54.8827 141.863 54.5093 142.332 54.168H146.46V54.104C146.46 53.5493 146.306 53.1387 145.996 52.872C145.698 52.5947 145.298 52.456 144.796 52.456C144.06 52.456 143.031 52.712 141.708 53.224L141.228 52.232L143.436 50.456C144.002 50.2747 144.668 50.184 145.436 50.184C146.695 50.184 147.671 50.4667 148.364 51.032C149.068 51.5973 149.42 52.4187 149.42 53.496V57.272L150.86 57.832L150.284 59ZM144.764 56.76C145.266 56.76 145.831 56.5573 146.46 56.152V55.336H143.948C143.831 55.528 143.772 55.736 143.772 55.96C143.772 56.2053 143.858 56.4027 144.028 56.552C144.21 56.6907 144.455 56.76 144.764 56.76Z" fill="white"/>
<rect x="1" y="31" width="581" height="222" rx="15" fill="white" stroke="#053751" stroke-width="2"/>
<path d="M49.5 79C49.5 77.067 51.067 75.5 53 75.5H282.103C282.63 75.5 283.149 75.6187 283.623 75.8474L415.311 139.347C417.951 140.62 417.951 144.38 415.311 145.653L283.623 209.153C283.149 209.381 282.63 209.5 282.103 209.5H53C51.067 209.5 49.5 207.933 49.5 206V79Z" stroke="#CE1340"/>
<path d="M92.9152 145.716H90.7843L90.4425 137.062H93.2498L92.9152 145.716ZM90.2898 148.087L91.8025 146.56L93.3443 148.102L91.817 149.629L90.2898 148.087ZM98.6963 144.989C98.9581 144.776 99.089 144.495 99.089 144.145V144.109C99.0842 143.964 99.0551 143.77 99.0018 143.527C98.9872 143.455 98.963 143.343 98.929 143.193L98.8854 143.004L98.8418 142.807C98.0709 143.074 97.5618 143.331 97.3145 143.578C97.0866 143.806 96.9727 144.056 96.9727 144.327V144.378C96.9872 144.664 97.1133 144.897 97.3509 145.076C97.5012 145.188 97.6951 145.244 97.9327 145.244C98.2284 145.244 98.483 145.159 98.6963 144.989ZM101.184 142.385C101.222 142.55 101.271 142.761 101.329 143.018L101.402 143.316L101.467 143.6C101.569 144.036 101.666 144.429 101.758 144.778C101.865 145.171 102.056 145.425 102.333 145.542C102.498 145.615 102.708 145.665 102.965 145.695C103.14 145.714 103.373 145.724 103.664 145.724V148.109C103.227 148.109 102.851 148.087 102.536 148.044C102.1 147.985 101.707 147.879 101.358 147.724C100.893 147.51 100.505 147.219 100.194 146.851L100.107 146.749C99.8599 146.967 99.5787 147.142 99.2636 147.273C98.8612 147.433 98.4345 147.513 97.9836 147.513L97.9109 147.505H97.8309C97.2781 147.481 96.7763 147.348 96.3254 147.105C95.4818 146.664 94.963 145.971 94.769 145.025C94.7157 144.773 94.689 144.524 94.689 144.276C94.689 143.952 94.7351 143.634 94.8272 143.324C95.0066 142.776 95.3193 142.288 95.7654 141.862C96.2551 141.392 97.106 140.962 98.3181 140.575L98.1799 139.935L100.507 139.404C100.784 140.616 101.009 141.61 101.184 142.385ZM111.259 145.324C111.598 145.59 112.071 145.724 112.677 145.724V148.109C111.538 148.109 110.58 147.808 109.804 147.207C109.63 147.076 109.433 146.902 109.215 146.684C108.915 147.081 108.524 147.404 108.044 147.651C107.458 147.956 106.815 148.109 106.117 148.109H103.303V145.724H106.117C106.393 145.724 106.655 145.668 106.903 145.556C107.15 145.44 107.312 145.299 107.39 145.135C107.429 145.057 107.448 144.967 107.448 144.865C107.448 144.618 107.324 144.308 107.077 143.935L106.83 143.607C106.505 143.205 106.081 142.672 105.557 142.007C105.368 141.77 105.198 141.554 105.048 141.36C104.912 141.185 104.842 141.096 104.837 141.091L105.252 139.287L111.557 136.24L112.597 138.385L107.63 140.785C107.872 141.086 108.619 142.058 109.87 143.702C110.5 144.555 110.963 145.096 111.259 145.324ZM105.368 137.062L110.706 134.691L111.084 135.505L105.273 138.095L105.368 137.062ZM117.155 145.062C117.155 145.295 117.21 145.459 117.322 145.556C117.448 145.668 117.671 145.724 117.991 145.724H118.282V148.109H117.991C117.676 148.109 117.378 148.075 117.096 148.007C116.873 147.954 116.665 147.879 116.471 147.782C116.248 147.675 116.081 147.568 115.969 147.462C115.858 147.568 115.678 147.675 115.431 147.782C114.941 148 114.359 148.109 113.685 148.109H112.318V145.724H113.853C114.202 145.724 114.447 145.665 114.587 145.549C114.713 145.447 114.776 145.285 114.776 145.062V143.084H117.155V145.062ZM113.933 139.731L115.445 138.204L116.987 139.745L115.453 141.273L113.933 139.731ZM123.025 145.724C123.272 145.724 123.456 145.673 123.577 145.571C123.742 145.435 123.825 145.195 123.825 144.851V143.084H126.21V144.851C126.21 145.166 126.254 145.379 126.341 145.491C126.453 145.646 126.68 145.724 127.025 145.724C127.272 145.724 127.456 145.673 127.577 145.571C127.737 145.435 127.817 145.195 127.817 144.851V143.084H130.203V144.851C130.203 145.152 130.259 145.365 130.37 145.491C130.501 145.646 130.741 145.724 131.09 145.724H132.021V148.109H131.09C130.091 148.109 129.396 147.888 129.003 147.447C128.426 147.888 127.766 148.109 127.025 148.109C126.074 148.109 125.403 147.888 125.01 147.447C124.433 147.888 123.783 148.109 123.061 148.109C122.295 148.109 121.623 147.888 121.046 147.447C120.654 147.888 119.958 148.109 118.959 148.109H117.912V145.724H118.959C119.308 145.724 119.548 145.646 119.679 145.491C119.791 145.365 119.846 145.152 119.846 144.851V143.084H122.232V144.851C122.232 145.195 122.314 145.435 122.479 145.571C122.596 145.673 122.777 145.724 123.025 145.724ZM124.872 140.073L123.432 141.527L121.992 140.087L123.432 138.633L124.872 140.073ZM128.028 140.051L126.603 141.491L125.126 140.065L126.581 138.611L128.028 140.051ZM126.283 138.175L125.017 139.44L123.766 138.189L125.032 136.924L126.283 138.175ZM137.182 143.207L137.167 143.04C137.153 142.919 137.138 142.81 137.124 142.713C137.085 142.456 137.029 142.24 136.956 142.065C136.772 141.605 136.445 141.353 135.975 141.309L135.902 141.302H135.836C135.521 141.302 135.272 141.396 135.087 141.585C134.923 141.76 134.84 141.981 134.84 142.247V142.313C134.86 142.783 135.097 143.088 135.553 143.229C135.839 143.316 136.387 143.36 137.196 143.36L137.182 143.207ZM135.967 139.04C137.291 139.04 138.251 139.619 138.847 140.778C139.293 141.636 139.516 142.749 139.516 144.116C139.516 145.585 138.954 146.664 137.829 147.353C137 147.857 135.98 148.109 134.767 148.109H131.713V145.724H134.767C135.577 145.724 136.176 145.67 136.564 145.564C135.453 145.564 134.547 145.326 133.844 144.851C133.01 144.284 132.593 143.45 132.593 142.349C132.593 142.024 132.639 141.695 132.731 141.36C132.843 140.953 133.015 140.592 133.247 140.276C133.844 139.452 134.75 139.04 135.967 139.04ZM137.029 138.284L135.604 136.844L137.015 135.389L138.469 136.844L137.029 138.284ZM133.982 138.291L132.556 136.851L133.96 135.396L135.415 136.851L133.982 138.291ZM148.683 144.08C148.121 145.263 147.839 146.303 147.839 147.2C147.839 147.287 147.842 147.379 147.847 147.476C147.856 147.598 147.873 147.716 147.898 147.833C147.951 148.138 148.043 148.41 148.174 148.647C148.547 149.316 149.173 149.651 150.05 149.651H152.057C153.061 149.651 153.767 149.518 154.174 149.251C154.378 149.115 154.482 148.982 154.487 148.851C153.798 148.448 152.85 148.133 151.643 147.905V145.724H158.29V148.109H156.538C156.644 148.279 156.698 148.519 156.698 148.829C156.698 148.941 156.693 149.052 156.683 149.164C156.664 149.319 156.634 149.469 156.596 149.615C156.489 150.017 156.305 150.373 156.043 150.684C155.282 151.581 153.953 152.029 152.057 152.029H150.05C148.436 152.029 147.219 151.464 146.399 150.335C145.764 149.457 145.447 148.412 145.447 147.2C145.447 146.308 145.628 145.348 145.992 144.32C146.176 143.806 146.358 143.382 146.538 143.047L148.683 144.08ZM161.59 144.851C161.59 145.433 161.908 145.724 162.543 145.724V148.109C162.097 148.109 161.672 148.036 161.27 147.891C160.935 147.77 160.645 147.61 160.397 147.411C159.791 147.876 159.04 148.109 158.143 148.109H157.568V145.724H158.143C158.598 145.724 158.909 145.61 159.074 145.382C159.132 145.304 159.171 145.21 159.19 145.098C159.195 145.055 159.2 145.008 159.205 144.96V137.622H161.59V144.851ZM168.09 145.062C168.09 145.295 168.146 145.459 168.258 145.556C168.384 145.668 168.607 145.724 168.927 145.724H169.988V148.109H168.927C168.611 148.109 168.313 148.075 168.032 148.007C167.809 147.954 167.601 147.879 167.407 147.782C167.184 147.675 167.016 147.568 166.905 147.462C166.793 147.568 166.614 147.675 166.367 147.782C165.877 148 165.295 148.109 164.621 148.109H162.178V145.724H164.788C165.138 145.724 165.382 145.665 165.523 145.549C165.649 145.447 165.712 145.285 165.712 145.062V143.084H168.09V145.062ZM167.138 152.313L165.712 150.873L167.123 149.418L168.578 150.873L167.138 152.313ZM164.068 152.32L162.643 150.88L164.047 149.425L165.501 150.88L164.068 152.32ZM173.805 141.331C174.203 141.389 175.192 141.636 176.773 142.073C177.325 142.223 177.909 142.385 178.525 142.56C179.01 142.701 179.383 142.81 179.645 142.887L180.016 144.989C178.14 146.366 176.729 147.217 175.783 147.542C174.668 147.92 172.62 148.109 169.638 148.109V145.724C171.563 145.724 172.954 145.656 173.812 145.52C174.85 145.355 175.776 145.013 176.591 144.495L176.06 144.349L175.551 144.204C175.134 144.082 174.821 143.995 174.613 143.942C173.973 143.767 173.57 143.68 173.405 143.68C173.274 143.68 173.151 143.755 173.034 143.905C172.913 144.051 172.821 144.25 172.758 144.502L170.452 143.898C170.676 143.035 171.09 142.368 171.696 141.898C172.21 141.496 172.763 141.295 173.354 141.295C173.5 141.295 173.65 141.307 173.805 141.331ZM171.834 138.829L173.347 137.302L174.889 138.844L173.354 140.371L171.834 138.829ZM196.343 147.615C196.343 148.895 196.028 149.901 195.398 150.633C195 151.088 194.484 151.435 193.849 151.673C193.242 151.896 192.527 152.007 191.703 152.007H190.605C189.771 152.007 189.019 151.855 188.35 151.549C187.589 151.2 186.995 150.693 186.569 150.029C186.108 149.292 185.878 148.436 185.878 147.462C185.878 147.341 185.88 147.219 185.885 147.098C185.943 145.968 186.29 144.715 186.925 143.338L189.092 144.335C188.583 145.43 188.307 146.393 188.263 147.222C188.258 147.304 188.256 147.387 188.256 147.469C188.256 147.988 188.365 148.412 188.583 148.742C188.796 149.081 189.126 149.324 189.572 149.469C189.742 149.527 189.926 149.568 190.125 149.593C190.28 149.612 190.44 149.622 190.605 149.622H191.703C192.61 149.622 193.225 149.455 193.55 149.12C193.827 148.834 193.965 148.332 193.965 147.615V143.084H196.343V147.615ZM189.943 142.509L191.456 140.982L192.998 142.524L191.463 144.051L189.943 142.509ZM201.775 145.731V144.982C201.775 144.536 201.68 144.182 201.491 143.92C201.302 143.663 201.045 143.535 200.72 143.535C200.39 143.535 200.129 143.663 199.935 143.92C199.755 144.158 199.666 144.465 199.666 144.844C199.666 144.887 199.668 144.933 199.673 144.982C199.687 145.239 199.804 145.433 200.022 145.564C200.206 145.675 200.439 145.731 200.72 145.731H201.775ZM200.72 141.149C201.792 141.149 202.645 141.539 203.28 142.32C203.867 143.033 204.16 143.92 204.16 144.982V145.731H204.88V148.109H204.138C204.017 149.617 203.28 150.696 201.927 151.345C201.399 151.598 200.781 151.779 200.073 151.891C199.515 151.983 198.912 152.029 198.262 152.029V149.644C199.474 149.644 200.386 149.474 200.996 149.135C201.491 148.863 201.738 148.521 201.738 148.109H200.72C199.857 148.109 199.123 147.876 198.516 147.411C197.789 146.848 197.426 146.039 197.426 144.982C197.426 143.978 197.668 143.127 198.153 142.429C198.74 141.576 199.595 141.149 200.72 141.149ZM209.634 145.724C209.881 145.724 210.066 145.673 210.187 145.571C210.352 145.435 210.434 145.195 210.434 144.851V143.084H212.819V144.851C212.819 145.166 212.863 145.379 212.95 145.491C213.062 145.646 213.29 145.724 213.634 145.724C213.881 145.724 214.066 145.673 214.187 145.571C214.347 145.435 214.427 145.195 214.427 144.851V143.084H216.812V144.851C216.812 145.152 216.868 145.365 216.979 145.491C217.11 145.646 217.35 145.724 217.699 145.724H218.63V148.109H217.699C216.701 148.109 216.005 147.888 215.612 147.447C215.035 147.888 214.376 148.109 213.634 148.109C212.684 148.109 212.012 147.888 211.619 147.447C211.043 147.888 210.393 148.109 209.67 148.109C208.904 148.109 208.233 147.888 207.656 147.447C207.263 147.888 206.567 148.109 205.569 148.109H204.521V145.724H205.569C205.918 145.724 206.158 145.646 206.289 145.491C206.4 145.365 206.456 145.152 206.456 144.851V143.084H208.841V144.851C208.841 145.195 208.924 145.435 209.089 145.571C209.205 145.673 209.387 145.724 209.634 145.724ZM211.481 140.073L210.041 141.527L208.601 140.087L210.041 138.633L211.481 140.073ZM214.638 140.051L213.212 141.491L211.736 140.065L213.19 138.611L214.638 140.051ZM212.892 138.175L211.627 139.44L210.376 138.189L211.641 136.924L212.892 138.175ZM223.733 141.345L222.308 139.905L223.719 138.451L225.173 139.905L223.733 141.345ZM220.686 141.353L219.26 139.913L220.664 138.458L222.119 139.913L220.686 141.353ZM224.184 145.062C224.184 145.295 224.24 145.459 224.351 145.556C224.477 145.668 224.7 145.724 225.02 145.724H226.082V148.109H225.02C224.705 148.109 224.407 148.075 224.126 148.007C223.903 147.954 223.694 147.879 223.5 147.782C223.277 147.675 223.11 147.568 222.999 147.462C222.887 147.568 222.708 147.675 222.46 147.782C221.971 148 221.389 148.109 220.715 148.109H218.271V145.724H220.882C221.231 145.724 221.476 145.665 221.617 145.549C221.743 145.447 221.806 145.285 221.806 145.062V143.084H224.184V145.062ZM232.037 144.415C232.076 144.647 232.095 144.87 232.095 145.084C232.095 145.743 231.906 146.335 231.528 146.858C230.922 147.692 229.935 148.109 228.568 148.109H225.724V145.724H228.517C228.954 145.724 229.261 145.665 229.441 145.549C229.625 145.438 229.717 145.261 229.717 145.018C229.717 144.945 229.707 144.865 229.688 144.778C229.64 144.531 229.591 144.279 229.543 144.022C229.523 143.925 229.504 143.821 229.484 143.709L229.455 143.571L229.434 143.433C229.361 143.035 229.305 142.752 229.266 142.582L231.543 141.891C231.688 142.575 231.853 143.416 232.037 144.415ZM230.343 152.269L228.917 150.829L230.328 149.375L231.783 150.829L230.343 152.269ZM227.274 152.276L225.848 150.836L227.252 149.382L228.706 150.836L227.274 152.276ZM237.179 148.109H236.524C235.986 148.109 235.504 148.015 235.077 147.825C234.752 147.685 234.469 147.493 234.226 147.251C233.984 147.008 233.792 146.725 233.652 146.4C233.462 145.973 233.368 145.491 233.368 144.953V137.622H235.746V144.953C235.746 145.248 235.802 145.452 235.913 145.564C236.02 145.67 236.224 145.724 236.524 145.724H237.179V148.109ZM242.853 145.571C243.038 145.435 243.13 145.195 243.13 144.851V143.084H245.515V144.851C245.515 145.152 245.571 145.365 245.683 145.491C245.813 145.646 246.053 145.724 246.403 145.724C246.955 145.724 247.232 145.532 247.232 145.149C247.232 145.067 247.22 144.975 247.195 144.873C246.919 143.733 246.74 142.97 246.657 142.582L248.97 142.029C249.11 142.611 249.292 143.375 249.515 144.32C249.564 144.528 249.588 144.747 249.588 144.975C249.588 145.159 249.571 145.35 249.537 145.549C249.455 146 249.292 146.41 249.05 146.778C248.473 147.665 247.632 148.109 246.526 148.109C246.027 148.109 245.559 148.034 245.123 147.884C244.827 147.772 244.558 147.627 244.315 147.447C243.738 147.888 243.076 148.109 242.33 148.109C241.544 148.109 240.863 147.888 240.286 147.447C239.893 147.888 239.198 148.109 238.199 148.109H236.803V145.724H238.199C238.548 145.724 238.788 145.646 238.919 145.491C239.03 145.365 239.086 145.152 239.086 144.851V143.084H241.472V144.851C241.472 145.195 241.554 145.435 241.719 145.571C241.835 145.673 242.017 145.724 242.264 145.724C242.521 145.724 242.718 145.673 242.853 145.571ZM258.824 144.08C258.261 145.263 257.98 146.303 257.98 147.2C257.98 147.287 257.982 147.379 257.987 147.476C257.997 147.598 258.014 147.716 258.038 147.833C258.091 148.138 258.184 148.41 258.314 148.647C258.688 149.316 259.313 149.651 260.191 149.651H262.198C263.202 149.651 263.907 149.518 264.314 149.251C264.518 149.115 264.622 148.982 264.627 148.851C263.939 148.448 262.991 148.133 261.784 147.905V145.724H268.431V148.109H266.678C266.785 148.279 266.838 148.519 266.838 148.829C266.838 148.941 266.833 149.052 266.824 149.164C266.804 149.319 266.775 149.469 266.736 149.615C266.63 150.017 266.445 150.373 266.184 150.684C265.422 151.581 264.094 152.029 262.198 152.029H260.191C258.576 152.029 257.359 151.464 256.54 150.335C255.905 149.457 255.587 148.412 255.587 147.2C255.587 146.308 255.769 145.348 256.133 144.32C256.317 143.806 256.499 143.382 256.678 143.047L258.824 144.08ZM272.928 144.415C272.967 144.647 272.986 144.87 272.986 145.084C272.986 145.743 272.797 146.335 272.419 146.858C271.813 147.692 270.826 148.109 269.459 148.109H266.615V145.724H269.408C269.844 145.724 270.152 145.665 270.331 145.549C270.516 145.438 270.608 145.261 270.608 145.018C270.608 144.945 270.598 144.865 270.579 144.778C270.53 144.531 270.482 144.279 270.433 144.022C270.414 143.925 270.394 143.821 270.375 143.709L270.346 143.571L270.324 143.433C270.251 143.035 270.196 142.752 270.157 142.582L272.433 141.891C272.579 142.575 272.744 143.416 272.928 144.415ZM271.233 152.269L269.808 150.829L271.219 149.375L272.673 150.829L271.233 152.269ZM268.164 152.276L266.739 150.836L268.142 149.382L269.597 150.836L268.164 152.276ZM276.644 148.109H274.259V137.622H276.644V148.109ZM281.935 140.073C282.061 140.267 282.231 140.519 282.444 140.829C283.007 141.678 283.688 142.701 284.488 143.898C284.531 143.966 284.577 144.034 284.626 144.102C284.689 144.189 284.75 144.276 284.808 144.364C284.977 144.596 285.137 144.8 285.288 144.975C285.714 145.479 286.042 145.731 286.27 145.731H286.779V148.109H286.088C285.38 148.109 284.703 147.821 284.059 147.244C283.85 147.467 283.613 147.651 283.346 147.796C282.851 148.078 282.294 148.218 281.673 148.218C280.99 148.218 280.141 148.104 279.128 147.876C278.808 147.804 278.488 147.724 278.168 147.636C278.061 147.607 277.962 147.578 277.87 147.549C277.836 147.539 277.807 147.532 277.782 147.527L277.753 147.52L277.739 147.513L278.444 145.236C278.609 145.285 278.803 145.341 279.026 145.404C279.312 145.476 279.591 145.542 279.862 145.6C280.609 145.76 281.213 145.84 281.673 145.84C282.037 145.84 282.277 145.731 282.393 145.513C282.432 145.445 282.451 145.375 282.451 145.302C282.451 145.176 282.4 145.038 282.299 144.887C281.872 144.257 281.477 143.67 281.113 143.127C280.837 142.715 280.577 142.33 280.335 141.971L279.768 141.12L281.76 139.818L281.935 140.073ZM290.586 141.331C290.984 141.389 291.973 141.636 293.554 142.073C294.106 142.223 294.691 142.385 295.306 142.56C295.791 142.701 296.165 142.81 296.426 142.887L296.797 144.989C294.921 146.366 293.51 147.217 292.565 147.542C291.45 147.92 289.401 148.109 286.419 148.109V145.724C288.344 145.724 289.736 145.656 290.594 145.52C291.631 145.355 292.557 145.013 293.372 144.495L292.841 144.349L292.332 144.204C291.915 144.082 291.602 143.995 291.394 143.942C290.754 143.767 290.351 143.68 290.186 143.68C290.056 143.68 289.932 143.755 289.816 143.905C289.694 144.051 289.602 144.25 289.539 144.502L287.234 143.898C287.457 143.035 287.871 142.368 288.477 141.898C288.991 141.496 289.544 141.295 290.136 141.295C290.281 141.295 290.431 141.307 290.586 141.331ZM288.616 138.829L290.128 137.302L291.67 138.844L290.136 140.371L288.616 138.829Z" fill="#CE1340"/>
<path d="M444.916 108.426C448.506 107.182 451.614 104.842 453.801 101.735C449.685 99.7386 446.067 96.8486 443.209 93.276C440.006 89.3459 437.67 84.7835 436.353 79.8876L435.001 79.679C433.481 79.425 432.053 78.7813 430.856 77.8105C430.646 77.6408 430.445 77.464 430.251 77.2803C429.192 79.2494 428.514 81.4007 428.253 83.6212C428.095 84.9527 428.029 86.2937 428.056 87.6344C428.105 90.8174 428.907 94.0747 429.067 97.2576C429.215 100.441 427.896 104.08 424.872 105.104C423.496 107.322 435.004 111.947 444.916 108.426Z" fill="#957F6E"/>
<path d="M428.887 76.4851C427.473 79.1995 426.667 82.1895 426.525 85.2471C426.318 88.6314 426.932 91.8999 427.315 95.2473C427.588 97.6309 427.694 100.285 426.142 102.301C425.882 102.641 425.57 102.939 425.217 103.184C424.631 103.585 423.888 103.679 423.497 104.328C423.341 104.601 423.241 104.902 423.202 105.213C423.163 105.525 423.187 105.841 423.272 106.144C423.549 107.222 424.563 108.009 425.461 108.562C426.681 109.274 427.989 109.824 429.352 110.196C433.052 111.269 436.937 111.553 440.754 111.028C445.847 110.426 450.539 107.968 453.934 104.124C454.22 103.822 454.379 103.423 454.379 103.007C454.379 102.592 454.22 102.192 453.934 101.891C453.636 101.597 453.234 101.432 452.815 101.432C452.397 101.432 451.995 101.597 451.697 101.891C450.058 103.746 448.062 105.25 445.827 106.314C443.592 107.378 441.165 107.978 438.692 108.08C436.557 108.217 434.413 108.08 432.313 107.672C431.368 107.487 430.436 107.243 429.521 106.942C429.148 106.819 428.781 106.679 428.416 106.537C428.04 106.388 428.626 106.632 428.4 106.53C428.311 106.49 428.221 106.45 428.132 106.409C427.963 106.33 427.796 106.249 427.63 106.163C427.308 105.994 427.009 105.797 426.7 105.606C426.35 105.39 426.911 105.832 426.59 105.522C426.497 105.432 426.399 105.324 426.3 105.243C426.03 105.024 426.476 105.546 426.313 105.264C426.095 104.887 426.394 105.607 426.313 105.304C426.232 105.001 426.324 105.757 426.336 105.448C426.316 105.967 426.263 105.853 426.306 105.711C426.346 105.583 426.08 106.159 426.232 105.899L425.288 106.623C426.37 106.213 427.348 105.568 428.152 104.735C428.956 103.902 429.566 102.902 429.937 101.805C430.866 99.377 430.683 96.8348 430.354 94.3111C429.636 88.8215 428.878 83.1734 431.611 78.0759C432.571 76.2851 429.846 74.6884 428.884 76.4825L428.887 76.4851Z" fill="#211715"/>
<path d="M531.996 225.876C537.298 224.512 538 225.263 543.695 221.088C548.522 217.549 555.097 214.483 557.972 208.972C559.273 206.279 559.811 203.28 559.524 200.303C559.087 192.989 557.712 185.761 555.432 178.798C552.956 171.459 548.458 163.895 545.787 156.626C543.833 151.308 541.894 145.984 540.089 140.614C538.123 134.768 535.944 128.725 531.536 124.412C529.105 122.035 526.133 120.324 523.105 118.749C520.726 117.345 518.532 116.147 516.753 115.197C518.019 113.437 518.727 111.336 518.784 109.168C518.718 104.963 515.171 101.463 511.209 100.054C509.918 99.5932 508.566 99.3017 507.327 98.7214C504.696 97.4892 501.647 93.6878 497.59 92.3055L442.341 91.6943C438.234 93.0884 434.946 96.9306 432.314 98.1622C431.073 98.7425 429.72 99.0353 428.432 99.4938C424.469 100.904 420.923 104.404 420.857 108.608C420.82 111.005 421.892 113.27 423.3 115.235C421.535 116.175 419.366 117.361 417.017 118.747C413.991 120.322 411.016 122.033 408.586 124.41C404.178 128.723 402 134.766 400.033 140.612C398.227 145.982 396.288 151.306 394.335 156.624C391.665 163.894 387.163 171.458 384.69 178.796C382.408 185.76 381.031 192.988 380.592 200.302C380.306 203.28 380.843 206.278 382.145 208.972C385.017 214.483 391.592 217.549 396.421 221.087C402.117 225.262 402.819 224.511 408.121 225.876L531.996 225.876Z" fill="#F4B467"/>
<path d="M504.763 58.0453C505.338 57.5465 506.014 57.1777 506.744 56.964C507.475 56.7503 508.243 56.6968 508.996 56.8071C509.735 56.9114 510.441 57.18 511.062 57.593C511.683 58.0061 512.204 58.5532 512.586 59.194C513.029 60.0786 513.281 61.0465 513.325 62.0349C513.648 65.9006 512.902 69.7807 511.168 73.2509C510.351 75.0049 509.165 76.5619 507.69 77.8154C506.494 78.7861 505.066 79.4299 503.546 79.6839L502.836 79.7937C502.496 81.0675 502.112 82.1398 501.925 82.7096C500.754 85.8899 494.355 96.6664 486.201 101.08C486.81 103.76 486.346 106.962 490.163 108.34C490.409 108.429 497.368 110.463 500.848 111.602C499.365 114.544 493.874 117.754 489.077 119.233C489.077 119.233 482.883 121.247 469.844 121.247C456.805 121.247 449.872 118.599 449.872 118.599C445.304 117.187 440.117 114.388 438.271 111.757C438.897 111.559 439.335 111.418 439.335 111.418C442.947 110.258 449.232 108.421 449.466 108.336C453.077 107.032 452.857 104.096 453.337 101.515C449.417 99.5156 445.966 96.7077 443.211 93.2762C440.007 89.3465 437.67 84.784 436.353 79.8878L435.001 79.6793C433.481 79.4253 432.053 78.7815 430.856 77.8108C429.382 76.5573 428.196 75.0003 427.378 73.2463C425.645 69.7761 424.898 65.896 425.221 62.0303C425.266 61.042 425.517 60.0741 425.96 59.1894C426.342 58.5486 426.863 58.0016 427.485 57.5885C428.106 57.1755 428.812 56.9069 429.551 56.8025C430.304 56.693 431.072 56.7473 431.802 56.9618C432.532 57.1763 433.208 57.5459 433.782 58.0453C433.782 58.0453 433.745 24.2236 470.003 24.2236C506.261 24.2236 504.763 58.0453 504.763 58.0453Z" fill="white"/>
<path d="M515.855 146.476C516.381 153.648 515.685 162.665 508.605 166.531C506.821 167.505 508.413 170.233 510.198 169.258C518.285 164.842 519.625 154.806 519.014 146.476C519.004 146.061 518.835 145.665 518.541 145.371C518.247 145.077 517.851 144.907 517.435 144.897C517.018 144.901 516.618 145.069 516.323 145.364C516.027 145.659 515.86 146.059 515.856 146.476H515.855Z" fill="#211715"/>
<path d="M406.412 191.793C404.713 192.708 402.999 193.593 401.295 194.498C400.936 194.712 400.676 195.058 400.57 195.462C400.464 195.866 400.521 196.296 400.729 196.658C400.946 197.013 401.292 197.27 401.695 197.376C402.098 197.481 402.525 197.427 402.889 197.225C404.593 196.32 406.31 195.435 408.006 194.52C408.365 194.306 408.626 193.96 408.731 193.556C408.837 193.152 408.78 192.722 408.573 192.36C408.355 192.005 408.009 191.748 407.606 191.642C407.204 191.537 406.776 191.591 406.412 191.793Z" fill="#211715"/>
<path d="M532.417 227.399C535.422 226.634 538.41 226.267 541.142 224.693C542.98 223.634 544.639 222.302 546.4 221.124C548.116 219.976 549.872 218.887 551.565 217.703C555.061 215.259 558.336 212.391 559.977 208.352C561.913 203.586 561.045 198.183 560.372 193.244C559.698 188.096 558.522 183.026 556.861 178.107C555.19 173.246 552.86 168.641 550.674 164.001C548.478 159.343 546.693 154.569 544.95 149.728C543.228 144.955 541.722 140.094 539.899 135.36C538.254 131.083 536.186 126.882 532.939 123.579C529.474 120.054 524.863 117.865 520.595 115.49C519.635 114.956 518.67 114.43 517.701 113.911C515.908 112.953 514.312 115.678 516.107 116.638C518.197 117.756 520.236 118.961 522.309 120.109C524.326 121.15 526.275 122.314 528.147 123.596C531.711 126.19 534.095 129.854 535.875 133.828C537.794 138.11 539.099 142.673 540.661 147.091C542.368 151.916 544.022 156.792 546.071 161.484C548.049 166.013 550.352 170.394 552.278 174.946C554.13 179.394 555.524 184.019 556.438 188.749C556.934 191.239 557.318 193.747 557.59 196.275C557.936 198.657 558.048 201.067 557.924 203.471C557.545 207.735 555.139 210.934 551.905 213.537C550.204 214.849 548.437 216.074 546.611 217.207C544.637 218.489 542.763 219.905 540.797 221.188C540.049 221.688 539.269 222.139 538.463 222.538C537.876 222.813 537.265 223.034 536.637 223.196C534.97 223.651 533.254 223.92 531.579 224.345C529.611 224.846 530.445 227.892 532.419 227.39L532.417 227.399Z" fill="#211715"/>
<path d="M421.099 146.476C420.488 154.807 421.828 164.842 429.915 169.258C431.7 170.232 433.295 167.506 431.509 166.531C424.429 162.665 423.731 153.647 424.257 146.476C424.254 146.059 424.086 145.659 423.791 145.364C423.496 145.069 423.096 144.901 422.678 144.897C422.262 144.905 421.865 145.074 421.57 145.369C421.276 145.663 421.107 146.06 421.099 146.476Z" fill="#211715"/>
<path d="M408.538 224.353C405.683 223.626 402.874 223.31 400.479 221.914C398.676 220.861 397.042 219.556 395.31 218.397C393.696 217.316 392.046 216.291 390.447 215.185C387.332 213.035 384.138 210.416 382.881 206.706C382.204 204.538 381.969 202.256 382.19 199.995C382.371 197.455 382.642 194.919 383.032 192.403C383.767 187.445 384.993 182.572 386.691 177.856C388.343 173.366 390.537 169.098 392.56 164.77C394.702 160.185 396.446 155.473 398.163 150.717C399.843 146.063 401.332 141.334 403.075 136.704C404.778 132.181 407.017 127.766 410.742 124.573C412.692 122.991 414.81 121.627 417.058 120.508C419.394 119.267 421.663 117.898 423.998 116.649C425.791 115.69 424.196 112.965 422.404 113.922C420.278 115.059 418.21 116.297 416.093 117.45C413.989 118.525 411.966 119.753 410.041 121.124C406.329 124.005 403.415 127.787 401.574 132.111C399.553 136.588 398.153 141.322 396.522 145.949C394.792 150.849 393.137 155.817 391.023 160.572C388.938 165.257 386.571 169.811 384.612 174.551C382.664 179.344 381.234 184.332 380.347 189.428C379.882 192.003 379.531 194.6 379.273 197.204C378.933 199.755 378.91 202.339 379.207 204.896C379.872 209.382 382.513 212.989 385.976 215.776C389.225 218.394 392.863 220.488 396.254 222.911C397.782 224.057 399.441 225.016 401.197 225.768C402.458 226.225 403.756 226.569 405.078 226.797C405.954 226.98 406.827 227.178 407.695 227.399C409.665 227.901 410.506 224.856 408.534 224.354L408.538 224.353Z" fill="#211715"/>
<path d="M531.576 193.989C532.653 194.27 533.713 194.614 534.75 195.019C534.878 195.069 535.006 195.122 535.134 195.174C535.332 195.253 534.849 195.048 535.04 195.135L535.227 195.217C535.47 195.325 535.711 195.439 535.951 195.557C536.406 195.784 536.845 196.04 537.267 196.323C537.629 196.532 538.059 196.589 538.463 196.483C538.867 196.377 539.214 196.116 539.427 195.757C539.629 195.393 539.682 194.965 539.577 194.563C539.471 194.161 539.215 193.814 538.861 193.596C537.864 192.955 536.801 192.423 535.69 192.011C534.622 191.589 533.529 191.232 532.417 190.942C532.013 190.83 531.582 190.884 531.218 191.091C530.853 191.298 530.586 191.641 530.475 192.045C530.363 192.448 530.417 192.88 530.624 193.244C530.831 193.608 531.174 193.876 531.578 193.987L531.576 193.989Z" fill="#211715"/>
<path d="M436.6 112.058C437.992 114.521 440.718 116.199 443.145 117.488C445.238 118.566 447.415 119.47 449.655 120.193C452.777 121.172 455.987 121.84 459.24 122.187C465.876 122.983 472.577 123.068 479.231 122.438C482.587 122.22 485.915 121.689 489.172 120.852C491.472 120.178 493.687 119.24 495.771 118.057C498.457 116.557 501.432 114.537 502.574 111.547C502.682 111.144 502.627 110.714 502.42 110.35C502.214 109.987 501.873 109.719 501.471 109.605C501.068 109.503 500.64 109.56 500.278 109.766C499.916 109.971 499.648 110.309 499.528 110.708C499.594 110.537 499.391 110.979 499.331 111.079C499.211 111.287 499.076 111.487 498.93 111.677C498.546 112.138 498.123 112.565 497.665 112.954C496.588 113.866 495.418 114.662 494.174 115.33C492.38 116.347 490.478 117.162 488.503 117.757C485.902 118.465 483.241 118.932 480.554 119.153C474.253 119.824 467.902 119.87 461.592 119.29C458.011 119.004 454.47 118.344 451.026 117.323C449.426 116.837 447.86 116.247 446.337 115.557C443.883 114.416 440.656 112.82 439.325 110.464C438.325 108.695 435.595 110.285 436.598 112.058H436.6Z" fill="#211715"/>
<path d="M469.82 160.986C443.842 161.174 417.989 161.325 408.81 161.357C408.463 161.357 408.119 161.427 407.799 161.56C407.479 161.694 407.188 161.89 406.944 162.136C406.7 162.382 406.506 162.674 406.375 162.995C406.243 163.317 406.177 163.66 406.178 164.007C406.231 178.922 406.951 230.536 407.499 249.508C407.519 250.203 407.812 250.862 408.315 251.343C408.818 251.823 409.491 252.086 410.186 252.074C418.482 251.946 444.176 252.025 469.82 252.112C495.463 252.025 521.157 251.946 529.453 252.074C530.149 252.086 530.821 251.823 531.324 251.343C531.827 250.863 532.121 250.203 532.141 249.508C532.689 230.536 533.408 178.922 533.462 164.007C533.463 163.66 533.397 163.317 533.265 162.995C533.134 162.674 532.94 162.382 532.696 162.136C532.451 161.89 532.161 161.694 531.84 161.56C531.52 161.427 531.177 161.357 530.83 161.357C521.651 161.325 495.799 161.174 469.82 160.986Z" fill="white"/>
<path d="M469.82 159.408C451.665 159.539 433.51 159.653 415.354 159.75L411.182 159.769C409.928 159.774 408.497 159.606 407.312 160.067C405.413 160.807 404.593 162.55 404.601 164.495C404.605 165.385 404.61 166.274 404.617 167.164C404.652 172.286 404.702 177.408 404.769 182.529C404.931 196.18 405.13 209.831 405.368 223.481C405.474 229.588 405.594 235.694 405.726 241.8C405.779 244.125 405.836 246.447 405.899 248.767C405.956 250.799 406.643 252.616 408.692 253.388C409.835 253.818 411.192 253.637 412.391 253.627C429.028 253.477 445.669 253.611 462.306 253.666C481.254 253.732 500.207 253.556 519.157 253.59C521.945 253.595 524.734 253.602 527.522 253.629C528.87 253.642 530.286 253.81 531.519 253.137C533.296 252.168 533.696 250.44 533.747 248.577C533.892 243.356 533.998 238.134 534.1 232.913C534.365 219.229 534.585 205.544 534.757 191.86C534.837 185.84 534.908 179.821 534.97 173.803C534.993 171.509 535.013 169.216 535.029 166.922C535.034 166.047 535.046 165.172 535.044 164.297C535.09 163.323 534.807 162.362 534.241 161.568C533.675 160.774 532.857 160.194 531.921 159.922C530.755 159.602 529.367 159.773 528.164 159.768C526.748 159.761 525.332 159.755 523.916 159.748C520.386 159.731 516.855 159.712 513.324 159.691C503.926 159.637 494.529 159.579 485.133 159.515C480.029 159.48 474.924 159.445 469.82 159.408C467.788 159.393 467.787 162.551 469.821 162.566C487.724 162.697 505.628 162.81 523.532 162.904L527.546 162.923C528.626 162.928 529.753 162.843 530.83 162.936C532.026 163.039 531.882 164.2 531.877 165.112C531.872 166.003 531.867 166.895 531.86 167.786C531.823 172.889 531.772 177.993 531.705 183.096C531.547 196.419 531.352 209.741 531.121 223.063C531.017 229.062 530.9 235.062 530.772 241.061C530.719 243.416 530.662 245.771 530.6 248.127C530.577 248.961 530.782 250.29 529.679 250.488C529.178 250.53 528.675 250.526 528.174 250.478C527.628 250.472 527.081 250.467 526.533 250.463C510.134 250.336 493.732 250.454 477.333 250.508C458.74 250.569 440.145 250.405 421.551 250.431C418.639 250.434 415.726 250.441 412.814 250.465C411.859 250.562 410.897 250.566 409.941 250.478C408.796 250.248 409.055 248.738 409.031 247.864C408.89 242.624 408.783 237.385 408.683 232.145C408.426 218.786 408.214 205.427 408.046 192.067C407.968 186.192 407.898 180.318 407.837 174.444C407.813 172.141 407.793 169.838 407.776 167.536C407.77 166.659 407.764 165.782 407.76 164.905C407.755 163.863 407.764 162.953 409.044 162.937C424.303 162.751 439.571 162.776 454.828 162.674C459.824 162.64 464.821 162.606 469.819 162.57C471.852 162.551 471.856 159.393 469.82 159.408Z" fill="#211715"/>
<path d="M418.709 242.452C431.298 242.373 443.887 242.44 456.473 242.479C471.841 242.527 487.208 242.454 502.575 242.432C508.694 242.423 514.812 242.413 520.931 242.452C522.963 242.464 522.966 239.306 520.931 239.294C508.343 239.215 495.753 239.282 483.167 239.321C467.799 239.369 452.432 239.296 437.064 239.274C430.946 239.265 424.827 239.255 418.709 239.294C416.677 239.306 416.673 242.464 418.709 242.452Z" fill="#211715"/>
<path d="M469.82 195.764C467.923 195.782 466.025 195.807 464.128 195.809C463.711 195.815 463.312 195.983 463.017 196.278C462.722 196.573 462.554 196.972 462.548 197.389C462.54 199.38 462.537 201.37 462.54 203.36C462.54 204.529 462.543 205.699 462.554 206.868C462.557 207.288 462.554 207.71 462.571 208.13C462.56 208.364 462.599 208.599 462.685 208.818C462.771 209.036 462.903 209.234 463.071 209.398C463.24 209.563 463.441 209.689 463.662 209.77C463.882 209.851 464.118 209.884 464.352 209.868C467.762 209.868 471.173 209.844 474.584 209.86C475.157 209.945 475.742 209.877 476.281 209.663C477.053 209.211 477.066 208.393 477.076 207.61C477.091 206.516 477.095 205.421 477.097 204.326C477.102 202.014 477.1 199.703 477.091 197.391C477.084 196.974 476.916 196.576 476.621 196.282C476.326 195.987 475.928 195.818 475.512 195.812C473.614 195.812 471.716 195.785 469.819 195.767C469.4 195.767 468.998 195.934 468.702 196.23C468.406 196.526 468.24 196.928 468.24 197.346C468.24 197.765 468.406 198.167 468.702 198.463C468.998 198.759 469.4 198.925 469.819 198.925C471.716 198.943 473.614 198.968 475.512 198.97L473.933 197.391C473.946 201.025 473.998 204.666 473.906 208.299L474.121 207.502L475.484 206.72C474.858 206.662 474.213 206.702 473.586 206.702C472.33 206.702 471.075 206.715 469.819 206.715C468.593 206.715 467.367 206.703 466.141 206.703C465.483 206.703 464.809 206.66 464.154 206.72L465.517 207.502L465.733 208.299C465.643 204.666 465.692 201.025 465.706 197.391L464.127 198.97C466.025 198.97 467.921 198.943 469.819 198.925C470.238 198.925 470.64 198.759 470.936 198.463C471.232 198.167 471.398 197.765 471.398 197.346C471.398 196.928 471.232 196.526 470.936 196.23C470.64 195.934 470.238 195.767 469.819 195.767L469.82 195.764Z" fill="#211715"/>
<path d="M445.549 126.067C442.03 125.787 438.518 124.422 435.38 122.821C431.971 121.163 428.864 118.946 426.188 116.261C423.718 113.674 421.392 109.879 422.939 106.245C423.652 104.676 424.79 103.339 426.225 102.385C427.998 101.171 429.939 100.765 431.919 100.025C435.883 98.5431 438.502 94.8332 442.469 93.3194C442.866 93.1979 443.202 92.9288 443.407 92.5675C443.612 92.2061 443.671 91.78 443.572 91.3766C443.458 90.9745 443.19 90.6335 442.827 90.4271C442.463 90.2208 442.033 90.1658 441.63 90.2739C439.499 91.1525 437.512 92.3442 435.733 93.8095C434.371 94.8622 433.026 96.1326 431.434 96.8359C430.298 97.3392 429.057 97.5826 427.892 98.0102C426.895 98.3692 425.937 98.8323 425.036 99.3918C423.167 100.533 421.616 102.127 420.525 104.026C415.711 112.791 425.532 120.966 432.329 124.768C436.377 127.032 440.889 128.854 445.549 129.224C445.967 129.221 446.367 129.053 446.662 128.758C446.958 128.462 447.125 128.063 447.128 127.645C447.12 127.229 446.951 126.832 446.657 126.537C446.363 126.243 445.966 126.075 445.549 126.067Z" fill="#211715"/>
<path d="M439.756 112.942C442.998 111.904 446.27 110.956 449.525 109.972C451.181 109.534 452.613 108.492 453.538 107.051C454.447 105.538 454.548 103.785 454.836 102.092C454.935 101.688 454.875 101.262 454.67 100.901C454.465 100.541 454.129 100.272 453.732 100.151C453.328 100.043 452.898 100.098 452.535 100.304C452.171 100.511 451.904 100.852 451.79 101.254C451.658 102.043 451.572 102.837 451.422 103.622C451.356 103.985 451.268 104.343 451.159 104.695C451.14 104.752 450.921 105.282 451.034 105.045C450.968 105.186 450.893 105.326 450.812 105.46C450.441 106.037 449.9 106.484 449.263 106.738C448.97 106.851 448.67 106.947 448.367 107.026C445.213 107.97 442.054 108.896 438.919 109.901C436.991 110.519 437.815 113.569 439.758 112.946L439.756 112.942Z" fill="#211715"/>
<path d="M500.716 109.898C497.663 108.919 494.586 108.014 491.513 107.097C490.577 106.909 489.717 106.449 489.041 105.776C488.824 105.528 489.055 105.827 488.897 105.578C488.784 105.401 488.682 105.215 488.592 105.024C488.707 105.271 488.535 104.871 488.517 104.818C488.451 104.621 488.391 104.416 488.339 104.212C488.175 103.481 488.048 102.741 487.96 101.997C487.846 101.594 487.579 101.253 487.215 101.046C486.852 100.84 486.421 100.785 486.018 100.894C485.62 101.015 485.285 101.283 485.08 101.644C484.875 102.005 484.816 102.431 484.916 102.834C485.168 104.601 485.46 106.317 486.602 107.754C487.571 108.875 488.863 109.67 490.3 110.03C493.496 110.988 496.7 111.925 499.878 112.943C501.818 113.565 502.648 110.517 500.717 109.898H500.716Z" fill="#211715"/>
<path d="M497.167 93.8285C500.44 94.9877 502.724 97.7154 505.579 99.5523C507.244 100.624 509.19 100.956 511.011 101.658C512.561 102.261 513.958 103.203 515.098 104.414C516.184 105.519 516.903 106.932 517.158 108.46C517.421 110.385 516.694 112.266 515.714 113.883C513.662 117.268 510.371 119.653 506.948 121.521C504.777 122.705 502.519 123.797 500.249 124.788C498.307 125.728 496.225 126.349 494.084 126.625C493.669 126.635 493.273 126.805 492.979 127.099C492.685 127.393 492.516 127.789 492.505 128.204C492.508 128.622 492.676 129.022 492.971 129.317C493.267 129.613 493.666 129.78 494.084 129.783C498.76 129.388 503.112 127.002 507.232 124.93C511.223 122.924 515.02 120.309 517.659 116.651C520.278 113.021 521.347 108.427 518.994 104.385C517.945 102.647 516.51 101.175 514.799 100.083C512.952 98.8674 510.886 98.3635 508.829 97.6358C507.047 97.0049 505.65 95.691 504.198 94.5279C502.362 92.9374 500.268 91.6709 498.007 90.7824C497.603 90.6711 497.171 90.7247 496.807 90.9315C496.443 91.1383 496.176 91.4813 496.065 91.885C495.953 92.2888 496.007 92.7203 496.214 93.0845C496.42 93.4487 496.763 93.7159 497.167 93.8272V93.8285Z" fill="#211715"/>
<path d="M486.603 35.3761C487.857 39.5433 489.806 44.9019 491.253 47.2974C493.226 50.5619 498.583 57.6923 503.696 59.6292C504.411 57.6107 506.813 56.4778 508.996 56.8041C509.219 56.8367 509.438 56.8864 509.654 56.9528C512.633 50.0987 511.129 38.5123 509.939 32.7339C506.263 14.8316 488.097 0.62084 469.046 1.66165C449.996 0.62084 431.83 14.8316 428.152 32.7339C427.156 37.5623 427.275 45.823 428.181 49.6777L429.607 56.8002C430.583 56.6496 431.582 56.7908 432.479 57.2059C433.375 57.6211 434.129 58.2917 434.646 59.1338C441.837 53.6916 454.449 45.8348 460.695 40.6466C460.151 43.9098 458.218 49.4625 460.653 48.8902C470.877 46.6013 480.673 41.9716 486.554 34.7405" fill="#957F6E"/>
<path d="M429.704 49.2582C429.273 47.1344 429.054 44.9731 429.052 42.8061C428.97 40.2451 429.072 37.6815 429.355 35.1349C429.978 30.5015 431.586 26.0553 434.071 22.0952C439.201 13.7916 447.176 7.63765 456.509 4.78103C458.814 4.07146 461.184 3.59278 463.583 3.35205C466.107 3.11192 468.664 3.1731 471.195 3.1856C476.096 3.22891 480.941 4.24297 485.448 6.16921C494.412 9.9522 501.692 16.8696 505.927 25.6288C507.711 29.6695 508.843 33.9674 509.282 38.3626C509.891 43.2166 510.228 48.3628 509.179 53.1832C508.94 54.3089 508.597 55.41 508.155 56.4728C508.046 56.8768 508.101 57.3076 508.308 57.6714C508.514 58.0353 508.856 58.303 509.259 58.4162C509.662 58.5166 510.089 58.4581 510.45 58.2529C510.812 58.0477 511.081 57.7114 511.201 57.3136C513.21 52.5365 513.181 46.9279 512.793 41.8468C512.431 37.0974 511.772 32.1927 510.162 27.6887C506.655 17.8596 499.152 9.65743 489.946 4.82839C485.254 2.35471 480.136 0.794157 474.862 0.229625C472.253 0.0234934 469.635 -0.0439274 467.018 0.0276478C464.352 0.0391707 461.694 0.32021 459.084 0.866479C448.76 3.10988 439.607 9.03744 433.337 17.5405C430.271 21.6464 428.066 26.3288 426.853 31.3072C425.752 36.407 425.514 41.6553 426.149 46.8338C426.255 47.9302 426.425 49.0194 426.659 50.0957C427.112 52.076 430.158 51.2378 429.704 49.2562V49.2582Z" fill="#211715"/>
<path d="M485.08 35.796C485.832 38.2809 486.667 40.7434 487.619 43.1593C488.321 45.0878 489.208 46.9441 490.267 48.7021C492.459 52.2302 495.176 55.4028 498.325 58.1102C500.137 59.6155 502.188 61.0109 504.525 61.5175C506.506 61.9471 507.354 58.903 505.365 58.472C501.727 57.6826 498.711 54.4167 496.361 51.6495C494.059 49.0166 492.2 46.0272 490.855 42.7981C489.821 40.2322 488.926 37.6006 488.125 34.9552C487.538 33.015 484.489 33.842 485.08 35.7946V35.796Z" fill="#211715"/>
<path d="M485.438 33.6224C481.997 37.6486 477.719 40.8751 472.902 43.0765C470.43 44.2552 467.872 45.2449 465.25 46.0371C463.857 46.4647 462.451 46.8459 461.032 47.1805L460.633 47.2739L460.501 47.3042C460.204 47.3603 460.144 47.3774 460.322 47.3555C460.359 47.2897 460.28 47.3318 460.411 47.3627C460.523 47.3803 460.631 47.4156 460.731 47.4674C460.855 47.5505 460.962 47.6573 461.044 47.7818C460.892 47.6088 461.05 47.8259 461.08 47.8792C461.051 47.8071 461.032 47.731 461.025 47.6535C461.025 47.8897 461.031 47.7851 461.036 47.6108C461.094 45.5193 461.838 43.2785 462.22 41.0633C462.301 40.7299 462.271 40.3794 462.137 40.064C462.002 39.7485 461.769 39.485 461.473 39.3124C461.176 39.1399 460.832 39.0676 460.491 39.1062C460.151 39.1449 459.831 39.2925 459.581 39.5271C456.423 42.1455 452.976 44.4916 449.572 46.8298C445.691 49.4963 441.769 52.1089 437.916 54.8188C436.012 56.1583 434.127 57.5268 432.296 58.9636C432.002 59.2609 431.837 59.6621 431.837 60.0801C431.837 60.4981 432.002 60.8993 432.296 61.1966C432.597 61.4833 432.997 61.6433 433.412 61.6433C433.828 61.6433 434.228 61.4833 434.529 61.1966C441.4 55.7905 449.165 51.0931 456.344 45.9285C458.205 44.5897 460.048 43.2199 461.814 41.7567L459.175 40.2205C458.771 42.5686 457.925 44.9114 457.879 47.3095C457.816 47.843 457.892 48.3837 458.1 48.8792C458.307 49.3747 458.639 49.8084 459.063 50.1385C460.196 50.8622 461.622 50.2885 462.802 49.9924C468.971 48.5408 474.842 46.0303 480.153 42.5725C482.97 40.7082 485.502 38.4459 487.671 35.856C487.956 35.5542 488.115 35.1546 488.115 34.7392C488.115 34.3238 487.956 33.9241 487.671 33.6224C487.373 33.3293 486.972 33.165 486.554 33.165C486.136 33.165 485.735 33.3293 485.438 33.6224Z" fill="#211715"/>
<path d="M501.911 75.7424C501.824 77.2654 501.542 78.771 501.071 80.2221C500.902 80.7872 500.717 81.3464 500.529 81.905C500.479 82.0556 500.43 82.2083 500.375 82.3576C500.331 82.4747 500.134 82.9142 500.338 82.4603C499.652 83.9546 498.864 85.3996 497.978 86.7847C495.485 90.9119 492.303 94.5808 488.57 97.6316C486.533 99.307 484.152 100.512 481.596 101.161C479.616 101.616 480.454 104.661 482.435 104.206C487.734 102.988 492.172 99.1658 495.659 95.1671C498.594 91.9215 501.047 88.2707 502.943 84.3267C504.196 81.6288 504.918 78.7146 505.067 75.7437C505.133 73.7114 501.975 73.7134 501.909 75.7437L501.911 75.7424Z" fill="#211715"/>
<path d="M433.692 75.2325C435.617 86.3406 441.637 97.2106 451.928 102.571C454.708 104.02 457.738 104.926 460.857 105.243C461.275 105.24 461.676 105.073 461.971 104.778C462.267 104.482 462.434 104.082 462.436 103.664C462.427 103.248 462.258 102.852 461.964 102.557C461.67 102.263 461.273 102.094 460.857 102.085C450.245 100.985 441.976 91.4677 438.643 81.9063C437.803 79.4583 437.165 76.9454 436.735 74.393C436.621 73.9911 436.353 73.6501 435.99 73.4438C435.627 73.2375 435.197 73.1824 434.793 73.2904C434.395 73.4096 434.057 73.6782 433.852 74.04C433.646 74.4019 433.589 74.8291 433.691 75.2325H433.692Z" fill="#211715"/>
<path d="M505.88 59.1583C506.259 58.8457 506.698 58.6133 507.17 58.4751C507.641 58.3369 508.136 58.2957 508.624 58.3541C509.112 58.4125 509.583 58.5693 510.009 58.815C510.435 59.0606 510.806 59.39 511.101 59.7833C511.612 60.7457 511.854 61.8274 511.804 62.9156C511.87 64.2514 511.795 65.5906 511.579 66.9104C510.781 71.5763 508.322 77.2652 503.124 78.1606C502.723 78.2751 502.383 78.5424 502.177 78.9051C501.971 79.2678 501.915 79.6969 502.022 80.1001C502.142 80.4988 502.41 80.836 502.772 81.0415C503.134 81.247 503.561 81.305 503.965 81.2035C509.345 80.2791 512.539 75.1968 514.011 70.348C514.787 67.8005 515.101 65.1348 514.938 62.4768C514.769 59.8695 513.981 57.4175 511.577 56.0602C510.327 55.3711 508.894 55.0843 507.475 55.2392C506.056 55.394 504.719 55.9828 503.647 56.9254C503.354 57.2232 503.19 57.6242 503.19 58.0418C503.19 58.4595 503.354 58.8604 503.647 59.1583C503.947 59.4466 504.347 59.6076 504.764 59.6076C505.18 59.6076 505.58 59.4466 505.88 59.1583Z" fill="#211715"/>
<path d="M434.898 56.9262C433.961 56.0961 432.815 55.5364 431.584 55.3067C430.353 55.077 429.083 55.1861 427.909 55.6222C425.321 56.6433 424.028 58.8209 423.699 61.5006C423.078 66.7975 424.43 72.1374 427.496 76.5009C429.159 78.9285 431.699 80.6152 434.582 81.2049C434.985 81.3039 435.411 81.2448 435.773 81.0397C436.134 80.8345 436.403 80.4988 436.525 80.1016C436.632 79.6978 436.577 79.2679 436.371 78.9046C436.164 78.5412 435.823 78.2736 435.421 78.1595C430.224 77.2667 427.765 71.5804 426.967 66.9092C426.759 65.638 426.682 64.3488 426.736 63.0618C426.776 61.9736 426.825 60.721 427.445 59.7821C427.74 59.3885 428.111 59.0588 428.537 58.813C428.962 58.5671 429.434 58.4102 429.922 58.3518C430.41 58.2933 430.905 58.3346 431.376 58.473C431.848 58.6114 432.287 58.8442 432.666 59.1571C432.967 59.4435 433.367 59.6031 433.783 59.6031C434.198 59.6031 434.598 59.4435 434.899 59.1571C435.192 58.8592 435.356 58.4583 435.356 58.0407C435.356 57.623 435.192 57.2221 434.899 56.9242L434.898 56.9262Z" fill="#211715"/>
<path d="M463.114 88.9284C465.193 90.0021 467.508 90.5367 469.846 90.483C472.242 90.4679 474.681 90.004 476.602 88.5093C476.896 88.2121 477.061 87.8109 477.061 87.3928C477.061 86.9747 476.896 86.5735 476.602 86.2763C476.301 85.9898 475.901 85.8301 475.485 85.8301C475.07 85.8301 474.67 85.9898 474.369 86.2763C474.836 85.9125 474.431 86.2204 474.311 86.2967C474.174 86.3849 474.033 86.4665 473.889 86.5415C473.789 86.5941 473.293 86.8007 473.687 86.6507C473.493 86.7244 473.302 86.7994 473.104 86.8625C471.982 87.2204 470.805 87.3776 469.627 87.327C468.505 87.3578 467.384 87.207 466.309 86.8803C466.096 86.8145 465.888 86.7402 465.677 86.6678C465.611 86.6448 465.546 86.6092 465.474 86.5888C465.862 86.7027 465.585 86.6388 465.482 86.5888C465.219 86.4658 464.963 86.3375 464.708 86.2026C464.344 86.0002 463.917 85.9462 463.514 86.0517C463.111 86.1573 462.765 86.4143 462.548 86.7691C462.341 87.1317 462.284 87.5609 462.39 87.9646C462.496 88.3683 462.756 88.7146 463.114 88.929V88.9284Z" fill="#211715"/>
<path d="M469.133 72.9531C469.448 74.0888 469.7 75.241 469.888 76.4045L469.831 75.9847C469.854 76.1425 469.858 76.3023 469.844 76.4611L469.9 76.0413C469.89 76.1142 469.872 76.186 469.848 76.2558L470.008 75.8781C469.986 75.9263 469.961 75.9725 469.932 76.0163L470.179 75.6966C470.145 75.7378 470.107 75.7751 470.065 75.8077L470.385 75.561C470.298 75.6156 470.206 75.664 470.112 75.7058L470.489 75.5466C470.341 75.6085 470.187 75.6527 470.029 75.6781L470.448 75.6216C470.305 75.639 470.159 75.639 470.015 75.6216L470.435 75.6781C470.272 75.6551 470.112 75.6156 469.949 75.5939C469.538 75.4978 469.105 75.5544 468.733 75.7531C468.371 75.9645 468.108 76.3107 468.002 76.7158C467.896 77.1208 467.955 77.5515 468.166 77.9131C468.266 78.0911 468.402 78.2471 468.564 78.3714C468.726 78.4958 468.912 78.5861 469.11 78.6368C469.464 78.6848 469.808 78.7756 470.168 78.7914C470.702 78.795 471.229 78.6704 471.706 78.4282C472.004 78.2951 472.269 78.0965 472.48 77.847C472.691 77.5976 472.843 77.3037 472.925 76.9874C473.033 76.4679 473.027 75.9314 472.909 75.4143C472.721 74.3018 472.464 73.1998 472.178 72.1097C472.067 71.7059 471.799 71.3629 471.435 71.1561C471.071 70.9493 470.64 70.8957 470.236 71.007C469.832 71.1183 469.489 71.3855 469.282 71.7497C469.075 72.1139 469.022 72.5454 469.133 72.9491V72.9531Z" fill="#211715"/>
<path d="M450.699 63.2285C450.122 65.1015 450.501 69.4128 454.047 69.7773C458.737 69.749 458.986 64.5397 457.407 62.0903C456.115 60.0843 452.314 59.2508 450.699 63.2285Z" fill="#211715"/>
<path d="M488.258 63.2285C488.834 65.1015 488.459 69.4128 484.91 69.7773C480.22 69.749 479.97 64.5397 481.549 62.0903C482.841 60.0843 486.643 59.2508 488.258 63.2285Z" fill="#211715"/>
<path opacity="0.8" fill-rule="evenodd" clip-rule="evenodd" d="M553.826 54.1224C554.85 54.3969 555.458 55.4496 555.184 56.4739L553.859 61.4192C553.584 62.4434 552.531 63.0512 551.507 62.7768C550.483 62.5024 549.875 61.4496 550.15 60.4254L551.475 55.48C551.749 54.4558 552.802 53.848 553.826 54.1224ZM520.122 73.5813C520.397 72.5571 521.45 71.9493 522.474 72.2237L527.419 73.5488C528.443 73.8232 529.051 74.876 528.777 75.9002C528.502 76.9244 527.45 77.5322 526.425 77.2578L521.48 75.9327C520.456 75.6583 519.848 74.6055 520.122 73.5813ZM564.631 85.5072C564.905 84.483 565.958 83.8752 566.982 84.1496L571.927 85.4747C572.952 85.7492 573.559 86.802 573.285 87.8262C573.011 88.8503 571.958 89.4582 570.934 89.1837L565.988 87.8586C564.964 87.5842 564.356 86.5314 564.631 85.5072ZM541.9 98.6306C542.924 98.9051 543.532 99.9579 543.258 100.982L541.933 105.927C541.658 106.952 540.605 107.559 539.581 107.285C538.557 107.011 537.949 105.958 538.224 104.934L539.549 99.9882C539.823 98.964 540.876 98.3562 541.9 98.6306Z" fill="#CE1340"/>
<g opacity="0.5">
<path d="M534.883 60.2297C535.801 59.6996 536.975 60.0142 537.506 60.9325L538.127 62.0087C538.657 62.927 538.342 64.1012 537.424 64.6313C536.506 65.1615 535.332 64.8469 534.801 63.9286L534.18 62.8524C533.65 61.9341 533.965 60.7599 534.883 60.2297Z" fill="#CE1340"/>
<path d="M567.178 68.883C567.708 69.8013 567.393 70.9755 566.475 71.5057L565.399 72.1271C564.481 72.6572 563.306 72.3426 562.776 71.4243C562.246 70.506 562.561 69.3318 563.479 68.8016L564.555 68.1803C565.474 67.6502 566.648 67.9647 567.178 68.883Z" fill="#CE1340"/>
<path d="M530.63 89.984C531.161 90.9023 530.846 92.0766 529.928 92.6068L528.852 93.2276C527.934 93.7578 526.76 93.4432 526.229 92.5249C525.699 91.6066 526.014 90.4325 526.932 89.9023L528.008 89.2812C528.926 88.7511 530.1 89.0657 530.63 89.984Z" fill="#CE1340"/>
<path d="M555.983 96.7776C556.902 96.2474 558.076 96.5621 558.606 97.4804L559.227 98.556C559.757 99.4743 559.443 100.648 558.524 101.179C557.606 101.709 556.432 101.394 555.902 100.476L555.281 99.4004C554.75 98.4821 555.065 97.3078 555.983 96.7776Z" fill="#CE1340"/>
</g>
<path d="M534.963 75.0661C533.279 81.3524 537.351 86.0339 540.185 90.0071C541.185 91.409 542.154 92.7366 543.391 93.0678C544.627 93.3991 546.13 92.7341 547.697 92.02C552.139 89.9964 558.006 87.9779 559.69 81.6917C561.374 75.4053 555.769 69.1251 548.586 73.678C544.642 66.1437 536.648 68.7798 534.963 75.0661Z" fill="#CE1340"/>
</svg>
