<svg width="583" height="254" viewBox="0 0 583 254" fill="none" xmlns="http://www.w3.org/2000/svg">
<path d="M99.5121 51.352L95.7361 58.984H93.4801L92.1521 55.72L90.3921 58.984H88.1361L85.8161 53.32L84.2161 52.392V51.368L87.9921 50.024L88.6001 52.44L90.2961 56.52L91.5121 54.184L91.1601 53.32L89.5601 52.392V51.368L93.3361 50.024L93.9441 52.44L95.6081 56.456L97.1921 53.096L94.7761 51.512L95.3521 50.344L99.5121 50.328V51.352ZM105.583 50.184C106.735 50.184 107.625 50.6213 108.255 51.496C108.895 52.36 109.204 53.5813 109.183 55.16H103.471C103.588 55.7253 103.807 56.1787 104.127 56.52C104.447 56.8507 104.863 57.016 105.375 57.016C106.132 57.016 107.236 56.6907 108.687 56.04L109.167 57.032L106.863 58.888C106.191 59.0693 105.385 59.16 104.447 59.16C103.647 59.16 102.927 58.9787 102.287 58.616C101.647 58.2427 101.145 57.736 100.783 57.096C100.431 56.456 100.255 55.7413 100.255 54.952C100.255 54.0987 100.532 53.3093 101.087 52.584C101.641 51.848 102.335 51.2667 103.167 50.84C103.999 50.4027 104.804 50.184 105.583 50.184ZM104.719 52.184C104.281 52.184 103.951 52.3333 103.727 52.632C103.513 52.92 103.396 53.368 103.375 53.976H106.223C106.159 53.368 106.015 52.92 105.791 52.632C105.567 52.3333 105.209 52.184 104.719 52.184ZM117.423 50.184C118.106 50.184 118.719 50.3707 119.263 50.744C119.807 51.1067 120.228 51.6133 120.527 52.264C120.836 52.904 120.991 53.6133 120.991 54.392C120.991 55.2347 120.714 56.024 120.159 56.76C119.604 57.496 118.906 58.0827 118.063 58.52C117.231 58.9467 116.426 59.16 115.647 59.16C115.231 59.16 114.836 59.08 114.463 58.92C114.1 58.76 113.775 58.536 113.487 58.248L112.735 59H111.615V48.344L110.191 47.4V46.376L113.439 45.032H114.575V51.656L116.255 50.312C116.596 50.2267 116.986 50.184 117.423 50.184ZM116.575 57.16C117.439 57.16 117.871 56.488 117.871 55.144C117.871 54.3547 117.743 53.7093 117.487 53.208C117.242 52.696 116.874 52.44 116.383 52.44C115.732 52.44 115.13 52.6 114.575 52.92V55.512C114.575 55.9813 114.746 56.376 115.087 56.696C115.439 57.0053 115.935 57.16 116.575 57.16ZM127.606 59H122.358V57.976L123.782 56.76V53.352L122.358 52.408V51.4L125.606 50.04H126.742V57.368L128.182 57.832L127.606 59ZM125.254 45.208C125.756 45.208 126.161 45.368 126.47 45.688C126.79 45.9973 126.95 46.3813 126.95 46.84C126.95 47.1707 126.833 47.48 126.598 47.768C126.374 48.0453 126.086 48.2693 125.734 48.44C125.393 48.6107 125.062 48.696 124.742 48.696C124.252 48.696 123.841 48.5413 123.51 48.232C123.19 47.912 123.03 47.5227 123.03 47.064C123.03 46.7333 123.142 46.4293 123.366 46.152C123.601 45.864 123.894 45.6347 124.246 45.464C124.598 45.2933 124.934 45.208 125.254 45.208ZM139.432 59.016H135.608V57.816L134.072 59.048C133.73 59.1333 133.336 59.176 132.888 59.176C132.184 59.176 131.549 58.9947 130.984 58.632C130.429 58.2587 129.992 57.752 129.672 57.112C129.362 56.4613 129.208 55.7467 129.208 54.968C129.208 54.1147 129.485 53.3253 130.04 52.6C130.594 51.864 131.288 51.2827 132.12 50.856C132.952 50.4187 133.757 50.2 134.536 50.2C134.92 50.2 135.277 50.2907 135.608 50.472V48.344L134.184 47.4V46.376L137.432 45.032H138.568V57.368L140.008 57.848L139.432 59.016ZM133.912 56.776C134.53 56.776 135.096 56.648 135.608 56.392V53.512C135.544 53.128 135.341 52.8133 135 52.568C134.658 52.3227 134.194 52.2 133.608 52.2C132.754 52.2 132.328 52.872 132.328 54.216C132.328 54.9627 132.461 55.5813 132.728 56.072C133.005 56.552 133.405 56.792 133.928 56.792L133.912 56.776ZM150.284 59H146.46V57.608L144.652 59.032C144.439 59.1173 144.172 59.16 143.852 59.16C142.796 59.16 142.034 58.904 141.564 58.392C141.095 57.8693 140.86 57.2453 140.86 56.52C140.86 56.104 140.988 55.6933 141.244 55.288C141.5 54.8827 141.863 54.5093 142.332 54.168H146.46V54.104C146.46 53.5493 146.306 53.1387 145.996 52.872C145.698 52.5947 145.298 52.456 144.796 52.456C144.06 52.456 143.031 52.712 141.708 53.224L141.228 52.232L143.436 50.456C144.002 50.2747 144.668 50.184 145.436 50.184C146.695 50.184 147.671 50.4667 148.364 51.032C149.068 51.5973 149.42 52.4187 149.42 53.496V57.272L150.86 57.832L150.284 59ZM144.764 56.76C145.266 56.76 145.831 56.5573 146.46 56.152V55.336H143.948C143.831 55.528 143.772 55.736 143.772 55.96C143.772 56.2053 143.858 56.4027 144.028 56.552C144.21 56.6907 144.455 56.76 144.764 56.76Z" fill="white"/>
<rect x="1" y="31" width="581" height="222" rx="15" fill="white" stroke="#053751" stroke-width="2"/>
<path d="M49.5 79C49.5 77.067 51.067 75.5 53 75.5H282.103C282.63 75.5 283.149 75.6187 283.623 75.8474L415.311 139.347C417.951 140.62 417.951 144.38 415.311 145.653L283.623 209.153C283.149 209.381 282.63 209.5 282.103 209.5H53C51.067 209.5 49.5 207.933 49.5 206V79Z" stroke="#CE1340"/>
<path d="M89.9619 144.989C90.2237 144.776 90.3547 144.495 90.3547 144.145V144.109C90.3498 143.964 90.3207 143.77 90.2674 143.527C90.2528 143.455 90.2286 143.343 90.1947 143.193L90.151 143.004L90.1074 142.807C89.3365 143.074 88.8274 143.331 88.5801 143.578C88.3522 143.806 88.2383 144.056 88.2383 144.327V144.378C88.2528 144.664 88.3789 144.897 88.6165 145.076C88.7668 145.188 88.9607 145.244 89.1983 145.244C89.4941 145.244 89.7486 145.159 89.9619 144.989ZM92.4492 142.385C92.488 142.55 92.5365 142.761 92.5947 143.018L92.6674 143.316L92.7328 143.6C92.8347 144.036 92.9316 144.429 93.0237 144.778C93.1304 145.171 93.3219 145.425 93.5983 145.542C93.7631 145.615 93.9741 145.665 94.231 145.695C94.4056 145.714 94.6383 145.724 94.9292 145.724V148.109C94.4928 148.109 94.1171 148.087 93.8019 148.044C93.3656 147.985 92.9728 147.879 92.6238 147.724C92.1583 147.51 91.7704 147.219 91.4601 146.851L91.3728 146.749C91.1256 146.967 90.8444 147.142 90.5292 147.273C90.1268 147.433 89.7001 147.513 89.2492 147.513L89.1765 147.505H89.0965C88.5438 147.481 88.0419 147.348 87.591 147.105C86.7474 146.664 86.2286 145.971 86.0347 145.025C85.9813 144.773 85.9547 144.524 85.9547 144.276C85.9547 143.952 86.0007 143.634 86.0928 143.324C86.2722 142.776 86.585 142.288 87.031 141.862C87.5207 141.392 88.3716 140.962 89.5838 140.575L89.4456 139.935L91.7728 139.404C92.0492 140.616 92.2747 141.61 92.4492 142.385ZM98.59 144.851C98.59 145.326 98.5124 145.758 98.3573 146.145C98.1876 146.562 97.9427 146.921 97.6227 147.222C96.9876 147.813 96.1633 148.109 95.15 148.109H94.5682V145.724H95.15C95.6058 145.724 95.9161 145.61 96.0809 145.382C96.1391 145.304 96.1779 145.21 96.1973 145.098C96.2021 145.055 96.207 145.008 96.2118 144.96V137.622H98.59V144.851ZM103.491 148.109H102.837C102.299 148.109 101.816 148.015 101.389 147.825C101.065 147.685 100.781 147.493 100.539 147.251C100.296 147.008 100.105 146.725 99.964 146.4C99.7749 145.973 99.6804 145.491 99.6804 144.953V137.622H102.059V144.953C102.059 145.248 102.114 145.452 102.226 145.564C102.333 145.67 102.536 145.724 102.837 145.724H103.491V148.109ZM107.29 141.331C107.687 141.389 108.676 141.636 110.257 142.073C110.81 142.223 111.394 142.385 112.01 142.56C112.494 142.701 112.868 142.81 113.13 142.887L113.501 144.989C111.624 146.366 110.213 147.217 109.268 147.542C108.153 147.92 106.104 148.109 103.122 148.109V145.724C105.047 145.724 106.439 145.656 107.297 145.52C108.334 145.355 109.261 145.013 110.075 144.495L109.544 144.349L109.035 144.204C108.618 144.082 108.305 143.995 108.097 143.942C107.457 143.767 107.054 143.68 106.89 143.68C106.759 143.68 106.635 143.755 106.519 143.905C106.397 144.051 106.305 144.25 106.242 144.502L103.937 143.898C104.16 143.035 104.574 142.368 105.181 141.898C105.694 141.496 106.247 141.295 106.839 141.295C106.984 141.295 107.134 141.307 107.29 141.331ZM118.241 148.109H117.587C117.049 148.109 116.566 148.015 116.139 147.825C115.815 147.685 115.531 147.493 115.289 147.251C115.046 147.008 114.855 146.725 114.714 146.4C114.525 145.973 114.43 145.491 114.43 144.953V137.622H116.809V144.953C116.809 145.248 116.864 145.452 116.976 145.564C117.083 145.67 117.286 145.724 117.587 145.724H118.241V148.109ZM122.891 144.415C122.929 144.647 122.949 144.87 122.949 145.084C122.949 145.743 122.76 146.335 122.381 146.858C121.775 147.692 120.789 148.109 119.421 148.109H117.865V145.724H119.371C119.807 145.724 120.115 145.665 120.294 145.549C120.478 145.438 120.571 145.261 120.571 145.018C120.571 144.945 120.561 144.865 120.541 144.778C120.493 144.531 120.444 144.279 120.396 144.022C120.377 143.925 120.357 143.821 120.338 143.709L120.309 143.571L120.287 143.433C120.214 143.035 120.158 142.752 120.12 142.582L122.396 141.891C122.541 142.575 122.706 143.416 122.891 144.415ZM118.723 150.64L120.236 149.113L121.778 150.655L120.251 152.182L118.723 150.64ZM132.308 144.08C131.746 145.263 131.464 146.303 131.464 147.2C131.464 147.287 131.467 147.379 131.472 147.476C131.481 147.598 131.498 147.716 131.523 147.833C131.576 148.138 131.668 148.41 131.799 148.647C132.172 149.316 132.798 149.651 133.675 149.651H135.682C136.686 149.651 137.392 149.518 137.799 149.251C138.003 149.115 138.107 148.982 138.112 148.851C137.423 148.448 136.475 148.133 135.268 147.905V145.724H141.915V148.109H140.163C140.269 148.279 140.323 148.519 140.323 148.829C140.323 148.941 140.318 149.052 140.308 149.164C140.289 149.319 140.259 149.469 140.221 149.615C140.114 150.017 139.93 150.373 139.668 150.684C138.907 151.581 137.578 152.029 135.682 152.029H133.675C132.061 152.029 130.844 151.464 130.024 150.335C129.389 149.457 129.072 148.412 129.072 147.2C129.072 146.308 129.253 145.348 129.617 144.32C129.801 143.806 129.983 143.382 130.163 143.047L132.308 144.08ZM145.215 144.851C145.215 145.433 145.533 145.724 146.168 145.724V148.109C145.722 148.109 145.297 148.036 144.895 147.891C144.56 147.77 144.27 147.61 144.022 147.411C143.416 147.876 142.665 148.109 141.768 148.109H141.193V145.724H141.768C142.223 145.724 142.534 145.61 142.699 145.382C142.757 145.304 142.796 145.21 142.815 145.098C142.82 145.055 142.825 145.008 142.83 144.96V137.622H145.215V144.851ZM151.715 145.062C151.715 145.295 151.771 145.459 151.883 145.556C152.009 145.668 152.232 145.724 152.552 145.724H153.613V148.109H152.552C152.236 148.109 151.938 148.075 151.657 148.007C151.434 147.954 151.226 147.879 151.032 147.782C150.809 147.675 150.641 147.568 150.53 147.462C150.418 147.568 150.239 147.675 149.992 147.782C149.502 148 148.92 148.109 148.246 148.109H145.803V145.724H148.413C148.763 145.724 149.007 145.665 149.148 145.549C149.274 145.447 149.337 145.285 149.337 145.062V143.084H151.715V145.062ZM150.763 152.313L149.337 150.873L150.748 149.418L152.203 150.873L150.763 152.313ZM147.693 152.32L146.268 150.88L147.672 149.425L149.126 150.88L147.693 152.32ZM157.43 141.331C157.828 141.389 158.817 141.636 160.398 142.073C160.95 142.223 161.534 142.385 162.15 142.56C162.635 142.701 163.008 142.81 163.27 142.887L163.641 144.989C161.765 146.366 160.354 147.217 159.408 147.542C158.293 147.92 156.245 148.109 153.263 148.109V145.724C155.188 145.724 156.579 145.656 157.438 145.52C158.475 145.355 159.401 145.013 160.216 144.495L159.685 144.349L159.176 144.204C158.759 144.082 158.446 143.995 158.238 143.942C157.598 143.767 157.195 143.68 157.03 143.68C156.899 143.68 156.776 143.755 156.659 143.905C156.538 144.051 156.446 144.25 156.383 144.502L154.077 143.898C154.301 143.035 154.715 142.368 155.321 141.898C155.835 141.496 156.388 141.295 156.979 141.295C157.125 141.295 157.275 141.307 157.43 141.331ZM155.459 138.829L156.972 137.302L158.514 138.844L156.979 140.371L155.459 138.829ZM172.259 145.716H170.128L169.786 137.062H172.594L172.259 145.716ZM169.634 148.087L171.146 146.56L172.688 148.102L171.161 149.629L169.634 148.087ZM190.447 145.571C190.632 145.435 190.724 145.195 190.724 144.851V143.084H193.109V144.851C193.109 145.152 193.165 145.365 193.276 145.491C193.407 145.646 193.647 145.724 193.996 145.724H194.76V148.109H193.996C192.998 148.109 192.302 147.888 191.909 147.447C191.332 147.888 190.649 148.109 189.858 148.109C189.393 148.104 189.01 148.063 188.709 147.985C188.292 147.879 187.979 147.699 187.771 147.447C187.194 147.888 186.532 148.109 185.786 148.109C185.373 148.109 185 148.063 184.666 147.971C184.632 149.052 184.316 149.939 183.72 150.633C183.322 151.098 182.809 151.447 182.178 151.68C181.548 151.903 180.833 152.015 180.033 152.015H178.382C177.596 152.015 176.881 151.84 176.236 151.491C175.592 151.147 175.073 150.659 174.68 150.029C174.413 149.588 174.222 149.11 174.106 148.596C174.013 148.179 173.967 147.738 173.967 147.273C173.967 147.156 173.97 147.04 173.975 146.924C174.047 145.707 174.428 144.41 175.116 143.033L177.247 144.087C176.699 145.202 176.401 146.194 176.353 147.062C176.348 147.149 176.346 147.234 176.346 147.316C176.346 147.903 176.467 148.388 176.709 148.771C176.908 149.091 177.177 149.321 177.516 149.462C177.773 149.573 178.062 149.629 178.382 149.629H180.033C180.944 149.629 181.558 149.481 181.873 149.185C182.149 148.928 182.287 148.446 182.287 147.738V143.084H184.666V144.851C184.666 145.433 184.986 145.724 185.626 145.724C185.892 145.724 186.103 145.673 186.258 145.571C186.476 145.43 186.586 145.19 186.586 144.851V143.084H188.971V144.851C188.971 145.152 189.027 145.365 189.138 145.491C189.269 145.646 189.509 145.724 189.858 145.724C190.115 145.724 190.312 145.673 190.447 145.571ZM202.353 145.324C202.692 145.59 203.165 145.724 203.771 145.724V148.109C202.631 148.109 201.674 147.808 200.898 147.207C200.724 147.076 200.527 146.902 200.309 146.684C200.008 147.081 199.618 147.404 199.138 147.651C198.551 147.956 197.909 148.109 197.211 148.109H194.396V145.724H197.211C197.487 145.724 197.749 145.668 197.996 145.556C198.244 145.44 198.406 145.299 198.484 145.135C198.522 145.057 198.542 144.967 198.542 144.865C198.542 144.618 198.418 144.308 198.171 143.935L197.924 143.607C197.599 143.205 197.174 142.672 196.651 142.007C196.462 141.77 196.292 141.554 196.142 141.36C196.006 141.185 195.936 141.096 195.931 141.091L196.345 139.287L202.651 136.24L203.691 138.385L198.724 140.785C198.966 141.086 199.713 142.058 200.964 143.702C201.594 144.555 202.057 145.096 202.353 145.324ZM196.462 137.062L201.8 134.691L202.178 135.505L196.367 138.095L196.462 137.062ZM209.725 144.415C209.763 144.647 209.783 144.87 209.783 145.084C209.783 145.743 209.594 146.335 209.216 146.858C208.61 147.692 207.623 148.109 206.256 148.109H203.412V145.724H206.205C206.641 145.724 206.949 145.665 207.128 145.549C207.313 145.438 207.405 145.261 207.405 145.018C207.405 144.945 207.395 144.865 207.376 144.778C207.327 144.531 207.279 144.279 207.23 144.022C207.211 143.925 207.191 143.821 207.172 143.709L207.143 143.571L207.121 143.433C207.048 143.035 206.993 142.752 206.954 142.582L209.23 141.891C209.376 142.575 209.54 143.416 209.725 144.415ZM208.03 152.269L206.605 150.829L208.016 149.375L209.47 150.829L208.03 152.269ZM204.961 152.276L203.536 150.836L204.939 149.382L206.394 150.836L204.961 152.276ZM214.844 139.745L214.975 139.935C215.004 139.978 215.031 140.015 215.055 140.044C215.089 140.092 215.121 140.141 215.15 140.189C215.232 140.305 215.32 140.427 215.412 140.553C215.649 140.897 215.914 141.278 216.204 141.695C216.583 142.228 216.995 142.812 217.441 143.447C217.79 143.952 217.989 144.478 218.037 145.025C218.047 145.122 218.052 145.219 218.052 145.316C218.052 145.772 217.948 146.204 217.739 146.611C217.482 147.101 217.114 147.481 216.634 147.753C216.149 148.029 215.606 148.167 215.004 148.167C214.306 148.167 213.397 148.022 212.277 147.731C211.943 147.644 211.606 147.547 211.266 147.44C211.16 147.411 211.058 147.379 210.961 147.345C210.927 147.336 210.898 147.328 210.874 147.324L210.852 147.309H210.837L211.601 145.047C211.785 145.11 212.001 145.178 212.248 145.251C212.554 145.338 212.854 145.418 213.15 145.491C213.945 145.685 214.563 145.782 215.004 145.782C215.32 145.782 215.526 145.692 215.623 145.513C215.657 145.445 215.674 145.372 215.674 145.295C215.674 145.154 215.613 144.996 215.492 144.822C215.046 144.187 214.634 143.6 214.255 143.062C213.969 142.655 213.703 142.274 213.455 141.92C213.068 141.372 212.874 141.096 212.874 141.091L214.844 139.745ZM229.054 143.076V145.062C229.054 145.27 229.161 145.438 229.374 145.564C229.544 145.67 229.716 145.724 229.891 145.724H230.225V148.109H229.891C229.609 148.109 229.311 148.063 228.996 147.971C228.855 149.042 228.494 149.905 227.912 150.56C227.064 151.525 225.823 152.007 224.189 152.007H223.469V149.622H224.189C225.081 149.622 225.716 149.421 226.094 149.018C226.477 148.616 226.669 147.942 226.669 146.996V143.076H229.054ZM226.363 140.138L227.876 138.611L229.418 140.153L227.883 141.68L226.363 140.138ZM235.778 145.062C235.778 145.295 235.834 145.459 235.945 145.556C236.071 145.668 236.294 145.724 236.614 145.724H237.676V148.109H236.614C236.299 148.109 236.001 148.075 235.72 148.007C235.497 147.954 235.288 147.879 235.094 147.782C234.871 147.675 234.704 147.568 234.592 147.462C234.481 147.568 234.301 147.675 234.054 147.782C233.564 148 232.983 148.109 232.309 148.109H229.865V145.724H232.476C232.825 145.724 233.07 145.665 233.211 145.549C233.337 145.447 233.4 145.285 233.4 145.062V143.084H235.778V145.062ZM234.825 152.313L233.4 150.873L234.811 149.418L236.265 150.873L234.825 152.313ZM231.756 152.32L230.331 150.88L231.734 149.425L233.189 150.88L231.756 152.32ZM241.493 141.331C241.89 141.389 242.879 141.636 244.46 142.073C245.013 142.223 245.597 142.385 246.213 142.56C246.698 142.701 247.071 142.81 247.333 142.887L247.704 144.989C245.827 146.366 244.416 147.217 243.471 147.542C242.356 147.92 240.307 148.109 237.325 148.109V145.724C239.25 145.724 240.642 145.656 241.5 145.52C242.538 145.355 243.464 145.013 244.278 144.495L243.747 144.349L243.238 144.204C242.821 144.082 242.508 143.995 242.3 143.942C241.66 143.767 241.258 143.68 241.093 143.68C240.962 143.68 240.838 143.755 240.722 143.905C240.601 144.051 240.508 144.25 240.445 144.502L238.14 143.898C238.363 143.035 238.778 142.368 239.384 141.898C239.898 141.496 240.45 141.295 241.042 141.295C241.187 141.295 241.338 141.307 241.493 141.331ZM240.904 152.218L239.464 150.807L240.904 149.324L242.344 150.807L240.904 152.218ZM244.038 152.247L242.584 150.807L244.06 149.367L245.485 150.807L244.038 152.247ZM242.504 153.927L241.238 152.662L242.489 151.411L243.755 152.676L242.504 153.927ZM257.587 144.989C257.849 144.776 257.98 144.495 257.98 144.145V144.109C257.975 143.964 257.946 143.77 257.892 143.527C257.878 143.455 257.854 143.343 257.82 143.193L257.776 143.004L257.732 142.807C256.961 143.074 256.452 143.331 256.205 143.578C255.977 143.806 255.863 144.056 255.863 144.327V144.378C255.878 144.664 256.004 144.897 256.241 145.076C256.392 145.188 256.586 145.244 256.823 145.244C257.119 145.244 257.374 145.159 257.587 144.989ZM260.074 142.385C260.113 142.55 260.161 142.761 260.22 143.018L260.292 143.316L260.358 143.6C260.46 144.036 260.557 144.429 260.649 144.778C260.755 145.171 260.947 145.425 261.223 145.542C261.388 145.615 261.599 145.665 261.856 145.695C262.031 145.714 262.263 145.724 262.554 145.724V148.109C262.118 148.109 261.742 148.087 261.427 148.044C260.991 147.985 260.598 147.879 260.249 147.724C259.783 147.51 259.395 147.219 259.085 146.851L258.998 146.749C258.751 146.967 258.469 147.142 258.154 147.273C257.752 147.433 257.325 147.513 256.874 147.513L256.801 147.505H256.721C256.169 147.481 255.667 147.348 255.216 147.105C254.372 146.664 253.854 145.971 253.66 145.025C253.606 144.773 253.58 144.524 253.58 144.276C253.58 143.952 253.626 143.634 253.718 143.324C253.897 142.776 254.21 142.288 254.656 141.862C255.146 141.392 255.997 140.962 257.209 140.575L257.071 139.935L259.398 139.404C259.674 140.616 259.9 141.61 260.074 142.385ZM268.506 144.415C268.545 144.647 268.564 144.87 268.564 145.084C268.564 145.743 268.375 146.335 267.997 146.858C267.391 147.692 266.404 148.109 265.037 148.109H262.193V145.724H264.986C265.422 145.724 265.73 145.665 265.91 145.549C266.094 145.438 266.186 145.261 266.186 145.018C266.186 144.945 266.176 144.865 266.157 144.778C266.108 144.531 266.06 144.279 266.011 144.022C265.992 143.925 265.973 143.821 265.953 143.709L265.924 143.571L265.902 143.433C265.83 143.035 265.774 142.752 265.735 142.582L268.011 141.891C268.157 142.575 268.322 143.416 268.506 144.415ZM266.811 152.269L265.386 150.829L266.797 149.375L268.251 150.829L266.811 152.269ZM263.742 152.276L262.317 150.836L263.72 149.382L265.175 150.836L263.742 152.276ZM285.234 144.989C285.234 145.217 285.311 145.396 285.466 145.527C285.617 145.658 285.816 145.724 286.063 145.724H286.608V148.109H285.845L285.619 148.095C285.454 148.08 285.321 148.051 285.219 148.007C285.161 149.103 284.851 149.978 284.288 150.633C283.891 151.088 283.374 151.435 282.739 151.673C282.133 151.896 281.418 152.007 280.594 152.007H279.496C278.662 152.007 277.91 151.855 277.241 151.549C276.48 151.2 275.886 150.693 275.459 150.029C274.999 149.292 274.768 148.436 274.768 147.462C274.768 147.341 274.771 147.219 274.776 147.098C274.834 145.968 275.18 144.715 275.816 143.338L277.983 144.335C277.474 145.43 277.197 146.393 277.154 147.222C277.149 147.304 277.146 147.387 277.146 147.469C277.146 147.988 277.256 148.412 277.474 148.742C277.687 149.081 278.017 149.324 278.463 149.469C278.632 149.527 278.817 149.568 279.016 149.593C279.171 149.612 279.331 149.622 279.496 149.622H280.594C281.5 149.622 282.116 149.455 282.441 149.12C282.717 148.834 282.856 148.332 282.856 147.615V143.084H285.234V144.989ZM278.826 142.538L280.339 141.011L281.881 142.553L280.346 144.08L278.826 142.538ZM292.553 144.415C292.592 144.647 292.611 144.87 292.611 145.084C292.611 145.743 292.422 146.335 292.044 146.858C291.438 147.692 290.451 148.109 289.084 148.109H286.24V145.724H289.033C289.469 145.724 289.777 145.665 289.956 145.549C290.141 145.438 290.233 145.261 290.233 145.018C290.233 144.945 290.223 144.865 290.204 144.778C290.155 144.531 290.107 144.279 290.058 144.022C290.039 143.925 290.019 143.821 290 143.709L289.971 143.571L289.949 143.433C289.876 143.035 289.821 142.752 289.782 142.582L292.058 141.891C292.204 142.575 292.369 143.416 292.553 144.415ZM290.858 152.269L289.433 150.829L290.844 149.375L292.298 150.829L290.858 152.269ZM287.789 152.276L286.364 150.836L287.767 149.382L289.222 150.836L287.789 152.276ZM296.269 148.109H293.884V137.622H296.269V148.109Z" fill="#CE1340"/>
<path d="M444.916 108.426C448.506 107.182 451.614 104.842 453.801 101.735C449.685 99.7386 446.067 96.8486 443.209 93.276C440.006 89.3459 437.67 84.7835 436.353 79.8876L435.001 79.679C433.481 79.425 432.053 78.7813 430.856 77.8105C430.647 77.6408 430.445 77.464 430.251 77.2803C429.192 79.2494 428.514 81.4007 428.254 83.6212C428.095 84.9527 428.029 86.2937 428.056 87.6344C428.105 90.8174 428.907 94.0747 429.067 97.2576C429.215 100.441 427.896 104.08 424.873 105.104C423.496 107.322 435.004 111.947 444.916 108.426Z" fill="#C85700"/>
<path d="M428.887 76.4851C427.473 79.1995 426.667 82.1895 426.525 85.2471C426.318 88.6314 426.932 91.8999 427.315 95.2473C427.588 97.6309 427.694 100.285 426.142 102.301C425.882 102.641 425.57 102.939 425.217 103.184C424.631 103.585 423.888 103.679 423.497 104.328C423.341 104.601 423.241 104.902 423.202 105.213C423.164 105.525 423.187 105.841 423.272 106.144C423.549 107.222 424.563 108.009 425.461 108.562C426.681 109.274 427.989 109.824 429.352 110.196C433.052 111.269 436.937 111.553 440.754 111.028C445.847 110.426 450.539 107.968 453.934 104.124C454.22 103.822 454.379 103.423 454.379 103.007C454.379 102.592 454.22 102.192 453.934 101.891C453.636 101.597 453.234 101.432 452.815 101.432C452.397 101.432 451.995 101.597 451.697 101.891C450.058 103.746 448.062 105.25 445.827 106.314C443.592 107.378 441.165 107.978 438.692 108.08C436.557 108.217 434.414 108.08 432.314 107.672C431.368 107.487 430.436 107.243 429.521 106.942C429.148 106.819 428.781 106.679 428.416 106.537C428.04 106.388 428.626 106.632 428.4 106.53C428.311 106.49 428.221 106.45 428.132 106.409C427.963 106.33 427.796 106.249 427.631 106.163C427.308 105.994 427.009 105.797 426.7 105.606C426.35 105.39 426.911 105.832 426.59 105.522C426.497 105.432 426.399 105.324 426.3 105.243C426.03 105.024 426.476 105.546 426.313 105.264C426.095 104.887 426.394 105.607 426.313 105.304C426.232 105.001 426.324 105.757 426.336 105.448C426.316 105.967 426.263 105.853 426.306 105.711C426.346 105.583 426.081 106.159 426.232 105.899L425.288 106.623C426.37 106.213 427.349 105.568 428.152 104.735C428.956 103.902 429.566 102.902 429.937 101.805C430.866 99.377 430.683 96.8348 430.354 94.3111C429.637 88.8215 428.878 83.1734 431.611 78.0759C432.571 76.2851 429.846 74.6884 428.884 76.4825L428.887 76.4851Z" fill="#211715"/>
<path d="M531.996 225.876C537.298 224.512 538 225.263 543.695 221.088C548.522 217.549 555.097 214.483 557.972 208.972C559.273 206.279 559.81 203.28 559.524 200.303C559.087 192.989 557.712 185.761 555.432 178.798C552.956 171.459 548.458 163.895 545.787 156.626C543.833 151.308 541.894 145.984 540.089 140.614C538.123 134.768 535.944 128.725 531.536 124.412C529.105 122.035 526.133 120.324 523.105 118.749C520.726 117.345 518.532 116.147 516.753 115.197C518.019 113.437 518.727 111.336 518.784 109.168C518.718 104.963 515.171 101.463 511.209 100.054C509.918 99.5932 508.566 99.3017 507.327 98.7214C504.696 97.4892 501.647 93.6878 497.59 92.3055L442.341 91.6943C438.234 93.0884 434.946 96.9306 432.313 98.1622C431.073 98.7425 429.72 99.0353 428.432 99.4938C424.469 100.904 420.923 104.404 420.857 108.608C420.82 111.005 421.892 113.27 423.3 115.235C421.535 116.175 419.366 117.361 417.017 118.747C413.991 120.322 411.016 122.033 408.586 124.41C404.178 128.723 402 134.766 400.033 140.612C398.227 145.982 396.288 151.306 394.334 156.624C391.665 163.894 387.163 171.458 384.69 178.796C382.408 185.76 381.031 192.988 380.592 200.302C380.306 203.28 380.843 206.278 382.145 208.972C385.017 214.483 391.592 217.549 396.421 221.087C402.117 225.262 402.819 224.511 408.121 225.876L531.996 225.876Z" fill="#ED2555"/>
<path d="M504.763 58.0453C505.338 57.5465 506.014 57.1777 506.744 56.964C507.475 56.7503 508.243 56.6968 508.996 56.8071C509.735 56.9114 510.441 57.18 511.062 57.593C511.683 58.0061 512.204 58.5532 512.586 59.194C513.029 60.0786 513.281 61.0465 513.325 62.0349C513.648 65.9006 512.902 69.7807 511.168 73.2509C510.351 75.0049 509.165 76.5619 507.69 77.8154C506.494 78.7861 505.066 79.4299 503.546 79.6839L502.836 79.7937C502.496 81.0675 502.112 82.1398 501.925 82.7096C500.754 85.8899 494.355 96.6664 486.201 101.08C486.81 103.76 486.346 106.962 490.163 108.34C490.409 108.429 497.368 110.463 500.848 111.602C499.365 114.544 493.874 117.754 489.077 119.233C489.077 119.233 482.883 121.247 469.844 121.247C456.805 121.247 449.872 118.599 449.872 118.599C445.304 117.187 440.117 114.388 438.271 111.757C438.897 111.559 439.335 111.418 439.335 111.418C442.947 110.258 449.232 108.421 449.466 108.336C453.077 107.032 452.857 104.096 453.337 101.515C449.417 99.5156 445.966 96.7077 443.211 93.2762C440.007 89.3465 437.67 84.784 436.353 79.8878L435.001 79.6793C433.481 79.4253 432.053 78.7815 430.856 77.8108C429.382 76.5573 428.196 75.0003 427.378 73.2463C425.645 69.7761 424.898 65.896 425.221 62.0303C425.266 61.042 425.517 60.0741 425.96 59.1894C426.342 58.5486 426.863 58.0016 427.485 57.5885C428.106 57.1755 428.812 56.9069 429.551 56.8025C430.304 56.693 431.072 56.7473 431.802 56.9618C432.532 57.1763 433.208 57.5459 433.782 58.0453C433.782 58.0453 433.745 24.2236 470.003 24.2236C506.261 24.2236 504.763 58.0453 504.763 58.0453Z" fill="white"/>
<path d="M515.855 146.476C516.381 153.648 515.685 162.665 508.605 166.531C506.821 167.505 508.413 170.233 510.198 169.258C518.285 164.842 519.625 154.806 519.014 146.476C519.004 146.061 518.835 145.665 518.541 145.371C518.247 145.077 517.851 144.907 517.435 144.897C517.018 144.901 516.618 145.069 516.323 145.364C516.027 145.659 515.86 146.059 515.856 146.476H515.855Z" fill="#211715"/>
<path d="M406.412 191.793C404.713 192.708 402.999 193.593 401.295 194.498C400.936 194.712 400.676 195.058 400.57 195.462C400.464 195.866 400.521 196.296 400.729 196.658C400.946 197.013 401.292 197.27 401.695 197.376C402.098 197.481 402.525 197.427 402.889 197.225C404.593 196.32 406.31 195.435 408.006 194.52C408.365 194.306 408.626 193.96 408.731 193.556C408.837 193.152 408.78 192.722 408.573 192.36C408.355 192.005 408.009 191.748 407.606 191.642C407.204 191.537 406.776 191.591 406.412 191.793Z" fill="#211715"/>
<path d="M532.417 227.399C535.422 226.634 538.41 226.267 541.142 224.693C542.98 223.634 544.639 222.302 546.4 221.124C548.116 219.976 549.872 218.887 551.565 217.703C555.061 215.259 558.336 212.391 559.977 208.352C561.913 203.586 561.045 198.183 560.372 193.244C559.698 188.096 558.522 183.026 556.861 178.107C555.19 173.246 552.86 168.641 550.674 164.001C548.478 159.343 546.693 154.569 544.95 149.728C543.228 144.955 541.722 140.094 539.899 135.36C538.254 131.083 536.186 126.882 532.939 123.579C529.474 120.054 524.863 117.865 520.595 115.49C519.635 114.956 518.67 114.43 517.701 113.911C515.908 112.953 514.312 115.678 516.107 116.638C518.197 117.756 520.236 118.961 522.309 120.109C524.326 121.15 526.275 122.314 528.147 123.596C531.711 126.19 534.095 129.854 535.875 133.828C537.794 138.11 539.099 142.673 540.661 147.091C542.368 151.916 544.022 156.792 546.071 161.484C548.049 166.013 550.352 170.394 552.278 174.946C554.13 179.394 555.524 184.019 556.438 188.749C556.934 191.239 557.318 193.747 557.59 196.275C557.936 198.657 558.048 201.067 557.924 203.471C557.545 207.735 555.139 210.934 551.905 213.537C550.204 214.849 548.437 216.074 546.611 217.207C544.637 218.489 542.763 219.905 540.797 221.188C540.049 221.688 539.269 222.139 538.463 222.538C537.876 222.813 537.265 223.034 536.637 223.196C534.97 223.651 533.254 223.92 531.579 224.345C529.611 224.846 530.445 227.892 532.419 227.39L532.417 227.399Z" fill="#211715"/>
<path d="M421.099 146.476C420.488 154.807 421.828 164.842 429.915 169.258C431.7 170.232 433.295 167.506 431.509 166.531C424.429 162.665 423.731 153.647 424.257 146.476C424.254 146.059 424.086 145.659 423.791 145.364C423.496 145.069 423.096 144.901 422.678 144.897C422.262 144.905 421.865 145.074 421.57 145.369C421.276 145.663 421.107 146.06 421.099 146.476Z" fill="#211715"/>
<path d="M408.538 224.353C405.683 223.626 402.874 223.31 400.479 221.914C398.676 220.861 397.042 219.556 395.31 218.397C393.696 217.316 392.046 216.291 390.447 215.185C387.332 213.035 384.138 210.416 382.881 206.706C382.204 204.538 381.969 202.256 382.19 199.995C382.371 197.455 382.642 194.919 383.032 192.403C383.767 187.445 384.993 182.572 386.691 177.856C388.343 173.366 390.537 169.098 392.56 164.77C394.702 160.185 396.446 155.473 398.163 150.717C399.843 146.063 401.332 141.334 403.075 136.704C404.778 132.181 407.017 127.766 410.742 124.573C412.692 122.991 414.81 121.627 417.058 120.508C419.394 119.267 421.663 117.898 423.998 116.649C425.791 115.69 424.196 112.965 422.404 113.922C420.278 115.059 418.21 116.297 416.093 117.45C413.989 118.525 411.966 119.753 410.041 121.124C406.329 124.005 403.415 127.787 401.574 132.111C399.553 136.588 398.153 141.322 396.522 145.949C394.792 150.849 393.137 155.817 391.023 160.572C388.938 165.257 386.571 169.811 384.612 174.551C382.664 179.344 381.234 184.332 380.347 189.428C379.882 192.003 379.531 194.6 379.273 197.204C378.933 199.755 378.91 202.339 379.207 204.896C379.872 209.382 382.513 212.989 385.976 215.776C389.225 218.394 392.863 220.488 396.254 222.911C397.782 224.057 399.441 225.016 401.197 225.768C402.458 226.225 403.756 226.569 405.078 226.797C405.954 226.98 406.827 227.178 407.695 227.399C409.665 227.901 410.506 224.856 408.534 224.354L408.538 224.353Z" fill="#211715"/>
<path d="M531.576 193.989C532.653 194.27 533.713 194.614 534.75 195.019C534.878 195.069 535.006 195.122 535.134 195.174C535.332 195.253 534.849 195.048 535.04 195.135L535.227 195.217C535.47 195.325 535.711 195.439 535.951 195.557C536.406 195.784 536.845 196.04 537.267 196.323C537.629 196.532 538.059 196.589 538.463 196.483C538.867 196.377 539.214 196.116 539.427 195.757C539.629 195.393 539.682 194.965 539.577 194.563C539.471 194.161 539.215 193.814 538.861 193.596C537.864 192.955 536.801 192.423 535.69 192.011C534.622 191.589 533.529 191.232 532.417 190.942C532.013 190.83 531.582 190.884 531.218 191.091C530.853 191.298 530.586 191.641 530.475 192.045C530.363 192.448 530.417 192.88 530.624 193.244C530.831 193.608 531.174 193.876 531.578 193.987L531.576 193.989Z" fill="#211715"/>
<path d="M436.6 112.058C437.993 114.521 440.718 116.199 443.145 117.488C445.238 118.566 447.415 119.47 449.655 120.193C452.777 121.172 455.987 121.84 459.24 122.187C465.876 122.983 472.577 123.068 479.231 122.438C482.587 122.22 485.915 121.689 489.172 120.852C491.472 120.178 493.687 119.24 495.771 118.057C498.457 116.557 501.433 114.537 502.574 111.547C502.682 111.144 502.627 110.714 502.421 110.35C502.214 109.987 501.873 109.719 501.471 109.605C501.068 109.503 500.64 109.56 500.278 109.766C499.916 109.971 499.648 110.309 499.529 110.708C499.594 110.537 499.391 110.979 499.331 111.079C499.211 111.287 499.077 111.487 498.93 111.677C498.546 112.138 498.123 112.565 497.665 112.954C496.588 113.866 495.418 114.662 494.174 115.33C492.38 116.347 490.478 117.162 488.503 117.757C485.902 118.465 483.241 118.932 480.555 119.153C474.254 119.824 467.902 119.87 461.592 119.29C458.011 119.004 454.47 118.344 451.026 117.323C449.426 116.837 447.86 116.247 446.337 115.557C443.883 114.416 440.656 112.82 439.325 110.464C438.325 108.695 435.595 110.285 436.598 112.058H436.6Z" fill="#211715"/>
<path d="M469.82 160.986C443.842 161.174 417.989 161.325 408.81 161.357C408.463 161.357 408.119 161.427 407.799 161.56C407.479 161.694 407.188 161.89 406.944 162.136C406.699 162.382 406.506 162.674 406.375 162.995C406.243 163.317 406.176 163.66 406.178 164.007C406.231 178.922 406.951 230.536 407.499 249.508C407.519 250.203 407.812 250.862 408.315 251.343C408.818 251.823 409.491 252.086 410.186 252.074C418.482 251.946 444.176 252.025 469.82 252.112C495.463 252.025 521.157 251.946 529.453 252.074C530.148 252.086 530.821 251.823 531.324 251.343C531.827 250.863 532.121 250.203 532.141 249.508C532.689 230.536 533.408 178.922 533.461 164.007C533.463 163.66 533.396 163.317 533.265 162.995C533.134 162.674 532.94 162.382 532.696 162.136C532.451 161.89 532.161 161.694 531.84 161.56C531.52 161.427 531.177 161.357 530.83 161.357C521.651 161.325 495.799 161.174 469.82 160.986Z" fill="#303030"/>
<path d="M469.82 159.408C451.665 159.539 433.51 159.653 415.354 159.75L411.182 159.769C409.928 159.774 408.497 159.606 407.312 160.067C405.413 160.807 404.593 162.55 404.601 164.495C404.605 165.385 404.61 166.274 404.617 167.164C404.652 172.286 404.702 177.408 404.769 182.529C404.931 196.18 405.13 209.831 405.368 223.481C405.474 229.588 405.594 235.694 405.726 241.8C405.779 244.125 405.837 246.447 405.899 248.767C405.956 250.799 406.643 252.616 408.692 253.388C409.835 253.818 411.192 253.637 412.391 253.627C429.028 253.477 445.669 253.611 462.306 253.666C481.254 253.732 500.207 253.556 519.157 253.59C521.945 253.595 524.734 253.602 527.523 253.629C528.87 253.642 530.286 253.81 531.519 253.137C533.296 252.168 533.696 250.44 533.747 248.577C533.892 243.356 533.998 238.134 534.1 232.913C534.365 219.229 534.585 205.544 534.758 191.86C534.837 185.84 534.908 179.821 534.97 173.803C534.993 171.509 535.013 169.216 535.029 166.922C535.035 166.047 535.046 165.172 535.044 164.297C535.09 163.323 534.807 162.362 534.241 161.568C533.675 160.774 532.858 160.194 531.921 159.922C530.756 159.602 529.367 159.773 528.164 159.768C526.748 159.761 525.332 159.755 523.916 159.748C520.386 159.731 516.855 159.712 513.324 159.691C503.926 159.637 494.529 159.579 485.133 159.515C480.029 159.48 474.924 159.445 469.82 159.408C467.788 159.393 467.787 162.551 469.821 162.566C487.724 162.697 505.628 162.81 523.532 162.904L527.546 162.923C528.627 162.928 529.753 162.843 530.83 162.936C532.026 163.039 531.882 164.2 531.877 165.112C531.872 166.003 531.867 166.895 531.86 167.786C531.823 172.889 531.772 177.993 531.706 183.096C531.547 196.419 531.352 209.741 531.121 223.063C531.017 229.062 530.9 235.062 530.772 241.061C530.719 243.416 530.662 245.771 530.6 248.127C530.577 248.961 530.782 250.29 529.679 250.488C529.178 250.53 528.675 250.526 528.175 250.478C527.628 250.472 527.081 250.467 526.533 250.463C510.134 250.336 493.732 250.454 477.333 250.508C458.74 250.569 440.145 250.405 421.552 250.431C418.639 250.434 415.726 250.441 412.814 250.465C411.859 250.562 410.897 250.566 409.941 250.478C408.796 250.248 409.055 248.738 409.031 247.864C408.89 242.624 408.784 237.385 408.683 232.145C408.426 218.786 408.214 205.427 408.046 192.067C407.968 186.192 407.898 180.318 407.837 174.444C407.814 172.141 407.793 169.838 407.776 167.536C407.77 166.659 407.764 165.782 407.76 164.905C407.755 163.863 407.764 162.953 409.044 162.937C424.303 162.751 439.571 162.776 454.828 162.674C459.824 162.64 464.821 162.606 469.819 162.57C471.852 162.551 471.856 159.393 469.82 159.408Z" fill="#211715"/>
<path d="M418.709 242.452C431.298 242.373 443.887 242.44 456.473 242.479C471.841 242.527 487.208 242.454 502.575 242.432C508.694 242.423 514.812 242.413 520.931 242.452C522.963 242.464 522.966 239.306 520.931 239.294C508.342 239.215 495.753 239.282 483.167 239.321C467.799 239.369 452.432 239.296 437.064 239.274C430.946 239.265 424.827 239.255 418.709 239.294C416.677 239.306 416.673 242.464 418.709 242.452Z" fill="white"/>
<path d="M469.82 195.764C467.923 195.782 466.025 195.807 464.128 195.809C463.711 195.815 463.312 195.983 463.017 196.278C462.722 196.573 462.554 196.972 462.548 197.389C462.54 199.38 462.537 201.37 462.54 203.36C462.54 204.529 462.543 205.699 462.554 206.868C462.557 207.288 462.554 207.71 462.571 208.13C462.56 208.364 462.599 208.599 462.685 208.818C462.771 209.036 462.903 209.234 463.071 209.398C463.24 209.563 463.441 209.689 463.662 209.77C463.882 209.851 464.118 209.884 464.352 209.868C467.762 209.868 471.173 209.844 474.584 209.86C475.157 209.945 475.742 209.877 476.281 209.663C477.053 209.211 477.066 208.393 477.076 207.61C477.091 206.516 477.095 205.421 477.097 204.326C477.102 202.014 477.1 199.703 477.091 197.391C477.084 196.974 476.916 196.576 476.621 196.282C476.326 195.987 475.928 195.818 475.512 195.812C473.614 195.812 471.716 195.785 469.819 195.767C469.4 195.767 468.998 195.934 468.702 196.23C468.406 196.526 468.24 196.928 468.24 197.346C468.24 197.765 468.406 198.167 468.702 198.463C468.998 198.759 469.4 198.925 469.819 198.925C471.716 198.943 473.614 198.968 475.512 198.97L473.933 197.391C473.946 201.025 473.998 204.666 473.906 208.299L474.121 207.502L475.484 206.72C474.858 206.662 474.213 206.702 473.586 206.702C472.33 206.702 471.075 206.715 469.819 206.715C468.593 206.715 467.367 206.703 466.141 206.703C465.483 206.703 464.809 206.66 464.154 206.72L465.517 207.502L465.733 208.299C465.643 204.666 465.692 201.025 465.706 197.391L464.127 198.97C466.025 198.97 467.921 198.943 469.819 198.925C470.238 198.925 470.64 198.759 470.936 198.463C471.232 198.167 471.398 197.765 471.398 197.346C471.398 196.928 471.232 196.526 470.936 196.23C470.64 195.934 470.238 195.767 469.819 195.767L469.82 195.764Z" fill="white"/>
<path d="M445.549 126.067C442.03 125.787 438.518 124.422 435.38 122.821C431.971 121.163 428.864 118.946 426.188 116.261C423.718 113.674 421.392 109.879 422.939 106.245C423.652 104.676 424.79 103.339 426.225 102.385C427.998 101.171 429.939 100.765 431.919 100.025C435.883 98.5431 438.502 94.8332 442.469 93.3194C442.866 93.1979 443.202 92.9288 443.407 92.5675C443.612 92.2061 443.671 91.78 443.572 91.3766C443.458 90.9745 443.19 90.6335 442.827 90.4271C442.463 90.2208 442.033 90.1658 441.63 90.2739C439.499 91.1525 437.512 92.3442 435.733 93.8095C434.371 94.8622 433.026 96.1326 431.434 96.8359C430.298 97.3392 429.057 97.5826 427.892 98.0102C426.895 98.3692 425.937 98.8323 425.036 99.3918C423.167 100.533 421.616 102.127 420.525 104.026C415.711 112.791 425.532 120.966 432.329 124.768C436.377 127.032 440.889 128.854 445.549 129.224C445.967 129.221 446.367 129.053 446.662 128.758C446.958 128.462 447.125 128.063 447.128 127.645C447.12 127.229 446.951 126.832 446.657 126.537C446.363 126.243 445.966 126.075 445.549 126.067Z" fill="#211715"/>
<path d="M439.756 112.942C442.998 111.904 446.27 110.956 449.525 109.972C451.181 109.534 452.613 108.492 453.538 107.051C454.447 105.538 454.548 103.785 454.836 102.092C454.935 101.688 454.875 101.262 454.67 100.901C454.465 100.541 454.129 100.272 453.732 100.151C453.328 100.043 452.898 100.098 452.535 100.304C452.171 100.511 451.904 100.852 451.79 101.254C451.658 102.043 451.572 102.837 451.422 103.622C451.356 103.985 451.268 104.343 451.159 104.695C451.14 104.752 450.92 105.282 451.034 105.045C450.968 105.186 450.893 105.326 450.812 105.46C450.441 106.037 449.9 106.484 449.263 106.738C448.97 106.851 448.67 106.947 448.366 107.026C445.213 107.97 442.054 108.896 438.919 109.901C436.991 110.519 437.815 113.569 439.758 112.946L439.756 112.942Z" fill="#211715"/>
<path d="M500.716 109.898C497.663 108.919 494.586 108.014 491.513 107.097C490.577 106.909 489.717 106.449 489.041 105.776C488.824 105.528 489.055 105.827 488.897 105.578C488.784 105.401 488.682 105.215 488.592 105.024C488.707 105.271 488.535 104.871 488.517 104.818C488.451 104.621 488.391 104.416 488.339 104.212C488.175 103.481 488.048 102.741 487.96 101.997C487.846 101.594 487.579 101.253 487.215 101.046C486.852 100.84 486.421 100.785 486.018 100.894C485.62 101.015 485.285 101.283 485.08 101.644C484.875 102.005 484.816 102.431 484.916 102.834C485.168 104.601 485.46 106.317 486.602 107.754C487.571 108.875 488.863 109.67 490.3 110.03C493.496 110.988 496.7 111.925 499.878 112.943C501.818 113.565 502.648 110.517 500.717 109.898H500.716Z" fill="#211715"/>
<path d="M497.167 93.8285C500.44 94.9877 502.724 97.7154 505.579 99.5523C507.244 100.624 509.19 100.956 511.011 101.658C512.561 102.261 513.958 103.203 515.098 104.414C516.184 105.519 516.903 106.932 517.158 108.46C517.421 110.385 516.694 112.266 515.714 113.883C513.662 117.268 510.371 119.653 506.948 121.521C504.777 122.705 502.519 123.797 500.249 124.788C498.307 125.728 496.225 126.349 494.084 126.625C493.669 126.635 493.273 126.805 492.979 127.099C492.685 127.393 492.516 127.789 492.505 128.204C492.508 128.622 492.676 129.022 492.971 129.317C493.267 129.613 493.666 129.78 494.084 129.783C498.76 129.388 503.112 127.002 507.232 124.93C511.223 122.924 515.02 120.309 517.659 116.651C520.278 113.021 521.347 108.427 518.994 104.385C517.945 102.647 516.51 101.175 514.799 100.083C512.952 98.8674 510.886 98.3635 508.829 97.6358C507.047 97.0049 505.65 95.691 504.198 94.5279C502.362 92.9374 500.268 91.6709 498.007 90.7824C497.603 90.6711 497.171 90.7247 496.807 90.9315C496.443 91.1383 496.176 91.4813 496.065 91.885C495.953 92.2888 496.007 92.7203 496.214 93.0845C496.42 93.4487 496.763 93.7159 497.167 93.8272V93.8285Z" fill="#211715"/>
<path d="M486.603 35.3761C487.857 39.5433 489.806 44.9019 491.253 47.2974C493.226 50.5619 498.583 57.6923 503.696 59.6292C504.411 57.6107 506.813 56.4778 508.996 56.8041C509.219 56.8367 509.438 56.8864 509.654 56.9528C512.633 50.0987 511.129 38.5123 509.939 32.7339C506.263 14.8316 488.097 0.62084 469.046 1.66165C449.996 0.62084 431.83 14.8316 428.152 32.7339C427.156 37.5623 427.275 45.823 428.181 49.6777L429.607 56.8002C430.583 56.6496 431.582 56.7908 432.479 57.2059C433.375 57.6211 434.129 58.2917 434.646 59.1338C441.837 53.6916 454.449 45.8348 460.695 40.6466C460.151 43.9098 458.218 49.4625 460.653 48.8902C470.877 46.6013 480.673 41.9716 486.554 34.7405" fill="#C85700"/>
<path d="M429.704 49.2582C429.273 47.1344 429.054 44.9731 429.052 42.8061C428.97 40.2451 429.072 37.6815 429.355 35.1349C429.978 30.5015 431.586 26.0553 434.071 22.0952C439.201 13.7916 447.176 7.63765 456.509 4.78103C458.814 4.07146 461.183 3.59278 463.583 3.35205C466.107 3.11192 468.663 3.1731 471.194 3.1856C476.096 3.22891 480.941 4.24297 485.448 6.16921C494.412 9.9522 501.691 16.8696 505.927 25.6288C507.711 29.6695 508.843 33.9674 509.282 38.3626C509.891 43.2166 510.228 48.3628 509.179 53.1832C508.94 54.3089 508.597 55.41 508.155 56.4728C508.046 56.8768 508.101 57.3076 508.307 57.6714C508.514 58.0353 508.856 58.303 509.259 58.4162C509.662 58.5166 510.089 58.4581 510.45 58.2529C510.812 58.0477 511.081 57.7114 511.201 57.3136C513.21 52.5365 513.181 46.9279 512.793 41.8468C512.431 37.0974 511.772 32.1927 510.162 27.6887C506.655 17.8596 499.152 9.65743 489.945 4.82839C485.254 2.35471 480.136 0.794157 474.862 0.229625C472.253 0.0234934 469.635 -0.0439274 467.018 0.0276478C464.352 0.0391707 461.694 0.32021 459.084 0.866479C448.76 3.10988 439.607 9.03744 433.337 17.5405C430.271 21.6464 428.066 26.3288 426.853 31.3072C425.752 36.407 425.514 41.6553 426.149 46.8338C426.254 47.9302 426.425 49.0194 426.659 50.0957C427.112 52.076 430.158 51.2378 429.704 49.2562V49.2582Z" fill="#211715"/>
<path d="M485.08 35.796C485.832 38.2809 486.667 40.7434 487.619 43.1593C488.321 45.0878 489.208 46.9441 490.267 48.7021C492.459 52.2302 495.176 55.4028 498.325 58.1102C500.137 59.6155 502.188 61.0109 504.525 61.5175C506.506 61.9471 507.354 58.903 505.365 58.472C501.727 57.6826 498.711 54.4167 496.361 51.6495C494.059 49.0166 492.2 46.0272 490.855 42.7981C489.821 40.2322 488.926 37.6006 488.125 34.9552C487.538 33.015 484.489 33.842 485.08 35.7946V35.796Z" fill="#211715"/>
<path d="M485.438 33.6224C481.997 37.6486 477.719 40.8751 472.902 43.0765C470.43 44.2552 467.872 45.2449 465.25 46.0371C463.857 46.4647 462.451 46.8459 461.032 47.1805L460.633 47.2739L460.501 47.3042C460.204 47.3603 460.144 47.3774 460.322 47.3555C460.359 47.2897 460.28 47.3318 460.411 47.3627C460.523 47.3803 460.631 47.4156 460.731 47.4674C460.855 47.5505 460.962 47.6573 461.044 47.7818C460.892 47.6088 461.05 47.8259 461.08 47.8792C461.051 47.8071 461.032 47.731 461.025 47.6535C461.025 47.8897 461.031 47.7851 461.036 47.6108C461.094 45.5193 461.838 43.2785 462.22 41.0633C462.301 40.7299 462.271 40.3794 462.137 40.064C462.002 39.7485 461.769 39.485 461.473 39.3124C461.176 39.1399 460.832 39.0676 460.491 39.1062C460.151 39.1449 459.831 39.2925 459.581 39.5271C456.423 42.1455 452.976 44.4916 449.572 46.8298C445.691 49.4963 441.769 52.1089 437.916 54.8188C436.012 56.1583 434.127 57.5268 432.296 58.9636C432.002 59.2609 431.837 59.6621 431.837 60.0801C431.837 60.4981 432.002 60.8993 432.296 61.1966C432.597 61.4833 432.997 61.6433 433.412 61.6433C433.828 61.6433 434.228 61.4833 434.529 61.1966C441.4 55.7905 449.165 51.0931 456.344 45.9285C458.205 44.5897 460.048 43.2199 461.814 41.7567L459.175 40.2205C458.771 42.5686 457.925 44.9114 457.879 47.3095C457.816 47.843 457.892 48.3837 458.1 48.8792C458.307 49.3747 458.639 49.8084 459.063 50.1385C460.196 50.8622 461.622 50.2885 462.802 49.9924C468.971 48.5408 474.842 46.0303 480.153 42.5725C482.97 40.7082 485.502 38.4459 487.671 35.856C487.956 35.5542 488.115 35.1546 488.115 34.7392C488.115 34.3238 487.956 33.9241 487.671 33.6224C487.373 33.3293 486.972 33.165 486.554 33.165C486.136 33.165 485.735 33.3293 485.438 33.6224Z" fill="#211715"/>
<path d="M501.911 75.7424C501.824 77.2654 501.542 78.771 501.071 80.2221C500.902 80.7872 500.717 81.3464 500.529 81.905C500.479 82.0556 500.43 82.2083 500.375 82.3576C500.331 82.4747 500.134 82.9142 500.338 82.4603C499.652 83.9546 498.864 85.3996 497.978 86.7847C495.485 90.9119 492.303 94.5808 488.57 97.6316C486.533 99.307 484.152 100.512 481.596 101.161C479.616 101.616 480.454 104.661 482.435 104.206C487.734 102.988 492.172 99.1658 495.659 95.1671C498.594 91.9215 501.047 88.2707 502.943 84.3267C504.196 81.6288 504.918 78.7146 505.067 75.7437C505.133 73.7114 501.975 73.7134 501.909 75.7437L501.911 75.7424Z" fill="#211715"/>
<path d="M433.692 75.2325C435.617 86.3406 441.637 97.2106 451.928 102.571C454.708 104.02 457.738 104.926 460.858 105.243C461.275 105.24 461.676 105.073 461.971 104.778C462.267 104.482 462.434 104.082 462.437 103.664C462.427 103.248 462.258 102.852 461.964 102.557C461.67 102.263 461.273 102.094 460.858 102.085C450.245 100.985 441.976 91.4677 438.643 81.9063C437.803 79.4583 437.165 76.9454 436.735 74.393C436.621 73.9911 436.354 73.6501 435.99 73.4438C435.627 73.2375 435.197 73.1824 434.793 73.2904C434.395 73.4096 434.057 73.6782 433.852 74.04C433.646 74.4019 433.589 74.8291 433.691 75.2325H433.692Z" fill="#211715"/>
<path d="M505.88 59.1583C506.259 58.8457 506.698 58.6133 507.17 58.4751C507.641 58.3369 508.136 58.2957 508.624 58.3541C509.112 58.4125 509.583 58.5693 510.009 58.815C510.435 59.0606 510.806 59.39 511.101 59.7833C511.612 60.7457 511.854 61.8274 511.804 62.9156C511.87 64.2514 511.795 65.5906 511.579 66.9104C510.781 71.5763 508.322 77.2652 503.124 78.1606C502.723 78.2751 502.383 78.5424 502.177 78.9051C501.971 79.2678 501.915 79.6969 502.022 80.1001C502.142 80.4988 502.41 80.836 502.772 81.0415C503.134 81.247 503.561 81.305 503.965 81.2035C509.345 80.2791 512.539 75.1968 514.011 70.348C514.787 67.8005 515.101 65.1348 514.938 62.4768C514.769 59.8695 513.981 57.4175 511.577 56.0602C510.327 55.3711 508.894 55.0843 507.475 55.2392C506.056 55.394 504.719 55.9828 503.647 56.9254C503.354 57.2232 503.19 57.6242 503.19 58.0418C503.19 58.4595 503.354 58.8604 503.647 59.1583C503.947 59.4466 504.347 59.6076 504.764 59.6076C505.18 59.6076 505.58 59.4466 505.88 59.1583Z" fill="#211715"/>
<path d="M434.898 56.9262C433.961 56.0961 432.815 55.5364 431.584 55.3067C430.354 55.077 429.083 55.1861 427.909 55.6222C425.321 56.6433 424.028 58.8209 423.699 61.5006C423.078 66.7975 424.43 72.1374 427.496 76.5009C429.159 78.9285 431.699 80.6152 434.582 81.2049C434.985 81.3039 435.412 81.2448 435.773 81.0397C436.134 80.8345 436.403 80.4988 436.525 80.1016C436.633 79.6978 436.577 79.2679 436.371 78.9046C436.164 78.5412 435.823 78.2736 435.421 78.1595C430.224 77.2667 427.765 71.5804 426.967 66.9092C426.759 65.638 426.682 64.3488 426.736 63.0618C426.776 61.9736 426.825 60.721 427.445 59.7821C427.74 59.3885 428.111 59.0588 428.537 58.813C428.962 58.5671 429.434 58.4102 429.922 58.3518C430.41 58.2933 430.905 58.3346 431.377 58.473C431.848 58.6114 432.287 58.8442 432.666 59.1571C432.967 59.4435 433.367 59.6031 433.783 59.6031C434.198 59.6031 434.598 59.4435 434.899 59.1571C435.192 58.8592 435.356 58.4583 435.356 58.0407C435.356 57.623 435.192 57.2221 434.899 56.9242L434.898 56.9262Z" fill="#211715"/>
<path d="M463.114 88.9284C465.193 90.0021 467.508 90.5367 469.846 90.483C472.242 90.4679 474.681 90.004 476.602 88.5093C476.896 88.2121 477.061 87.8109 477.061 87.3928C477.061 86.9747 476.896 86.5735 476.602 86.2763C476.301 85.9898 475.901 85.8301 475.485 85.8301C475.07 85.8301 474.67 85.9898 474.369 86.2763C474.836 85.9125 474.431 86.2204 474.311 86.2967C474.174 86.3849 474.033 86.4665 473.889 86.5415C473.789 86.5941 473.293 86.8007 473.687 86.6507C473.493 86.7244 473.302 86.7994 473.104 86.8625C471.982 87.2204 470.805 87.3776 469.627 87.327C468.505 87.3578 467.384 87.207 466.31 86.8803C466.096 86.8145 465.888 86.7402 465.677 86.6678C465.612 86.6448 465.546 86.6092 465.474 86.5888C465.862 86.7027 465.585 86.6388 465.482 86.5888C465.219 86.4658 464.963 86.3375 464.708 86.2026C464.345 86.0002 463.917 85.9462 463.514 86.0517C463.112 86.1573 462.765 86.4143 462.548 86.7691C462.341 87.1317 462.284 87.5609 462.39 87.9646C462.496 88.3683 462.756 88.7146 463.114 88.929V88.9284Z" fill="#211715"/>
<path d="M469.133 72.9531C469.448 74.0888 469.7 75.241 469.888 76.4045L469.831 75.9847C469.854 76.1425 469.858 76.3023 469.844 76.4611L469.9 76.0413C469.89 76.1142 469.872 76.186 469.848 76.2558L470.008 75.8781C469.986 75.9263 469.961 75.9725 469.932 76.0163L470.179 75.6966C470.145 75.7378 470.107 75.7751 470.065 75.8077L470.385 75.561C470.298 75.6156 470.206 75.664 470.112 75.7058L470.489 75.5466C470.341 75.6085 470.187 75.6527 470.029 75.6781L470.448 75.6216C470.305 75.639 470.159 75.639 470.015 75.6216L470.435 75.6781C470.272 75.6551 470.112 75.6156 469.949 75.5939C469.538 75.4978 469.105 75.5544 468.733 75.7531C468.371 75.9645 468.108 76.3107 468.002 76.7158C467.896 77.1208 467.955 77.5515 468.166 77.9131C468.266 78.0911 468.402 78.2471 468.564 78.3714C468.726 78.4958 468.912 78.5861 469.11 78.6368C469.464 78.6848 469.808 78.7756 470.168 78.7914C470.702 78.795 471.229 78.6704 471.706 78.4282C472.004 78.2951 472.269 78.0965 472.48 77.847C472.691 77.5976 472.843 77.3037 472.925 76.9874C473.033 76.4679 473.027 75.9314 472.909 75.4143C472.721 74.3018 472.464 73.1998 472.178 72.1097C472.067 71.7059 471.799 71.3629 471.435 71.1561C471.071 70.9493 470.64 70.8957 470.236 71.007C469.832 71.1183 469.489 71.3855 469.282 71.7497C469.075 72.1139 469.022 72.5454 469.133 72.9491V72.9531Z" fill="#211715"/>
<path d="M450.699 63.2285C450.122 65.1015 450.501 69.4128 454.047 69.7773C458.737 69.749 458.986 64.5397 457.407 62.0903C456.115 60.0843 452.314 59.2508 450.699 63.2285Z" fill="#211715"/>
<path d="M488.258 63.2285C488.834 65.1015 488.459 69.4128 484.91 69.7773C480.22 69.749 479.97 64.5397 481.549 62.0903C482.841 60.0843 486.643 59.2508 488.258 63.2285Z" fill="#211715"/>
<path fill-rule="evenodd" clip-rule="evenodd" d="M543.019 63.272C541.427 62.8534 539.735 63.3703 538.649 64.607L533.508 70.4594C532.439 71.6765 532.136 73.3871 532.721 74.8975L540.01 93.7104C541.079 96.4688 544.532 97.3764 546.819 95.5003L562.418 82.705C563.67 81.6776 564.248 80.039 563.915 78.4535L562.318 70.8297C561.98 69.2186 560.761 67.9365 559.169 67.518L543.019 63.272ZM540.825 66.519C541.187 66.1068 541.751 65.9345 542.282 66.074L545.698 66.972L541.855 73.4509L536.072 71.9306L540.825 66.519ZM544.769 74.217L548.612 67.7382L552.103 68.6558L552.262 76.1871L544.769 74.217ZM551.486 78.9787L544.072 77.0295L544.612 90.0522L551.486 78.9787ZM547.118 91.5075L554.418 79.7494L559.745 81.15L547.118 91.5075ZM555.177 76.9532L555.017 69.4219L558.433 70.32C558.963 70.4595 559.37 70.8869 559.482 71.4239L560.959 78.4735L555.177 76.9532ZM535.813 74.8581L541.14 76.2587L541.713 90.0865L535.813 74.8581Z" fill="#008CD2"/>
</svg>
