<svg width="583" height="254" viewBox="0 0 583 254" fill="none" xmlns="http://www.w3.org/2000/svg">
<rect x="1" y="31" width="581" height="222" rx="15" fill="white" stroke="#053751" stroke-width="2"/>
<path d="M304.707 145.447C305.124 145.447 305.471 145.571 305.747 145.818C306.024 146.065 306.162 146.381 306.162 146.764C306.162 147.152 306.024 147.469 305.747 147.716C305.471 147.964 305.124 148.087 304.707 148.087C304.286 148.087 303.939 147.964 303.667 147.716C303.396 147.464 303.26 147.147 303.26 146.764C303.26 146.385 303.396 146.073 303.667 145.825C303.939 145.573 304.286 145.447 304.707 145.447ZM311.806 144.989C312.067 144.776 312.198 144.495 312.198 144.145V144.109C312.194 143.964 312.164 143.77 312.111 143.527C312.097 143.455 312.072 143.343 312.038 143.193L311.995 143.004L311.951 142.807C311.18 143.074 310.671 143.331 310.424 143.578C310.196 143.806 310.082 144.056 310.082 144.327V144.378C310.097 144.664 310.223 144.897 310.46 145.076C310.611 145.188 310.804 145.244 311.042 145.244C311.338 145.244 311.592 145.159 311.806 144.989ZM314.293 142.385C314.332 142.55 314.38 142.761 314.438 143.018L314.511 143.316L314.577 143.6C314.678 144.036 314.775 144.429 314.867 144.778C314.974 145.171 315.166 145.425 315.442 145.542C315.607 145.615 315.818 145.665 316.075 145.695C316.249 145.714 316.482 145.724 316.773 145.724V148.109C316.337 148.109 315.961 148.087 315.646 148.044C315.209 147.985 314.817 147.879 314.468 147.724C314.002 147.51 313.614 147.219 313.304 146.851L313.217 146.749C312.969 146.967 312.688 147.142 312.373 147.273C311.971 147.433 311.544 147.513 311.093 147.513L311.02 147.505H310.94C310.388 147.481 309.886 147.348 309.435 147.105C308.591 146.664 308.072 145.971 307.878 145.025C307.825 144.773 307.798 144.524 307.798 144.276C307.798 143.952 307.844 143.634 307.937 143.324C308.116 142.776 308.429 142.288 308.875 141.862C309.364 141.392 310.215 140.962 311.428 140.575L311.289 139.935L313.617 139.404C313.893 140.616 314.118 141.61 314.293 142.385ZM321.525 145.724C321.772 145.724 321.956 145.673 322.077 145.571C322.242 145.435 322.325 145.195 322.325 144.851V143.084H324.71V144.851C324.71 145.166 324.754 145.379 324.841 145.491C324.953 145.646 325.18 145.724 325.525 145.724C325.772 145.724 325.956 145.673 326.077 145.571C326.237 145.435 326.317 145.195 326.317 144.851V143.084H328.703V144.851C328.703 145.152 328.759 145.365 328.87 145.491C329.001 145.646 329.241 145.724 329.59 145.724H330.521V148.109H329.59C328.591 148.109 327.896 147.888 327.503 147.447C326.926 147.888 326.266 148.109 325.525 148.109C324.574 148.109 323.903 147.888 323.51 147.447C322.933 147.888 322.283 148.109 321.561 148.109C320.795 148.109 320.123 147.888 319.546 147.447C319.154 147.888 318.458 148.109 317.459 148.109H316.412V145.724H317.459C317.808 145.724 318.048 145.646 318.179 145.491C318.291 145.365 318.346 145.152 318.346 144.851V143.084H320.732V144.851C320.732 145.195 320.814 145.435 320.979 145.571C321.096 145.673 321.277 145.724 321.525 145.724ZM323.372 140.073L321.932 141.527L320.492 140.087L321.932 138.633L323.372 140.073ZM326.528 140.051L325.103 141.491L323.626 140.065L325.081 138.611L326.528 140.051ZM324.783 138.175L323.517 139.44L322.266 138.189L323.532 136.924L324.783 138.175ZM335.624 141.345L334.198 139.905L335.609 138.451L337.064 139.905L335.624 141.345ZM332.576 141.353L331.151 139.913L332.555 138.458L334.009 139.913L332.576 141.353ZM336.075 145.062C336.075 145.295 336.13 145.459 336.242 145.556C336.368 145.668 336.591 145.724 336.911 145.724H337.973V148.109H336.911C336.596 148.109 336.298 148.075 336.016 148.007C335.793 147.954 335.585 147.879 335.391 147.782C335.168 147.675 335.001 147.568 334.889 147.462C334.778 147.568 334.598 147.675 334.351 147.782C333.861 148 333.28 148.109 332.606 148.109H330.162V145.724H332.773C333.122 145.724 333.367 145.665 333.507 145.549C333.633 145.447 333.696 145.285 333.696 145.062V143.084H336.075V145.062ZM342.728 145.724C342.975 145.724 343.159 145.673 343.281 145.571C343.445 145.435 343.528 145.195 343.528 144.851V143.084H345.913V144.851C345.913 145.166 345.957 145.379 346.044 145.491C346.156 145.646 346.384 145.724 346.728 145.724C346.975 145.724 347.159 145.673 347.281 145.571C347.441 145.435 347.521 145.195 347.521 144.851V143.084H349.906V144.851C349.906 145.152 349.962 145.365 350.073 145.491C350.204 145.646 350.444 145.724 350.793 145.724H351.724V148.109H350.793C349.794 148.109 349.099 147.888 348.706 147.447C348.129 147.888 347.47 148.109 346.728 148.109C345.777 148.109 345.106 147.888 344.713 147.447C344.136 147.888 343.487 148.109 342.764 148.109C341.998 148.109 341.327 147.888 340.75 147.447C340.357 147.888 339.661 148.109 338.662 148.109H337.615V145.724H338.662C339.011 145.724 339.251 145.646 339.382 145.491C339.494 145.365 339.55 145.152 339.55 144.851V143.084H341.935V144.851C341.935 145.195 342.017 145.435 342.182 145.571C342.299 145.673 342.481 145.724 342.728 145.724ZM344.575 140.073L343.135 141.527L341.695 140.087L343.135 138.633L344.575 140.073ZM347.731 140.051L346.306 141.491L344.83 140.065L346.284 138.611L347.731 140.051ZM345.986 138.175L344.721 139.44L343.47 138.189L344.735 136.924L345.986 138.175ZM357.678 144.415C357.717 144.647 357.736 144.87 357.736 145.084C357.736 145.743 357.547 146.335 357.169 146.858C356.563 147.692 355.576 148.109 354.209 148.109H351.365V145.724H354.158C354.594 145.724 354.902 145.665 355.081 145.549C355.266 145.438 355.358 145.261 355.358 145.018C355.358 144.945 355.348 144.865 355.329 144.778C355.28 144.531 355.232 144.279 355.183 144.022C355.164 143.925 355.144 143.821 355.125 143.709L355.096 143.571L355.074 143.433C355.001 143.035 354.946 142.752 354.907 142.582L357.183 141.891C357.329 142.575 357.494 143.416 357.678 144.415ZM353.074 152.145L351.634 150.735L353.074 149.251L354.514 150.735L353.074 152.145ZM356.209 152.175L354.754 150.735L356.231 149.295L357.656 150.735L356.209 152.175ZM354.674 153.855L353.409 152.589L354.66 151.338L355.925 152.604L354.674 153.855ZM374.842 141.36L374.238 143.665C373.88 143.573 373.538 143.518 373.213 143.498C373.179 143.493 373.13 143.491 373.067 143.491C372.452 143.491 371.933 143.682 371.511 144.065C371.084 144.458 370.871 144.945 370.871 145.527C371.909 145.818 372.687 146.044 373.206 146.204C373.579 146.32 373.85 146.432 374.02 146.538C374.311 146.718 374.52 146.941 374.646 147.207C374.694 147.309 374.728 147.416 374.747 147.527C374.767 147.61 374.776 147.697 374.776 147.789C374.781 147.876 374.784 147.964 374.784 148.051C374.784 150.698 373.349 152.022 370.478 152.022H368.311C367.104 152.022 366.086 151.641 365.256 150.88C364.321 150.022 363.853 148.848 363.853 147.36C363.853 146.007 364.233 144.558 364.995 143.011L367.133 144.058C366.536 145.285 366.238 146.286 366.238 147.062C366.238 147.387 366.255 147.663 366.289 147.891C366.338 148.221 366.423 148.499 366.544 148.727C366.869 149.333 367.458 149.636 368.311 149.636H370.478C370.861 149.636 371.189 149.605 371.46 149.542C371.814 149.459 372.052 149.324 372.173 149.135C372.289 148.955 372.357 148.713 372.376 148.407C372.318 148.388 371.15 148.078 368.871 147.476C368.614 146.992 368.486 146.356 368.486 145.571C368.486 144.533 368.832 143.59 369.526 142.742C370.408 141.656 371.656 141.113 373.271 141.113C373.833 141.113 374.357 141.195 374.842 141.36ZM378.394 148.109H376.009V137.622H378.394V148.109ZM388.806 144.989C389.067 144.776 389.198 144.495 389.198 144.145V144.109C389.194 143.964 389.164 143.77 389.111 143.527C389.097 143.455 389.072 143.343 389.038 143.193L388.995 143.004L388.951 142.807C388.18 143.074 387.671 143.331 387.424 143.578C387.196 143.806 387.082 144.056 387.082 144.327V144.378C387.097 144.664 387.223 144.897 387.46 145.076C387.611 145.188 387.804 145.244 388.042 145.244C388.338 145.244 388.592 145.159 388.806 144.989ZM391.293 142.385C391.332 142.55 391.38 142.761 391.438 143.018L391.511 143.316L391.577 143.6C391.678 144.036 391.775 144.429 391.867 144.778C391.974 145.171 392.166 145.425 392.442 145.542C392.607 145.615 392.818 145.665 393.075 145.695C393.249 145.714 393.482 145.724 393.773 145.724V148.109C393.337 148.109 392.961 148.087 392.646 148.044C392.209 147.985 391.817 147.879 391.468 147.724C391.002 147.51 390.614 147.219 390.304 146.851L390.217 146.749C389.969 146.967 389.688 147.142 389.373 147.273C388.971 147.433 388.544 147.513 388.093 147.513L388.02 147.505H387.94C387.388 147.481 386.886 147.348 386.435 147.105C385.591 146.664 385.072 145.971 384.878 145.025C384.825 144.773 384.798 144.524 384.798 144.276C384.798 143.952 384.844 143.634 384.937 143.324C385.116 142.776 385.429 142.288 385.875 141.862C386.364 141.392 387.215 140.962 388.428 140.575L388.289 139.935L390.617 139.404C390.893 140.616 391.118 141.61 391.293 142.385ZM398.997 143.207L398.983 143.04C398.968 142.919 398.954 142.81 398.939 142.713C398.9 142.456 398.845 142.24 398.772 142.065C398.588 141.605 398.26 141.353 397.79 141.309L397.717 141.302H397.652C397.337 141.302 397.087 141.396 396.903 141.585C396.738 141.76 396.656 141.981 396.656 142.247V142.313C396.675 142.783 396.913 143.088 397.368 143.229C397.654 143.316 398.202 143.36 399.012 143.36L398.997 143.207ZM397.783 139.04C399.106 139.04 400.066 139.619 400.663 140.778C401.109 141.636 401.332 142.749 401.332 144.116C401.332 145.585 400.77 146.664 399.645 147.353C398.816 147.857 397.795 148.109 396.583 148.109H393.528V145.724H396.583C397.393 145.724 397.991 145.67 398.379 145.564C397.269 145.564 396.362 145.326 395.659 144.851C394.825 144.284 394.408 143.45 394.408 142.349C394.408 142.024 394.454 141.695 394.546 141.36C394.658 140.953 394.83 140.592 395.063 140.276C395.659 139.452 396.566 139.04 397.783 139.04ZM395.739 136.655L397.252 135.127L398.794 136.669L397.259 138.196L395.739 136.655ZM406.257 143.076V145.062C406.257 145.27 406.364 145.438 406.577 145.564C406.747 145.67 406.919 145.724 407.094 145.724H407.428V148.109H407.094C406.812 148.109 406.514 148.063 406.199 147.971C406.059 149.042 405.697 149.905 405.116 150.56C404.267 151.525 403.026 152.007 401.392 152.007H400.672V149.622H401.392C402.284 149.622 402.919 149.421 403.297 149.018C403.68 148.616 403.872 147.942 403.872 146.996V143.076H406.257ZM411.243 141.331C411.64 141.389 412.629 141.636 414.21 142.073C414.763 142.223 415.347 142.385 415.963 142.56C416.448 142.701 416.821 142.81 417.083 142.887L417.454 144.989C415.577 146.366 414.166 147.217 413.221 147.542C412.106 147.92 410.057 148.109 407.075 148.109V145.724C409 145.724 410.392 145.656 411.25 145.52C412.288 145.355 413.214 145.013 414.028 144.495L413.497 144.349L412.988 144.204C412.571 144.082 412.258 143.995 412.05 143.942C411.41 143.767 411.008 143.68 410.843 143.68C410.712 143.68 410.588 143.755 410.472 143.905C410.351 144.051 410.258 144.25 410.195 144.502L407.89 143.898C408.113 143.035 408.528 142.368 409.134 141.898C409.648 141.496 410.2 141.295 410.792 141.295C410.937 141.295 411.088 141.307 411.243 141.331ZM433.81 148.109C433.495 148.109 433.213 148.082 432.966 148.029C432.612 147.952 432.299 147.818 432.028 147.629C431.475 148.415 430.743 148.807 429.831 148.807C429.385 148.807 428.959 148.735 428.551 148.589C428.12 148.439 427.359 148.09 426.268 147.542L425.861 147.331C425.701 147.244 425.57 147.173 425.468 147.12V153.52H423.082V144.873L424.653 143.964C424.91 144.109 425.126 144.23 425.301 144.327C425.364 144.361 425.436 144.4 425.519 144.444L425.722 144.56C425.945 143.818 426.212 143.212 426.522 142.742C426.905 142.165 427.361 141.745 427.89 141.484C428.292 141.29 428.724 141.193 429.184 141.193C429.693 141.193 430.19 141.312 430.675 141.549C431.097 141.767 431.47 142.068 431.795 142.451C432.105 142.819 432.343 143.229 432.508 143.68C432.585 143.879 432.641 144.073 432.675 144.262C432.782 144.771 432.92 145.139 433.09 145.367C433.269 145.605 433.509 145.724 433.81 145.724V148.109ZM430.362 146.196C430.493 145.925 430.559 145.581 430.559 145.164C430.559 144.747 430.433 144.383 430.181 144.073C429.914 143.743 429.582 143.578 429.184 143.578C428.893 143.578 428.605 143.816 428.319 144.291C428.081 144.688 427.899 145.139 427.773 145.644C428.612 146.027 429.271 146.315 429.751 146.509C429.815 146.538 429.875 146.553 429.933 146.553C430.103 146.553 430.246 146.434 430.362 146.196ZM439.356 145.062C439.356 145.295 439.412 145.459 439.523 145.556C439.649 145.668 439.872 145.724 440.192 145.724H441.254V148.109H440.192C439.877 148.109 439.579 148.075 439.298 148.007C439.075 147.954 438.866 147.879 438.672 147.782C438.449 147.675 438.282 147.568 438.17 147.462C438.059 147.568 437.88 147.675 437.632 147.782C437.143 148 436.561 148.109 435.887 148.109H433.443V145.724H436.054C436.403 145.724 436.648 145.665 436.789 145.549C436.915 145.447 436.978 145.285 436.978 145.062V143.084H439.356V145.062ZM438.403 152.313L436.978 150.873L438.389 149.418L439.843 150.873L438.403 152.313ZM435.334 152.32L433.909 150.88L435.312 149.425L436.767 150.88L435.334 152.32ZM447.209 144.415C447.248 144.647 447.267 144.87 447.267 145.084C447.267 145.743 447.078 146.335 446.7 146.858C446.094 147.692 445.107 148.109 443.74 148.109H440.896V145.724H443.689C444.125 145.724 444.433 145.665 444.613 145.549C444.797 145.438 444.889 145.261 444.889 145.018C444.889 144.945 444.879 144.865 444.86 144.778C444.811 144.531 444.763 144.279 444.714 144.022C444.695 143.925 444.676 143.821 444.656 143.709L444.627 143.571L444.605 143.433C444.533 143.035 444.477 142.752 444.438 142.582L446.714 141.891C446.86 142.575 447.025 143.416 447.209 144.415ZM445.711 140.785L444.285 139.345L445.696 137.891L447.151 139.345L445.711 140.785ZM442.664 140.793L441.238 139.353L442.642 137.898L444.096 139.353L442.664 140.793ZM457.493 144.989C457.755 144.776 457.886 144.495 457.886 144.145V144.109C457.881 143.964 457.852 143.77 457.799 143.527C457.784 143.455 457.76 143.343 457.726 143.193L457.682 143.004L457.639 142.807C456.868 143.074 456.359 143.331 456.111 143.578C455.883 143.806 455.77 144.056 455.77 144.327V144.378C455.784 144.664 455.91 144.897 456.148 145.076C456.298 145.188 456.492 145.244 456.73 145.244C457.025 145.244 457.28 145.159 457.493 144.989ZM459.98 142.385C460.019 142.55 460.068 142.761 460.126 143.018L460.199 143.316L460.264 143.6C460.366 144.036 460.463 144.429 460.555 144.778C460.662 145.171 460.853 145.425 461.13 145.542C461.294 145.615 461.505 145.665 461.762 145.695C461.937 145.714 462.17 145.724 462.46 145.724V148.109C462.024 148.109 461.648 148.087 461.333 148.044C460.897 147.985 460.504 147.879 460.155 147.724C459.69 147.51 459.302 147.219 458.991 146.851L458.904 146.749C458.657 146.967 458.376 147.142 458.06 147.273C457.658 147.433 457.231 147.513 456.78 147.513L456.708 147.505H456.628C456.075 147.481 455.573 147.348 455.122 147.105C454.279 146.664 453.76 145.971 453.566 145.025C453.513 144.773 453.486 144.524 453.486 144.276C453.486 143.952 453.532 143.634 453.624 143.324C453.803 142.776 454.116 142.288 454.562 141.862C455.052 141.392 455.903 140.962 457.115 140.575L456.977 139.935L459.304 139.404C459.58 140.616 459.806 141.61 459.98 142.385ZM468.412 144.415C468.451 144.647 468.47 144.87 468.47 145.084C468.47 145.743 468.281 146.335 467.903 146.858C467.297 147.692 466.31 148.109 464.943 148.109H462.099V145.724H464.892C465.329 145.724 465.636 145.665 465.816 145.549C466 145.438 466.092 145.261 466.092 145.018C466.092 144.945 466.082 144.865 466.063 144.778C466.015 144.531 465.966 144.279 465.918 144.022C465.898 143.925 465.879 143.821 465.859 143.709L465.83 143.571L465.809 143.433C465.736 143.035 465.68 142.752 465.641 142.582L467.918 141.891C468.063 142.575 468.228 143.416 468.412 144.415ZM466.718 152.269L465.292 150.829L466.703 149.375L468.158 150.829L466.718 152.269ZM463.649 152.276L462.223 150.836L463.627 149.382L465.081 150.836L463.649 152.276ZM478.616 148.109H477.962C477.424 148.109 476.941 148.015 476.514 147.825C476.19 147.685 475.906 147.493 475.664 147.251C475.421 147.008 475.23 146.725 475.089 146.4C474.9 145.973 474.805 145.491 474.805 144.953V137.622H477.184V144.953C477.184 145.248 477.239 145.452 477.351 145.564C477.458 145.67 477.661 145.724 477.962 145.724H478.616V148.109ZM487.316 148.109C486.744 148.109 486.24 148 485.804 147.782C485.566 148.063 485.282 148.279 484.953 148.429C484.686 148.545 484.415 148.613 484.138 148.633C484.075 148.638 484.012 148.64 483.949 148.64C483.362 148.64 482.737 148.499 482.073 148.218C481.83 148.116 481.566 147.988 481.28 147.833L481.113 147.738L481.033 147.695L480.96 147.651C480.839 147.583 480.754 147.537 480.706 147.513C480.182 147.905 479.438 148.102 478.473 148.102H478.24V145.724H478.473C478.977 145.724 479.324 145.622 479.513 145.418C479.653 145.268 479.816 144.904 480 144.327C480.015 144.284 480.029 144.242 480.044 144.204C480.058 144.15 480.078 144.097 480.102 144.044C480.15 143.908 480.206 143.775 480.269 143.644C480.434 143.295 480.628 142.982 480.851 142.705C481.491 141.915 482.31 141.52 483.309 141.52C484.415 141.52 485.263 141.978 485.855 142.895C486.082 143.248 486.257 143.651 486.378 144.102C486.48 144.485 486.536 144.856 486.546 145.215C486.546 145.365 486.592 145.481 486.684 145.564C486.805 145.675 487.016 145.731 487.316 145.731V148.109ZM484.24 146.015C484.303 145.84 484.335 145.651 484.335 145.447C484.335 145.394 484.332 145.341 484.327 145.287C484.303 144.919 484.194 144.599 484 144.327C483.801 144.046 483.571 143.905 483.309 143.905C482.95 143.905 482.655 144.119 482.422 144.545C482.339 144.691 482.264 144.87 482.196 145.084C482.172 145.152 482.146 145.234 482.116 145.331L482.087 145.44L482.058 145.535C482.339 145.782 482.698 145.983 483.135 146.138C483.489 146.264 483.775 146.327 483.993 146.327C484.08 146.327 484.162 146.223 484.24 146.015ZM492.421 141.345L490.995 139.905L492.406 138.451L493.861 139.905L492.421 141.345ZM489.373 141.353L487.948 139.913L489.352 138.458L490.806 139.913L489.373 141.353ZM492.872 145.062C492.872 145.295 492.927 145.459 493.039 145.556C493.165 145.668 493.388 145.724 493.708 145.724H494.77V148.109H493.708C493.393 148.109 493.095 148.075 492.813 148.007C492.59 147.954 492.382 147.879 492.188 147.782C491.965 147.675 491.798 147.568 491.686 147.462C491.575 147.568 491.395 147.675 491.148 147.782C490.658 148 490.076 148.109 489.402 148.109H486.959V145.724H489.57C489.919 145.724 490.164 145.665 490.304 145.549C490.43 145.447 490.493 145.285 490.493 145.062V143.084H492.872V145.062ZM498.586 141.331C498.984 141.389 499.973 141.636 501.554 142.073C502.106 142.223 502.691 142.385 503.306 142.56C503.791 142.701 504.165 142.81 504.426 142.887L504.797 144.989C502.921 146.366 501.51 147.217 500.565 147.542C499.45 147.92 497.401 148.109 494.419 148.109V145.724C496.344 145.724 497.736 145.656 498.594 145.52C499.631 145.355 500.557 145.013 501.372 144.495L500.841 144.349L500.332 144.204C499.915 144.082 499.602 143.995 499.394 143.942C498.754 143.767 498.351 143.68 498.186 143.68C498.056 143.68 497.932 143.755 497.816 143.905C497.694 144.051 497.602 144.25 497.539 144.502L495.234 143.898C495.457 143.035 495.871 142.368 496.477 141.898C496.991 141.496 497.544 141.295 498.136 141.295C498.281 141.295 498.431 141.307 498.586 141.331Z" fill="#CE1340"/>
<path d="M548.093 78C548.093 76.067 546.526 74.5 544.593 74.5H311.106C310.582 74.5 310.064 74.6179 309.591 74.8451L175.315 139.345C172.669 140.616 172.669 144.384 175.315 145.655L309.591 210.155C310.064 210.382 310.582 210.5 311.106 210.5H544.593C546.526 210.5 548.093 208.933 548.093 207V78Z" stroke="#CE1340"/>
<path d="M142.734 108.424C138.947 107.18 135.668 104.84 133.36 101.733C137.702 99.7365 141.52 96.8465 144.534 93.274C147.913 89.3439 150.377 84.7815 151.766 79.8856L153.193 79.677C154.796 79.4231 156.302 78.7793 157.565 77.8086C157.786 77.6389 157.999 77.4621 158.203 77.2783C159.32 79.2474 160.035 81.3987 160.311 83.6192C160.478 84.9508 160.548 86.2917 160.519 87.6324C160.467 90.8154 159.621 94.0727 159.452 97.2556C159.296 100.439 160.688 104.078 163.877 105.102C165.329 107.32 153.189 111.945 142.734 108.424Z" fill="#494949"/>
<path d="M159.642 76.4861C161.134 79.2005 161.985 82.1905 162.134 85.248C162.352 88.6323 161.705 91.9008 161.301 95.2482C161.013 97.6318 160.901 100.286 162.538 102.302C162.813 102.642 163.142 102.94 163.514 103.185C164.132 103.586 164.916 103.68 165.328 104.329C165.493 104.602 165.599 104.903 165.639 105.214C165.68 105.526 165.655 105.842 165.566 106.144C165.274 107.223 164.204 108.01 163.257 108.563C161.97 109.275 160.59 109.825 159.152 110.197C155.249 111.27 151.151 111.554 147.124 111.029C141.752 110.427 136.802 107.969 133.221 104.125C132.919 103.823 132.751 103.424 132.751 103.008C132.751 102.593 132.919 102.193 133.221 101.892C133.535 101.598 133.959 101.433 134.401 101.433C134.842 101.433 135.266 101.598 135.581 101.892C137.309 103.747 139.415 105.251 141.773 106.315C144.13 107.379 146.691 107.979 149.299 108.081C151.551 108.218 153.813 108.081 156.028 107.673C157.025 107.488 158.009 107.244 158.974 106.943C159.367 106.819 159.754 106.68 160.139 106.538C160.535 106.389 159.918 106.633 160.156 106.531C160.25 106.49 160.345 106.451 160.439 106.41C160.617 106.331 160.794 106.25 160.968 106.163C161.308 105.995 161.624 105.798 161.95 105.607C162.319 105.39 161.727 105.833 162.066 105.523C162.164 105.433 162.267 105.325 162.372 105.244C162.656 105.025 162.186 105.546 162.358 105.265C162.588 104.888 162.273 105.608 162.358 105.305C162.443 105.002 162.346 105.758 162.334 105.449C162.354 105.968 162.41 105.854 162.365 105.712C162.323 105.584 162.603 106.16 162.443 105.9L163.439 106.624C162.297 106.214 161.265 105.569 160.417 104.736C159.569 103.903 158.926 102.903 158.535 101.806C157.555 99.3779 157.748 96.8357 158.095 94.312C158.852 88.8224 159.652 83.1743 156.769 78.0769C155.756 76.2861 158.631 74.6893 159.646 76.4834L159.642 76.4861Z" fill="#211715"/>
<path d="M50.8735 225.875C45.2804 224.51 44.5399 225.261 38.5318 221.086C33.4404 217.548 26.5037 214.482 23.4715 208.971C22.0984 206.278 21.5318 203.279 21.8336 200.302C22.2948 192.988 23.7459 185.76 26.1511 178.797C28.7627 171.458 33.5077 163.894 36.3255 156.625C38.386 151.307 40.432 145.983 42.3364 140.613C44.4101 134.767 46.7087 128.724 51.3587 124.411C53.9224 122.034 57.058 120.323 60.2525 118.748C62.7621 117.344 65.0767 116.146 66.9533 115.196C65.6173 113.436 64.8708 111.335 64.8109 109.167C64.8803 104.962 68.6218 101.462 72.8012 100.053C74.1628 99.5922 75.5898 99.3007 76.8959 98.7204C79.672 97.4882 82.8881 93.6868 87.1674 92.3046L145.449 91.6934C149.782 93.0875 153.251 96.9296 156.028 98.1612C157.337 98.7415 158.763 99.0343 160.122 99.4928C164.302 100.903 168.043 104.403 168.113 108.607C168.152 111.004 167.021 113.269 165.536 115.234C167.398 116.174 169.686 117.36 172.164 118.746C175.356 120.321 178.494 122.032 181.058 124.409C185.707 128.722 188.005 134.765 190.08 140.611C191.985 145.981 194.031 151.305 196.091 156.623C198.908 163.893 203.656 171.457 206.266 178.795C208.673 185.758 210.125 192.986 210.588 200.301C210.89 203.278 210.323 206.277 208.95 208.97C205.92 214.481 198.984 217.547 193.89 221.085C187.882 225.26 187.141 224.51 181.548 225.874L50.8735 225.875Z" fill="#71C9F4"/>
<path d="M79.6005 58.0447C78.9942 57.5459 78.2814 57.1771 77.5108 56.9634C76.7403 56.7497 75.9302 56.6962 75.1359 56.8065C74.3566 56.9108 73.6118 57.1794 72.9564 57.5924C72.301 58.0055 71.7516 58.5526 71.3486 59.1934C70.8811 60.0779 70.6153 61.0459 70.5685 62.0342C70.228 65.9 71.0153 69.78 72.8442 73.2502C73.7063 75.0042 74.9577 76.5612 76.5128 77.8147C77.7753 78.7855 79.2818 79.4292 80.8851 79.6832L81.634 79.7931C81.9928 81.0668 82.3974 82.1392 82.5945 82.7089C83.8306 85.8892 90.5806 96.6657 99.1816 101.08C98.5397 103.759 99.029 106.961 95.0029 108.34C94.7427 108.428 87.402 110.462 83.7313 111.601C85.295 114.544 91.088 117.753 96.1481 119.232C96.1481 119.232 102.682 121.246 116.437 121.246C130.192 121.246 137.505 118.598 137.505 118.598C142.324 117.186 147.796 114.388 149.743 111.756C149.083 111.559 148.621 111.417 148.621 111.417C144.81 110.257 138.18 108.42 137.933 108.335C134.124 107.031 134.356 104.095 133.849 101.514C137.985 99.5148 141.626 96.7069 144.532 93.2755C147.912 89.3458 150.377 84.7833 151.766 79.8871L153.193 79.6786C154.796 79.4246 156.302 78.7808 157.565 77.8101C159.12 76.5566 160.371 74.9996 161.233 73.2456C163.062 69.7754 163.85 65.8954 163.509 62.0296C163.462 61.0414 163.197 60.0735 162.73 59.1888C162.327 58.548 161.777 58.001 161.121 57.5879C160.466 57.1749 159.721 56.9063 158.942 56.8019C158.147 56.6924 157.337 56.7467 156.567 56.9612C155.797 57.1757 155.084 57.5453 154.479 58.0447C154.479 58.0447 154.517 24.2231 116.269 24.2231C78.0209 24.2231 79.6005 58.0447 79.6005 58.0447Z" fill="white"/>
<path d="M67.9002 146.475C67.345 153.646 68.08 162.663 75.5483 166.529C77.4305 167.504 75.751 170.231 73.8674 169.256C65.3372 164.84 63.9235 154.805 64.5675 146.475C64.5779 146.059 64.7567 145.663 65.0669 145.369C65.377 145.075 65.7947 144.906 66.2332 144.896C66.6737 144.9 67.0952 145.067 67.4068 145.362C67.7183 145.658 67.895 146.057 67.8988 146.475H67.9002Z" fill="#211715"/>
<path d="M183.351 191.793C185.143 192.708 186.951 193.593 188.749 194.498C189.127 194.712 189.402 195.058 189.514 195.462C189.626 195.866 189.566 196.295 189.346 196.658C189.117 197.013 188.752 197.27 188.327 197.375C187.902 197.481 187.451 197.427 187.067 197.224C185.27 196.32 183.458 195.434 181.669 194.52C181.291 194.306 181.016 193.959 180.904 193.555C180.792 193.151 180.853 192.722 181.072 192.359C181.301 192.004 181.666 191.747 182.091 191.642C182.516 191.536 182.967 191.59 183.351 191.793Z" fill="#211715"/>
<path d="M50.4286 227.397C47.2591 226.632 44.1068 226.265 41.2252 224.691C39.2861 223.632 37.5358 222.301 35.6786 221.123C33.8679 219.974 32.0156 218.886 30.2298 217.702C26.5418 215.258 23.087 212.389 21.3561 208.35C19.3143 203.585 20.2297 198.182 20.9397 193.243C21.6507 188.095 22.891 183.025 24.643 178.106C26.4058 173.245 28.8633 168.64 31.1702 164C33.4869 159.342 35.3691 154.568 37.2082 149.727C39.0245 144.954 40.6131 140.093 42.5362 135.359C44.2713 131.082 46.4526 126.881 49.8783 123.578C53.5337 120.053 58.3981 117.864 62.8995 115.489C63.9123 114.955 64.9302 114.429 65.9532 113.91C67.8437 112.952 69.5281 115.677 67.6348 116.637C65.4292 117.755 63.2792 118.96 61.0916 120.108C58.9647 121.149 56.908 122.313 54.9335 123.595C51.174 126.189 48.6589 129.853 46.7809 133.827C44.7564 138.109 43.3802 142.672 41.7326 147.09C39.9316 151.915 38.1875 156.79 36.0256 161.483C33.9394 166.012 31.5096 170.393 29.4775 174.945C27.5243 179.393 26.054 184.018 25.0892 188.748C24.5659 191.238 24.1608 193.746 23.874 196.273C23.5092 198.656 23.3911 201.066 23.5214 203.47C23.9212 207.733 26.4592 210.933 29.871 213.536C31.666 214.848 33.53 216.073 35.4558 217.206C37.5379 218.487 39.5152 219.903 41.5889 221.187C42.378 221.687 43.2005 222.138 44.0513 222.537C44.6704 222.812 45.3151 223.032 45.9772 223.195C47.7358 223.65 49.5459 223.918 51.3128 224.343C53.3893 224.845 52.5093 227.891 50.4273 227.388L50.4286 227.397Z" fill="#211715"/>
<path d="M167.857 146.475C168.503 154.805 167.089 164.84 158.558 169.256C156.675 170.231 154.992 167.505 156.877 166.529C164.345 162.663 165.081 153.645 164.526 146.475C164.53 146.057 164.707 145.658 165.018 145.362C165.33 145.067 165.751 144.9 166.192 144.896C166.631 144.904 167.05 145.073 167.36 145.367C167.671 145.661 167.849 146.059 167.857 146.475Z" fill="#211715"/>
<path d="M181.108 224.354C184.12 223.627 187.083 223.31 189.61 221.914C191.512 220.861 193.235 219.556 195.062 218.397C196.765 217.317 198.505 216.292 200.192 215.186C203.479 213.035 206.847 210.416 208.174 206.706C208.888 204.538 209.135 202.256 208.902 199.995C208.712 197.455 208.426 194.92 208.014 192.403C207.239 187.445 205.946 182.572 204.155 177.856C202.412 173.366 200.097 169.099 197.964 164.77C195.704 160.185 193.864 155.474 192.053 150.718C190.28 146.063 188.71 141.335 186.871 136.704C185.074 132.182 182.713 127.767 178.783 124.574C176.726 122.991 174.492 121.628 172.121 120.509C169.656 119.267 167.262 117.898 164.799 116.65C162.908 115.691 164.591 112.966 166.481 113.923C168.723 115.06 170.905 116.298 173.138 117.451C175.358 118.525 177.492 119.753 179.523 121.124C183.439 124.006 186.513 127.788 188.454 132.111C190.586 136.588 192.063 141.322 193.784 145.949C195.609 150.85 197.355 155.818 199.585 160.572C201.784 165.257 204.281 169.811 206.348 174.551C208.402 179.344 209.911 184.332 210.847 189.429C211.337 192.004 211.708 194.6 211.98 197.204C212.339 199.755 212.362 202.34 212.049 204.897C211.347 209.382 208.562 212.989 204.908 215.776C201.481 218.394 197.643 220.488 194.066 222.911C192.455 224.057 190.705 225.016 188.853 225.768C187.522 226.225 186.152 226.569 184.758 226.797C183.834 226.98 182.913 227.179 181.998 227.399C179.919 227.901 179.032 224.856 181.112 224.354L181.108 224.354Z" fill="#211715"/>
<path d="M51.3165 193.988C50.1801 194.269 49.062 194.613 47.9678 195.018C47.8325 195.068 47.6978 195.121 47.5625 195.173C47.3543 195.252 47.8637 195.047 47.6618 195.134L47.4647 195.216C47.2088 195.324 46.9543 195.438 46.7012 195.556C46.2215 195.783 45.7578 196.039 45.3132 196.322C44.931 196.531 44.4776 196.588 44.051 196.482C43.6245 196.376 43.2591 196.115 43.034 195.756C42.8216 195.392 42.7651 194.964 42.8764 194.562C42.9876 194.16 43.2581 193.813 43.6316 193.595C44.6827 192.954 45.8041 192.422 46.9761 192.01C48.1033 191.589 49.2563 191.231 50.4288 190.941C50.8549 190.829 51.3101 190.883 51.6943 191.09C52.0786 191.297 52.3605 191.64 52.4779 192.044C52.5954 192.447 52.5387 192.879 52.3205 193.243C52.1023 193.607 51.7404 193.875 51.3144 193.986L51.3165 193.988Z" fill="#211715"/>
<path d="M151.506 112.059C150.037 114.521 147.162 116.199 144.601 117.489C142.394 118.566 140.097 119.471 137.734 120.193C134.441 121.173 131.054 121.841 127.623 122.187C120.623 122.984 113.554 123.068 106.535 122.439C102.995 122.22 99.4837 121.689 96.0476 120.852C93.6213 120.179 91.2855 119.241 89.0872 118.057C86.2535 116.557 83.1145 114.538 81.9103 111.548C81.7965 111.144 81.8546 110.714 82.0722 110.351C82.2899 109.987 82.6495 109.72 83.0735 109.606C83.4992 109.503 83.9501 109.561 84.332 109.766C84.7139 109.972 84.9973 110.309 85.123 110.708C85.0536 110.538 85.268 110.98 85.3312 111.079C85.4584 111.287 85.5998 111.487 85.7545 111.677C86.1598 112.138 86.606 112.566 87.0884 112.954C88.2245 113.867 89.4588 114.663 90.7709 115.33C92.6636 116.348 94.6702 117.162 96.7534 117.758C99.4976 118.465 102.304 118.932 105.139 119.154C111.785 119.825 118.486 119.87 125.142 119.291C128.92 119.004 132.655 118.345 136.288 117.323C137.976 116.838 139.628 116.248 141.234 115.558C143.823 114.417 147.227 112.82 148.632 110.465C149.686 108.696 152.566 110.286 151.508 112.059H151.506Z" fill="#211715"/>
<path d="M116.462 160.986C143.866 161.174 171.138 161.325 180.821 161.357C181.187 161.357 181.55 161.427 181.887 161.56C182.225 161.694 182.532 161.89 182.79 162.136C183.048 162.382 183.252 162.674 183.39 162.995C183.529 163.317 183.599 163.66 183.597 164.007C183.542 178.921 182.783 230.536 182.205 249.507C182.184 250.203 181.874 250.862 181.343 251.343C180.812 251.823 180.103 252.085 179.37 252.073C170.618 251.946 143.514 252.025 116.463 252.112C89.4111 252.025 62.3068 251.946 53.5558 252.073C52.822 252.085 52.1128 251.823 51.5819 251.343C51.051 250.862 50.7413 250.203 50.7201 249.507C50.1419 230.536 49.3834 178.921 49.3271 164.007C49.3253 163.66 49.3957 163.317 49.5343 162.995C49.673 162.674 49.8771 162.382 50.1349 162.136C50.3928 161.89 50.6994 161.694 51.0372 161.56C51.375 161.427 51.7372 161.357 52.1032 161.357C61.7855 161.325 89.0571 161.174 116.462 160.986Z" fill="#E4E4E4"/>
<path d="M116.462 159.407C135.613 159.539 154.765 159.653 173.918 159.749L178.319 159.768C179.642 159.774 181.152 159.605 182.401 160.066C184.405 160.807 185.269 162.549 185.261 164.495C185.257 165.384 185.251 166.274 185.245 167.163C185.208 172.285 185.155 177.407 185.084 182.529C184.913 196.179 184.703 209.83 184.453 223.481C184.34 229.587 184.214 235.693 184.074 241.799C184.019 244.124 183.958 246.446 183.892 248.767C183.832 250.798 183.108 252.615 180.946 253.387C179.74 253.817 178.308 253.636 177.043 253.626C159.494 253.476 141.939 253.61 124.388 253.665C104.401 253.731 84.4073 253.555 64.4167 253.589C61.4754 253.594 58.5334 253.601 55.5922 253.628C54.1708 253.641 52.6773 253.809 51.376 253.136C49.5021 252.167 49.0802 250.439 49.026 248.576C48.8734 243.355 48.7609 238.133 48.654 232.912C48.3736 219.228 48.1423 205.544 47.96 191.859C47.8763 185.84 47.8015 179.821 47.7358 173.802C47.7113 171.509 47.6905 169.215 47.6734 166.921C47.6678 166.046 47.6553 165.172 47.6581 164.297C47.6091 163.323 47.9073 162.361 48.5049 161.568C49.1024 160.774 49.9643 160.194 50.9519 159.921C52.1817 159.601 53.6468 159.772 54.9155 159.767C56.409 159.761 57.9028 159.754 59.3968 159.747C63.1209 159.73 66.8455 159.711 70.5706 159.691C80.484 159.637 90.3967 159.578 100.309 159.515C105.693 159.48 111.078 159.444 116.462 159.407C118.606 159.393 118.607 162.551 116.461 162.565C97.5752 162.697 78.6885 162.81 59.8014 162.903L55.5679 162.922C54.4276 162.927 53.2394 162.843 52.1033 162.936C50.8416 163.038 50.9929 164.199 50.9984 165.111C51.0035 166.003 51.0096 166.894 51.0165 167.785C51.0553 172.889 51.1097 177.992 51.1796 183.096C51.3471 196.418 51.5527 209.741 51.7966 223.062C51.9062 229.061 52.0288 235.061 52.1644 241.06C52.2199 243.415 52.2803 245.77 52.3455 248.126C52.3698 248.96 52.154 250.29 53.3172 250.488C53.8455 250.529 54.3767 250.525 54.9044 250.477C55.4809 250.471 56.0581 250.466 56.636 250.462C73.9352 250.335 91.2371 250.453 108.536 250.507C128.151 250.569 147.766 250.404 167.38 250.43C170.453 250.434 173.525 250.44 176.598 250.465C177.605 250.561 178.62 250.565 179.628 250.477C180.836 250.247 180.563 248.738 180.588 247.863C180.737 242.624 180.849 237.384 180.955 232.144C181.226 218.785 181.45 205.426 181.627 192.066C181.71 186.192 181.783 180.317 181.848 174.444C181.872 172.14 181.894 169.837 181.912 167.536C181.919 166.658 181.925 165.781 181.929 164.904C181.934 163.863 181.925 162.952 180.574 162.937C164.478 162.75 148.372 162.775 132.277 162.674C127.007 162.64 121.735 162.605 116.463 162.569C114.319 162.551 114.314 159.393 116.462 159.407Z" fill="#211715"/>
<path d="M170.379 242.452C157.099 242.373 143.818 242.44 130.542 242.479C114.331 242.527 98.1199 242.454 81.9089 242.432C75.4545 242.423 69.0001 242.413 62.5457 242.452C60.4018 242.464 60.3991 239.306 62.5457 239.294C75.8251 239.215 89.1059 239.282 102.383 239.321C118.594 239.369 134.804 239.296 151.016 239.274C157.471 239.265 163.925 239.255 170.379 239.294C172.522 239.306 172.527 242.464 170.379 242.452Z" fill="#211715"/>
<path d="M116.462 195.763C118.464 195.78 120.465 195.805 122.467 195.807C122.907 195.813 123.327 195.982 123.639 196.277C123.95 196.572 124.128 196.97 124.134 197.388C124.142 199.379 124.145 201.369 124.142 203.359C124.142 204.528 124.139 205.697 124.128 206.867C124.123 207.287 124.128 207.709 124.11 208.128C124.121 208.363 124.08 208.597 123.989 208.816C123.898 209.035 123.759 209.233 123.581 209.397C123.404 209.561 123.192 209.688 122.959 209.769C122.726 209.85 122.478 209.883 122.23 209.866C118.633 209.866 115.034 209.843 111.437 209.859C110.832 209.944 110.215 209.876 109.647 209.662C108.832 209.21 108.819 208.392 108.808 207.609C108.792 206.514 108.788 205.419 108.786 204.325C108.78 202.013 108.782 199.701 108.792 197.39C108.799 196.973 108.977 196.575 109.288 196.28C109.599 195.985 110.018 195.817 110.458 195.811C112.46 195.811 114.462 195.784 116.463 195.766C116.905 195.766 117.329 195.932 117.641 196.228C117.954 196.525 118.129 196.926 118.129 197.345C118.129 197.764 117.954 198.165 117.641 198.461C117.329 198.758 116.905 198.924 116.463 198.924C114.462 198.942 112.46 198.967 110.458 198.969L112.124 197.39C112.109 201.024 112.054 204.664 112.152 208.297L111.925 207.5L110.487 206.718C111.147 206.661 111.828 206.7 112.49 206.7C113.814 206.7 115.139 206.714 116.463 206.714C117.756 206.714 119.05 206.702 120.343 206.701C121.037 206.701 121.748 206.658 122.439 206.718L121.001 207.5L120.773 208.297C120.868 204.664 120.816 201.024 120.802 197.39L122.467 198.969C120.466 198.969 118.465 198.942 116.463 198.924C116.022 198.924 115.597 198.758 115.285 198.461C114.973 198.165 114.797 197.764 114.797 197.345C114.797 196.926 114.973 196.525 115.285 196.228C115.597 195.932 116.022 195.766 116.463 195.766L116.462 195.763Z" fill="#211715"/>
<path d="M142.065 126.067C145.777 125.787 149.482 124.422 152.793 122.82C156.389 121.163 159.667 118.946 162.489 116.26C165.095 113.674 167.549 109.879 165.917 106.245C165.165 104.676 163.964 103.339 162.45 102.385C160.58 101.171 158.533 100.765 156.444 100.025C152.262 98.5431 149.499 94.8332 145.315 93.3194C144.895 93.1979 144.541 92.9288 144.325 92.5675C144.109 92.2061 144.047 91.78 144.151 91.3766C144.272 90.9745 144.554 90.6335 144.937 90.4271C145.321 90.2208 145.774 90.1658 146.2 90.2739C148.447 91.1525 150.544 92.3442 152.42 93.8095C153.857 94.8621 155.276 96.1326 156.955 96.8359C158.153 97.3392 159.463 97.5826 160.691 98.0102C161.744 98.3692 162.754 98.8323 163.704 99.3918C165.676 100.533 167.313 102.127 168.464 104.026C173.541 112.791 163.181 120.966 156.011 124.768C151.741 127.032 146.982 128.853 142.065 129.224C141.624 129.221 141.203 129.053 140.891 128.758C140.58 128.462 140.403 128.063 140.399 127.645C140.408 127.229 140.586 126.832 140.897 126.537C141.207 126.243 141.626 126.075 142.065 126.067Z" fill="#211715"/>
<path d="M148.176 112.94C144.757 111.902 141.305 110.954 137.871 109.97C136.124 109.532 134.614 108.49 133.638 107.049C132.679 105.536 132.572 103.783 132.268 102.09C132.164 101.686 132.227 101.26 132.444 100.899C132.66 100.539 133.015 100.27 133.434 100.149C133.86 100.041 134.313 100.096 134.696 100.302C135.08 100.509 135.362 100.85 135.482 101.252C135.621 102.042 135.711 102.835 135.87 103.62C135.94 103.983 136.032 104.341 136.147 104.693C136.167 104.75 136.399 105.28 136.28 105.043C136.349 105.184 136.428 105.324 136.514 105.458C136.905 106.035 137.476 106.482 138.148 106.736C138.457 106.849 138.773 106.945 139.093 107.024C142.42 107.968 145.752 108.894 149.059 109.899C151.094 110.517 150.224 113.567 148.174 112.944L148.176 112.94Z" fill="#211715"/>
<path d="M83.8704 109.899C87.0913 108.92 90.3373 108.015 93.579 107.098C94.5662 106.91 95.4731 106.45 96.1865 105.777C96.4148 105.529 96.1712 105.828 96.3378 105.579C96.4575 105.401 96.5651 105.216 96.6598 105.025C96.5383 105.271 96.7202 104.871 96.7389 104.819C96.8083 104.621 96.8722 104.417 96.9263 104.213C97.1003 103.482 97.2339 102.742 97.3267 101.998C97.4464 101.595 97.7286 101.254 98.1121 101.047C98.4957 100.841 98.9497 100.786 99.3755 100.895C99.7946 101.016 100.149 101.284 100.365 101.645C100.581 102.006 100.643 102.432 100.537 102.835C100.271 104.602 99.964 106.318 98.7592 107.755C97.7367 108.876 96.3744 109.671 94.8581 110.031C91.4866 110.989 88.1067 111.926 84.7545 112.944C82.7079 113.566 81.832 110.518 83.869 109.899H83.8704Z" fill="#211715"/>
<path d="M87.6139 93.8285C84.1618 94.9877 81.7522 97.7154 78.7408 99.5523C76.9843 100.624 74.9307 100.956 73.0103 101.658C71.3746 102.261 69.9014 103.203 68.6983 104.414C67.5529 105.519 66.7943 106.932 66.5253 108.46C66.2477 110.385 67.0153 112.266 68.0487 113.883C70.2134 117.268 73.6856 119.653 77.2959 121.521C79.5861 122.705 81.9687 123.797 84.3624 124.788C86.4119 125.728 88.608 126.349 90.8661 126.625C91.3044 126.635 91.7218 126.805 92.0318 127.099C92.3418 127.393 92.5208 127.788 92.5317 128.204C92.5285 128.622 92.3519 129.022 92.0403 129.317C91.7286 129.613 91.3068 129.78 90.8661 129.783C85.9337 129.388 81.3427 127.002 76.9961 124.93C72.7861 122.924 68.7809 120.309 65.9972 116.651C63.2343 113.021 62.1065 108.427 64.589 104.385C65.6955 102.647 67.2098 101.175 69.0141 100.083C70.9629 98.8674 73.1422 98.3634 75.3117 97.6358C77.1918 97.0049 78.6659 95.691 80.1969 94.5278C82.1343 92.9374 84.343 91.6709 86.7283 90.7824C87.1543 90.6711 87.6094 90.7247 87.9936 90.9315C88.3778 91.1383 88.6596 91.4813 88.7771 91.885C88.8945 92.2888 88.8379 92.7202 88.6198 93.0845C88.4017 93.4487 88.0398 93.7158 87.6139 93.8272V93.8285Z" fill="#211715"/>
<path d="M98.7585 35.376C97.435 39.5431 95.3793 44.9018 93.8531 47.2972C91.7711 50.5617 86.1203 57.6921 80.7264 59.629C79.9727 57.6105 77.4388 56.4776 75.1361 56.8039C74.901 56.8365 74.669 56.8862 74.442 56.9526C71.2995 50.0986 72.8854 38.5122 74.1408 32.7338C78.019 14.8316 97.1824 0.620844 117.278 1.66165C137.375 0.620844 156.537 14.8316 160.417 32.7338C161.468 37.5622 161.343 45.8228 160.387 49.6775L158.883 56.8C157.853 56.6494 156.799 56.7906 155.853 57.2057C154.908 57.6209 154.113 58.2915 153.567 59.1336C145.981 53.6914 132.677 45.8347 126.088 40.6464C126.662 43.9097 128.701 49.4624 126.133 48.89C115.347 46.6011 105.013 41.9715 98.8098 34.7404" fill="#494949"/>
<path d="M158.781 49.258C159.235 47.1343 159.466 44.9729 159.469 42.8059C159.554 40.2449 159.447 37.6814 159.149 35.1348C158.491 30.5014 156.795 26.0552 154.174 22.0951C148.762 13.7916 140.35 7.63763 130.504 4.78101C128.073 4.07145 125.573 3.59277 123.041 3.35204C120.379 3.1119 117.682 3.17309 115.012 3.18559C109.842 3.22889 104.731 4.24295 99.9764 6.16919C90.5205 9.95217 82.8412 16.8695 78.3735 25.6287C76.4915 29.6694 75.2968 33.9673 74.834 38.3624C74.1913 43.2165 73.836 48.3626 74.9423 53.1831C75.1952 54.3087 75.5569 55.4098 76.0229 56.4726C76.1379 56.8766 76.0801 57.3074 75.862 57.6712C75.644 58.0351 75.2833 58.3028 74.8583 58.416C74.4328 58.5164 73.9829 58.4579 73.6015 58.2527C73.2202 58.0475 72.9367 57.7112 72.8096 57.3134C70.6907 52.5363 70.7212 46.9277 71.13 41.8467C71.5117 37.0973 72.2071 32.1926 73.9061 27.6886C77.6052 17.8595 85.5206 9.6574 95.232 4.82838C100.181 2.3547 105.58 0.794155 111.143 0.229624C113.896 0.0234933 116.658 -0.0439272 119.418 0.0276477C122.23 0.0391706 125.034 0.320209 127.787 0.866476C138.678 3.10987 148.334 9.03741 154.948 17.5404C158.182 21.6463 160.508 26.3287 161.788 31.3071C162.949 36.4069 163.2 41.6551 162.531 46.8336C162.419 47.93 162.24 49.0192 161.993 50.0955C161.515 52.0758 158.302 51.2376 158.781 49.256V49.258Z" fill="#211715"/>
<path d="M100.365 35.795C99.5716 38.2799 98.6902 40.7424 97.6859 43.1582C96.9452 45.0868 96.0097 46.943 94.8925 48.7011C92.5809 52.2291 89.7144 55.4017 86.3921 58.1091C84.4815 59.6144 82.3175 61.0098 79.8517 61.5164C77.762 61.946 76.8674 58.9019 78.9661 58.471C82.8033 57.6815 85.9854 54.4157 88.4638 51.6485C90.8926 49.0156 92.8542 46.0262 94.2721 42.7971C95.3638 40.2312 96.3069 37.5996 97.1522 34.9542C97.7713 33.014 100.988 33.841 100.365 35.7937V35.795Z" fill="#211715"/>
<path d="M99.9873 33.6204C103.617 37.6466 108.13 40.8731 113.211 43.0745C115.819 44.2532 118.518 45.2429 121.283 46.0351C122.752 46.4627 124.235 46.8439 125.733 47.1785L126.154 47.2719L126.293 47.3022C126.606 47.3583 126.669 47.3754 126.482 47.3535C126.443 47.2877 126.526 47.3298 126.388 47.3607C126.27 47.3783 126.156 47.4136 126.05 47.4654C125.919 47.5485 125.807 47.6553 125.72 47.7798C125.88 47.6068 125.713 47.8239 125.682 47.8772C125.713 47.805 125.732 47.729 125.74 47.6515C125.74 47.8877 125.733 47.7831 125.729 47.6088C125.667 45.5173 124.883 43.2765 124.479 41.0613C124.394 40.7279 124.425 40.3774 124.567 40.062C124.709 39.7466 124.955 39.483 125.268 39.3104C125.58 39.1379 125.943 39.0656 126.303 39.1043C126.662 39.1429 126.999 39.2905 127.263 39.5251C130.594 42.1436 134.23 44.4897 137.821 46.8278C141.916 49.4943 146.053 52.1069 150.117 54.8168C152.126 56.1563 154.115 57.5247 156.046 58.9616C156.356 59.2589 156.53 59.66 156.53 60.078C156.53 60.4961 156.356 60.8972 156.046 61.1945C155.729 61.4813 155.307 61.6413 154.868 61.6413C154.43 61.6413 154.008 61.4813 153.691 61.1945C146.442 55.7885 138.251 51.0911 130.678 45.9265C128.715 44.5877 126.77 43.2179 124.908 41.7547L127.692 40.2185C128.117 42.5666 129.011 44.9094 129.059 47.3075C129.125 47.841 129.045 48.3816 128.826 48.8772C128.607 49.3727 128.257 49.8064 127.81 50.1364C126.614 50.8601 125.11 50.2864 123.866 49.9904C117.358 48.5388 111.165 46.0283 105.562 42.5705C102.59 40.7062 99.9192 38.4439 97.6318 35.854C97.3306 35.5522 97.1628 35.1526 97.1628 34.7372C97.1628 34.3218 97.3306 33.9222 97.6318 33.6204C97.9458 33.3273 98.3688 33.1631 98.8095 33.1631C99.2502 33.1631 99.6732 33.3273 99.9873 33.6204Z" fill="#211715"/>
<path d="M82.6099 75.7419C82.7015 77.2649 82.9994 78.7705 83.4962 80.2215C83.6738 80.7867 83.8695 81.3459 84.0673 81.9045C84.1208 82.0551 84.1721 82.2078 84.2304 82.3571C84.2762 82.4742 84.4837 82.9137 84.2693 82.4597C84.9925 83.9541 85.8243 85.3991 86.7588 86.7841C89.388 90.9113 92.7449 94.5802 96.6833 97.631C98.8316 99.3064 101.344 100.512 104.04 101.161C106.128 101.615 105.244 104.661 103.154 104.205C97.5647 102.988 92.8828 99.1653 89.2045 95.1665C86.1083 91.921 83.5206 88.2702 81.521 84.3262C80.199 81.6283 79.4381 78.7141 79.28 75.7432C79.2106 73.7109 82.5419 73.7129 82.6113 75.7432L82.6099 75.7419Z" fill="#211715"/>
<path d="M154.574 75.233C152.543 86.3411 146.193 97.211 135.337 102.572C132.404 104.02 129.207 104.927 125.917 105.243C125.476 105.241 125.054 105.074 124.742 104.778C124.43 104.482 124.254 104.082 124.251 103.664C124.261 103.248 124.439 102.852 124.75 102.558C125.06 102.264 125.478 102.094 125.917 102.085C137.111 100.985 145.835 91.4681 149.35 81.9068C150.237 79.4587 150.91 76.9459 151.363 74.3935C151.483 73.9916 151.766 73.6506 152.149 73.4443C152.532 73.238 152.986 73.1829 153.412 73.2909C153.832 73.4101 154.188 73.6787 154.405 74.0405C154.621 74.4024 154.682 74.8296 154.575 75.233H154.574Z" fill="#211715"/>
<path d="M78.4227 59.1598C78.0226 58.8472 77.5598 58.6148 77.0622 58.4765C76.5646 58.3383 76.0427 58.2972 75.5278 58.3556C75.013 58.414 74.516 58.5708 74.067 58.8164C73.6179 59.0621 73.226 59.3915 72.915 59.7848C72.3766 60.7471 72.1206 61.8289 72.1738 62.9171C72.1034 64.2529 72.183 65.592 72.4111 66.9119C73.253 71.5777 75.8465 77.2666 81.33 78.162C81.7532 78.2765 82.1121 78.5438 82.3295 78.9065C82.5468 79.2692 82.6054 79.6983 82.4925 80.1015C82.3664 80.5002 82.083 80.8373 81.7012 81.0428C81.3195 81.2484 80.8688 81.3064 80.443 81.2048C74.7673 80.2805 71.3985 75.1982 69.8453 70.3494C69.0272 67.8019 68.696 65.1362 68.8674 62.4782C69.0458 59.871 69.8772 57.4189 72.4132 56.0617C73.732 55.3725 75.243 55.0858 76.74 55.2406C78.237 55.3955 79.6472 55.9843 80.7782 56.9268C81.0871 57.2247 81.2601 57.6256 81.2601 58.0433C81.2601 58.4609 81.0871 58.8619 80.7782 59.1598C80.4616 59.448 80.0395 59.609 79.6005 59.609C79.1614 59.609 78.7394 59.448 78.4227 59.1598Z" fill="#211715"/>
<path d="M153.301 56.9266C154.29 56.0966 155.498 55.5369 156.797 55.3072C158.095 55.0775 159.435 55.1866 160.673 55.6227C163.404 56.6437 164.768 58.8214 165.115 61.5011C165.77 66.7979 164.344 72.1379 161.109 76.5013C159.356 78.9289 156.675 80.6156 153.635 81.2053C153.209 81.3043 152.759 81.2452 152.378 81.0401C151.997 80.8349 151.713 80.4992 151.585 80.102C151.471 79.6982 151.53 79.2683 151.748 78.905C151.965 78.5416 152.325 78.274 152.749 78.1599C158.232 77.2671 160.826 71.5808 161.667 66.9097C161.887 65.6385 161.968 64.3493 161.911 63.0623C161.869 61.9741 161.818 60.7214 161.163 59.7826C160.853 59.389 160.461 59.0593 160.012 58.8134C159.563 58.5676 159.066 58.4107 158.551 58.3522C158.036 58.2938 157.514 58.3351 157.016 58.4735C156.518 58.6119 156.056 58.8447 155.656 59.1576C155.338 59.4439 154.916 59.6036 154.478 59.6036C154.039 59.6036 153.618 59.4439 153.3 59.1576C152.991 58.8597 152.818 58.4588 152.818 58.0411C152.818 57.6235 152.991 57.2225 153.3 56.9247L153.301 56.9266Z" fill="#211715"/>
<path d="M123.536 88.9274C121.344 90.0011 118.902 90.5357 116.434 90.482C113.907 90.4669 111.335 90.003 109.308 88.5083C108.998 88.2111 108.824 87.8099 108.824 87.3918C108.824 86.9738 108.998 86.5726 109.308 86.2753C109.626 85.9889 110.047 85.8291 110.486 85.8291C110.924 85.8291 111.346 85.9889 111.664 86.2753C111.171 85.9115 111.598 86.2194 111.725 86.2957C111.869 86.3839 112.018 86.4655 112.17 86.5405C112.275 86.5931 112.798 86.7997 112.383 86.6497C112.587 86.7234 112.789 86.7984 112.997 86.8615C114.182 87.2194 115.423 87.3767 116.665 87.326C117.85 87.3569 119.032 87.206 120.165 86.8793C120.391 86.8135 120.61 86.7392 120.832 86.6668C120.902 86.6438 120.971 86.6083 121.047 86.5879C120.637 86.7017 120.929 86.6379 121.038 86.5879C121.316 86.4648 121.585 86.3365 121.855 86.2017C122.238 85.9993 122.69 85.9452 123.114 86.0507C123.539 86.1563 123.904 86.4133 124.134 86.7681C124.352 87.1307 124.411 87.5599 124.3 87.9636C124.188 88.3674 123.914 88.7136 123.536 88.928V88.9274Z" fill="#211715"/>
<path d="M117.187 72.9536C116.855 74.0893 116.589 75.2415 116.391 76.4049L116.45 75.9852C116.427 76.143 116.422 76.3028 116.437 76.4615L116.378 76.0418C116.389 76.1147 116.407 76.1865 116.432 76.2563L116.264 75.8786C116.287 75.9268 116.313 75.973 116.344 76.0168L116.084 75.697C116.119 75.7383 116.159 75.7756 116.203 75.8082L115.866 75.5615C115.958 75.6161 116.055 75.6644 116.154 75.7062L115.756 75.547C115.912 75.609 116.075 75.6532 116.242 75.6786L115.799 75.622C115.951 75.6395 116.104 75.6395 116.256 75.622L115.813 75.6786C115.985 75.6556 116.154 75.6161 116.326 75.5944C116.76 75.4983 117.216 75.5549 117.609 75.7536C117.991 75.9649 118.268 76.3112 118.38 76.7163C118.492 77.1213 118.43 77.552 118.207 77.9135C118.101 78.0916 117.959 78.2475 117.787 78.3719C117.616 78.4963 117.421 78.5865 117.212 78.6372C116.838 78.6852 116.475 78.776 116.095 78.7918C115.532 78.7954 114.975 78.6709 114.473 78.4287C114.158 78.2956 113.879 78.0969 113.656 77.8475C113.434 77.598 113.273 77.3042 113.186 76.9878C113.073 76.4684 113.079 75.9319 113.204 75.4148C113.402 74.3023 113.673 73.2003 113.975 72.1101C114.092 71.7064 114.374 71.3634 114.758 71.1566C115.143 70.9498 115.598 70.8962 116.024 71.0075C116.45 71.1188 116.811 71.386 117.029 71.7502C117.248 72.1144 117.304 72.5459 117.187 72.9496V72.9536Z" fill="#211715"/>
<path d="M136.633 63.2285C137.241 65.1015 136.841 69.4128 133.101 69.7773C128.154 69.749 127.891 64.5397 129.556 62.0903C130.92 60.0844 134.929 59.2508 136.633 63.2285Z" fill="#211715"/>
<path d="M97.0121 63.2285C96.4042 65.1015 96.7998 69.4128 100.543 69.7773C105.491 69.749 105.755 64.5397 104.089 62.0903C102.726 60.0844 98.716 59.2508 97.0121 63.2285Z" fill="#211715"/>
<path d="M46.9 53H23.1C20.2834 53 18 55.2834 18 58.1V95.5C18 98.3167 20.2834 100.6 23.1 100.6H46.9C49.7167 100.6 52 98.3167 52 95.5V58.1C52 55.2834 49.7167 53 46.9 53Z" fill="#FF8F00"/>
<path d="M41.5572 87.0001H27.9572C27.5064 87.0001 27.0739 86.8209 26.7551 86.5022C26.4364 86.1834 26.2572 85.7509 26.2572 85.3001C26.2572 84.8493 26.4364 84.4168 26.7551 84.098C27.0739 83.7793 27.5064 83.6001 27.9572 83.6001H41.5572C42.008 83.6001 42.4405 83.7793 42.7593 84.098C43.078 84.4168 43.2572 84.8493 43.2572 85.3001C43.2572 85.7509 43.078 86.1834 42.7593 86.5022C42.4405 86.8209 42.008 87.0001 41.5572 87.0001Z" fill="#E0E0E0"/>
<path d="M38.1571 92.3429H31.3571C30.9063 92.3429 30.4738 92.1637 30.155 91.8449C29.8363 91.5262 29.6571 91.0937 29.6571 90.6429C29.6571 90.192 29.8363 89.7596 30.155 89.4408C30.4738 89.1221 30.9063 88.9429 31.3571 88.9429H38.1571C38.6079 88.9429 39.0404 89.1221 39.3592 89.4408C39.6779 89.7596 39.8571 90.192 39.8571 90.6429C39.8571 91.0937 39.6779 91.5262 39.3592 91.8449C39.0404 92.1637 38.6079 92.3429 38.1571 92.3429Z" fill="#E0E0E0"/>
<path d="M45.1906 68.0676C45.1387 67.7453 44.9976 67.4445 44.7838 67.2003C44.5698 66.9561 44.2918 66.7785 43.982 66.688L38.7216 65.1705L36.4574 60.7214C36.313 60.4433 36.0963 60.2105 35.8307 60.0481C35.5653 59.8857 35.261 59.7998 34.9508 59.7998C34.6406 59.7998 34.3364 59.8857 34.0708 60.0481C33.8052 60.2105 33.5885 60.4433 33.4442 60.7214L31.146 65.1705L26.0388 66.7052C25.7313 66.7944 25.4549 66.9696 25.2411 67.2105C25.0274 67.4514 24.8849 67.7485 24.8301 68.0676C24.7693 68.3909 24.8012 68.7251 24.9219 69.0307C25.0426 69.3363 25.247 69.6004 25.511 69.792L28.9158 72.2408L28.1668 76.7072C28.106 77.0305 28.1378 77.3647 28.2585 77.6703C28.3792 77.9758 28.5837 78.24 28.8477 78.4316C29.1467 78.6432 29.5047 78.752 29.8692 78.742C30.1397 78.7448 30.4073 78.6858 30.6523 78.5696L34.9763 76.2933L39.3174 78.4834C39.5894 78.6118 39.8903 78.6651 40.1892 78.6379C40.4881 78.6106 40.7748 78.5039 41.0198 78.3282C41.284 78.1366 41.4885 77.8724 41.609 77.5668C41.7297 77.2612 41.7615 76.927 41.7008 76.6037L41.0028 72.1373L44.4075 69.7058C44.6758 69.5339 44.8915 69.2894 45.0299 69C45.1682 68.7104 45.224 68.3875 45.1906 68.0676Z" fill="#FFE500"/>
<path d="M23.1 53C21.7474 53 20.4502 53.5373 19.4938 54.4938C18.5373 55.4502 18 56.7474 18 58.1V95.5C18 96.8525 18.5373 98.1498 19.4938 99.1062C20.4502 100.063 21.7474 100.6 23.1 100.6H35V53H23.1Z" fill="#FFA726"/>
<path d="M28.0058 83.6001C27.5421 83.6001 27.0972 83.7793 26.7694 84.098C26.4415 84.4168 26.2572 84.8493 26.2572 85.3001C26.2572 85.7509 26.4415 86.1834 26.7694 86.5022C27.0972 86.8209 27.5421 87.0001 28.0058 87.0001H35.0001V83.6001H28.0058Z" fill="#FAFAFA"/>
<path d="M31.4381 88.9429C30.9657 88.9429 30.5127 89.1221 30.1787 89.4408C29.8448 89.7596 29.6571 90.192 29.6571 90.6429C29.6571 91.0937 29.8448 91.5262 30.1787 91.8449C30.5127 92.1637 30.9657 92.3429 31.4381 92.3429H35V88.9429H31.4381Z" fill="#FAFAFA"/>
<path d="M33.4643 60.6495L31.1607 65.1164L26.0417 66.6573C25.7335 66.7468 25.4564 66.9225 25.2421 67.1644C25.0279 67.4063 24.8851 67.7046 24.8302 68.025C24.7692 68.3497 24.8012 68.685 24.9221 68.9918C25.0431 69.2986 25.2481 69.5639 25.5127 69.7564L28.9254 72.2149L28.1746 76.699C28.1137 77.0237 28.1456 77.359 28.2666 77.6658C28.3876 77.9726 28.5925 78.2379 28.8572 78.4304C29.1568 78.6428 29.5156 78.7521 29.881 78.742C30.1521 78.7446 30.4204 78.6856 30.6659 78.5689L35 76.2835V59.8011C34.6924 59.7889 34.3873 59.8612 34.117 60.0106C33.8466 60.1599 33.6211 60.3807 33.4643 60.6495Z" fill="#FFE500"/>
</svg>
