<svg width="582" height="282" viewBox="0 0 582 282" fill="none" xmlns="http://www.w3.org/2000/svg">
<rect x="1" y="49" width="580" height="222" rx="15" fill="#F2F2F2" stroke="#CE1340" stroke-width="2"/>
<path d="M306.817 190H280.249V185.392L287.017 179.56V164.872H263.833V182.512L271.969 184.744L269.377 190H242.809V185.392L249.577 179.56V140.824L241.513 138.592L244.105 133.408H270.673V137.944L263.833 143.848V158.752H287.017V140.824L278.953 138.592L281.545 133.408H308.113V137.944L301.273 143.848V182.512L309.409 184.744L306.817 190ZM369.681 152.416L365.145 154.36L354.921 139.6H348.873V182.728L357.009 184.744L354.417 190H327.849V185.392L334.617 180.064V139.6H328.713L318.489 154.36L314.025 152.416V132.112L319.569 133.408H364.065L369.681 132.112V152.416ZM430.712 152.416L426.176 154.36L415.952 139.6H409.904V182.728L418.04 184.744L415.448 190H388.88V185.392L395.648 180.064V139.6H389.744L379.52 154.36L375.056 152.416V132.112L380.6 133.408H425.096L430.712 132.112V152.416ZM465.968 161.776C468.368 161.776 470.24 160.888 471.584 159.112C472.976 157.336 473.672 154.888 473.672 151.768C473.672 148.168 472.808 145.24 471.08 142.984C469.352 140.728 466.808 139.6 463.448 139.6C461.336 139.6 459.368 140.248 457.544 141.544V182.152L470.432 184.744L467.84 190H436.52V185.392L443.288 180.064V141.04L435.224 138.592L437.816 133.408H450.848C455.024 133.408 459.128 133.264 463.16 132.976C466.04 132.784 468.2 132.688 469.64 132.688C473.48 132.688 476.888 133.432 479.864 134.92C482.84 136.36 485.144 138.376 486.776 140.968C488.408 143.512 489.224 146.368 489.224 149.536C489.224 152.992 487.856 156.256 485.12 159.328C482.432 162.352 479.024 164.752 474.896 166.528C470.816 168.256 466.832 169.024 462.944 168.832L459.92 166.96L462.512 161.776H465.968ZM523.202 178.408C523.202 176.968 522.626 175.6 521.474 174.304C520.37 173.008 519.002 171.832 517.37 170.776C515.738 169.672 513.458 168.28 510.53 166.6C506.93 164.536 504.05 162.784 501.89 161.344C499.73 159.856 497.882 158.128 496.346 156.16C494.81 154.144 494.042 151.936 494.042 149.536C494.042 147.136 495.17 144.568 497.426 141.832C499.682 139.048 502.442 136.72 505.706 134.848C509.018 132.928 512.042 131.968 514.778 131.968C518.09 131.968 521.954 132.328 526.37 133.048C530.834 133.768 534.098 134.536 536.162 135.352V151.624H528.098C526.274 147.736 524.186 144.712 521.834 142.552C519.482 140.392 517.034 139.312 514.49 139.312C512.81 139.312 511.49 139.864 510.53 140.968C509.57 142.024 509.09 143.392 509.09 145.072C509.09 146.608 509.666 148.072 510.818 149.464C511.97 150.808 513.386 152.056 515.066 153.208C516.794 154.312 519.146 155.68 522.122 157.312C525.626 159.28 528.434 160.984 530.546 162.424C532.706 163.864 534.53 165.568 536.018 167.536C537.554 169.456 538.322 171.592 538.322 173.944C538.322 176.344 537.098 178.936 534.65 181.72C532.25 184.456 529.322 186.784 525.866 188.704C522.41 190.576 519.242 191.512 516.362 191.512C512.858 191.512 508.73 191.152 503.978 190.432C499.226 189.712 495.794 188.944 493.682 188.128V171.784H501.674C503.642 175.672 505.946 178.696 508.586 180.856C511.274 183.016 513.986 184.096 516.722 184.096C518.69 184.096 520.25 183.544 521.402 182.44C522.602 181.336 523.202 179.992 523.202 178.408Z" fill="#CE1340"/>
<path d="M77.4434 0.15863C77.842 0.205505 78.3111 0.416443 78.4518 0.603943C78.616 0.791443 79.0146 0.932068 79.3195 0.932068C79.6478 0.932068 80.1638 1.14301 80.4921 1.40082C80.8204 1.65863 81.2426 1.86957 81.4302 1.86957C81.782 1.86957 82.6028 2.36176 83.6815 3.25238C84.7603 4.14301 87.6683 7.04926 87.9498 7.51801C88.4188 8.31488 89.1224 9.27582 89.7556 10.0258C90.1073 10.4477 90.4122 10.9164 90.4122 11.0805C90.4122 11.2211 90.7874 11.9008 91.2565 12.5805C91.7255 13.2602 92.0538 13.9399 92.0069 14.0805C91.96 14.2446 92.1007 14.5727 92.3353 14.8071C92.5698 15.0414 92.7574 15.4399 92.7574 15.6743C92.7574 15.9321 92.8746 16.2133 93.0154 16.2836C93.1326 16.3774 93.203 16.5649 93.1795 16.6821C93.1326 16.8227 93.3437 17.1977 93.6485 17.5024C94.1645 18.0414 94.1879 18.0883 93.8362 18.6274C93.4609 19.1899 93.4609 19.2133 93.9534 19.2133C94.2348 19.2133 94.4225 19.2836 94.3287 19.3539C94.2583 19.4243 94.399 19.7055 94.657 19.9868C94.8915 20.2446 95.1026 20.7133 95.1026 21.018C95.1026 21.3227 95.2902 21.8618 95.5012 22.1899C95.8061 22.6586 95.8296 22.8461 95.6185 22.9164C95.4074 22.9868 95.4543 23.1977 95.8061 23.643C96.0641 24.018 96.2048 24.3696 96.111 24.4633C96.0406 24.5336 96.0875 24.6039 96.2282 24.6039C96.58 24.6039 96.6973 25.2836 96.4862 26.0571C96.369 26.4789 96.3924 26.7133 96.5566 26.7133C96.6973 26.7133 96.7676 26.7836 96.6738 26.8539C96.6035 26.9243 96.6973 27.393 96.8614 27.8852C97.0256 28.3774 97.1194 28.8461 97.0256 28.9164C96.7676 29.1977 96.7442 30.0414 96.9787 30.3461C97.096 30.4868 97.1429 30.6977 97.0491 30.768C96.9787 30.8618 97.0256 30.9321 97.1898 30.9321C97.3305 30.9321 97.2601 31.1664 96.9787 31.4477C96.5097 31.9633 96.2986 31.9868 91.9131 32.0571C88.6299 32.1274 87.3635 32.2211 87.3635 32.4086C87.4338 34.5649 87.856 38.5258 88.0905 38.9477C88.6299 39.9555 89.8494 40.6352 91.8662 41.0102C93.3202 41.2914 93.93 41.7836 93.93 42.6743C93.93 43.5415 92.5932 44.8774 91.3503 45.2524C90.506 45.5102 90.248 45.4868 89.2162 45.0415L88.0436 44.5493L88.1843 45.2993C88.4188 46.3305 89.1927 47.6899 90.5529 49.4243C91.6082 50.7602 91.7724 50.854 92.4056 50.7368C94.868 50.2446 95.4074 50.2915 97.3539 51.2758C98.55 51.8618 99.6522 52.6586 100.379 53.4086C101.435 54.5102 101.622 54.604 102.302 54.4868C102.701 54.4165 104.155 54.2524 105.539 54.1352C108.705 53.854 111.073 54.1352 114.333 55.2133C116.678 55.9633 116.913 56.0805 117.827 57.1821C118.367 57.8383 118.789 58.5415 118.742 58.7758C118.695 58.9868 118.953 59.4086 119.328 59.7368C119.844 60.1586 119.961 60.4633 119.915 61.0258L119.844 61.7524L118.085 61.893C116.186 62.0571 114.052 62.854 113.301 63.6977C112.879 64.1899 112.879 64.2133 113.723 65.3149C114.943 66.9086 118.203 71.9711 119.023 73.5649C119.399 74.2915 120.196 76.1665 120.782 77.7602C122.142 81.393 122.424 83.5258 122.072 86.9711C121.673 90.6743 122.189 92.1743 124.793 94.9399C126.364 96.6274 128.146 99.1821 128.897 100.87C129.272 101.737 129.483 101.924 130.186 102.041C130.96 102.206 131.078 102.346 131.922 104.127C132.461 105.229 133.048 107.034 133.329 108.346C133.61 109.588 134.079 111.487 134.408 112.565C135.017 114.604 136.026 119.643 136.26 121.987C136.729 126.51 137.691 130.963 138.488 132.299C138.723 132.674 139.309 133.893 139.778 134.995C140.271 136.096 140.716 137.057 140.81 137.174C140.904 137.268 142.757 136.916 144.961 136.401C150.754 134.995 151.504 134.877 152.372 135.135C153.028 135.346 156.077 134.69 172.493 130.87C183.141 128.385 192.216 126.252 192.662 126.112C193.905 125.713 194.679 125.807 195.359 126.37C196.883 127.706 196.039 129.885 193.881 130.213C193.272 130.284 185.064 132.252 175.659 134.573C166.232 136.87 157.578 138.979 156.429 139.26C154.928 139.612 154.107 139.94 153.568 140.385C153.028 140.877 152.161 141.206 150.167 141.674C144.82 142.94 141.654 143.69 141.232 143.807C140.974 143.901 140.834 144.159 140.834 144.581C140.834 144.932 140.669 145.424 140.482 145.682C139.849 146.526 140.083 146.854 142.288 148.307C153.591 155.596 165.575 160.518 187.854 166.963C192.545 168.299 195.124 169.307 194.89 169.659C194.82 169.776 194.96 169.94 195.218 170.034C195.476 170.104 195.781 170.315 195.922 170.479C196.133 170.737 196.062 170.76 195.547 170.69C194.913 170.596 194.937 170.62 195.711 171.065L196.531 171.534L195.828 171.557C195.429 171.557 194.702 171.323 194.186 171.065C193.225 170.526 189.473 169.213 189.05 169.213C188.91 169.237 189.73 169.588 190.88 170.034C192.029 170.479 193.084 170.948 193.201 171.065C193.553 171.416 193.389 171.393 191.325 170.76C188.441 169.87 187.526 169.659 186.002 169.541C185.204 169.495 184.219 169.401 183.821 169.331C183.398 169.26 183.047 169.237 183.047 169.284C183.047 169.448 186.119 170.338 187.268 170.526C188.839 170.76 193.6 172.495 194.257 173.081C194.304 173.127 194.21 173.362 194.046 173.643C193.811 173.995 193.577 174.088 193.131 173.971L192.545 173.831L193.014 174.37L193.483 174.909L192.521 174.768C191.419 174.581 187.127 173.291 184.923 172.448C182.836 171.651 182.015 171.463 182.249 171.815C182.343 172.002 182.32 172.026 182.132 171.932C181.874 171.768 178.825 171.534 178.825 171.674C178.825 171.721 179.904 172.284 181.241 172.94C183.656 174.112 185.415 174.698 187.151 174.909L188.089 175.026L186.916 174.487C185.345 173.737 185.626 173.76 188.065 174.604C190.528 175.424 190.786 175.612 190.669 176.432C190.622 176.784 190.575 177.135 190.575 177.229C190.551 177.346 190.317 177.416 190.035 177.416C189.543 177.416 189.543 177.44 189.965 177.745C190.34 178.026 190.246 178.049 189.144 177.932C188.253 177.862 187.948 177.885 188.065 178.096C188.394 178.612 187.221 178.354 183.797 177.088C172.071 172.823 162.198 168.627 154.318 164.573C153.709 164.268 153.662 164.268 153.896 164.573C154.271 165.018 154.06 165.229 153.286 165.229C152.724 165.229 152.724 165.229 153.169 165.581C153.591 165.909 153.568 165.932 152.935 165.791C152.442 165.674 152.301 165.698 152.419 165.909C152.536 166.073 152.395 166.166 152.09 166.166C151.809 166.166 151.668 166.26 151.739 166.401C151.809 166.518 151.715 166.635 151.504 166.635C151.293 166.635 151.176 166.729 151.246 166.846C151.34 166.963 151.246 167.104 151.105 167.174C150.871 167.245 150.871 167.338 151.105 167.643C151.481 168.088 151.129 168.229 149.182 168.393C148.01 168.463 147.4 168.323 144.539 167.338C141.42 166.237 140.13 165.932 140.13 166.331C140.13 166.565 136.19 166.541 135.557 166.307C135.299 166.213 135.487 166.354 136.002 166.635C136.823 167.104 136.87 167.174 136.542 167.526C136.214 167.831 136.049 167.831 135.557 167.62L134.924 167.338L135.416 167.948C136.002 168.698 135.979 168.721 134.806 169.026C133.423 169.401 132.813 169.307 131.031 168.44C129.882 167.901 129.248 167.713 128.897 167.831C128.592 167.948 127.818 167.807 126.739 167.456C124.746 166.776 124.746 166.776 125.121 167.221C125.473 167.643 125.285 167.666 124.605 167.315C123.643 166.799 123.972 167.315 125.004 167.924C125.613 168.276 126.153 168.487 126.223 168.44C126.27 168.37 127.02 168.557 127.841 168.885C129.553 169.518 129.67 169.541 129.459 169.213C129.366 169.049 129.506 169.049 129.858 169.19C130.163 169.307 130.984 169.565 131.687 169.799C132.391 170.034 133.118 170.315 133.282 170.456C134.009 171.041 133.001 172.026 131.64 172.026C131.195 172.026 131.007 172.12 131.124 172.284C131.289 172.565 130.679 172.518 129.694 172.143C129.436 172.049 129.6 172.237 130.046 172.541L130.867 173.081L129.858 173.151C129.319 173.198 128.92 173.315 128.99 173.456C129.084 173.573 128.568 173.666 127.747 173.666C126.575 173.666 126.012 173.502 123.995 172.495C122.682 171.862 121.603 171.393 121.603 171.44C121.603 171.487 121.931 171.721 122.307 171.909C122.705 172.12 122.963 172.377 122.893 172.471C122.752 172.752 123.456 173.01 123.761 172.799C123.925 172.706 123.948 172.776 123.831 172.963C123.69 173.174 123.737 173.245 123.972 173.151C124.159 173.081 124.581 173.151 124.91 173.338C125.449 173.643 125.449 173.643 124.652 173.526C122.541 173.198 121.486 172.799 118.203 171.112C112.48 168.112 105.257 163.799 100.356 160.377L98.1982 158.901L98.034 160.26C97.9168 161.362 96.8614 166.659 96.3924 168.698C96.2751 169.143 96.4159 169.284 97.1429 169.588C98.6907 170.245 98.6907 170.291 97.7057 171.745C97.0256 172.752 96.6035 173.784 96.0406 175.893C95.6185 177.44 95.1495 178.776 95.0088 178.87C94.868 178.963 94.8446 179.104 94.9149 179.198C95.1495 179.409 92.5698 184.448 92.2414 184.448C92.0773 184.448 92.1476 184.588 92.3821 184.752C92.7808 185.034 92.7808 185.127 92.476 185.737C92.0304 186.581 92.2649 187.682 93.3202 189.791C93.8362 190.799 94.5163 191.69 95.1729 192.229C97.096 193.823 99.7695 198.37 101.177 202.495C101.481 203.338 102.138 205.659 102.654 207.651C103.803 212.057 103.92 214.424 103.1 217.26C101.575 222.557 101.599 222.37 101.739 227.737C101.833 230.901 101.786 232.987 101.622 233.479C101.294 234.534 101.388 235.799 101.833 236.291C102.021 236.502 102.584 236.807 103.053 236.971C104.178 237.323 104.788 237.909 105.961 239.831C106.57 240.815 107.133 241.471 107.485 241.565C108.189 241.729 108.939 242.831 108.939 243.674C108.939 244.823 107.063 248.291 103.897 253.002C102.044 255.768 100.309 258.698 99.3239 260.737C97.4712 264.557 96.9552 265.284 95.3371 266.502C93.8362 267.627 92.4994 268.237 90.0839 268.846C87.598 269.502 85.6515 269.549 85.0886 268.987C84.4555 268.354 84.5024 266.127 85.1825 265.143C85.4873 264.745 85.7218 264.229 85.7218 263.971C85.7218 263.221 88.2312 260.69 89.9666 259.682C91.8193 258.581 91.9366 258.229 90.9516 256.823C90.4826 256.12 90.3184 255.581 90.2949 254.573C90.2715 253.846 90.0604 252.346 89.8494 251.245C89.6617 250.143 89.3803 247.893 89.2396 246.229C89.1224 244.565 88.7706 242.385 88.5126 241.377C88.0436 239.69 88.0201 239.526 88.3953 239.174C88.8644 238.682 88.8644 238.682 88.2312 237.088L87.6683 235.729L86.6599 238.635C84.2444 245.502 83.7988 246.299 81.993 246.956C80.8439 247.354 80.8439 247.377 80.6797 248.549C80.4921 250.26 80.5625 253.096 80.8204 254.174C80.9611 254.69 81.2895 255.323 81.524 255.604C81.782 255.885 82.2041 256.635 82.4386 257.291L82.9076 258.487L82.1806 260.784C81.2191 263.971 80.7032 266.01 79.7416 270.604C78.6863 275.807 78.3345 276.862 77.4668 277.87C76.6226 278.807 74.3243 280.049 71.8384 280.87C67.9689 282.159 63.2316 282.112 62.8798 280.799C62.4811 279.299 62.5046 278.737 63.0674 277.94C63.8648 276.815 65.5533 273.323 65.5533 272.807C65.5533 272.127 67.5702 266.784 68.133 266.01C68.9773 264.815 69.7277 258.44 69.6339 253.049C69.587 250.635 69.6339 248.268 69.7277 247.799C69.8919 247.049 69.8215 246.862 69.376 246.44C68.8366 245.971 68.8131 245.877 68.7193 240.581C68.6255 235.026 68.1799 228.627 67.4998 223.12C66.8901 218.198 66.9839 213.487 67.875 207.182C68.7428 200.831 68.8131 197.549 68.133 193.963C67.875 192.627 67.4529 191.057 67.2184 190.495C66.9604 189.932 66.6555 188.643 66.5148 187.612C66.1865 185.221 66.0927 180.932 66.3507 180.393C66.5148 180.065 66.3976 179.948 65.8347 179.737C64.6622 179.338 63.9821 177.346 64.6387 176.291C64.8732 175.94 64.8029 175.635 64.2869 174.768C63.771 173.901 63.7006 173.596 63.9117 173.221C64.1697 172.729 64.0289 172.401 62.3873 169.448C62.059 168.862 61.801 168.276 61.801 168.135C61.801 167.995 61.4258 167.456 60.9568 166.916C60.0187 165.815 60.0421 165.299 61.0037 164.549C61.7776 163.94 61.7307 163.495 60.9099 163.659C60.5581 163.706 58.9634 164.01 57.3452 164.291C52.6548 165.112 49.5358 164.784 47.6362 163.26C47.214 162.909 47.214 162.885 47.8238 162.159C49.6296 160.026 53.077 158.034 57.1576 156.768L59.5028 156.041L59.362 155.291C58.424 150.791 58.2833 147.206 58.635 136.096C58.7289 132.651 58.7289 129.838 58.6116 129.838C58.5178 129.838 58.0018 130.237 57.4624 130.752C56.9465 131.245 55.3283 132.557 53.8743 133.682C43.0631 141.956 32.3925 145.12 25.4977 142.143C23.0352 141.065 20.01 138.276 18.767 135.909C13.5138 125.901 20.3148 106.823 34.6439 91.4946C37.3643 88.5883 40.8351 85.3774 43.4617 83.3618C44.2591 82.729 44.8689 82.1665 44.8219 82.0727C44.775 81.979 44.8219 81.2993 44.9392 80.5493C45.3379 78.0415 46.1821 76.8696 49.3716 74.3149C50.2393 73.6118 50.5207 73.518 51.5995 73.5415C52.6783 73.5649 53.0301 73.4477 54.3668 72.5805C55.2111 72.0415 56.6886 70.9165 57.6735 70.0727L59.4324 68.5493V66.6743C59.4559 64.6586 60.0891 62.8305 61.1678 61.6586C62.4577 60.2993 65.9051 58.5883 67.4529 58.5883C68.0158 58.5883 68.1096 58.4711 68.2503 57.6274C68.391 56.7602 68.2503 56.3618 66.1865 52.3071C63.9821 47.9711 63.6537 47.0336 63.3019 44.0102C63.1847 42.9555 63.044 42.604 62.5984 42.2993C62.1997 42.0415 62.0356 41.7133 62.0356 41.2211C62.0356 40.8227 61.9183 40.2836 61.7776 40.0258C61.3789 39.2993 61.2851 33.9555 61.6603 33.5102C61.8245 33.3227 62.0825 32.6899 62.2466 32.1039C62.4108 31.518 62.8095 30.5571 63.1143 29.9477C63.7944 28.5883 63.7944 28.6352 63.1378 28.5414C62.7626 28.4946 62.6453 28.3305 62.6687 27.9555C62.7157 27.6039 62.2466 27.0414 61.0271 25.9633C60.0891 25.1196 59.1275 24.3227 58.8461 24.1821C58.0722 23.7836 56.454 22.3774 54.3434 20.3383C52.5141 18.5336 52.1389 17.9477 52.6548 17.7602C52.7721 17.7133 52.9363 17.3149 52.9832 16.8696C53.0301 16.4243 53.077 15.9789 53.1004 15.8852C53.1004 15.7914 53.3115 15.6743 53.5695 15.5805C53.8509 15.4868 53.9681 15.2758 53.9212 14.8774C53.8978 14.4789 54.062 14.1508 54.4372 13.8461C54.7421 13.6118 54.9297 13.3539 54.8593 13.2836C54.5779 13.0024 55.0704 12.1352 55.6098 11.9477C55.9381 11.8071 56.1726 11.5727 56.1492 11.4321C56.0788 10.7524 56.1961 10.518 56.7589 10.3071C57.1576 10.143 57.3452 9.90863 57.3452 9.51019C57.3452 9.08832 57.5563 8.80707 58.0253 8.54926C58.424 8.36176 58.8696 7.91644 59.0337 7.56488C59.1979 7.21332 59.6435 6.76801 59.9953 6.60394C60.347 6.43988 60.6284 6.11176 60.6284 5.85394C60.6284 5.59613 60.8864 5.33832 61.3085 5.19769C61.7541 5.03363 62.0356 4.77582 62.0825 4.40082C62.1294 4.02582 62.3873 3.79144 62.8798 3.62738C63.2785 3.48676 64.0759 2.99457 64.6856 2.50238C65.2719 2.03363 65.8816 1.63519 66.0458 1.63519C66.1865 1.63519 66.6555 1.42426 67.0542 1.18988C68.6021 0.25238 73.9022 -0.286682 77.4434 0.15863ZM75.9659 19.3774C76.0128 19.6352 76.2708 19.8227 76.646 19.8696C77.373 19.9633 77.4903 19.5883 76.8571 19.2368C76.2473 18.8618 75.8956 18.9321 75.9659 19.3774ZM121.251 113.596C122.635 124.073 124.089 128.877 127.302 133.893L128.474 135.745L129.248 134.479C129.764 133.682 130.022 132.979 129.999 132.534C129.975 132.135 130.022 131.713 130.093 131.573C130.28 131.315 129.272 128.198 128.756 127.424C128.568 127.12 128.381 126.674 128.334 126.44C128.31 126.182 128.099 125.713 127.888 125.385C127.677 125.057 127.443 124.565 127.349 124.26C127.278 123.979 127.091 123.745 126.974 123.745C126.833 123.745 126.528 123.276 126.293 122.713C126.035 122.151 125.66 121.565 125.473 121.401C125.285 121.237 125.121 120.932 125.121 120.698C125.121 120.463 124.957 120.159 124.769 119.995C124.581 119.854 124.37 119.479 124.277 119.221C124.206 118.94 123.878 118.377 123.573 117.956C123.268 117.557 123.01 117.018 123.01 116.784C123.01 116.526 122.846 116.127 122.658 115.87C122.471 115.635 122.307 115.307 122.307 115.166C122.307 114.815 121.369 112.729 121.228 112.729C121.181 112.729 121.181 113.127 121.251 113.596ZM129.061 127.073C129.225 127.237 129.342 127.26 129.342 127.12C129.342 126.791 129.061 126.51 128.897 126.674C128.85 126.745 128.92 126.932 129.061 127.073ZM129.459 161.526C130.749 162.206 131.922 162.674 131.922 162.534C131.922 162.37 129.061 161.01 128.756 161.01C128.615 161.034 128.943 161.245 129.459 161.526ZM130.843 162.768C131.101 162.956 131.429 163.12 131.547 163.12C131.687 163.096 131.547 162.956 131.218 162.768C130.468 162.323 130.28 162.346 130.843 162.768ZM128.052 164.76C128.123 164.877 128.334 164.995 128.474 164.995C128.639 164.995 128.615 164.901 128.404 164.76C127.958 164.479 127.865 164.479 128.052 164.76ZM132.133 165.088C132.274 165.276 132.86 165.534 133.399 165.674C133.939 165.838 134.548 166.002 134.736 166.073C135.416 166.284 133.681 165.37 132.86 165.088C131.805 164.69 131.805 164.69 132.133 165.088ZM128.615 165.932C128.943 166.213 129.037 166.401 128.85 166.401C128.662 166.424 129.037 166.682 129.647 167.01C130.28 167.338 130.843 167.549 130.913 167.479C130.984 167.432 130.632 167.151 130.116 166.893C128.967 166.284 129.225 166.26 130.655 166.87C132.438 167.643 132.133 167.198 130.257 166.284C128.334 165.37 127.771 165.252 128.615 165.932ZM122.658 167.338C123.057 167.784 123.057 167.807 122.096 167.69C121.58 167.643 121.134 167.666 121.134 167.737C121.134 167.948 121.884 168.487 123.081 169.12C123.69 169.424 124.136 169.799 124.066 169.916C123.995 170.034 124.159 170.245 124.441 170.385C125.097 170.76 124.863 170.924 124.089 170.643C123.104 170.268 123.385 170.549 124.699 171.323C125.379 171.698 126.247 172.026 126.645 172.026C127.02 172.049 127.607 172.19 127.935 172.377C128.732 172.823 128.85 172.799 128.709 172.237C128.615 171.932 127.935 171.44 126.786 170.877C125.801 170.362 124.793 169.729 124.535 169.448L124.066 168.932L124.98 169.307C126.247 169.846 126.317 169.776 125.238 169.096C124.3 168.534 124.253 168.276 125.168 168.768C125.496 168.932 125.59 168.956 125.496 168.768C125.355 168.557 122.565 166.893 122.33 166.87C122.283 166.87 122.424 167.081 122.658 167.338ZM128.873 170.502C129.717 170.948 130.491 171.299 130.632 171.299C130.749 171.299 130.186 170.948 129.342 170.502C128.498 170.057 127.701 169.706 127.583 169.706C127.443 169.706 128.029 170.057 128.873 170.502ZM180.819 170.151C180.889 170.268 181.1 170.385 181.288 170.385C181.452 170.385 182.32 170.76 183.187 171.206C184.923 172.12 186.166 172.518 188.98 173.081C191.231 173.549 191.818 173.432 190.082 172.87C189.379 172.635 188.441 172.237 188.042 172.002C186.869 171.346 183.961 170.174 184.126 170.432C184.219 170.573 183.914 170.596 183.352 170.502C182.601 170.362 180.983 170.01 180.748 169.94C180.702 169.916 180.748 170.01 180.819 170.151ZM122.658 171.088C122.823 171.37 123.878 171.932 124.816 172.26C125.449 172.495 125.449 172.471 125.004 172.12C124.605 171.815 122.823 170.877 122.588 170.854C122.541 170.854 122.588 170.971 122.658 171.088ZM180.561 174.815C180.655 174.932 180.584 175.073 180.42 175.12C180.115 175.237 183.797 176.713 184.337 176.713C184.923 176.713 184.923 176.291 184.36 175.94C183.774 175.541 181.264 174.627 180.748 174.604C180.584 174.604 180.49 174.698 180.561 174.815ZM89.4741 239.291C89.6148 239.549 89.8259 239.76 89.9432 239.76C90.0839 239.76 90.0604 239.549 89.8963 239.291C89.7321 239.034 89.521 238.823 89.4038 238.823C89.31 238.823 89.3334 239.034 89.4741 239.291ZM91.1627 248.268C91.233 250.166 91.3737 251.549 91.5613 251.831C91.8193 252.276 91.8428 252.252 91.7255 251.69C91.6551 251.362 91.5144 249.745 91.4441 248.127C91.3503 246.487 91.233 245.151 91.1627 245.151C91.1158 245.151 91.0923 246.557 91.1627 248.268Z" fill="#CE1340"/>
</svg>
