<svg width="629" height="247" viewBox="0 0 629 247" fill="none" xmlns="http://www.w3.org/2000/svg">
<rect x="1" y="24" width="580" height="222" rx="15" fill="#F2F2F2" stroke="#CE1340" stroke-width="2"/>
<rect x="28" y="52" width="527" height="166" rx="7" fill="white" stroke="#CE1340" stroke-width="2"/>
<g clip-path="url(#clip0_729_959)">
<path d="M581.221 1.89104C579.674 2.81729 578.126 3.78214 577.758 4.03299C577.41 4.28386 576.366 4.88205 575.476 5.32588C574.586 5.78902 573.271 6.56088 572.555 7.06261C571.839 7.56432 570.679 8.20113 569.963 8.49057C568.396 9.12737 567.216 9.80276 566.172 10.6711C565.727 11.0378 565.05 11.4044 564.643 11.4816C563.541 11.6746 561.297 12.8131 560.33 13.6621C559.691 14.2025 559.208 14.4533 558.57 14.5498C557.409 14.7235 555.146 15.8041 554.198 16.6532C553.676 17.1356 553.192 17.3478 552.534 17.4443C552.031 17.5215 551.296 17.6952 550.909 17.8303C550.271 18.0425 550.136 18.0232 549.207 17.5215C547.756 16.7496 544.836 15.7269 542.727 15.2831C540.328 14.7621 538.181 14.5305 533.926 14.2796C526.652 13.8358 524.273 13.2762 521.372 11.2886C520.153 10.4588 520.366 10.8834 521.778 12.0605C523.19 13.2376 525.105 14.2989 526.459 14.6656C526.923 14.7814 527.252 14.9357 527.194 14.9743C527.039 15.148 522.416 14.3182 520.579 13.7972C519.631 13.5271 518.006 13.1218 517 12.9096C514.021 12.2535 512.164 12.6973 510.365 14.434C509.108 15.6497 508.779 16.3058 509.939 15.3024C511.758 13.6814 514.176 13.2955 517.406 14.106C519.495 14.627 519.96 14.8971 518.451 14.7042C517.812 14.627 516.632 14.5691 515.839 14.5884C514.098 14.5884 512.976 15.0708 511.835 16.2672C511.352 16.7882 511.274 16.9426 511.584 16.7303C512.532 16.0742 513.75 15.5918 514.775 15.4953C515.917 15.3796 518.354 15.5918 518.354 15.8041C518.354 15.8813 517.89 16.0549 517.348 16.2093C515.743 16.6146 513.808 17.4443 512.474 18.3127C509.939 19.9722 507.386 20.3195 504.717 19.3933L503.363 18.9302L504.136 19.5863C505.2 20.5125 506.67 21.0335 508.257 21.0528L509.553 21.0721L508.392 21.3423C505.819 21.9212 504.272 21.5932 501.951 20.0494C500.403 19.0074 500.403 19.046 501.66 20.6862C502.608 21.9405 503.808 22.7124 505.278 23.079L506.264 23.3106L505.374 23.3299C504.136 23.3492 502.976 22.9053 501.68 21.9019C501.061 21.4195 500.558 21.1107 500.558 21.1879C500.558 21.4967 502.802 23.6 503.537 23.9667C503.943 24.1789 504.813 24.4684 505.471 24.6035C506.419 24.7964 506.554 24.8736 506.167 24.9508C497.888 26.9191 496.457 27.5173 493.517 30.3539L491.95 31.8784L493.401 30.7785C494.194 30.1803 495.258 29.4663 495.761 29.2154C496.863 28.6558 498.875 27.8839 498.353 28.2313C495.277 30.1996 494.213 31.01 492.704 32.4959C491.756 33.4607 490.731 34.6571 490.441 35.1589C489.725 36.3746 489.3 38.1113 489.455 39.0761C489.609 40.0024 490.306 41.4496 490.847 41.9321C491.195 42.2408 491.195 42.2022 490.77 41.3725C490.228 40.3111 490.17 39.0954 490.596 38.0534C490.944 37.2236 492.066 35.4483 492.163 35.5641C492.201 35.6027 492.066 36.143 491.834 36.7798C491.544 37.6481 491.447 38.2849 491.505 39.4042C491.563 40.6971 491.64 40.9479 492.143 41.604C492.472 41.9899 493.207 42.5882 493.788 42.8969L494.851 43.4951L493.942 42.6075C492.569 41.2567 492.395 39.9445 493.381 38.3428C494.174 37.0692 496.612 35.1781 499.01 33.9624C499.861 33.5379 499.842 33.5572 498.179 35.2939C496.051 37.4938 495.432 38.6902 495.586 40.3304C495.625 40.9286 495.857 41.8163 496.07 42.2794L496.438 43.1285L496.341 41.8356C496.225 40.2146 496.631 39.327 498.237 37.5903C499.591 36.1623 499.668 36.2974 498.914 38.8831C497.385 44.1126 495.142 46.8914 492.433 46.8914C491.215 46.8914 490.209 46.4089 488.894 45.1932C487.714 44.0933 487.984 44.7687 489.28 46.1388C490.364 47.2966 491.408 47.7211 492.975 47.6246C494.31 47.5667 494.31 47.6632 492.936 48.1264C490.074 49.0719 487.849 48.0492 486.611 45.2511C486.398 44.7687 486.205 44.3828 486.166 44.3828C486.031 44.3828 486.456 46.2353 486.746 46.9685C487.462 48.7824 488.7 49.6894 491.176 50.2104L492.724 50.5385H491.544C489.977 50.5578 488.681 50.1332 487.443 49.207C486.824 48.7439 486.495 48.5702 486.611 48.7824C486.959 49.4385 488.217 50.4034 489.532 51.0209C490.731 51.5805 490.905 51.6191 493.11 51.6191C495.161 51.5998 495.586 51.5419 496.747 51.0788C497.463 50.8086 498.043 50.6349 498.043 50.7121C498.043 50.963 496.824 52.0436 496.205 52.3524C495.896 52.5067 494.465 52.8155 493.033 53.0471C489.242 53.6453 488.158 54.2242 487.288 56.0574C486.746 57.2152 486.669 57.8327 487.191 57.0222C488.236 55.3434 489.629 54.7452 492.724 54.668L495.045 54.6101L493.362 55.0925C491.389 55.6328 490.015 56.3082 489.358 57.0029C488.758 57.6397 488.584 59.2221 489.01 60.2062L489.3 60.8816L489.319 60.0904C489.358 58.4502 490.615 57.7169 493.594 57.5818L495.432 57.4853L494.716 57.852C492.491 59.0291 491.969 59.8974 491.931 62.5218C491.911 63.5253 491.737 65.1269 491.563 66.0918C491.099 68.4846 491.137 71.8229 491.64 73.7333C492.356 76.5121 494.039 79.1171 496.283 80.9889C498.043 82.4362 498.507 82.6485 497.424 81.4714C496.147 80.1206 495.006 78.2681 494.619 76.9945C494.174 75.5858 494.232 72.6527 494.716 70.1441L495.084 68.2144L494.987 70.6265C494.89 73.3088 495.122 75.2578 495.741 76.8594C496.244 78.1909 497.83 80.2749 499.204 81.4135L500.248 82.3011L499.242 81.0468C496.824 78.0558 496.205 75.1613 497.192 71.3019C497.54 69.9511 498.836 66.3233 498.933 66.4391C498.972 66.4777 498.836 67.2881 498.623 68.2337C498.043 70.8002 497.927 73.1737 498.295 74.621C498.662 76.0296 499.378 77.4962 500.287 78.7505C501.525 80.4293 502.009 81.7415 502.009 83.401C502.009 84.7325 501.951 84.9448 501.428 85.6974C500.538 86.9517 499.3 87.5113 497.366 87.5113C496.07 87.5113 495.625 87.4148 494.658 86.971C494.039 86.6815 493.227 86.2184 492.859 85.9289C492.279 85.4851 492.221 85.4851 492.414 85.8324C492.53 86.0447 493.052 86.6622 493.575 87.2025C494.484 88.1288 495.838 88.7656 496.96 88.7656C497.192 88.7656 497.482 88.8428 497.598 88.92C497.734 89.0164 497.076 89.1708 496.051 89.3059C492.608 89.7304 488.777 91.1391 487.249 92.5285C485.334 94.2459 485.876 96.4264 488.681 98.3947L489.629 99.0701L488.797 98.1631C487.423 96.658 487.327 95.944 488.371 95.0564C489.377 94.2266 492.685 93.5705 495.722 93.6091L496.979 93.6284L495.683 93.8792C492.994 94.4196 492.201 95.3844 493.265 96.8317C493.652 97.3334 495.064 98.607 495.238 98.607C495.277 98.607 495.064 98.1824 494.774 97.6421C494.31 96.7352 494.29 96.658 494.561 96.1563C495.084 95.23 496.554 94.8055 500.287 94.4774C504.697 94.0915 506.69 93.4547 508.179 91.9496C509.224 90.9075 509.514 90.2128 509.63 88.3796L509.727 86.7394L509.959 87.5113C511.236 91.6022 507.947 95.0949 501.815 96.1756L500.268 96.4457L502.686 96.465C506.129 96.4843 506.999 96.3107 511.1 94.8634C511.951 94.5546 509.553 96.5036 508.353 97.1018C507.27 97.6228 506.825 97.7386 505.316 97.7965C504.349 97.8351 503.479 97.9316 503.401 98.0088C503.324 98.086 504.001 98.2596 504.91 98.3947C506.748 98.6842 508.141 98.5684 509.881 98.0281C510.5 97.8351 511.003 97.7193 511.003 97.7579C511.003 98.0088 509.398 99.2631 508.527 99.6876C507.618 100.151 507.367 100.189 506.206 100.074C505.49 100.016 504.659 99.9192 504.33 99.8613C503.924 99.7841 504.059 99.8999 504.813 100.267C506.516 101.058 507.754 101.231 509.553 100.865C510.384 100.691 511.1 100.575 511.119 100.595C511.158 100.633 510.655 101.347 509.998 102.177C505.819 107.619 500.113 113.022 494.136 117.171C492.105 118.599 492.066 118.618 490.267 118.849C485.083 119.544 482.452 120.393 479.976 122.207C479.086 122.863 477.249 124.175 475.895 125.14C471.02 128.556 468.37 131.933 467.267 136.12C467.151 136.545 466.977 137.239 466.88 137.625C466.687 138.339 466.668 138.359 465.778 138.359C461.097 138.359 452.431 134.403 448.136 130.331C446.357 128.652 444.016 127.108 441.115 125.7C438.097 124.253 436.24 123.809 433.687 123.924C431.868 124.002 431.578 124.079 430.243 124.735C426.878 126.394 424.189 130.35 422.216 136.525L421.616 138.474L419.972 138.32C416.8 138.011 415.213 136.988 413.879 134.422C413.531 133.727 413.202 133.187 413.182 133.226C413.086 133.322 413.917 136.101 414.208 136.66C414.362 136.969 414.865 137.587 415.31 138.011L416.123 138.802L414.943 138.185C413.395 137.374 412.234 136.217 411.596 134.885C411.132 133.92 411.093 133.612 411.113 131.508V129.193L410.745 130.64C410.242 132.666 410.203 135.618 410.668 136.969C411.151 138.301 412.776 140.076 414.672 141.292C416.239 142.295 416.161 142.449 414.401 141.832C412.931 141.33 412.099 140.809 410.726 139.516L409.565 138.455L410.455 139.632C412.66 142.527 415.117 144.09 418.85 144.977L420.746 145.44L421.171 147.64C421.655 150.11 422.506 153.198 423.473 155.842L424.131 157.617L422.255 157.733C418.076 158.003 415.91 158.562 414.923 159.624C414.227 160.357 413.666 161.881 413.569 163.232L413.492 164.506L413.879 163.464C414.885 160.801 416.567 159.952 420.862 159.99H422.506L421.577 160.376C419.585 161.187 417.438 162.923 416.993 164.139C416.509 165.413 417.032 166.764 418.424 167.863C418.831 168.192 419.198 168.462 419.237 168.462C419.256 168.462 419.082 168.095 418.831 167.632C418.25 166.648 418.231 166.05 418.734 165.239C419.643 163.753 422.661 162.383 425.91 161.997L426.955 161.881L427.671 163.001C428.541 164.351 429.102 165.606 429.276 166.571L429.412 167.265L428.464 167.4C422.815 168.153 420.572 168.925 418.695 170.797C417.767 171.723 416.567 173.865 416.297 175.119C416.181 175.679 416.2 175.679 416.703 174.926C417.496 173.788 418.927 172.36 419.817 171.839C420.726 171.318 423.086 170.488 424.247 170.314C424.924 170.198 424.789 170.314 423.202 171.144C421.268 172.167 420.146 173.112 419.43 174.347C419.024 175.023 417.96 177.743 417.96 178.072C417.96 178.129 418.366 177.589 418.85 176.856C420.823 173.826 422.583 172.707 426.839 171.723C427.767 171.511 428.677 171.279 428.87 171.221C429.218 171.125 429.238 171.202 429.122 172.205C428.967 173.71 428.386 174.83 427.013 176.18C426.355 176.817 425.891 177.338 425.969 177.338C426.239 177.338 427.613 176.566 428.193 176.065C428.541 175.775 429.122 175.1 429.489 174.559C429.857 174.019 430.147 173.633 430.147 173.71C430.147 173.768 429.934 174.579 429.663 175.486C429.044 177.628 428.445 178.785 427.4 179.905L426.568 180.812L424.363 180.136C419.411 178.612 415.349 178.207 412.834 178.959C411.074 179.48 409.101 180.599 407.921 181.738L406.838 182.761L408.076 181.989C408.733 181.564 409.778 181.024 410.397 180.792C411.809 180.252 414.769 180.098 417.109 180.445L418.831 180.696L416.432 180.85C410.958 181.178 408.424 182.664 405.774 187.083C405.406 187.681 405.677 187.469 407.031 186.099C410.726 182.413 413.337 182.124 420.088 184.613C421.152 184.999 422.022 185.385 422.022 185.443C422.022 185.52 421.094 185.636 419.972 185.713C412.718 186.176 407.766 188.337 406.838 191.464C406.431 192.872 406.47 194.069 407.031 195.805C407.573 197.561 408.288 198.777 407.805 197.137C407.457 196.018 407.437 194.184 407.727 193.413C407.998 192.679 409.178 191.483 410.107 191C410.996 190.557 413.318 189.65 413.318 189.765C413.318 189.804 412.853 190.113 412.273 190.441C410.977 191.174 409.971 192.139 409.43 193.2C409.081 193.876 409.023 194.242 409.101 195.458C409.178 196.654 409.314 197.175 409.913 198.353C410.319 199.124 410.668 199.723 410.706 199.703C410.745 199.665 410.648 199.144 410.494 198.565C409.372 194.397 412.428 192.37 418.889 192.988C420.185 193.104 421.229 193.239 421.21 193.277C421.171 193.297 420.32 193.413 419.314 193.528C414.749 194.03 413.124 195.342 413.144 198.468V199.819L413.589 198.854C413.84 198.314 414.208 197.735 414.401 197.561C415.6 196.519 417.941 196.346 420.92 197.098C423.551 197.774 423.628 197.889 421.345 197.832C419.237 197.754 418.192 197.967 416.548 198.796C415.542 199.298 415.716 199.375 416.993 199.047C418.618 198.623 420.784 198.488 422.409 198.738C423.202 198.874 425.775 199.607 428.116 200.398C433.996 202.366 436.143 202.887 439.819 203.196C447.459 203.814 452.818 200.784 456.377 193.798C457.305 191.965 457.325 192.39 456.415 194.705C453.998 200.88 450.67 203.466 443.784 204.566L441.463 204.913L444.132 204.817C447.305 204.701 449.548 204.354 451.908 203.563C454.307 202.772 456.087 201.672 457.847 199.896C459.085 198.661 459.491 198.063 460.304 196.404C461.406 194.127 461.793 192.834 462.257 189.688L462.586 187.469L462.915 188.897C463.418 191.116 463.515 193.046 463.147 194.551C462.857 195.786 461.793 198.121 460.884 199.472C460.11 200.668 460.652 200.109 461.735 198.603C464.172 195.226 465.081 192.448 464.927 188.762C464.811 186.138 464.288 184.285 462.896 181.506L462.045 179.808L462.296 178.805C462.431 178.226 462.547 176.856 462.528 175.505C462.509 172.282 461.967 170.739 459.994 168.327L459.162 167.323L459.936 165.914C461.677 162.653 462.567 158.62 462.393 154.626C462.277 152.098 462.509 151.21 462.722 153.372C463.012 156.247 463.747 158.119 465.178 159.508L465.952 160.26L465.372 158.89C464.288 156.363 464.23 154.336 465.178 151.538L465.604 150.245L465.952 151.944C466.377 154.047 468.892 159.45 471.31 163.502C472.181 164.95 472.896 166.223 472.896 166.339C472.896 166.918 474.212 168.983 475.798 170.874C476.765 172.032 477.597 173.17 477.655 173.402C477.732 173.672 477.384 174.386 476.63 175.621C475.101 178.052 473.922 180.156 471.446 184.768C470.091 187.276 469.008 189.071 468.293 189.881C466.145 192.39 465.797 194.281 467.093 196.558C467.654 197.561 467.674 197.658 467.403 198.044C466.049 199.935 465.7 200.514 465.468 201.286C465.101 202.482 465.352 203.717 466.281 205.319C466.687 206.013 467.209 207.094 467.48 207.731C468.293 209.815 470.324 213.944 471.794 216.549C472.993 218.691 473.496 219.869 474.792 223.651C475.643 226.14 476.9 229.787 477.616 231.755C478.313 233.724 478.893 235.634 478.893 236.02C478.893 236.406 479.067 237.294 479.28 237.988C479.744 239.474 480.982 240.883 482.162 241.23L482.878 241.442L483.11 243.218C483.4 245.495 483.632 246.132 484.27 246.402C485.702 247 490.228 247.193 492.143 246.73L493.11 246.498L493.072 245.283C493.033 243.681 492.337 242.272 490.847 240.786C489.822 239.764 489.687 239.532 489.532 238.567C489.28 237.12 488.719 236.329 486.688 234.611C483.826 232.199 482.858 230.501 480.537 223.67C477.868 215.855 477.403 213.385 477.887 209.66L478.022 208.696L479.783 211.011C480.75 212.285 484.058 216.762 487.172 220.968C492.259 227.877 492.82 228.745 493.11 229.845C493.962 233.087 495.528 234.746 498.024 235.017L499.088 235.132L499.32 236.097C499.745 237.737 500.577 239.146 501.351 239.532C502.492 240.072 504.175 240.304 506.554 240.188C509.011 240.092 510.288 239.764 510.384 239.223C510.539 238.432 507.754 235.074 505.394 233.203C504.136 232.199 504.098 232.141 503.982 231.119C503.75 228.803 502.898 227.819 500.113 226.622C498.972 226.14 498.488 225.773 496.805 224.037C492.704 219.811 489.551 215.044 483.265 203.524L481.369 200.109L482.104 199.086C483.323 197.388 485.741 194.667 487.133 193.432C487.868 192.776 489.338 191.734 490.383 191.116C493.633 189.206 495.026 187.508 495.78 184.613C496.031 183.668 496.283 183.262 497.269 182.259C498.856 180.599 499.242 179.673 499.358 177.242L499.436 175.312L501.119 173.749C502.067 172.842 503.014 171.761 503.324 171.202C503.943 170.063 504.427 168.056 504.427 166.59C504.427 165.451 504.349 165.548 507.019 164.004C508.547 163.136 510.442 161.264 511.081 160.01C511.758 158.659 512.261 156.44 512.667 152.87L512.996 149.937H514.601C515.491 149.937 517.232 149.802 518.47 149.647C535.512 147.409 549.072 135.715 557.815 115.685L558.918 113.176L561.413 113.06C563.541 112.983 564.063 112.887 564.972 112.481C566.384 111.825 567.139 111.15 568.377 109.471C570.621 106.461 588.223 89.3445 589.075 89.3445C589.442 89.3445 593.891 93.7056 595.265 95.4037C595.961 96.2721 597.044 97.8158 597.663 98.8578C598.63 100.479 598.804 100.942 599.017 102.312C599.249 103.933 599.907 105.921 600.565 107.04C600.932 107.677 600.932 107.677 600.526 108.371C600.197 108.931 600.139 109.24 600.236 110.166C600.352 111.131 600.313 111.343 599.984 111.632C599.365 112.192 598.94 113.543 599.075 114.604C599.327 116.707 600.526 118.386 602.828 119.834C605.575 121.59 606.755 120.76 607.741 116.36C608.051 114.971 608.283 114.392 608.708 113.948C610.101 112.462 609.966 110.532 608.302 107.966C607.896 107.329 607.161 105.824 606.658 104.608C605.168 100.923 602.538 96.0212 599.443 91.1198C598.882 90.2514 598.456 89.5374 598.495 89.5374C598.514 89.5374 599.984 89.9234 601.725 90.3865C607.277 91.8724 609.037 92.7214 610.836 94.7862C612.171 96.3299 613.099 96.7545 614.763 96.5808L615.982 96.4457L616.098 97.9123C616.252 99.6876 616.601 100.595 617.336 101.038C618.051 101.521 618.109 101.598 618.245 102.698C618.438 104.049 619.077 105.67 619.734 106.422C621.127 107.985 626.195 109.027 628.033 108.101C629.329 107.464 629.29 106.056 627.82 102.737C626.389 99.4753 624.725 97.372 622.907 96.4843C621.746 95.9247 620.024 93.8021 619.831 92.7214C619.483 90.8689 618.477 89.4024 616.949 88.6498C616.427 88.3796 614.802 87.8393 613.351 87.4727C611.9 87.106 609.637 86.3535 608.302 85.8324C604.975 84.501 601.551 83.266 596.986 81.7222C593.253 80.4486 593.079 80.3714 592.228 79.4645C591.609 78.8084 591.28 78.2488 591.106 77.5734C590.757 76.2419 589.403 74.4859 587.856 73.3474C586.231 72.151 584.858 71.7071 583.349 71.8422C581.298 72.0159 579.906 73.0772 577.12 76.5506C575.824 78.1716 574.47 79.3294 570.35 82.3204C566.926 84.8097 564.682 86.8359 563.425 88.5533C562.941 89.2094 562.516 89.7304 562.458 89.7304C562.4 89.7304 562.187 89.3252 561.993 88.8235C561.529 87.7235 560.31 86.3535 559.343 85.871C558.763 85.5623 558.628 85.3693 558.512 84.7325C558.299 83.401 557.254 80.4486 556.19 78.2488C555.184 76.184 554.604 75.1613 551.161 69.5266C549.381 66.5935 549.033 65.9374 549.517 66.3233C549.671 66.4391 550.368 66.7285 551.064 66.9408C551.935 67.2303 552.534 67.5776 552.999 68.0407C553.734 68.8126 554.894 69.4687 555.494 69.4687C556.016 69.4687 556.964 68.9863 557.099 68.6389C557.157 68.4846 557.602 68.2916 558.086 68.2337C559.266 68.0407 561.123 66.7864 562.109 65.4935C563.115 64.1428 563.754 62.1359 564.005 59.415C564.121 58.2379 564.334 57.0222 564.489 56.7135C564.643 56.424 564.779 55.8065 564.779 55.3627C564.779 54.6294 564.663 54.4557 563.328 53.0856C561.742 51.4454 560.639 49.728 558.608 45.6564C556.829 42.1057 556.287 40.1953 556.094 36.9535C555.958 34.5607 555.919 34.3677 555.165 32.7853C554.739 31.8591 554.024 30.5855 553.579 29.9294L552.766 28.733L553.327 28.019C553.637 27.6331 554.12 26.8419 554.411 26.2823C554.759 25.6069 555.107 25.2017 555.455 25.0666C557.061 24.4877 558.57 23.0983 559.285 21.516C559.556 20.9371 559.885 20.4546 560.001 20.4546C560.891 20.4546 563.444 18.332 564.315 16.8461C564.643 16.2865 565.088 15.9006 565.707 15.6111C566.539 15.2059 568.976 13.006 569.634 12.0605C569.789 11.8482 570.427 11.3272 571.066 10.922C571.704 10.4975 572.923 9.51331 573.774 8.68355C574.625 7.87308 575.669 6.98541 576.095 6.71526C576.52 6.4451 577.43 5.73112 578.126 5.13292C578.822 4.53471 580.254 3.39619 581.318 2.56644C585.186 -0.385986 585.167 -0.482483 581.221 1.89104ZM548.395 61.6728C548.356 61.885 548.317 62.5797 548.298 63.2358C548.259 63.8919 548.182 64.3743 548.105 64.2971C547.931 64.1042 545.242 59.4922 545.242 59.3571C545.242 59.2992 545.957 59.7238 546.847 60.2834C548.008 61.036 548.414 61.4219 548.395 61.6728Z" fill="#CE1340"/>
</g>
<path d="M118.683 114.272V138.68C118.683 143.72 117.411 148.04 114.867 151.64C112.371 155.24 109.227 157.952 105.435 159.776C101.691 161.552 98.043 162.44 94.491 162.44C89.787 162.44 85.563 161.504 81.819 159.632C78.075 157.712 75.147 155.096 73.035 151.784C70.971 148.424 69.939 144.656 69.939 140.48V111.608L61.803 109.592L64.467 104.408H91.035V108.944L84.195 114.272V138.176C84.195 143.024 85.443 146.792 87.939 149.48C90.435 152.12 94.251 153.44 99.387 153.44C101.307 153.44 103.227 152.864 105.147 151.712C107.115 150.56 108.723 148.88 109.971 146.672C111.219 144.464 111.843 141.872 111.843 138.896V112.76L103.131 109.592L105.795 104.408H125.523V108.944L118.683 114.272ZM156.299 161H129.731V156.392L136.499 150.56V111.824L128.435 109.592L131.027 104.408H157.595V108.944L150.755 114.848V153.512L158.891 155.744L156.299 161Z" fill="#053751"/>
<path d="M166.926 171.368L161.022 170.072L180.03 92.888L186.006 94.112L166.926 171.368ZM243.136 114.272V138.68C243.136 143.72 241.864 148.04 239.32 151.64C236.824 155.24 233.68 157.952 229.888 159.776C226.144 161.552 222.496 162.44 218.944 162.44C214.24 162.44 210.016 161.504 206.272 159.632C202.528 157.712 199.6 155.096 197.488 151.784C195.424 148.424 194.392 144.656 194.392 140.48V111.608L186.256 109.592L188.92 104.408H215.488V108.944L208.648 114.272V138.176C208.648 143.024 209.896 146.792 212.392 149.48C214.888 152.12 218.704 153.44 223.84 153.44C225.76 153.44 227.68 152.864 229.6 151.712C231.568 150.56 233.176 148.88 234.424 146.672C235.672 144.464 236.296 141.872 236.296 138.896V112.76L227.584 109.592L230.248 104.408H249.976V108.944L243.136 114.272ZM312.072 161H286.152V156.392L291.768 152.864L280.608 139.832L269.304 151.28L277.584 155.744L274.992 161H251.376V156.392L260.304 150.272L275.928 134.504L257.064 112.832L251.52 109.592L254.112 104.408H280.104V108.944L274.128 112.184L285.432 125.36L295.584 114.2L287.16 109.592L289.752 104.408H313.44V108.944L305.16 114.632L290.184 130.76L309.768 153.296L314.736 155.744L312.072 161Z" fill="#CE1340"/>
<line x1="307" y1="107" x2="517" y2="107" stroke="#CE1340" stroke-width="2"/>
<line x1="297" y1="117" x2="517" y2="117" stroke="#CE1340" stroke-width="2"/>
<line x1="288" y1="127" x2="517" y2="127" stroke="#CE1340" stroke-width="2"/>
<line x1="288" y1="137" x2="517" y2="137" stroke="#CE1340" stroke-width="2"/>
<line x1="288" y1="147" x2="517" y2="147" stroke="#CE1340" stroke-width="2"/>
<line x1="288" y1="157" x2="507" y2="157" stroke="#CE1340" stroke-width="2"/>
<defs>
<clipPath id="clip0_729_959">
<rect width="224" height="247" fill="white" transform="translate(405)"/>
</clipPath>
</defs>
</svg>
