<svg width="845" height="495" viewBox="0 0 845 495" fill="none" xmlns="http://www.w3.org/2000/svg">
<path d="M422.891 224.521C485.161 224.521 535.216 174.177 535.216 112.304C535.289 50.2506 485.161 0.0507812 422.891 0.0507812C361.053 0.0507812 310.855 50.2506 310.855 112.304C310.855 174.251 361.055 224.521 422.891 224.521Z" fill="#CE1340" fill-opacity="0.05"/>
<path d="M512.99 242.81H333.082C300.916 242.81 274.57 272.301 274.57 308.477V489.181C274.57 491.168 275.582 492.939 275.691 495H570.273C570.49 492.941 571.322 491.17 571.322 489.181V308.477C571.43 272.301 545.083 242.81 512.99 242.81Z" fill="#CE1340" fill-opacity="0.05"/>
<path d="M725.029 278.081C775.011 278.081 815.091 237.857 815.091 188.163C815.091 138.469 775.011 98.1729 725.029 98.1729C675.407 98.1729 635.255 138.469 635.255 188.163C635.147 237.822 675.408 278.081 725.029 278.081Z" fill="#CE1340" fill-opacity="0.05"/>
<path d="M797.274 292.755H653.108C627.23 292.755 606.088 316.39 606.088 345.485V490.265C606.088 491.82 606.847 493.301 606.956 495H843.245C843.353 493.301 844.076 491.82 844.076 490.265V345.485C844.185 316.39 823.079 292.755 797.274 292.755Z" fill="#CE1340" fill-opacity="0.05"/>
<path d="M120.9 278.081C170.809 278.081 210.926 237.857 210.926 188.163C210.926 138.469 170.809 98.1729 120.9 98.1729C71.2425 98.1729 31.0903 138.469 31.0903 188.163C31.0903 237.857 71.2425 278.081 120.9 278.081Z" fill="#CE1340" fill-opacity="0.05"/>
<path d="M193.108 292.755H48.7979C22.9943 292.755 1.92383 316.39 1.92383 345.485V490.265C1.92383 491.82 2.68281 493.301 2.8269 495H239.116C239.225 493.301 239.912 491.82 239.912 490.265V345.485C239.984 316.39 218.876 292.755 193.108 292.755Z" fill="#CE1340" fill-opacity="0.05"/>
<ellipse cx="584.58" cy="132.744" rx="112.419" ry="112.744" fill="#CE1340"/>
<ellipse cx="350.944" cy="335.053" rx="125.128" ry="124.946" fill="#CE1340"/>
<ellipse cx="112.908" cy="138.601" rx="112.908" ry="112.744" fill="#CE1340"/>
<path d="M359.77 343.98C359.894 345.6 359.785 346.985 360.142 348.218C361.552 353.055 362.275 358.122 364.967 362.552C365.876 364.055 365.617 364.919 364.362 366.111C363.827 366.626 363.237 367.082 362.602 367.469C358.288 370.173 353.4 371.831 348.329 372.312C346.839 372.35 345.349 372.25 343.878 372.012C342.052 371.829 340.992 370.771 340.339 369.06C337.878 362.505 335.161 356.052 332.834 349.453C331.702 346.245 331.127 342.833 330.453 339.481C330.045 337.102 330.174 334.663 330.831 332.341C332.603 330.911 334.784 330.35 336.868 329.603C340.813 328.211 344.536 326.256 347.922 323.799C349.519 322.646 350.777 321.198 351.185 319.157C351.403 318.288 351.374 317.375 351.102 316.522C350.829 315.668 350.324 314.907 349.643 314.324C345.612 310.668 341.435 310.209 337.081 313.428C330.779 318.081 326.901 324.181 326.521 332.221C326.34 336.066 325.503 336.918 321.855 337.261C320.968 337.392 320.067 337.384 319.182 337.24C314.822 336.262 310.469 335.247 306.138 334.141C304.731 333.785 304.065 332.751 303.862 331.205C303.537 328.688 303.753 326.131 304.495 323.704C306.903 315.703 310.559 308.132 315.329 301.269C318.014 297.354 321.862 294.803 325.744 292.283C330.547 289.164 335.632 286.944 341.424 286.148C347.058 285.298 352.817 286.24 357.886 288.839C361.074 290.456 364.174 292.256 367.228 294.123C371.28 296.662 374.685 300.106 377.174 304.185C383.486 314.108 382.68 323.83 377.056 333.666C375.006 337.244 371.868 339.33 368.201 340.808C365.588 341.863 362.92 342.801 359.77 343.98ZM360.045 363.428C359.833 362.507 359.646 361.506 359.368 360.527C358.515 357.514 357.559 354.539 356.784 351.496C356.121 348.901 355.682 346.249 355.101 343.634C354.762 342.095 355.378 341.009 356.625 340.287C357.388 339.823 358.196 339.438 359.037 339.139C361.575 338.256 364.118 337.399 366.681 336.611C368.413 336.153 369.991 335.242 371.253 333.972C375.383 329.505 377.825 324.292 377.185 318.155C376.642 312.916 374.867 308.026 371.17 304C369.091 301.658 366.67 299.643 363.987 298.024C361.277 296.45 358.643 294.737 355.858 293.291C351.544 291.074 346.98 289.911 342.02 290.507C333.085 291.552 325.778 295.825 319.572 302.214C318.981 302.886 318.448 303.606 317.977 304.366C313.818 310.444 310.863 317.11 308.522 324.046C307.919 325.832 307.217 327.711 307.88 329.64C312.409 331.787 317.341 332.952 322.352 333.06L323.127 328.798C323.747 325.411 324.486 322.047 326.475 319.164C329.384 314.942 332.963 311.259 337.412 308.783C343.62 305.348 349.918 306.773 354.605 313.228C355.556 314.588 356.023 316.229 355.93 317.886C355.814 321.339 354.613 324.2 351.806 326.411C348.778 328.839 345.376 330.759 341.732 332.098C339.532 332.922 337.22 333.52 335.329 334.734C334.497 337.822 335.309 340.607 336.166 343.307C338.263 349.959 340.484 356.57 342.699 363.183C343.107 364.209 343.572 365.21 344.093 366.183C350.542 367.879 354.849 367.128 360.045 363.428Z" fill="#CE1340"/>
<path d="M367.035 403.589C364.262 404.747 361.195 405.004 358.268 404.323C355.34 403.642 352.702 402.058 350.727 399.796C349.487 398.498 348.592 396.91 348.125 395.177C347.009 390.413 347.24 385.828 349.454 381.278C351.492 377.077 354.612 375.059 359.179 374.588C362.184 374.28 365.09 373.947 367.97 375.158C372.227 376.941 375.226 379.773 376.089 384.488C376.225 385.22 376.423 385.94 376.564 386.67C378.123 394.751 374.764 400.707 367.035 403.589ZM366.389 399.216C367.318 398.71 368.206 398.131 369.043 397.484C372.316 394.72 373.636 388.072 371.7 384.309C371.318 383.683 370.858 383.109 370.33 382.6C366.52 378.378 361.735 378.375 356.755 379.717C355.759 380 354.885 380.604 354.269 381.436C352.129 384.625 351.066 388.283 351.801 392.019C353.021 398.204 359.779 401.834 366.389 399.216Z" fill="#CE1340"/>
<path d="M360.045 363.424C354.848 367.125 350.542 367.876 344.092 366.18C343.577 365.197 343.117 364.186 342.716 363.151C340.501 356.538 338.28 349.927 336.183 343.275C335.342 340.59 334.53 337.834 335.346 334.702C337.237 333.488 339.545 332.88 341.748 332.066C345.392 330.727 348.795 328.806 351.822 326.379C354.621 324.143 355.831 321.307 355.947 317.853C356.04 316.196 355.573 314.556 354.621 313.196C349.917 306.77 343.613 305.325 337.412 308.779C332.933 311.266 329.384 314.939 326.48 319.175C324.487 322.059 323.752 325.422 323.133 328.809L322.357 333.071C317.343 332.959 312.409 331.789 307.88 329.636C307.217 327.707 307.919 325.828 308.522 324.042C310.863 317.106 313.817 310.441 317.977 304.363C318.448 303.602 318.981 302.882 319.572 302.21C325.778 295.822 333.084 291.548 342.097 290.485C347.032 289.899 351.596 291.062 355.935 293.27C358.698 294.702 361.347 296.41 364.064 298.003C366.746 299.622 369.168 301.636 371.247 303.979C374.944 308.005 376.718 312.894 377.261 318.134C377.892 324.258 375.459 329.484 371.33 333.951C370.068 335.221 368.49 336.132 366.758 336.59C364.195 337.377 361.652 338.235 359.113 339.118C358.272 339.417 357.464 339.802 356.702 340.265C355.437 341.016 354.814 342.083 355.177 343.613C355.759 346.228 356.198 348.88 356.861 351.475C357.636 354.517 358.567 357.501 359.444 360.505C359.646 361.502 359.833 362.504 360.045 363.424Z" fill="white"/>
<path d="M366.389 399.215C359.783 401.843 353.025 398.213 351.804 392.027C351.068 388.288 352.129 384.624 354.269 381.435C354.879 380.596 355.75 379.983 356.746 379.692C361.726 378.349 366.496 378.358 370.321 382.575C370.849 383.084 371.309 383.658 371.691 384.284C373.627 388.047 372.307 394.695 369.034 397.458C368.2 398.113 367.316 398.701 366.389 399.215Z" fill="white"/>
<path fill-rule="evenodd" clip-rule="evenodd" d="M567.815 102.104C574.744 99.4944 582.357 98.9142 589.579 100.558C596.801 102.201 603.438 105.875 608.611 111.192C613.783 116.509 617.199 123.276 618.468 130.527C619.737 137.778 618.859 145.318 615.833 151.989C612.807 158.756 607.928 164.46 601.681 168.424C595.435 172.387 588.115 174.514 580.698 174.321C573.28 174.224 565.96 171.904 559.909 167.747C553.76 163.59 549.076 157.692 546.245 150.828C542.634 141.548 542.829 131.204 546.831 122.02C550.93 112.932 558.445 105.778 567.815 102.104Z" fill="#CE1340"/>
<path fill-rule="evenodd" clip-rule="evenodd" d="M566.849 98.7335C559.364 101.846 552.948 107.099 548.476 113.811C544.004 120.523 541.573 128.402 541.476 136.476C541.476 144.55 543.81 152.526 548.281 159.239C552.753 165.95 559.072 171.3 566.558 174.413C574.043 177.526 582.209 178.401 590.181 176.942C598.153 175.386 605.444 171.592 611.179 165.95C616.915 160.309 620.901 153.013 622.553 145.134C624.206 137.254 623.526 128.986 620.512 121.496C618.47 116.438 615.457 111.866 611.665 108.072C607.874 104.181 603.305 101.166 598.347 99.0256C593.389 96.8856 588.042 95.8156 582.598 95.8156C577.251 95.6208 571.904 96.6908 566.849 98.7335ZM569.28 104.959C575.599 102.527 582.501 102.041 589.014 103.5C595.625 104.959 601.555 108.364 606.221 113.325C610.888 118.188 613.998 124.414 615.165 131.029C616.332 137.643 615.554 144.55 612.832 150.678C610.11 156.904 605.638 162.156 599.999 165.756C594.361 169.452 587.653 171.3 580.946 171.203C574.238 171.106 567.627 168.966 562.086 165.172C556.544 161.379 552.267 155.931 549.739 149.705C548.087 145.523 547.309 140.951 547.406 136.476C547.504 131.904 548.476 127.43 550.323 123.344C552.17 119.161 554.795 115.465 558.003 112.255C561.211 109.045 565.1 106.613 569.28 104.959Z" fill="#CE1340"/>
<path d="M567.701 102.385C558.844 123.887 573.832 161.345 597.58 170.49" stroke="#CE1340" stroke-width="5" stroke-linecap="round" stroke-linejoin="round"/>
<path d="M567.877 102.385C597.567 114.472 603.817 153.054 598.739 171.039" stroke="#CE1340" stroke-width="5" stroke-linecap="round" stroke-linejoin="round"/>
<path d="M568.427 170.493C574.566 163.511 582.265 158.104 590.84 154.564C599.415 151.123 608.673 149.648 617.93 150.336" stroke="#CE1340" stroke-width="5" stroke-linecap="round" stroke-linejoin="round"/>
<path d="M595.379 102.938C586.404 114.944 567.87 122.497 549.726 121.528" stroke="#CE1340" stroke-width="5" stroke-linecap="round" stroke-linejoin="round"/>
<path d="M548.076 152.367C577.916 138.92 590.704 133.365 616.281 122.159" stroke="#CE1340" stroke-width="5" stroke-linecap="round" stroke-linejoin="round"/>
<path fill-rule="evenodd" clip-rule="evenodd" d="M545.485 190.911L519.474 129.126L556.241 77.1211L621.463 84.9655L647.082 147.623L604.742 192.461L545.485 191.105V190.911ZM549.103 185.779L525.635 129.9L558.881 83.0286L617.943 89.8077L641.118 146.557L602.884 187.135L549.103 185.779Z" fill="#CE1340"/>
<path fill-rule="evenodd" clip-rule="evenodd" d="M556.101 74.9248L551.927 84.6055L561.051 88.6557L565.128 78.975L556.101 74.9248Z" fill="#CE1340"/>
<path fill-rule="evenodd" clip-rule="evenodd" d="M568.427 77.2794L554.316 71.0771L548.076 85.7459L562.188 91.9481L568.427 77.2794ZM555.852 74.6215L551.724 84.2693L560.748 88.3058L564.78 78.6575L555.852 74.6215Z" fill="#CE1340"/>
<path fill-rule="evenodd" clip-rule="evenodd" d="M600.237 183.673L596.479 193.242L605.922 196.855L609.68 187.285L600.237 183.673Z" fill="#CE1340"/>
<path fill-rule="evenodd" clip-rule="evenodd" d="M612.98 185.795L598.782 180.377L593.179 194.731L607.378 200.149L612.98 185.795ZM600.23 183.799L596.463 193.115L605.929 196.632L609.696 187.316L600.23 183.799Z" fill="#CE1340"/>
<path fill-rule="evenodd" clip-rule="evenodd" d="M640.977 139.735L637.182 149.304L646.135 152.917L649.832 143.348L640.977 139.735Z" fill="#CE1340"/>
<path fill-rule="evenodd" clip-rule="evenodd" d="M653.133 141.966L639.087 136.441L633.332 150.689L647.378 156.214L653.133 141.966ZM640.648 139.931L636.844 149.429L645.818 153.015L649.524 143.517L640.648 139.931Z" fill="#CE1340"/>
<path fill-rule="evenodd" clip-rule="evenodd" d="M617.145 81.5146L613.53 91.0131L622.471 94.6963L626.181 85.1979L617.145 81.5146Z" fill="#CE1340"/>
<path fill-rule="evenodd" clip-rule="evenodd" d="M629.481 83.1954L615.351 77.6709L609.68 91.9189L623.522 97.4434L629.193 83.1954H629.481ZM617.177 81.16L613.525 90.6585L622.56 94.3418L626.309 84.8433L617.177 81.16Z" fill="#CE1340"/>
<path fill-rule="evenodd" clip-rule="evenodd" d="M544.674 182.025L540.925 191.455L549.828 195.207L553.576 185.778L544.674 182.025Z" fill="#CE1340"/>
<path fill-rule="evenodd" clip-rule="evenodd" d="M557.427 184.167L543.044 178.179L537.076 192.61L551.459 198.5L557.427 184.167ZM544.512 181.909L540.598 191.53L549.893 195.359L553.807 185.738L544.512 181.909Z" fill="#CE1340"/>
<path fill-rule="evenodd" clip-rule="evenodd" d="M519.609 123.805L515.624 133.234L525.389 136.986L529.374 127.557L519.609 123.805Z" fill="#CE1340"/>
<path fill-rule="evenodd" clip-rule="evenodd" d="M532.675 126.337L518.292 120.511L512.324 134.552L526.707 140.283L532.675 126.337ZM519.76 124.045L515.846 133.406L525.435 137.131L529.348 127.77L519.76 124.045Z" fill="#CE1340"/>
<path fill-rule="evenodd" clip-rule="evenodd" d="M571.319 95.0917C578.356 92.3734 586.077 91.7912 593.407 93.3442C600.737 94.9947 607.481 98.6834 612.758 104.12C618.036 109.556 621.457 116.352 622.825 123.73C624.193 131.107 623.216 138.68 620.186 145.572C617.157 152.465 612.172 158.289 605.819 162.27C599.467 166.347 592.039 168.385 584.513 168.288C576.988 168.191 569.658 165.764 563.403 161.493C557.246 157.221 552.457 151.203 549.622 144.213C547.765 139.553 546.886 134.602 546.983 129.651C547.081 124.7 548.156 119.749 550.209 115.187C552.261 110.624 555.096 106.45 558.711 103.052C562.426 99.5571 566.628 96.8392 571.319 95.0917Z" fill="white"/>
<path fill-rule="evenodd" clip-rule="evenodd" d="M570.296 91.7689C562.796 94.8825 556.367 100.137 551.789 106.851C547.211 113.564 544.776 121.543 544.776 129.619C544.776 137.792 547.114 145.673 551.594 152.484C556.075 159.295 562.504 164.55 570.004 167.76C577.504 170.971 585.784 171.847 593.771 170.29C601.758 168.733 609.161 164.939 614.908 159.198C620.752 153.554 624.746 146.257 626.401 138.278C628.057 130.3 627.376 122.029 624.356 114.537C622.31 109.477 619.291 104.904 615.492 101.012C611.693 97.1203 607.115 94.0067 602.05 91.9634C596.985 89.8228 591.628 88.7525 586.173 88.6553C580.719 88.7525 575.361 89.7256 570.296 91.7689ZM572.829 98.0933C579.16 95.661 586.076 95.1743 592.797 96.634C599.42 98.0933 605.46 101.499 610.135 106.461C614.81 111.423 617.928 117.553 619.194 124.267C620.363 130.981 619.583 137.889 616.856 144.116C614.128 150.344 609.648 155.598 603.901 159.295C598.154 162.993 591.531 164.841 584.712 164.744C577.894 164.647 571.27 162.506 565.718 158.614C560.166 154.722 555.783 149.273 553.25 143.046C549.938 134.484 550.133 124.948 553.835 116.483C557.341 108.018 564.257 101.401 572.829 98.0933Z" fill="#CE1340"/>
<path fill-rule="evenodd" clip-rule="evenodd" d="M569.034 94.3572C564.225 105.6 565.894 121.011 571.782 134.775C577.671 148.538 587.976 160.556 600.539 165.403C601.128 165.597 601.717 165.597 602.305 165.403C602.894 165.209 603.287 164.724 603.483 164.142C603.68 163.561 603.68 162.979 603.483 162.398C603.287 161.816 602.796 161.429 602.207 161.235C590.626 156.873 581.303 145.727 575.904 133.03C570.507 120.43 568.936 106.279 573.156 96.0051C573.353 95.4233 573.353 94.8416 573.156 94.3572C572.96 93.7755 572.469 93.3879 571.979 93.1942C571.39 93.0004 570.801 93.0004 570.212 93.1942C569.623 93.3879 569.231 93.7755 569.034 94.3572Z" fill="#CE1340"/>
<path fill-rule="evenodd" clip-rule="evenodd" d="M570.892 97.2206C577.423 100.131 583.272 104.4 587.951 109.736C592.631 115.072 596.14 121.378 598.187 128.266C602.281 139.617 603.061 151.939 600.429 163.775C600.331 164.066 600.331 164.357 600.331 164.648C600.331 164.939 600.429 165.23 600.624 165.521C600.819 165.812 601.014 166.006 601.209 166.2C601.404 166.395 601.696 166.492 601.989 166.589C602.573 166.686 603.158 166.686 603.646 166.395C604.133 166.103 604.523 165.618 604.718 165.036C607.545 152.327 606.765 139.132 602.379 126.908C600.136 119.438 596.335 112.646 591.266 106.825C586.099 101.004 579.763 96.3474 572.647 93.2428C572.354 93.1458 572.062 93.0488 571.77 93.0488C571.477 93.0488 571.185 93.1458 570.892 93.2428C570.6 93.3398 570.405 93.5337 570.21 93.7277C570.015 93.922 569.82 94.213 569.722 94.407C569.625 94.6979 569.527 94.9892 569.527 95.2802C569.527 95.5711 569.625 95.8621 569.722 96.1534C569.82 96.4443 570.015 96.6383 570.21 96.8323C570.308 96.9292 570.6 97.1236 570.892 97.2206Z" fill="#CE1340"/>
<path fill-rule="evenodd" clip-rule="evenodd" d="M573.407 165.131C579.325 158.556 586.6 153.335 594.846 150.047C603.091 146.76 611.919 145.309 620.747 145.986C621.329 145.986 621.814 145.793 622.202 145.406C622.59 145.019 622.881 144.536 622.881 143.955C622.881 143.375 622.784 142.892 622.493 142.408C622.202 141.925 621.717 141.635 621.135 141.538C611.628 140.861 602.025 142.408 593.197 145.986C584.369 149.564 576.415 155.172 570.109 162.231C569.916 162.424 569.721 162.714 569.624 163.004C569.527 163.294 569.527 163.585 569.527 163.875C569.527 164.165 569.624 164.455 569.721 164.745C569.818 165.035 570.013 165.228 570.303 165.422C570.692 165.808 571.274 166.098 571.855 166.098C572.438 166.098 573.02 165.905 573.407 165.422V165.131Z" fill="#CE1340"/>
<path fill-rule="evenodd" clip-rule="evenodd" d="M596.951 94.7548C588.388 106.333 570.483 113.728 553.162 112.657C552.578 112.657 551.994 112.852 551.605 113.241C551.216 113.63 550.924 114.214 550.827 114.798C550.827 115.382 551.021 115.966 551.41 116.355C551.8 116.744 552.384 117.036 552.967 117.133C571.943 118.106 591.21 110.128 600.551 97.4792C600.843 96.9925 600.941 96.4086 600.843 95.9223C600.746 95.3383 600.454 94.852 599.968 94.5602C599.481 94.2681 598.994 94.0735 598.411 94.1708C597.73 94.0735 597.243 94.3653 596.951 94.7548Z" fill="#CE1340"/>
<path fill-rule="evenodd" clip-rule="evenodd" d="M552.478 147.326C582.482 133.819 595.202 128.377 621.128 117.106C621.614 116.814 622.002 116.425 622.196 115.842C622.39 115.356 622.39 114.774 622.099 114.19C621.905 113.705 621.516 113.316 620.934 113.024C620.448 112.83 619.866 112.733 619.283 112.927C593.454 124.102 580.54 129.641 550.536 143.147C550.245 143.245 550.051 143.439 549.856 143.633C549.662 143.828 549.468 144.119 549.371 144.314C549.274 144.605 549.177 144.897 549.177 145.188C549.177 145.48 549.274 145.771 549.371 146.063C549.468 146.354 549.662 146.549 549.856 146.743C550.051 146.937 550.342 147.131 550.633 147.229C550.925 147.326 551.216 147.423 551.507 147.423C551.896 147.423 552.187 147.423 552.478 147.326Z" fill="#CE1340"/>
<path fill-rule="evenodd" clip-rule="evenodd" d="M549.223 185.155L523.325 123.213L559.933 71.0771L624.874 78.3586L650.383 141.174L608.031 186.417L549.029 185.155H549.223ZM552.729 179.912L529.361 123.893L562.465 76.9025L621.174 83.6013L644.249 140.495L606.181 181.271L552.729 179.912Z" fill="#CE1340"/>
<path fill-rule="evenodd" clip-rule="evenodd" d="M559.37 68.8828L555.227 78.1763L564.284 82.0645L568.427 72.771L559.37 68.8828Z" fill="white"/>
<path fill-rule="evenodd" clip-rule="evenodd" d="M572.277 71.0761L557.784 65.0371L551.376 79.3198L565.869 85.3589L572.277 71.0761ZM559.46 68.5836L555.221 77.978L564.488 81.9081L568.728 72.5138L559.46 68.5836Z" fill="#CE1340"/>
<path fill-rule="evenodd" clip-rule="evenodd" d="M604.018 177.631L600.33 186.801L609.842 190.263L613.53 181.093L604.018 177.631Z" fill="white"/>
<path fill-rule="evenodd" clip-rule="evenodd" d="M616.831 179.327L602.632 173.785L597.029 188.564L611.228 194.107L616.831 179.327ZM604.08 177.285L600.41 186.814L609.876 190.412L613.546 180.883L604.08 177.285Z" fill="#CE1340"/>
<path fill-rule="evenodd" clip-rule="evenodd" d="M644.827 133.691L641.032 143.26L649.985 146.873L653.683 137.304L644.827 133.691Z" fill="white"/>
<path fill-rule="evenodd" clip-rule="evenodd" d="M656.983 135.922L642.937 130.397L637.182 144.645L651.228 150.17L656.983 135.922ZM644.497 133.887L640.693 143.385L649.667 146.972L653.374 137.473L644.497 133.887Z" fill="#CE1340"/>
<path fill-rule="evenodd" clip-rule="evenodd" d="M621.05 74.9248L617.38 84.4938L626.265 88.1065L630.031 78.5374L621.05 74.9248Z" fill="white"/>
<path fill-rule="evenodd" clip-rule="evenodd" d="M633.331 77.1535L619.285 71.6289L613.53 85.8769L627.576 91.4014L633.331 77.1535ZM620.845 75.118L617.139 84.6165L626.113 88.203L629.917 78.7044L620.845 75.118Z" fill="#CE1340"/>
<path fill-rule="evenodd" clip-rule="evenodd" d="M548.24 175.434L544.226 185.256L554.062 189.165L557.976 179.342L548.24 175.434Z" fill="white"/>
<path fill-rule="evenodd" clip-rule="evenodd" d="M561.277 178.001L546.894 172.139L540.925 186.501L555.308 192.46L561.277 178.001ZM548.361 175.656L544.447 185.231L554.036 189.041L557.852 179.466L548.361 175.656Z" fill="#CE1340"/>
<path fill-rule="evenodd" clip-rule="evenodd" d="M523.46 117.763L519.474 127.124L529.239 130.944L533.225 121.583L523.46 117.763Z" fill="white"/>
<path fill-rule="evenodd" clip-rule="evenodd" d="M536.525 119.907L522.142 113.919L516.174 128.351L530.557 134.241L536.525 119.907ZM523.61 117.453L519.696 127.074L529.285 130.903L533.198 121.282L523.61 117.453Z" fill="#CE1340"/>
<path fill-rule="evenodd" clip-rule="evenodd" d="M124.045 147.137L152.358 135.408L165.496 163.928L135.574 176.079L124.045 147.137Z" fill="#CE1340"/>
<path fill-rule="evenodd" clip-rule="evenodd" d="M157.274 124.185L152.357 135.407L165.581 164.096L169.735 152.367L157.274 124.185Z" fill="#CE1340"/>
<path fill-rule="evenodd" clip-rule="evenodd" d="M127.69 145.785L152.358 135.406L157.274 123.847L130.573 134.731L127.69 145.785Z" fill="#CE1340" stroke="#CE1340" stroke-width="23.2338" stroke-linecap="round" stroke-linejoin="round"/>
<path fill-rule="evenodd" clip-rule="evenodd" d="M93.3594 190.844C96.8348 203.247 101.667 209.66 115.653 204.344L107.346 184.769L93.3594 190.844Z" fill="#CE1340"/>
<path fill-rule="evenodd" clip-rule="evenodd" d="M113.874 81.4902C111.415 81.9963 109.126 82.9248 107.007 84.1903L108.025 88.9997C106.244 90.35 104.718 92.0376 103.532 93.9782L98.7002 93.3874C97.5981 95.6658 96.9199 98.1128 96.5811 100.56L100.989 102.922C100.904 105.201 101.328 107.479 102.091 109.673L98.7002 113.132C99.7172 115.41 101.158 117.52 102.854 119.376L107.346 117.351C109.042 118.87 111.076 120.051 113.28 120.81L113.874 125.789C116.332 126.38 118.79 126.548 121.333 126.379L122.52 121.57C124.724 121.148 126.843 120.304 128.792 119.123L132.946 121.739C134.895 120.22 136.591 118.363 137.862 116.254L134.895 112.119C135.913 110.094 136.591 107.901 136.761 105.622L141.423 104.019C141.423 101.488 140.999 98.9566 140.151 96.5939L135.235 96.4252C134.302 94.3156 132.946 92.3749 131.335 90.7717L132.861 86.0466C130.912 84.4434 128.708 83.1778 126.334 82.2497L123.198 86.0466C120.994 85.4559 118.705 85.2872 116.416 85.5402L113.874 81.4902ZM113.874 91.6998C117.094 90.5187 120.57 90.6873 123.706 92.0376C126.843 93.3874 129.301 96.0032 130.488 99.1253C131.166 100.644 131.505 102.332 131.505 104.019C131.505 105.707 131.166 107.394 130.572 108.913C129.894 110.516 128.962 111.866 127.775 113.132C126.588 114.313 125.147 115.242 123.622 115.917C120.401 117.098 116.84 116.929 113.789 115.579C110.652 114.145 108.194 111.613 107.007 108.491C106.329 106.888 105.99 105.201 106.075 103.513C106.075 101.825 106.414 100.138 107.092 98.5346C107.77 96.9313 108.787 95.5814 109.974 94.3999C111.246 93.2187 112.687 92.2906 114.297 91.6998H113.874Z" fill="#CE1340"/>
<path fill-rule="evenodd" clip-rule="evenodd" d="M134.132 164.349C132.098 164.771 130.233 165.53 128.453 166.627L129.216 170.593C127.69 171.774 126.419 173.124 125.486 174.727L121.333 174.305C120.4 176.161 119.807 178.102 119.553 180.127L123.113 181.984C123.028 183.84 123.367 185.696 123.961 187.384L121.163 190.253C122.096 192.109 123.282 193.797 124.639 195.231L128.368 193.544C129.809 194.725 131.42 195.653 133.2 196.244L133.624 200.378C135.658 200.884 137.693 201.053 139.727 200.8L140.744 196.919C142.609 196.581 144.304 195.906 145.83 194.894L149.306 197.003C150.916 195.738 152.357 194.303 153.459 192.531L151.001 189.325C151.849 187.722 152.442 185.865 152.612 184.093L156.426 182.743C156.426 180.718 156.172 178.693 155.494 176.752H151.34C150.577 175.065 149.475 173.546 148.204 172.196L149.475 168.399C147.865 167.133 146.085 166.121 144.135 165.361L141.592 168.399C139.812 167.893 137.947 167.808 136.082 168.061L133.878 164.686L134.132 164.349ZM134.132 172.702C136.76 171.689 139.642 171.689 142.185 172.787C144.729 173.883 146.763 175.908 147.865 178.524C148.374 179.79 148.628 181.14 148.628 182.575C148.628 183.924 148.289 185.275 147.78 186.54C147.271 187.806 146.424 188.987 145.491 189.915C144.474 190.843 143.372 191.603 142.101 192.109C139.473 193.122 136.591 193.122 134.048 192.025C131.505 190.928 129.47 188.903 128.368 186.287C127.86 185.021 127.605 183.671 127.605 182.237C127.605 180.887 127.945 179.452 128.453 178.187C128.962 176.921 129.809 175.74 130.827 174.812C131.674 173.883 132.861 173.124 134.132 172.702Z" fill="#CE1340"/>
<path fill-rule="evenodd" clip-rule="evenodd" d="M89.46 166.795L89.714 110.515L119.298 110.178L132.437 123.425L132.013 165.867L89.46 166.795Z" fill="#CE1340"/>
<path fill-rule="evenodd" clip-rule="evenodd" d="M118.959 122.836V108.492L133.37 123.005L118.959 122.836Z" fill="#CE1340" stroke="#CE1340" stroke-width="23.2338" stroke-linecap="round" stroke-linejoin="round"/>
<path fill-rule="evenodd" clip-rule="evenodd" d="M72.5073 112.541C38.6005 124.945 42.3303 174.728 83.866 182.997C83.866 182.997 89.2913 190.169 92.5123 191.013C95.7336 191.856 103.024 188.06 103.024 188.06L72.5073 112.541Z" fill="#CE1340"/>
<path fill-rule="evenodd" clip-rule="evenodd" d="M128.708 140.136L157.02 128.407L170.158 156.927L140.236 169.077L128.708 140.136Z" fill="#F2F2F2"/>
<path fill-rule="evenodd" clip-rule="evenodd" d="M128.03 138.531C127.606 138.7 127.267 139.037 127.097 139.544C126.928 139.966 126.928 140.472 127.097 140.894L138.626 169.92C138.711 170.173 138.795 170.342 138.965 170.51C139.134 170.679 139.304 170.848 139.558 170.932C139.812 171.017 139.982 171.101 140.236 171.101C140.49 171.101 140.745 171.017 140.915 170.932L170.837 158.782C171.261 158.613 171.6 158.276 171.854 157.854C172.024 157.432 172.024 156.926 171.854 156.42L158.715 127.899C158.546 127.478 158.207 127.14 157.783 126.971C157.359 126.803 156.85 126.803 156.427 126.971L128.03 138.7V138.531ZM130.997 141.062L156.003 130.599L167.701 155.913L141.169 166.713L130.912 140.978L130.997 141.062Z" fill="#CE1340"/>
<path fill-rule="evenodd" clip-rule="evenodd" d="M161.852 117.183L157.02 128.405L170.243 157.094L174.397 145.365L161.852 117.183Z" fill="white"/>
<path fill-rule="evenodd" clip-rule="evenodd" d="M163.546 116.341C163.377 116.003 163.207 115.75 162.868 115.581C162.614 115.412 162.275 115.328 161.936 115.328C161.597 115.328 161.258 115.412 160.919 115.581C160.664 115.75 160.41 116.088 160.24 116.341L155.409 127.563C155.324 127.816 155.239 128.069 155.239 128.322C155.239 128.576 155.324 128.829 155.409 129.082L168.632 157.77C168.802 158.108 169.056 158.361 169.31 158.53C169.565 158.699 169.904 158.783 170.328 158.783C170.667 158.783 171.006 158.614 171.345 158.446C171.599 158.277 171.854 157.939 172.023 157.602L176.431 145.873C176.516 145.62 176.6 145.451 176.6 145.198C176.6 144.945 176.516 144.692 176.431 144.523L163.546 116.341ZM161.936 121.488L172.701 145.367L170.073 152.455L158.969 128.322L161.936 121.488Z" fill="#CE1340"/>
<path fill-rule="evenodd" clip-rule="evenodd" d="M132.353 138.782L157.02 128.404L161.851 116.844L135.235 127.728L132.353 138.782Z" fill="#F2F2F2"/>
<path fill-rule="evenodd" clip-rule="evenodd" d="M130.827 138.276C130.742 138.614 130.742 138.951 130.827 139.204C130.912 139.542 131.081 139.795 131.335 140.048C131.59 140.301 131.929 140.386 132.183 140.47C132.522 140.554 132.861 140.47 133.116 140.386L157.783 130.007C157.952 129.923 158.207 129.754 158.376 129.67C158.546 129.585 158.63 129.332 158.715 129.079L163.631 117.519C163.801 117.181 163.801 116.844 163.716 116.507C163.631 116.169 163.462 115.832 163.208 115.578C162.953 115.325 162.614 115.156 162.275 115.072C161.936 114.988 161.597 115.072 161.258 115.156L134.641 126.041C134.387 126.126 134.133 126.294 133.963 126.463C133.794 126.632 133.624 126.885 133.539 127.138L130.827 138.276ZM135.235 135.745L137.015 128.995L158.885 120.051L156.003 127.054L135.15 135.745H135.235Z" fill="#CE1340"/>
<path fill-rule="evenodd" clip-rule="evenodd" d="M100.734 186.878C103.786 197.931 108.194 203.416 120.4 198.775L113.195 181.478L100.734 186.878Z" fill="#F2F2F2"/>
<path fill-rule="evenodd" clip-rule="evenodd" d="M115.145 176.247L96.0723 184.516L97.0048 187.723C99.2936 195.823 102.515 201.223 107.685 203.248C112.347 204.683 117.433 204.345 121.841 202.235L125.571 200.801L115.145 176.247ZM100.735 186.879C103.786 197.932 108.194 203.417 120.4 198.776L113.195 181.479L100.735 186.879Z" fill="#CE1340"/>
<path fill-rule="evenodd" clip-rule="evenodd" d="M117.179 75.4971C114.721 76.0031 112.432 76.9313 110.313 78.1972L111.33 83.0909C109.55 84.4411 108.024 86.1287 106.837 88.0694L102.006 87.4786C100.904 89.757 100.226 92.1193 99.8867 94.6507L104.295 97.0134C104.21 99.2915 104.634 101.654 105.481 103.763L102.006 107.307C103.108 109.586 104.464 111.695 106.159 113.551L110.652 111.611C112.432 113.13 114.382 114.226 116.586 114.986L117.179 119.964C119.637 120.555 122.096 120.724 124.638 120.555L125.825 115.745C128.029 115.323 130.149 114.48 132.098 113.298L136.252 115.914C138.201 114.395 139.897 112.539 141.168 110.43L138.201 106.295C139.218 104.27 139.897 102.076 140.066 99.7979L144.728 98.1946C144.728 95.6632 144.305 93.1318 143.457 90.7695L138.54 90.6008C137.608 88.4911 136.252 86.5505 134.641 84.9472L136.167 80.2221C134.217 78.6189 132.013 77.3534 129.64 76.4252L126.504 80.2221C124.3 79.6314 122.011 79.4627 119.807 79.7157L117.094 75.5814L117.179 75.4971ZM117.179 85.7067C120.4 84.5255 123.876 84.6942 127.012 86.0441C130.149 87.3943 132.607 90.01 133.793 93.1318C134.472 94.6507 134.811 96.3383 134.811 98.0259C134.811 99.7135 134.472 101.401 133.878 102.92C133.2 104.523 132.268 105.873 131.081 107.139C129.894 108.32 128.453 109.248 126.927 109.923C123.706 111.105 120.231 110.936 117.094 109.586C113.958 108.236 111.5 105.62 110.313 102.498C109.635 100.979 109.296 99.2915 109.296 97.6039C109.296 95.9166 109.635 94.229 110.228 92.6258C110.906 91.0225 111.839 89.6726 113.025 88.4068C114.127 87.3099 115.569 86.2974 117.179 85.7067Z" fill="white"/>
<path fill-rule="evenodd" clip-rule="evenodd" d="M120.485 73.3897L119.044 71.1113L116.416 71.7021C113.534 72.2929 110.821 73.3897 108.278 74.9083L105.905 76.3428L107.007 81.6587C106.244 82.4181 105.566 83.1776 104.888 84.0214L99.5472 83.4306L98.3606 85.8776C97.0891 88.4934 96.3262 91.2778 95.987 94.1466L95.7329 96.7624L100.48 99.2937C100.565 100.391 100.734 101.487 100.988 102.585L97.2584 106.382L98.4454 108.744C99.7168 111.444 101.412 113.891 103.447 116.001L105.311 117.941L109.974 116.085C110.906 116.676 111.838 117.266 112.856 117.773L113.534 123.088L116.077 123.679C118.959 124.438 121.926 124.607 124.808 124.354L127.605 124.101L128.876 118.869C129.894 118.532 130.826 118.194 131.759 117.773L136.336 120.641L138.54 118.954C140.829 117.098 142.778 114.904 144.389 112.457L145.83 110.178L142.609 105.791C143.033 104.778 143.287 103.766 143.541 102.669L148.543 100.897V98.1969C148.543 95.2434 148.034 92.2903 147.101 89.5059L146.254 86.9745L140.914 86.8058C140.32 85.8776 139.727 84.9495 138.964 84.0214L140.659 78.9586L138.625 77.271C136.336 75.4147 133.793 73.8958 130.996 72.7989L128.453 71.7864L125.062 75.9211C123.96 75.7521 122.943 75.6677 121.841 75.6677L120.4 73.3053L120.485 73.3897ZM117.179 75.499C114.721 76.0054 112.432 76.9336 110.313 78.1991L111.33 83.0932C109.55 84.4431 108.024 86.1307 106.837 88.0713L102.006 87.4809C100.903 89.7589 100.225 92.1216 99.8864 94.653L104.294 97.0154C104.21 99.2938 104.633 101.656 105.481 103.766L102.006 107.31C103.107 109.588 104.464 111.697 106.159 113.554L110.652 111.613C112.432 113.132 114.382 114.229 116.586 114.988L117.179 119.966C119.637 120.557 122.095 120.726 124.638 120.557L125.825 115.747C128.029 115.326 130.148 114.482 132.098 113.301L136.251 115.916C138.201 114.397 139.896 112.541 141.168 110.432L138.201 106.297C139.218 104.272 139.896 102.078 140.066 99.8002L144.728 98.1969C144.728 95.6655 144.304 93.1341 143.456 90.7714L138.54 90.6027C137.608 88.4934 136.251 86.5528 134.641 84.9495L136.166 80.2241C134.217 78.6212 132.013 77.3553 129.639 76.4272L126.503 80.2241C124.299 79.6337 122.011 79.465 119.807 79.718L117.094 75.5834L117.179 75.499ZM117.179 85.709C120.4 84.5274 123.875 84.6965 127.012 86.0463C130.148 87.3966 132.606 90.012 133.793 93.1341C134.471 94.653 134.81 96.3406 134.81 98.0282C134.81 99.7155 134.471 101.403 133.878 102.922C133.2 104.525 132.267 105.875 131.08 107.141C129.894 108.322 128.453 109.25 126.927 109.925C123.706 111.107 120.23 110.938 117.094 109.588C113.958 108.238 111.5 105.622 110.313 102.5C109.634 100.981 109.296 99.2938 109.296 97.6062C109.296 95.9186 109.634 94.231 110.228 92.6277C110.906 91.0248 111.838 89.6746 113.025 88.409C114.127 87.3119 115.568 86.2994 117.179 85.709ZM118.62 89.2528C120.909 88.409 123.367 88.4934 125.571 89.5059C127.775 90.5184 129.47 92.2903 130.318 94.5687C130.826 95.6655 131.08 96.8467 131.08 98.0282C131.08 99.2094 130.911 100.391 130.402 101.487C129.979 102.585 129.301 103.597 128.453 104.441C127.605 105.285 126.588 105.959 125.486 106.382C123.197 107.225 120.739 107.141 118.535 106.128C116.331 105.116 114.636 103.344 113.788 101.066C113.364 99.9689 113.11 98.7873 113.025 97.6062C113.025 96.425 113.279 95.2435 113.703 94.1466C114.127 93.0498 114.805 92.0373 115.653 91.1935C116.501 90.434 117.518 89.7589 118.62 89.2528Z" fill="#CE1340"/>
<path fill-rule="evenodd" clip-rule="evenodd" d="M138.286 158.694C136.252 159.116 134.302 159.876 132.607 160.972L133.37 164.938C131.844 166.035 130.573 167.47 129.64 169.073L125.487 168.651C124.639 170.507 124.046 172.448 123.792 174.473L127.352 176.329C127.267 178.186 127.606 180.042 128.199 181.73L125.402 184.514C126.25 186.37 127.437 188.058 128.878 189.493L132.522 187.889C133.963 189.07 135.574 189.999 137.354 190.589L137.863 194.724C139.812 195.23 141.931 195.314 143.966 195.146L144.983 191.264C146.848 190.927 148.543 190.252 150.154 189.239L153.544 191.349C155.155 190.083 156.596 188.564 157.698 186.877L155.325 183.67C156.172 181.983 156.681 180.211 156.935 178.439L160.75 177.089C160.75 175.064 160.411 173.039 159.817 171.098H155.664C154.901 169.41 153.799 167.891 152.527 166.542L153.799 162.744C152.188 161.479 150.408 160.466 148.458 159.707L145.916 162.744C144.135 162.238 142.271 162.154 140.406 162.323L138.202 158.947L138.286 158.694ZM138.286 167.048C140.914 166.035 143.796 166.035 146.339 167.216C148.882 168.314 150.917 170.423 151.934 172.954C152.443 174.22 152.697 175.57 152.697 177.004C152.697 178.354 152.443 179.704 151.849 180.97C151.341 182.236 150.493 183.417 149.561 184.345C148.543 185.274 147.441 186.033 146.085 186.539C143.457 187.552 140.575 187.552 138.032 186.37C135.489 185.274 133.455 183.164 132.438 180.633C131.929 179.367 131.675 178.017 131.675 176.582C131.675 175.232 131.929 173.798 132.522 172.532C133.031 171.267 133.879 170.085 134.896 169.157C135.913 168.229 137.1 167.47 138.286 167.048Z" fill="white"/>
<path fill-rule="evenodd" clip-rule="evenodd" d="M141.592 156.589L140.151 154.311L137.524 154.817C135.15 155.408 132.946 156.336 130.827 157.517L128.454 158.952L129.301 163.339C128.878 163.761 128.454 164.267 128.03 164.774L123.537 164.352L122.35 166.714C121.248 168.908 120.485 171.271 120.231 173.802L119.892 176.502L124.046 178.612C124.13 179.287 124.215 179.877 124.3 180.552L121.164 183.674L122.35 186.121C123.367 188.4 124.809 190.425 126.504 192.196L128.369 194.137L132.522 192.281C133.031 192.619 133.624 192.956 134.218 193.293L134.726 197.681L137.354 198.356C139.727 198.947 142.271 199.116 144.729 198.863L147.441 198.609L148.543 194.475L150.408 193.8L154.223 196.162L156.427 194.475C158.376 192.956 160.072 191.1 161.428 189.075L162.869 186.796L160.156 183.252C160.411 182.662 160.58 182.071 160.665 181.396L164.819 179.877V177.177C164.819 174.73 164.48 172.283 163.632 169.921L162.784 167.389H158.292L157.19 165.786L158.631 161.652L156.511 159.964C154.562 158.445 152.358 157.18 150.069 156.336L147.526 155.408L144.644 158.783H142.609L141.677 157.264L141.592 156.589ZM138.286 158.698C136.252 159.12 134.302 159.88 132.607 160.977L133.37 164.942C131.844 166.039 130.573 167.474 129.64 169.077L125.487 168.655C124.639 170.511 124.046 172.452 123.792 174.477L127.352 176.333C127.267 178.19 127.606 180.046 128.199 181.734L125.402 184.518C126.25 186.375 127.437 188.062 128.878 189.496L132.522 187.893C133.963 189.075 135.574 190.003 137.354 190.593L137.863 194.728C139.812 195.234 141.931 195.319 143.966 195.15L144.983 191.268C146.848 190.931 148.543 190.256 150.154 189.243L153.545 191.353C155.155 190.087 156.596 188.568 157.698 186.881L155.325 183.674C156.172 181.987 156.681 180.215 156.935 178.443L160.75 177.093C160.75 175.068 160.411 173.043 159.817 171.102H155.664C154.901 169.414 153.799 167.896 152.527 166.545L153.799 162.749C152.188 161.483 150.408 160.47 148.458 159.711L145.916 162.749C144.135 162.242 142.271 162.158 140.406 162.326L138.202 158.952L138.286 158.698ZM138.286 166.968C140.914 165.955 143.796 165.955 146.339 167.136C148.882 168.233 150.917 170.342 151.934 172.874C152.443 174.14 152.697 175.49 152.697 176.924C152.697 178.274 152.443 179.624 151.849 180.89C151.341 182.156 150.493 183.337 149.561 184.265C148.543 185.193 147.441 185.953 146.085 186.459C143.457 187.471 140.575 187.471 138.032 186.29C135.489 185.193 133.455 183.084 132.438 180.552C131.929 179.287 131.675 177.937 131.675 176.502C131.675 175.152 131.929 173.718 132.522 172.452C133.031 171.186 133.879 170.005 134.896 169.077C135.913 168.149 137.1 167.389 138.286 166.968ZM139.727 170.596C141.338 169.921 143.203 170.005 144.813 170.68C146.424 171.355 147.696 172.705 148.374 174.308C148.713 175.068 148.882 175.996 148.882 176.84C148.882 177.684 148.713 178.527 148.374 179.371C148.035 180.131 147.526 180.89 146.933 181.48C146.339 182.071 145.576 182.577 144.729 182.831C143.118 183.505 141.253 183.421 139.643 182.746C138.032 182.071 136.761 180.721 136.083 179.118C135.744 178.359 135.574 177.43 135.574 176.587C135.574 175.743 135.744 174.899 136.083 174.055C136.422 173.296 136.93 172.536 137.524 171.946C138.202 171.44 138.964 170.933 139.727 170.596Z" fill="#CE1340"/>
<path fill-rule="evenodd" clip-rule="evenodd" d="M94.1226 159.71L94.2922 103.346L123.876 103.008L137.015 116.255L136.591 158.698L94.1226 159.71Z" fill="#F2F2F2"/>
<path fill-rule="evenodd" clip-rule="evenodd" d="M90.7316 99.8827L90.4775 163.335L140.066 162.154L140.49 114.818L125.317 99.4609L90.7316 99.8827ZM94.0377 159.707L94.2918 103.342L123.876 103.005L137.014 116.252L136.591 158.695L94.0377 159.707Z" fill="#CE1340"/>
<path fill-rule="evenodd" clip-rule="evenodd" d="M121.757 115.749C121.757 116.002 121.757 116.171 121.842 116.424C121.926 116.677 122.096 116.846 122.181 117.015C122.35 117.184 122.52 117.352 122.774 117.437C123.029 117.521 123.198 117.605 123.452 117.605L137.947 117.858C138.286 117.858 138.626 117.774 138.965 117.605C139.304 117.437 139.473 117.099 139.643 116.846C139.812 116.508 139.812 116.171 139.727 115.833C139.643 115.496 139.473 115.158 139.219 114.905L124.809 100.308C124.554 100.055 124.215 99.8859 123.876 99.8015C123.537 99.7172 123.198 99.8015 122.859 99.8859C122.52 100.055 122.266 100.223 122.096 100.561C121.926 100.814 121.757 101.152 121.757 101.573V115.749ZM125.402 113.977V105.708L133.709 113.977H125.402Z" fill="#CE1340"/>
<path fill-rule="evenodd" clip-rule="evenodd" d="M79.9668 104.61C46.06 117.014 49.7898 166.797 91.3255 175.066C91.3255 175.066 96.7508 182.238 99.9717 183.082C103.193 183.926 110.483 180.129 110.483 180.129L79.9668 104.441V104.61Z" fill="white"/>
<path fill-rule="evenodd" clip-rule="evenodd" d="M117.942 183.08L83.2727 97.0986L77.8475 99.1236C72.677 100.98 67.9298 103.849 63.8611 107.562C59.7924 111.274 56.5711 115.746 54.3671 120.809C52.1632 125.787 50.9766 131.187 50.8918 136.672C50.807 142.157 51.9091 147.557 54.0283 152.62C56.9103 159.707 61.4875 165.951 67.4213 170.845C73.3551 175.739 80.3907 179.114 87.9347 180.633C89.3758 182.405 90.9864 184.093 92.6819 185.612C94.2925 187.13 96.2421 188.312 98.3612 188.987C100.565 189.408 102.854 189.324 105.058 188.733C107.855 187.89 110.568 186.877 113.195 185.612L117.942 183.08ZM79.9666 104.608C46.0601 117.012 49.7896 166.795 91.3257 175.064C91.3257 175.064 96.7506 182.236 99.9719 183.08C103.193 183.924 110.483 180.127 110.483 180.127L79.9666 104.439V104.608Z" fill="#CE1340"/>
</svg>
