<svg width="81" height="95" viewBox="0 0 81 95" fill="none" xmlns="http://www.w3.org/2000/svg">
<path d="M42.1268 7.93527C42.5548 8.3637 42.8013 8.95798 42.8013 9.56378C42.8013 10.1696 42.555 10.7639 42.1268 11.1923C41.699 11.6207 41.1053 11.8672 40.5001 11.8672C39.8949 11.8672 39.3012 11.6207 38.8732 11.1923C38.4452 10.7639 38.199 10.1696 38.199 9.56378C38.199 8.95798 38.445 8.3637 38.8732 7.93527C39.3012 7.50683 39.8949 7.26037 40.5001 7.26037C41.1053 7.26037 41.6988 7.50683 42.1268 7.93527ZM81 31.6404V92.7956C81 94.0678 79.9449 95 78.6742 95H2.32577C1.05507 95 0 94.0678 0 92.7956V31.6404C0 30.3682 1.05507 29.3527 2.32577 29.3527H30.8353V23.1334H28.9594C27.6887 23.1334 26.6583 22.1022 26.6583 20.83C26.6583 19.5578 27.6887 18.5266 28.9594 18.5266H30.8353V9.71097C30.8353 4.35622 35.1502 0 40.5001 0C45.85 0 50.1649 4.35645 50.1649 9.71097V18.5264H52.0408C53.3115 18.5264 54.342 19.5576 54.342 20.8298C54.342 22.102 53.3115 23.1332 52.0408 23.1332H50.1649V29.3524H78.6745C79.9449 29.3524 81 30.3682 81 31.6404ZM35.4374 18.5264H45.5624V9.71097C45.5624 6.89643 43.3121 4.60683 40.4999 4.60683C37.6877 4.60683 35.4374 6.89666 35.4374 9.71097V18.5264ZM35.4374 29.3524H45.5624V23.1332H35.4374V29.3524ZM76.3977 33.9593H47.9011H33.0987H4.60206V90.3929H76.3977V33.9593ZM18.9018 57.7872C17.4606 56.2895 15.7785 53.542 15.9497 48.9577C16.1674 43.1365 20.9213 40.3215 25.2463 40.1695C25.2997 40.1677 25.3542 40.1677 25.4076 40.1695C29.7321 40.3215 34.4856 43.1365 34.7033 48.9575C34.8745 53.542 33.1924 56.2895 31.7512 57.7872C30.0398 59.5652 27.7582 60.5444 25.3264 60.5444C22.8945 60.5444 20.6129 59.5652 18.9018 57.7872ZM22.2164 54.591C23.0519 55.4593 24.1567 55.9375 25.3266 55.9375C26.4965 55.9375 27.6013 55.4593 28.4368 54.591C29.6155 53.3662 30.1921 51.4777 30.1045 49.1298C29.9903 46.0748 27.4786 44.8795 25.3271 44.7768C23.175 44.8795 20.6629 46.0748 20.5487 49.1298C20.4611 51.4779 21.0377 53.3662 22.2164 54.591ZM38.2386 81.291C38.363 81.9638 38.1822 82.6339 37.745 83.16C37.3077 83.6861 36.6593 83.9436 35.9758 83.9436H14.6772C14.0669 83.9436 13.4817 83.748 13.05 83.3159C12.6185 82.884 12.376 82.345 12.376 81.7342C12.376 81.5225 12.376 81.5225 14.1776 71.7871C15.2336 66.0776 20.5379 63.522 25.3261 63.522C30.1144 63.522 35.4187 66.0776 36.4756 71.7871L38.2386 81.291ZM33.2094 79.3365L31.9504 72.5673C31.3754 69.4606 28.209 68.1051 25.3264 68.1051C22.4437 68.1051 19.2778 69.4722 18.7032 72.5788C18.7032 72.579 17.965 76.5724 17.4438 79.3365H33.2094ZM57.825 75.4207H48.7891C47.5184 75.4207 46.4879 76.452 46.4879 77.7242C46.4879 78.9963 47.5184 80.0276 48.7891 80.0276H57.825C59.0956 80.0276 60.1261 78.9963 60.1261 77.7242C60.1261 76.452 59.0959 75.4207 57.825 75.4207ZM46.4882 69.4319C46.4882 70.704 47.5186 71.7353 48.7893 71.7353H65.6323C66.903 71.7353 67.9334 70.704 67.9334 69.4319C67.9334 68.1597 66.903 67.1284 65.6323 67.1284H48.7893C47.5184 67.1284 46.4882 68.1597 46.4882 69.4319ZM53.7738 49.2832C53.7738 45.7295 56.6622 42.8385 60.2124 42.8385C63.7626 42.8385 66.6508 45.7297 66.6508 49.2832C66.6508 52.8369 63.7626 55.7281 60.2124 55.7281C56.6622 55.7281 53.7738 52.8369 53.7738 49.2832ZM58.3761 49.2832C58.3761 50.2967 59.1999 51.1213 60.2124 51.1213C61.2247 51.1213 62.0485 50.2967 62.0485 49.2832C62.0485 48.2697 61.2249 47.4453 60.2124 47.4453C59.1999 47.4453 58.3761 48.2697 58.3761 49.2832Z" fill="#CE1340"/>
</svg>
