<svg width="150" height="150" viewBox="0 0 150 150" fill="none" xmlns="http://www.w3.org/2000/svg">
<rect width="150" height="150" fill="#ED2555"/>
<path d="M110.428 88.2404C105.246 107.582 85.3649 119.061 66.0223 113.878C46.6798 108.695 35.2018 88.8142 40.3844 69.4722C45.5671 50.1301 65.448 38.6515 84.7905 43.8343C104.133 49.0171 115.611 68.8983 110.428 88.2404Z" fill="#CE1340" stroke="#053751" stroke-width="2"/>
<path d="M83.7687 66.1908L84.7347 66.4496L84.9935 65.4837L86.4417 60.0791C86.9844 58.0534 86.7026 56.1307 85.5858 54.3838C84.4873 52.6118 82.8534 51.445 80.7522 50.882C78.6807 50.327 76.7106 50.5342 74.9071 51.5388C73.1102 52.5397 71.9259 54.0594 71.3934 56.0469C71.1245 57.0502 70.97 58.0315 70.9331 58.9888L70.9323 59.0103L70.9324 59.0319C70.9374 60.0996 71.22 61.0805 71.7969 61.9422L71.8154 61.9698L71.8356 61.9961C72.5354 62.9046 73.6714 63.4853 75.0439 63.853L83.7687 66.1908ZM72.4785 93.5113L72.4789 93.5112C74.1706 93.1046 75.4798 92.2525 76.0859 90.8128L76.5309 89.7557L75.4231 89.4588L70.5953 88.1653C65.7843 86.7176 61.6906 84.4288 58.295 81.3066L58.2926 81.3044C54.9389 78.2407 52.5992 74.5067 51.267 70.0833C49.9551 65.6617 50.0055 60.7232 51.4759 55.2355C53.1332 49.0505 55.3549 44.2468 58.1039 40.77C60.9383 37.2159 63.9905 34.6719 67.2488 33.0922L67.2488 33.0922L67.2554 33.089C70.5787 31.4474 73.8471 30.5717 77.0655 30.4367L77.0655 30.4367L77.0762 30.4362C80.3812 30.2618 83.2988 30.5252 85.8417 31.2066C93.6293 33.2932 99.5191 37.9997 103.544 45.3893C107.209 52.7561 107.879 60.845 105.503 69.7122L99.8627 90.7638C98.4511 95.882 96.527 100.038 94.1133 103.263L94.1132 103.263L94.1059 103.273C91.6843 106.595 89.0524 109.2 86.2174 111.11L86.2101 111.115C83.3577 113.074 80.5909 114.608 77.9097 115.727C76.3987 116.268 74.3599 116.732 71.7708 117.105L71.7612 117.106L71.7516 117.108C69.2732 117.514 65.8066 117.493 61.3074 117.004L61.304 117.004C57.4246 116.596 52.4837 115.594 46.4662 113.981L41.2962 112.596L47.6271 88.9689L53.4731 90.5354C58.1053 91.7766 61.9981 92.6786 65.1468 93.2371C68.2821 93.7935 70.7613 93.9231 72.4785 93.5113Z" fill="white" stroke="#053751" stroke-width="2"/>
</svg>
