<svg xmlns="http://www.w3.org/2000/svg" width="128" height="55" viewBox="0 0 128 55" fill="none"><path d="M122.242 34.8748C119.551 44.9178 109.228 50.8779 99.1846 48.1868C89.1413 45.4957 83.1816 35.1728 85.8726 25.1298C88.5636 15.0868 98.8864 9.12675 108.93 11.8178C118.973 14.5089 124.933 24.8318 122.242 34.8748Z" fill="#CE1340" stroke="#053751" stroke-width="2"></path><mask id="path-2-inside-1_381_2" fill="white"><path d="M104.003 21.7106L108.534 22.9245L109.286 20.1182C109.531 19.2023 109.404 18.3538 108.903 17.5721C108.408 16.7709 107.673 16.2398 106.699 15.9787C105.744 15.7229 104.861 15.8205 104.051 16.2718C103.24 16.7231 102.715 17.397 102.475 18.2933C102.345 18.7806 102.271 19.2517 102.253 19.7065C102.256 20.1665 102.376 20.5747 102.615 20.9311C102.878 21.2732 103.341 21.533 104.003 21.7106ZM92.8032 35.5649C95.2005 36.2072 97.206 36.6716 98.8208 36.958C100.437 37.2447 101.634 37.2942 102.416 37.1067C103.197 36.9191 103.702 36.5533 103.932 36.009L101.417 35.3353C98.847 34.5631 96.6483 33.3369 94.8211 31.6568C93.0092 30.0016 91.7441 27.9813 91.0258 25.5958C90.3119 23.1904 90.347 20.5264 91.1303 17.6033C92.0023 14.3488 93.1811 11.7824 94.6666 9.90385C96.1761 8.01081 97.8193 6.63392 99.595 5.77297C101.377 4.89278 103.144 4.41609 104.897 4.34257C106.655 4.24982 108.226 4.38884 109.61 4.75956C113.8 5.88223 116.973 8.42426 119.128 12.3853C121.097 16.3383 121.45 20.6728 120.186 25.3888L117.257 36.3212C116.511 39.0247 115.488 41.2465 114.186 42.9863C112.9 44.7511 111.491 46.1491 109.961 47.1801C108.451 48.2168 106.979 49.0337 105.545 49.6311C104.713 49.9301 103.613 50.1789 102.243 50.3759C100.889 50.5978 99.035 50.5817 96.6806 50.3261C94.6285 50.1103 92.0339 49.5826 88.8962 48.7419L85.7102 47.8882L89.2662 34.6172L92.8032 35.5649Z"></path></mask><path d="M104.003 21.7106L108.534 22.9245L109.286 20.1182C109.531 19.2023 109.404 18.3538 108.903 17.5721C108.408 16.7709 107.673 16.2398 106.699 15.9787C105.744 15.7229 104.861 15.8205 104.051 16.2718C103.24 16.7231 102.715 17.397 102.475 18.2933C102.345 18.7806 102.271 19.2517 102.253 19.7065C102.256 20.1665 102.376 20.5747 102.615 20.9311C102.878 21.2732 103.341 21.533 104.003 21.7106ZM92.8032 35.5649C95.2005 36.2072 97.206 36.6716 98.8208 36.958C100.437 37.2447 101.634 37.2942 102.416 37.1067C103.197 36.9191 103.702 36.5533 103.932 36.009L101.417 35.3353C98.847 34.5631 96.6483 33.3369 94.8211 31.6568C93.0092 30.0016 91.7441 27.9813 91.0258 25.5958C90.3119 23.1904 90.347 20.5264 91.1303 17.6033C92.0023 14.3488 93.1811 11.7824 94.6666 9.90385C96.1761 8.01081 97.8193 6.63392 99.595 5.77297C101.377 4.89278 103.144 4.41609 104.897 4.34257C106.655 4.24982 108.226 4.38884 109.61 4.75956C113.8 5.88223 116.973 8.42426 119.128 12.3853C121.097 16.3383 121.45 20.6728 120.186 25.3888L117.257 36.3212C116.511 39.0247 115.488 41.2465 114.186 42.9863C112.9 44.7511 111.491 46.1491 109.961 47.1801C108.451 48.2168 106.979 49.0337 105.545 49.6311C104.713 49.9301 103.613 50.1789 102.243 50.3759C100.889 50.5978 99.035 50.5817 96.6806 50.3261C94.6285 50.1103 92.0339 49.5826 88.8962 48.7419L85.7102 47.8882L89.2662 34.6172L92.8032 35.5649Z" fill="white" stroke="#053751" stroke-width="4" mask="url(#path-2-inside-1_381_2)"></path><path d="M1.56392 39.4255V16.3273H8.95301V39.4255H1.56392ZM20.0655 39.5855C19.0182 39.5855 17.9273 39.4885 16.7928 39.2945C15.6679 39.1006 14.6546 38.8873 13.7528 38.6545C12.8607 38.4218 12.2158 38.2424 11.8182 38.1164L11.1491 37.9127L11.3382 37.2436L13.3019 30.1891L14.0001 30.4073C14.5916 30.5915 15.5128 30.8291 16.7637 31.12C18.0146 31.4109 19.1152 31.5564 20.0655 31.5564H20.1528L14.7419 23.6L20.9673 19.5127L22.4801 21.7818C23.4885 23.3042 24.7734 25.2291 26.3346 27.5564C26.4219 27.663 26.4995 27.7794 26.5673 27.9055C26.6643 28.0606 26.8291 28.3079 27.0619 28.6473C27.2946 28.9867 27.5613 29.3503 27.8619 29.7382C28.0073 29.9224 28.1382 30.0824 28.2546 30.2182C28.497 30.5479 28.691 30.7952 28.8364 30.96C28.9819 31.1152 29.1079 31.217 29.2146 31.2655C29.331 31.3139 29.4813 31.3382 29.6655 31.3382H30.2619V39.4255H28.851C27.4643 39.3867 26.1455 38.9261 24.8946 38.0436C24.6328 38.2376 24.3516 38.417 24.051 38.5818C22.8291 39.2509 21.5007 39.5855 20.0655 39.5855ZM43.6469 39.4255C42.1729 39.4255 40.8202 39.0909 39.5887 38.4218C39.259 38.5867 38.9245 38.7321 38.5851 38.8582C37.5281 39.2364 36.3451 39.4255 35.036 39.4255H29.8287V31.3382H35.8941V26.7564H43.2687V31.3382H45.3632V39.4255H43.6469ZM33.7269 46.6836L30.5414 43.4836L33.7269 40.2982L36.9269 43.4836L33.7269 46.6836ZM40.5487 46.6836L37.3632 43.4836L40.5487 40.2982L43.7487 43.4836L40.5487 46.6836ZM44.9224 39.4255V31.3382H48.7479C48.7382 31.3382 48.6897 31.1055 48.6024 30.64C48.5152 30.1745 48.4134 29.6412 48.297 29.04C48.1806 28.4388 48.0788 27.9055 47.9915 27.44L47.8461 26.7418L54.9879 24.5745L55.1479 25.4036C55.2449 25.9661 55.3661 26.6448 55.5115 27.44C55.6667 28.2352 55.8121 29.0158 55.9479 29.7818C56.103 30.577 56.1806 31.3139 56.1806 31.9927C56.1806 32.3612 56.1564 32.7103 56.1079 33.04C56.04 33.6509 55.8897 34.3055 55.657 35.0036C55.4243 35.7018 55.1043 36.3079 54.697 36.8218C53.8146 37.8885 52.8158 38.6158 51.7006 39.0036H51.6715C50.7697 39.2848 49.7273 39.4255 48.5443 39.4255H44.9224ZM49.5188 47.0618L46.1297 43.6727L49.5188 40.2691L52.9224 43.6727L49.5188 47.0618ZM65.4423 32.1091H67.6969V30.7127C67.6969 30.257 67.532 29.8739 67.2023 29.5636C66.8726 29.263 66.4654 29.1127 65.9805 29.1127C65.5054 29.1127 65.1078 29.2679 64.7878 29.5782C64.4678 29.8885 64.3078 30.2667 64.3078 30.7127C64.3078 30.9552 64.332 31.183 64.3805 31.3964C64.4387 31.6097 64.5454 31.7794 64.7005 31.9055C64.8654 32.0412 65.1126 32.1091 65.4423 32.1091ZM65.9369 22.8291C68.206 22.8291 70.1648 23.6873 71.8132 25.4036V25.4182H71.8278C73.3502 27.1539 74.1114 29.2824 74.1114 31.8036V37.2436C74.1017 38.6788 73.8884 39.9248 73.4714 40.9818C73.0641 42.0291 72.5454 42.9164 71.9151 43.6436C71.3041 44.3515 70.6835 44.9479 70.0532 45.4327L70.0241 45.4618C69.646 45.7236 69.132 46 68.4823 46.2909C67.8229 46.5818 66.8969 46.8194 65.7041 47.0036C64.686 47.1685 63.3866 47.2509 61.806 47.2509H59.4932V39.2218H60.5551C61.2629 39.2121 62.0823 39.2073 63.0132 39.2073C63.9441 39.2073 64.749 39.2073 65.4278 39.2073H67.7696C67.789 39.2073 67.8181 39.1927 67.8569 39.1636C67.8957 39.1442 67.9151 39.1103 67.9151 39.0618C67.9151 39.0133 67.8957 38.9745 67.8569 38.9455C67.8181 38.9261 67.789 38.9164 67.7696 38.9164C66.9551 38.9164 66.1114 38.8776 65.2387 38.8C64.366 38.7224 63.5223 38.5576 62.7078 38.3055C61.9029 38.063 61.1805 37.6848 60.5405 37.1709C59.9005 36.6473 59.3866 35.9539 58.9987 35.0909C58.6205 34.2182 58.4314 33.1224 58.4314 31.8036C58.4314 30.1067 58.669 28.6861 59.1441 27.5418C59.629 26.3879 60.2496 25.4667 61.006 24.7782C61.7623 24.08 62.5769 23.5806 63.4496 23.28C64.3223 22.9794 65.1514 22.8291 65.9369 22.8291Z" fill="#053751"></path></svg>